<?xml version="1.0" encoding="utf-8"?>
<!-- Generator: Adobe Illustrator 16.0.0, SVG Export Plug-In . SVG Version: 6.00 Build 0)  -->
<!DOCTYPE svg PUBLIC "-//W3C//DTD SVG 1.1//EN" "http://www.w3.org/Graphics/SVG/1.1/DTD/svg11.dtd">
<svg version="1.1"
	 id="svg2" xmlns:dc="http://purl.org/dc/elements/1.1/" xmlns:cc="http://web.resource.org/cc/" xmlns:rdf="http://www.w3.org/1999/02/22-rdf-syntax-ns#" xmlns:svg="http://www.w3.org/2000/svg" xmlns:sodipodi="http://inkscape.sourceforge.net/DTD/sodipodi-0.dtd" xmlns:inkscape="http://www.inkscape.org/namespaces/inkscape" sodipodi:docbase="/home/nicu/Desktop/card_nicu_buculei_01.zip_FILES/cards/white" sodipodi:docname="white_c_2.svg" inkscape:version="0.41+cvs" sodipodi:version="0.32"
	 xmlns="http://www.w3.org/2000/svg" xmlns:xlink="http://www.w3.org/1999/xlink" x="0px" y="0px" width="140px" height="190px"
	 viewBox="0 0 140 190" enable-background="new 0 0 140 190" xml:space="preserve">
<sodipodi:namedview  inkscape:cx="70.000000" inkscape:cy="94.999969" inkscape:zoom="1.0000000" borderopacity="1.0" bordercolor="#666666" pagecolor="#ffffff" id="base" inkscape:window-x="0" inkscape:pageshadow="2" inkscape:pageopacity="0.0" inkscape:window-height="791" inkscape:current-layer="layer1" inkscape:window-y="26" inkscape:window-width="1152">
	</sodipodi:namedview>
<g id="layer1" transform="translate(175.5055,96.07025)" inkscape:label="Layer 1" inkscape:groupmode="layer">
	<g id="g2218" transform="translate(-175.5055,-96.07025)">
		<path id="path2220" fill-opacity="0.498" d="M21,5h103c8.864,0,16,7.136,16,16v153c0,8.864-7.136,16-16,16H21
			c-8.864,0-16-7.136-16-16V21C5,12.136,12.136,5,21,5z"/>
		<path id="path2222" fill="#E7E7E7" d="M17,1h103c8.864,0,16,7.136,16,16v153c0,8.864-7.136,16-16,16H17c-8.864,0-16-7.136-16-16
			V17C1,8.136,8.136,1,17,1z"/>
		<path id="path2224" fill="#C7891F" d="M19,3h103c8.864,0,16,7.136,16,16v153c0,8.864-7.136,16-16,16H19c-8.864,0-16-7.136-16-16
			V19C3,10.136,10.136,3,19,3z"/>
		<path id="path2226" fill="#FFFFFF" d="M18,2h103c8.864,0,16,7.136,16,16v153c0,8.864-7.136,16-16,16H18c-8.864,0-16-7.136-16-16
			V18C2,9.136,9.136,2,18,2z"/>
	</g>
	<g id="g5495" transform="translate(-448.5000,-231.5000)" inkscape:label="Layer 1" inkscape:groupmode="layer">
	</g>
</g>
<path id="path908" sodipodi:nodetypes="cscsssccccccssscsc" d="M20.527,48.67c-2.667,0-4.83,3.264-4.83,7.286
	c0,3.427,4.392,9.192,4.222,11.93c-1.41,0.782-5.767-6.438-8.019-6.438c-2.667,0-4.83,3.264-4.83,7.286s2.164,7.286,4.83,7.286
	c2.313,0,6.275-7.214,8.019-6.563L16.99,82.33l7.023-0.042c0,0-3.077-12.481-3.081-12.776h0.056v0.014
	c1.707-0.64,5.806,6.632,8.102,6.632c2.666,0,4.83-3.264,4.83-7.286c0-4.022-2.164-7.286-4.83-7.286
	c-2.243,0-6.308,7.101-8.093,6.368c0.025-2.805,4.359-8.576,4.359-11.999C25.357,51.934,23.194,48.67,20.527,48.67z"/>
<path id="path2688" sodipodi:nodetypes="cscsssccccccssscsc" d="M117.418,139.96c2.666,0,4.83-3.264,4.83-7.286
	c0-3.426-4.393-9.191-4.222-11.93c1.411-0.781,5.768,6.438,8.019,6.438c2.667,0,4.83-3.263,4.83-7.285
	c0-4.021-2.163-7.285-4.83-7.285c-2.313,0-6.275,7.214-8.019,6.563l2.929-12.874l-7.023,0.042c0,0,3.077,12.48,3.081,12.776h-0.056
	v-0.015c-1.707,0.641-5.806-6.632-8.102-6.632c-2.666,0-4.83,3.264-4.83,7.286c0,4.021,2.164,7.285,4.83,7.285
	c2.242,0,6.308-7.1,8.093-6.367c-0.025,2.805-4.36,8.576-4.36,11.998C112.588,136.696,114.752,139.96,117.418,139.96z"/>
<path id="path2250" sodipodi:nodetypes="cscsssccccccssscsc" d="M68.839,50.22c-1.553,0-2.813,1.918-2.813,4.282
	c0,2.014,2.559,5.401,2.459,7.01c-0.821,0.46-3.359-3.783-4.671-3.783C62.26,57.729,61,59.646,61,62.01
	c0,2.363,1.26,4.281,2.813,4.281c1.347,0,3.655-4.239,4.671-3.856L66.778,70l4.091-0.024c0,0-1.792-7.334-1.794-7.508h0.032v0.008
	c0.994-0.376,3.382,3.897,4.719,3.897c1.554,0,2.814-1.918,2.814-4.281c0-2.364-1.261-4.281-2.814-4.281
	c-1.306,0-3.674,4.172-4.713,3.742c0.015-1.649,2.54-5.04,2.54-7.051C71.652,52.138,70.392,50.22,68.839,50.22z"/>
<path id="path2262" sodipodi:nodetypes="cscsssccccccssscsc" d="M68.801,137c1.553,0,2.814-1.918,2.814-4.281
	c0-2.014-2.559-5.401-2.459-7.01c0.821-0.461,3.36,3.782,4.67,3.782c1.554,0,2.814-1.918,2.814-4.281
	c0-2.364-1.261-4.281-2.814-4.281c-1.347,0-3.655,4.239-4.67,3.856l1.706-7.565l-4.091,0.024c0,0,1.792,7.335,1.794,7.508h-0.032
	v-0.008c-0.995,0.376-3.382-3.897-4.719-3.897c-1.553,0-2.813,1.918-2.813,4.282c0,2.363,1.26,4.281,2.813,4.281
	c1.306,0,3.674-4.174,4.714-3.742c-0.015,1.648-2.54,5.039-2.54,7.051C65.988,135.082,67.248,137,68.801,137z"/>
<path id="text2035" d="M18.801,36.312h10.915v5.687H11.69v-5.687l9.054-9.665c0.809-0.884,1.407-1.748,1.794-2.592
	c0.388-0.844,0.582-1.721,0.582-2.632c0-1.406-0.393-2.538-1.18-3.396c-0.775-0.857-1.811-1.286-3.106-1.286
	c-0.997,0-2.088,0.261-3.273,0.784c-1.185,0.509-2.453,1.273-3.805,2.291v-6.59c1.44-0.576,2.863-1.011,4.27-1.306
	c1.406-0.308,2.785-0.462,4.137-0.462c2.968,0,5.271,0.791,6.911,2.371c1.65,1.581,2.476,3.785,2.476,6.611
	c0,1.634-0.349,3.162-1.046,4.582c-0.698,1.406-2.166,3.295-4.403,5.666L18.801,36.312"/>
<path id="text2062" d="M120.12,152.444h-10.915v-5.687h18.025v5.687l-9.055,9.665c-0.809,0.885-1.406,1.748-1.794,2.592
	s-0.581,1.722-0.581,2.633c0,1.406,0.393,2.538,1.18,3.396c0.775,0.857,1.811,1.286,3.106,1.286c0.997,0,2.087-0.262,3.272-0.783
	c1.186-0.51,2.453-1.273,3.805-2.291v6.59c-1.439,0.576-2.863,1.012-4.27,1.307c-1.406,0.309-2.785,0.462-4.137,0.463
	c-2.969-0.001-5.271-0.791-6.911-2.371c-1.65-1.582-2.476-3.785-2.476-6.611c0-1.635,0.35-3.162,1.047-4.582
	c0.697-1.406,2.165-3.295,4.402-5.666L120.12,152.444"/>
<path fill="none" stroke="#000000" stroke-miterlimit="10" d="M133.5,171.57c0,6.762-5.623,12.244-12.56,12.244H16.798
	c-6.936,0-12.56-5.482-12.56-12.244V17.244C4.238,10.482,9.862,5,16.798,5H120.94c6.937,0,12.56,5.482,12.56,12.244V171.57z"/>
</svg>
