<?xml version="1.0" encoding="utf-8"?>
<!-- Generator: Adobe Illustrator 16.0.0, SVG Export Plug-In . SVG Version: 6.00 Build 0)  -->
<!DOCTYPE svg PUBLIC "-//W3C//DTD SVG 1.1//EN" "http://www.w3.org/Graphics/SVG/1.1/DTD/svg11.dtd">
<svg version="1.1"
	 id="svg2" xmlns:dc="http://purl.org/dc/elements/1.1/" xmlns:cc="http://web.resource.org/cc/" xmlns:rdf="http://www.w3.org/1999/02/22-rdf-syntax-ns#" xmlns:svg="http://www.w3.org/2000/svg" xmlns:sodipodi="http://inkscape.sourceforge.net/DTD/sodipodi-0.dtd" xmlns:inkscape="http://www.inkscape.org/namespaces/inkscape" sodipodi:docbase="/home/nicu/Desktop/card_nicu_buculei_01.zip_FILES/cards/white" sodipodi:docname="white_c_3.svg" inkscape:version="0.41+cvs" sodipodi:version="0.32"
	 xmlns="http://www.w3.org/2000/svg" xmlns:xlink="http://www.w3.org/1999/xlink" x="0px" y="0px" width="140px" height="190px"
	 viewBox="0 0 140 190" enable-background="new 0 0 140 190" xml:space="preserve">
<sodipodi:namedview  inkscape:cx="70.000000" inkscape:cy="94.999969" inkscape:zoom="1.0000000" borderopacity="1.0" bordercolor="#666666" pagecolor="#ffffff" id="base" inkscape:window-x="0" inkscape:pageshadow="2" inkscape:pageopacity="0.0" inkscape:window-height="791" inkscape:current-layer="layer1" inkscape:window-y="26" inkscape:window-width="1152">
	</sodipodi:namedview>
<g id="layer1" inkscape:label="Layer 1" inkscape:groupmode="layer">
	<g id="g5630">
		<path id="rect2070" fill-opacity="0.498" d="M21,5h103c8.864,0,16,7.136,16,16v153c0,8.864-7.136,16-16,16H21
			c-8.864,0-16-7.136-16-16V21C5,12.136,12.136,5,21,5z"/>
		<path id="rect1300" fill="#E7E7E7" d="M17,1h103c8.864,0,16,7.136,16,16v153c0,8.864-7.136,16-16,16H17c-8.864,0-16-7.136-16-16
			V17C1,8.136,8.136,1,17,1z"/>
		<path id="path5624" fill="#C7891F" d="M19,3h103c8.864,0,16,7.136,16,16v153c0,8.864-7.136,16-16,16H19c-8.864,0-16-7.136-16-16
			V19C3,10.136,10.136,3,19,3z"/>
		<path id="rect1306" fill="#FFFFFF" d="M18,2h103c8.864,0,16,7.136,16,16v153c0,8.864-7.136,16-16,16H18c-8.864,0-16-7.136-16-16
			V18C2,9.136,9.136,2,18,2z"/>
	</g>
	<g id="g5495" transform="translate(-448.5000,-231.5000)" inkscape:label="Layer 1" inkscape:groupmode="layer">
	</g>
</g>
<path id="path2250" sodipodi:nodetypes="cscsssccccccssscsc" d="M69.839,45c-1.553,0-2.813,1.918-2.813,4.281
	c0,2.014,2.559,5.401,2.459,7.01c-0.821,0.46-3.359-3.783-4.671-3.783C63.26,52.509,62,54.427,62,56.79
	c0,2.364,1.26,4.281,2.813,4.281c1.347,0,3.655-4.239,4.671-3.856l-1.706,7.565l4.091-0.025c0,0-1.792-7.334-1.794-7.508h0.032
	v0.008c0.994-0.376,3.382,3.897,4.719,3.897c1.554,0,2.814-1.918,2.814-4.282c0-2.363-1.261-4.281-2.814-4.281
	c-1.306,0-3.674,4.173-4.713,3.742c0.015-1.648,2.54-5.04,2.54-7.051C72.652,46.918,71.393,45,69.839,45z"/>
<path id="path2254" sodipodi:nodetypes="cscsssccccccssscsc" d="M70.199,86.22c-1.553,0-2.813,1.918-2.813,4.282
	c0,2.014,2.559,5.401,2.459,7.01c-0.821,0.46-3.359-3.783-4.671-3.783c-1.553,0-2.813,1.918-2.813,4.281s1.26,4.281,2.813,4.281
	c1.347,0,3.656-4.238,4.671-3.855L68.138,106l4.091-0.024c0,0-1.792-7.335-1.794-7.508h0.032v0.008
	c0.995-0.376,3.382,3.897,4.719,3.897c1.554,0,2.813-1.918,2.813-4.281s-1.26-4.281-2.813-4.281c-1.306,0-3.675,4.172-4.714,3.742
	c0.015-1.648,2.539-5.04,2.539-7.051C73.012,88.138,71.752,86.22,70.199,86.22z"/>
<path id="path2262" sodipodi:nodetypes="cscsssccccccssscsc" d="M69.161,143c1.554,0,2.813-1.918,2.813-4.281
	c0-2.014-2.559-5.401-2.459-7.01c0.821-0.461,3.359,3.782,4.671,3.782c1.554,0,2.813-1.918,2.813-4.281
	c0-2.364-1.26-4.281-2.813-4.281c-1.347,0-3.655,4.239-4.671,3.856l1.706-7.565l-4.091,0.024c0,0,1.792,7.335,1.794,7.508h-0.032
	v-0.008c-0.994,0.376-3.382-3.897-4.719-3.897c-1.553,0-2.813,1.918-2.813,4.282c0,2.363,1.26,4.281,2.813,4.281
	c1.306,0,3.674-4.174,4.714-3.742c-0.015,1.648-2.54,5.039-2.54,7.051C66.348,141.082,67.608,143,69.161,143z"/>
<g id="g2352" transform="translate(333.5000,184.5000)">
</g>
<path id="path908" sodipodi:nodetypes="cscsssccccccssscsc" d="M20.527,48.665c-2.667,0-4.83,3.264-4.83,7.286
	c0,3.427,4.392,9.192,4.222,11.93c-1.41,0.782-5.767-6.438-8.019-6.438c-2.667,0-4.83,3.263-4.83,7.286
	c0,4.022,2.164,7.286,4.83,7.286c2.313,0,6.275-7.214,8.019-6.563L16.99,82.325l7.023-0.042c0,0-3.077-12.481-3.081-12.776h0.056
	v0.014c1.707-0.64,5.806,6.632,8.102,6.632c2.666,0,4.83-3.264,4.83-7.286c0-4.022-2.164-7.285-4.83-7.285
	c-2.243,0-6.308,7.1-8.093,6.368c0.025-2.805,4.359-8.576,4.359-11.999C25.357,51.929,23.194,48.665,20.527,48.665z"/>
<path id="path1794" sodipodi:nodetypes="cscsssccccccssscsc" d="M117.418,139.963c2.666,0,4.83-3.264,4.83-7.286
	c0-3.427-4.393-9.191-4.222-11.93c1.411-0.782,5.768,6.438,8.019,6.438c2.667,0,4.83-3.263,4.83-7.286
	c0-4.021-2.163-7.285-4.83-7.285c-2.313,0-6.275,7.215-8.019,6.563l2.929-12.873l-7.023,0.041c0,0,3.077,12.481,3.081,12.777h-0.056
	v-0.015c-1.707,0.64-5.806-6.632-8.102-6.632c-2.666,0-4.83,3.264-4.83,7.285c0,4.022,2.164,7.286,4.83,7.286
	c2.242,0,6.308-7.101,8.093-6.368c-0.025,2.806-4.36,8.576-4.36,11.999C112.588,136.699,114.752,139.963,117.418,139.963z"/>
<path id="text2221" d="M24.607,26.063c1.672,0.522,2.94,1.434,3.805,2.733c0.875,1.286,1.313,2.927,1.313,4.923
	c0,2.974-0.941,5.238-2.824,6.792c-1.883,1.541-4.63,2.311-8.24,2.311c-1.274,0-2.553-0.127-3.838-0.382
	c-1.273-0.241-2.536-0.609-3.788-1.105v-5.968c1.196,0.723,2.381,1.272,3.555,1.647c1.185,0.362,2.348,0.542,3.489,0.542
	c1.694,0,2.99-0.355,3.887-1.065c0.908-0.71,1.362-1.728,1.362-3.054c0-1.366-0.465-2.398-1.396-3.094
	c-0.919-0.71-2.281-1.065-4.086-1.065h-2.559v-4.983h2.691c1.606,0,2.802-0.301,3.588-0.904c0.786-0.616,1.18-1.547,1.18-2.793
	c0-1.152-0.382-2.042-1.146-2.672c-0.764-0.629-1.844-0.944-3.24-0.944c-1.03,0-2.071,0.141-3.123,0.422s-2.099,0.697-3.14,1.246
	v-5.667c1.263-0.429,2.514-0.75,3.755-0.965c1.24-0.214,2.458-0.321,3.655-0.321c3.223,0,5.632,0.643,7.227,1.929
	c1.606,1.272,2.409,3.195,2.409,5.767c0,1.755-0.382,3.195-1.146,4.32C27.232,24.824,26.103,25.607,24.607,26.063"/>
<path id="text1806" d="M114.072,162.934c-1.672-0.523-2.94-1.434-3.805-2.733c-0.875-1.286-1.313-2.927-1.313-4.923
	c0-2.974,0.941-5.238,2.824-6.791c1.883-1.541,4.63-2.312,8.24-2.312c1.273,0,2.553,0.128,3.838,0.382
	c1.273,0.241,2.537,0.609,3.788,1.105v5.968c-1.196-0.724-2.382-1.272-3.556-1.647c-1.185-0.362-2.348-0.543-3.488-0.543
	c-1.695,0-2.99,0.355-3.888,1.064c-0.908,0.711-1.362,1.729-1.362,3.055c0,1.366,0.465,2.398,1.396,3.095
	c0.919,0.71,2.282,1.065,4.087,1.065h2.559v4.982h-2.691c-1.605,0-2.803,0.302-3.588,0.904c-0.787,0.616-1.18,1.547-1.18,2.793
	c0,1.152,0.382,2.043,1.146,2.672c0.764,0.631,1.844,0.945,3.238,0.945c1.031,0,2.072-0.141,3.124-0.422s2.099-0.697,3.14-1.246
	v5.666c-1.263,0.429-2.514,0.75-3.754,0.965c-1.241,0.215-2.459,0.321-3.655,0.321c-3.224,0-5.632-0.644-7.228-1.929
	c-1.605-1.272-2.408-3.195-2.408-5.768c0-1.754,0.382-3.194,1.146-4.319C111.447,164.172,112.577,163.389,114.072,162.934"/>
<path fill="none" stroke="#000000" stroke-miterlimit="10" d="M133.75,171.32c0,6.762-5.623,12.244-12.56,12.244H17.048
	c-6.936,0-12.56-5.482-12.56-12.244V16.994c0-6.762,5.624-12.244,12.56-12.244H121.19c6.937,0,12.56,5.482,12.56,12.244V171.32z"/>
</svg>
