<?xml version="1.0" encoding="utf-8"?>
<!-- Generator: Adobe Illustrator 16.0.0, SVG Export Plug-In . SVG Version: 6.00 Build 0)  -->
<!DOCTYPE svg PUBLIC "-//W3C//DTD SVG 1.1//EN" "http://www.w3.org/Graphics/SVG/1.1/DTD/svg11.dtd">
<svg version="1.1"
	 id="svg2" xmlns:dc="http://purl.org/dc/elements/1.1/" xmlns:cc="http://web.resource.org/cc/" xmlns:rdf="http://www.w3.org/1999/02/22-rdf-syntax-ns#" xmlns:svg="http://www.w3.org/2000/svg" xmlns:sodipodi="http://inkscape.sourceforge.net/DTD/sodipodi-0.dtd" xmlns:inkscape="http://www.inkscape.org/namespaces/inkscape" sodipodi:docbase="/home/nicu/Desktop/card_nicu_buculei_01.zip_FILES/cards/white" sodipodi:docname="white_c_4.svg" inkscape:version="0.41+cvs" sodipodi:version="0.32"
	 xmlns="http://www.w3.org/2000/svg" xmlns:xlink="http://www.w3.org/1999/xlink" x="0px" y="0px" width="140px" height="190px"
	 viewBox="0 0 140 190" enable-background="new 0 0 140 190" xml:space="preserve">
<sodipodi:namedview  inkscape:cx="70.000000" inkscape:cy="95.000000" inkscape:zoom="1.0000000" borderopacity="1.0" bordercolor="#666666" pagecolor="#ffffff" id="base" inkscape:window-x="0" inkscape:pageshadow="2" inkscape:pageopacity="0.0" inkscape:window-height="791" inkscape:current-layer="svg2" inkscape:window-y="26" inkscape:window-width="1152">
	</sodipodi:namedview>
<g id="layer1" inkscape:label="Layer 1" inkscape:groupmode="layer">
	<g id="g5630">
		<path id="rect2070" fill-opacity="0.498" d="M21,5h103c8.864,0,16,7.136,16,16v153c0,8.864-7.136,16-16,16H21
			c-8.864,0-16-7.136-16-16V21C5,12.136,12.136,5,21,5z"/>
		<path id="rect1300" fill="#E7E7E7" d="M17,1h103c8.864,0,16,7.136,16,16v153c0,8.864-7.136,16-16,16H17c-8.864,0-16-7.136-16-16
			V17C1,8.136,8.136,1,17,1z"/>
		<path id="path5624" fill="#C7891F" d="M19,3h103c8.864,0,16,7.136,16,16v153c0,8.864-7.136,16-16,16H19c-8.864,0-16-7.136-16-16
			V19C3,10.136,10.136,3,19,3z"/>
		<path id="rect1306" fill="#FFFFFF" d="M18,2h103c8.864,0,16,7.136,16,16v153c0,8.864-7.136,16-16,16H18c-8.864,0-16-7.136-16-16
			V18C2,9.136,9.136,2,18,2z"/>
	</g>
	<g id="g5495" transform="translate(-448.5000,-231.5000)" inkscape:label="Layer 1" inkscape:groupmode="layer">
	</g>
</g>
<g id="g1729" transform="matrix(0.593136,0.000000,0.000000,0.238935,-103.0530,9.255993)">
</g>
<g id="g2352" transform="translate(333.5000,184.5000)">
</g>
<path id="path2248" sodipodi:nodetypes="cscsssccccccssscsc" d="M87.199,45c-1.554,0-2.814,1.918-2.814,4.281
	c0,2.014,2.559,5.401,2.459,7.01c-0.82,0.46-3.359-3.783-4.67-3.783c-1.554,0-2.814,1.918-2.814,4.281
	c0,2.364,1.261,4.281,2.814,4.281c1.347,0,3.655-4.239,4.67-3.856l-1.705,7.565l4.091-0.025c0,0-1.792-7.334-1.794-7.508h0.031
	v0.008c0.995-0.376,3.383,3.897,4.72,3.897c1.554,0,2.813-1.918,2.813-4.282c0-2.363-1.26-4.281-2.813-4.281
	c-1.306,0-3.675,4.173-4.714,3.742c0.015-1.648,2.539-5.04,2.539-7.051C90.012,46.918,88.752,45,87.199,45z"/>
<path id="path2260" sodipodi:nodetypes="cscsssccccccssscsc" d="M53.161,142c1.553,0,2.813-1.918,2.813-4.281
	c0-2.014-2.559-5.401-2.459-7.01c0.821-0.461,3.359,3.782,4.671,3.782c1.553,0,2.813-1.918,2.813-4.281
	c0-2.364-1.26-4.281-2.813-4.281c-1.347,0-3.655,4.239-4.671,3.856l1.706-7.565l-4.091,0.024c0,0,1.792,7.335,1.794,7.508h-0.032
	v-0.008c-0.994,0.376-3.382-3.897-4.719-3.897c-1.553,0-2.813,1.918-2.813,4.282c0,2.363,1.26,4.281,2.813,4.281
	c1.306,0,3.674-4.174,4.714-3.742c-0.015,1.648-2.54,5.039-2.54,7.051C50.348,140.082,51.608,142,53.161,142z"/>
<path id="path908" sodipodi:nodetypes="cscsssccccccssscsc" d="M20.527,48.665c-2.667,0-4.83,3.264-4.83,7.286
	c0,3.427,4.392,9.192,4.222,11.93c-1.41,0.782-5.767-6.438-8.019-6.438c-2.667,0-4.83,3.263-4.83,7.286
	c0,4.022,2.164,7.286,4.83,7.286c2.313,0,6.275-7.214,8.019-6.563L16.99,82.325l7.023-0.042c0,0-3.077-12.481-3.081-12.776h0.056
	v0.014c1.707-0.64,5.806,6.632,8.102,6.632c2.666,0,4.83-3.264,4.83-7.286c0-4.022-2.164-7.285-4.83-7.285
	c-2.243,0-6.308,7.1-8.093,6.368c0.025-2.805,4.359-8.576,4.359-11.999C25.357,51.929,23.194,48.665,20.527,48.665z"/>
<path id="text2358" d="M21.285,18.608l-7.011,12.559h7.011V18.608 M20.221,12.238h7.111v18.928h3.539v5.606h-3.539v5.466h-6.047
	v-5.466H10.287v-6.631L20.221,12.238"/>
<path id="path2167" sodipodi:nodetypes="cscsssccccccssscsc" d="M117.418,139.963c2.666,0,4.83-3.264,4.83-7.286
	c0-3.427-4.393-9.191-4.222-11.93c1.411-0.782,5.768,6.438,8.019,6.438c2.667,0,4.83-3.263,4.83-7.286
	c0-4.021-2.163-7.285-4.83-7.285c-2.313,0-6.275,7.215-8.019,6.563l2.929-12.873l-7.023,0.041c0,0,3.077,12.481,3.081,12.777h-0.056
	v-0.015c-1.707,0.64-5.806-6.632-8.102-6.632c-2.666,0-4.83,3.264-4.83,7.285c0,4.022,2.164,7.286,4.83,7.286
	c2.242,0,6.308-7.101,8.093-6.368c-0.025,2.806-4.36,8.576-4.36,11.999C112.588,136.699,114.752,139.963,117.418,139.963z"/>
<path id="text2179" d="M117.396,170.53l7.011-12.559h-7.011V170.53 M118.459,176.9h-7.111v-18.929h-3.538v-5.606h3.538V146.9h6.048
	v5.465h10.998v6.631L118.459,176.9"/>
<path id="path2242" sodipodi:nodetypes="cscsssccccccssscsc" d="M51.199,45c-1.553,0-2.813,1.918-2.813,4.281
	c0,2.014,2.559,5.401,2.459,7.01c-0.821,0.46-3.359-3.783-4.671-3.783c-1.553,0-2.813,1.918-2.813,4.281
	c0,2.364,1.26,4.281,2.813,4.281c1.347,0,3.656-4.239,4.671-3.856l-1.706,7.565l4.091-0.025c0,0-1.792-7.334-1.794-7.508h0.032
	v0.008c0.995-0.376,3.382,3.897,4.719,3.897c1.553,0,2.813-1.918,2.813-4.282c0-2.363-1.26-4.281-2.813-4.281
	c-1.306,0-3.674,4.173-4.714,3.742c0.015-1.648,2.54-5.04,2.54-7.051C54.012,46.918,52.752,45,51.199,45z"/>
<path id="path2264" sodipodi:nodetypes="cscsssccccccssscsc" d="M87.801,141.78c1.554,0,2.814-1.918,2.814-4.282
	c0-2.014-2.559-5.4-2.459-7.01c0.82-0.46,3.359,3.783,4.67,3.783c1.554,0,2.814-1.918,2.814-4.281s-1.261-4.281-2.814-4.281
	c-1.347,0-3.655,4.238-4.67,3.855L89.861,122l-4.091,0.024c0,0,1.792,7.335,1.794,7.508h-0.031v-0.008
	c-0.995,0.376-3.383-3.897-4.72-3.897c-1.554,0-2.813,1.918-2.813,4.281s1.26,4.281,2.813,4.281c1.306,0,3.675-4.172,4.714-3.742
	c-0.015,1.648-2.539,5.04-2.539,7.051C84.988,139.862,86.248,141.78,87.801,141.78z"/>
<path fill="none" stroke="#000000" stroke-miterlimit="10" d="M134,171.82c0,6.762-5.623,12.244-12.56,12.244H17.298
	c-6.936,0-12.56-5.482-12.56-12.244V17.494c0-6.762,5.624-12.244,12.56-12.244H121.44c6.937,0,12.56,5.482,12.56,12.244V171.82z"/>
</svg>
