<?xml version="1.0" encoding="utf-8"?>
<!-- Generator: Adobe Illustrator 16.0.0, SVG Export Plug-In . SVG Version: 6.00 Build 0)  -->
<!DOCTYPE svg PUBLIC "-//W3C//DTD SVG 1.1//EN" "http://www.w3.org/Graphics/SVG/1.1/DTD/svg11.dtd">
<svg version="1.1"
	 id="svg2" xmlns:dc="http://purl.org/dc/elements/1.1/" xmlns:cc="http://web.resource.org/cc/" xmlns:rdf="http://www.w3.org/1999/02/22-rdf-syntax-ns#" xmlns:svg="http://www.w3.org/2000/svg" xmlns:sodipodi="http://inkscape.sourceforge.net/DTD/sodipodi-0.dtd" xmlns:inkscape="http://www.inkscape.org/namespaces/inkscape" sodipodi:docbase="/home/nicu/Desktop/card_nicu_buculei_01.zip_FILES/cards/white" sodipodi:docname="white_c_5.svg" inkscape:version="0.41+cvs" sodipodi:version="0.32"
	 xmlns="http://www.w3.org/2000/svg" xmlns:xlink="http://www.w3.org/1999/xlink" x="0px" y="0px" width="140px" height="190px"
	 viewBox="0 0 140 190" enable-background="new 0 0 140 190" xml:space="preserve">
<sodipodi:namedview  inkscape:cx="70.000000" inkscape:cy="95.000000" inkscape:zoom="1.0000000" borderopacity="1.0" bordercolor="#666666" pagecolor="#ffffff" id="base" inkscape:window-x="0" inkscape:pageshadow="2" inkscape:pageopacity="0.0" inkscape:window-height="791" inkscape:current-layer="svg2" inkscape:window-y="26" inkscape:window-width="1152">
	</sodipodi:namedview>
<g id="layer1" inkscape:label="Layer 1" inkscape:groupmode="layer">
	<g id="g5630">
		<path id="rect2070" fill-opacity="0.498" d="M21,5h103c8.864,0,16,7.136,16,16v153c0,8.864-7.136,16-16,16H21
			c-8.864,0-16-7.136-16-16V21C5,12.136,12.136,5,21,5z"/>
		<path id="rect1300" fill="#E7E7E7" d="M17,1h103c8.864,0,16,7.136,16,16v153c0,8.864-7.136,16-16,16H17c-8.864,0-16-7.136-16-16
			V17C1,8.136,8.136,1,17,1z"/>
		<path id="path5624" fill="#C7891F" d="M19,3h103c8.864,0,16,7.136,16,16v153c0,8.864-7.136,16-16,16H19c-8.864,0-16-7.136-16-16
			V19C3,10.136,10.136,3,19,3z"/>
		<path id="rect1306" fill="#FFFFFF" d="M18,2h103c8.864,0,16,7.136,16,16v153c0,8.864-7.136,16-16,16H18c-8.864,0-16-7.136-16-16
			V18C2,9.136,9.136,2,18,2z"/>
	</g>
	<g id="g5495" transform="translate(-448.5000,-231.5000)" inkscape:label="Layer 1" inkscape:groupmode="layer">
	</g>
</g>
<g id="g2352" transform="translate(333.5000,184.5000)">
</g>
<g id="g3925" transform="translate(329.5000,183.5000)">
	<path id="text2531" d="M-317.137-171.262h15.899v5.687h-10.799v4.642c0.488-0.161,0.975-0.281,1.462-0.362
		c0.498-0.094,1.013-0.141,1.545-0.141c3.023,0,5.377,0.918,7.061,2.753c1.684,1.822,2.525,4.367,2.525,7.636
		c0,3.242-0.919,5.78-2.758,7.615c-1.828,1.835-4.37,2.753-7.625,2.753c-1.407,0-2.802-0.167-4.187-0.502
		c-1.374-0.321-2.741-0.817-4.104-1.487v-6.088c1.351,0.938,2.63,1.641,3.837,2.11c1.218,0.469,2.365,0.703,3.439,0.703
		c1.551,0,2.769-0.456,3.655-1.366c0.897-0.924,1.346-2.17,1.346-3.737c0-1.581-0.448-2.827-1.346-3.738
		c-0.886-0.911-2.104-1.366-3.655-1.366c-0.919,0-1.899,0.147-2.94,0.442c-1.041,0.281-2.16,0.723-3.356,1.326V-171.262"/>
	<path id="text2637" d="M-203.184-6.5h-15.898v-5.687h10.799v-4.642c-0.488,0.16-0.975,0.281-1.463,0.361
		c-0.498,0.094-1.014,0.141-1.545,0.141c-3.023,0-5.377-0.917-7.061-2.752c-1.684-1.822-2.525-4.367-2.525-7.636
		c0-3.242,0.92-5.78,2.758-7.616c1.828-1.835,4.369-2.752,7.626-2.752c1.406,0,2.802,0.167,4.187,0.502
		c1.373,0.321,2.741,0.817,4.104,1.486v6.089c-1.352-0.938-2.631-1.641-3.838-2.11c-1.219-0.469-2.364-0.703-3.439-0.703
		c-1.55,0-2.768,0.456-3.654,1.367c-0.896,0.924-1.346,2.17-1.346,3.737c0,1.581,0.449,2.826,1.346,3.737
		c0.887,0.91,2.104,1.366,3.654,1.366c0.92,0,1.9-0.147,2.941-0.442c1.041-0.281,2.16-0.723,3.355-1.326V-6.5"/>
</g>
<path id="path908" sodipodi:nodetypes="cscsssccccccssscsc" d="M21.457,48.002c-2.666,0-4.83,3.264-4.83,7.286
	c0,3.427,4.392,9.192,4.222,11.93C19.438,68,15.082,60.78,12.83,60.78c-2.667,0-4.83,3.264-4.83,7.286s2.164,7.286,4.83,7.286
	c2.313,0,6.275-7.214,8.019-6.563L17.92,81.663l7.023-0.042c0,0-3.077-12.481-3.081-12.776h0.055v0.014
	c1.708-0.64,5.806,6.632,8.102,6.632c2.667,0,4.83-3.264,4.83-7.286c0-4.022-2.164-7.286-4.83-7.286c-2.243,0-6.308,7.1-8.093,6.368
	c0.025-2.805,4.36-8.576,4.36-11.999C26.287,51.266,24.124,48.002,21.457,48.002z"/>
<path id="path2623" sodipodi:nodetypes="cscsssccccccssscsc" d="M117.418,139.963c2.666,0,4.83-3.264,4.83-7.286
	c0-3.427-4.393-9.191-4.222-11.93c1.411-0.782,5.768,6.438,8.019,6.438c2.667,0,4.83-3.263,4.83-7.286
	c0-4.021-2.163-7.285-4.83-7.285c-2.313,0-6.275,7.215-8.019,6.563l2.929-12.873l-7.023,0.041c0,0,3.077,12.481,3.081,12.777h-0.056
	v-0.015c-1.707,0.64-5.806-6.632-8.102-6.632c-2.666,0-4.83,3.264-4.83,7.285c0,4.022,2.164,7.286,4.83,7.286
	c2.242,0,6.308-7.101,8.093-6.368c-0.025,2.806-4.36,8.576-4.36,11.999C112.588,136.699,114.752,139.963,117.418,139.963z"/>
<path id="path2242" sodipodi:nodetypes="cscsssccccccssscsc" d="M51.199,45c-1.553,0-2.813,1.918-2.813,4.281
	c0,2.014,2.559,5.401,2.459,7.01c-0.821,0.46-3.359-3.783-4.671-3.783c-1.553,0-2.813,1.918-2.813,4.281
	c0,2.364,1.26,4.281,2.813,4.281c1.347,0,3.656-4.239,4.671-3.856l-1.706,7.565l4.091-0.025c0,0-1.792-7.334-1.794-7.508h0.032
	v0.008c0.995-0.376,3.382,3.897,4.719,3.897c1.553,0,2.813-1.918,2.813-4.282c0-2.363-1.26-4.281-2.813-4.281
	c-1.306,0-3.674,4.173-4.714,3.742c0.015-1.648,2.54-5.04,2.54-7.051C54.012,46.918,52.752,45,51.199,45z"/>
<path id="path2250" sodipodi:nodetypes="cscsssccccccssscsc" d="M70.199,82c-1.553,0-2.813,1.918-2.813,4.281
	c0,2.014,2.559,5.401,2.459,7.01c-0.821,0.46-3.359-3.783-4.671-3.783c-1.553,0-2.813,1.918-2.813,4.281
	c0,2.364,1.26,4.281,2.813,4.281c1.347,0,3.656-4.239,4.671-3.856l-1.706,7.565l4.091-0.024c0,0-1.792-7.335-1.794-7.508h0.032
	v0.008c0.995-0.376,3.382,3.897,4.719,3.897c1.554,0,2.813-1.918,2.813-4.282c0-2.363-1.26-4.281-2.813-4.281
	c-1.306,0-3.675,4.173-4.714,3.742c0.015-1.648,2.539-5.04,2.539-7.051C73.012,83.918,71.752,82,70.199,82z"/>
<path id="path2248" sodipodi:nodetypes="cscsssccccccssscsc" d="M87.199,45c-1.554,0-2.814,1.918-2.814,4.281
	c0,2.014,2.559,5.401,2.459,7.01c-0.82,0.46-3.359-3.783-4.67-3.783c-1.554,0-2.814,1.918-2.814,4.281
	c0,2.364,1.261,4.281,2.814,4.281c1.347,0,3.655-4.239,4.67-3.856l-1.705,7.565l4.091-0.025c0,0-1.792-7.334-1.794-7.508h0.031
	v0.008c0.995-0.376,3.383,3.897,4.72,3.897c1.554,0,2.813-1.918,2.813-4.282c0-2.363-1.26-4.281-2.813-4.281
	c-1.306,0-3.675,4.173-4.714,3.742c0.015-1.648,2.539-5.04,2.539-7.051C90.012,46.918,88.752,45,87.199,45z"/>
<path id="path2264" sodipodi:nodetypes="cscsssccccccssscsc" d="M88.161,141.78c1.554,0,2.813-1.918,2.813-4.282
	c0-2.014-2.559-5.4-2.459-7.01c0.821-0.46,3.359,3.783,4.671,3.783c1.554,0,2.813-1.918,2.813-4.281s-1.26-4.281-2.813-4.281
	c-1.347,0-3.655,4.238-4.671,3.855L90.222,122l-4.091,0.024c0,0,1.792,7.335,1.794,7.508h-0.032v-0.008
	c-0.994,0.376-3.382-3.897-4.719-3.897c-1.554,0-2.814,1.918-2.814,4.281s1.261,4.281,2.814,4.281c1.306,0,3.674-4.172,4.713-3.742
	c-0.014,1.648-2.539,5.04-2.539,7.051C85.348,139.862,86.607,141.78,88.161,141.78z"/>
<path id="path2260" sodipodi:nodetypes="cscsssccccccssscsc" d="M53.161,141.78c1.553,0,2.813-1.918,2.813-4.282
	c0-2.014-2.559-5.4-2.459-7.01c0.821-0.46,3.359,3.783,4.671,3.783c1.553,0,2.813-1.918,2.813-4.281s-1.26-4.281-2.813-4.281
	c-1.347,0-3.655,4.238-4.671,3.855L55.222,122l-4.091,0.024c0,0,1.792,7.335,1.794,7.508h-0.032v-0.008
	c-0.994,0.376-3.382-3.897-4.719-3.897c-1.553,0-2.813,1.918-2.813,4.281s1.26,4.281,2.813,4.281c1.306,0,3.674-4.172,4.714-3.742
	c-0.015,1.648-2.54,5.04-2.54,7.051C50.348,139.862,51.608,141.78,53.161,141.78z"/>
<path fill="none" stroke="#000000" stroke-miterlimit="10" d="M133.75,171.57c0,6.762-5.623,12.244-12.56,12.244H17.048
	c-6.936,0-12.56-5.482-12.56-12.244V17.244C4.488,10.482,10.112,5,17.048,5H121.19c6.937,0,12.56,5.482,12.56,12.244V171.57z"/>
</svg>
