<?xml version="1.0" encoding="utf-8"?>
<!-- Generator: Adobe Illustrator 16.0.0, SVG Export Plug-In . SVG Version: 6.00 Build 0)  -->
<!DOCTYPE svg PUBLIC "-//W3C//DTD SVG 1.1//EN" "http://www.w3.org/Graphics/SVG/1.1/DTD/svg11.dtd">
<svg version="1.1"
	 id="svg2" xmlns:dc="http://purl.org/dc/elements/1.1/" xmlns:cc="http://web.resource.org/cc/" xmlns:rdf="http://www.w3.org/1999/02/22-rdf-syntax-ns#" xmlns:svg="http://www.w3.org/2000/svg" xmlns:sodipodi="http://inkscape.sourceforge.net/DTD/sodipodi-0.dtd" xmlns:inkscape="http://www.inkscape.org/namespaces/inkscape" sodipodi:docbase="/home/nicu/Desktop/card_nicu_buculei_01.zip_FILES/cards/white" sodipodi:docname="white_c_6.svg" inkscape:version="0.41+cvs" sodipodi:version="0.32"
	 xmlns="http://www.w3.org/2000/svg" xmlns:xlink="http://www.w3.org/1999/xlink" x="0px" y="0px" width="140px" height="190px"
	 viewBox="0 0 140 190" enable-background="new 0 0 140 190" xml:space="preserve">
<sodipodi:namedview  inkscape:cx="70.000000" inkscape:cy="95.000000" inkscape:zoom="1.0000000" borderopacity="1.0" bordercolor="#666666" pagecolor="#ffffff" id="base" inkscape:window-x="0" inkscape:pageshadow="2" inkscape:pageopacity="0.0" inkscape:window-height="791" inkscape:current-layer="svg2" inkscape:window-y="26" inkscape:window-width="1152">
	</sodipodi:namedview>
<g id="layer1" inkscape:label="Layer 1" inkscape:groupmode="layer">
	<g id="g5630">
		<path id="rect2070" fill-opacity="0.498" d="M21,5h103c8.864,0,16,7.136,16,16v153c0,8.864-7.136,16-16,16H21
			c-8.864,0-16-7.136-16-16V21C5,12.136,12.136,5,21,5z"/>
		<path id="rect1300" fill="#E7E7E7" d="M17,1h103c8.864,0,16,7.136,16,16v153c0,8.864-7.136,16-16,16H17c-8.864,0-16-7.136-16-16
			V17C1,8.136,8.136,1,17,1z"/>
		<path id="path5624" fill="#C7891F" d="M19,3h103c8.864,0,16,7.136,16,16v153c0,8.864-7.136,16-16,16H19c-8.864,0-16-7.136-16-16
			V19C3,10.136,10.136,3,19,3z"/>
		<path id="rect1306" fill="#FFFFFF" d="M18,2h103c8.864,0,16,7.136,16,16v153c0,8.864-7.136,16-16,16H18c-8.864,0-16-7.136-16-16
			V18C2,9.136,9.136,2,18,2z"/>
	</g>
	<g id="g5495" transform="translate(-448.5000,-231.5000)" inkscape:label="Layer 1" inkscape:groupmode="layer">
	</g>
</g>
<g id="g2352" transform="translate(333.5000,184.5000)">
</g>
<g id="g3925" transform="translate(329.5000,183.5000)">
</g>
<path id="text2666" d="M21.069,27.429c-1.119,0-1.96,0.442-2.525,1.326c-0.554,0.871-0.831,2.184-0.831,3.938
	c0,1.754,0.277,3.074,0.831,3.958c0.565,0.871,1.407,1.306,2.525,1.306c1.129,0,1.971-0.435,2.525-1.306
	c0.565-0.884,0.848-2.204,0.848-3.958c0-1.755-0.283-3.068-0.848-3.938C23.04,27.871,22.198,27.429,21.069,27.429 M28.977,13.022
	v5.546c-1.052-0.603-2.043-1.045-2.974-1.326c-0.931-0.294-1.839-0.442-2.725-0.442c-1.905,0-3.389,0.643-4.453,1.929
	c-1.063,1.272-1.683,3.168-1.86,5.687c0.731-0.656,1.523-1.146,2.375-1.467c0.853-0.335,1.783-0.502,2.791-0.502
	c2.536,0,4.58,0.897,6.13,2.693c1.562,1.795,2.342,4.146,2.342,7.053c0,3.215-0.869,5.793-2.608,7.736
	c-1.739,1.929-4.07,2.894-6.994,2.894c-3.223,0-5.721-1.313-7.493-3.938c-1.761-2.639-2.642-6.376-2.642-11.212
	c0-4.957,1.03-8.848,3.09-11.674c2.071-2.84,4.907-4.26,8.506-4.26c1.141,0,2.248,0.107,3.322,0.321
	C26.861,12.272,27.924,12.593,28.977,13.022"/>
<path id="text3033" d="M117.852,161.9c1.119,0,1.961-0.441,2.525-1.326c0.554-0.87,0.83-2.184,0.83-3.938
	c0-1.755-0.276-3.074-0.83-3.959c-0.564-0.871-1.406-1.306-2.525-1.306c-1.13,0-1.972,0.435-2.525,1.306
	c-0.564,0.885-0.848,2.204-0.848,3.959c0,1.754,0.283,3.067,0.848,3.938C115.88,161.459,116.722,161.9,117.852,161.9
	 M109.943,176.309v-5.547c1.053,0.604,2.044,1.045,2.975,1.326c0.93,0.295,1.838,0.442,2.725,0.442c1.904,0,3.389-0.643,4.451-1.929
	c1.064-1.272,1.684-3.168,1.861-5.687c-0.73,0.656-1.523,1.146-2.376,1.467c-0.853,0.335-1.783,0.503-2.791,0.503
	c-2.536,0-4.579-0.898-6.13-2.693c-1.563-1.795-2.343-4.146-2.343-7.053c0-3.215,0.87-5.793,2.608-7.736
	c1.738-1.929,4.07-2.893,6.994-2.893c3.223,0,5.721,1.313,7.492,3.938c1.762,2.639,2.643,6.377,2.643,11.213
	c0,4.956-1.031,8.848-3.091,11.674c-2.071,2.84-4.906,4.26-8.506,4.26c-1.141,0-2.249-0.107-3.323-0.321
	S110.996,176.736,109.943,176.309"/>
<path id="path908" sodipodi:nodetypes="cscsssccccccssscsc" d="M20.527,48.665c-2.667,0-4.83,3.264-4.83,7.286
	c0,3.427,4.392,9.192,4.222,11.93c-1.41,0.782-5.767-6.438-8.019-6.438c-2.667,0-4.83,3.263-4.83,7.286
	c0,4.022,2.164,7.286,4.83,7.286c2.313,0,6.276-7.214,8.019-6.563L16.99,82.325l7.023-0.042c0,0-3.077-12.481-3.081-12.776h0.056
	v0.014c1.707-0.64,5.806,6.632,8.102,6.632c2.666,0,4.83-3.264,4.83-7.286c0-4.022-2.164-7.285-4.83-7.285
	c-2.243,0-6.308,7.1-8.093,6.368c0.025-2.805,4.359-8.576,4.359-11.999C25.357,51.929,23.194,48.665,20.527,48.665z"/>
<path id="path3043" sodipodi:nodetypes="cscsssccccccssscsc" d="M117.822,139.963c2.667,0,4.83-3.264,4.83-7.286
	c0-3.427-4.392-9.191-4.221-11.93c1.41-0.782,5.767,6.438,8.019,6.438c2.667,0,4.829-3.263,4.829-7.286
	c0-4.021-2.162-7.285-4.829-7.285c-2.313,0-6.276,7.215-8.019,6.563l2.928-12.873l-7.023,0.041c0,0,3.078,12.481,3.081,12.777
	h-0.056v-0.015c-1.707,0.64-5.805-6.632-8.102-6.632c-2.666,0-4.83,3.264-4.83,7.285c0,4.022,2.164,7.286,4.83,7.286
	c2.242,0,6.308-7.101,8.093-6.368c-0.024,2.806-4.36,8.576-4.36,11.999C112.992,136.699,115.156,139.963,117.822,139.963z"/>
<path id="path2242" sodipodi:nodetypes="cscsssccccccssscsc" d="M51.199,45c-1.553,0-2.813,1.918-2.813,4.281
	c0,2.014,2.559,5.401,2.459,7.01c-0.821,0.46-3.359-3.783-4.671-3.783c-1.553,0-2.813,1.918-2.813,4.281
	c0,2.364,1.26,4.281,2.813,4.281c1.347,0,3.656-4.239,4.671-3.856l-1.706,7.565l4.091-0.025c0,0-1.792-7.334-1.794-7.508h0.032
	v0.008c0.995-0.376,3.382,3.897,4.719,3.897c1.553,0,2.813-1.918,2.813-4.282c0-2.363-1.26-4.281-2.813-4.281
	c-1.306,0-3.674,4.173-4.714,3.742c0.015-1.648,2.54-5.04,2.54-7.051C54.012,46.918,52.752,45,51.199,45z"/>
<path id="path2248" sodipodi:nodetypes="cscsssccccccssscsc" d="M87.199,45c-1.554,0-2.814,1.918-2.814,4.281
	c0,2.014,2.559,5.401,2.459,7.01c-0.82,0.46-3.359-3.783-4.67-3.783c-1.554,0-2.814,1.918-2.814,4.281
	c0,2.364,1.261,4.281,2.814,4.281c1.347,0,3.655-4.239,4.67-3.856l-1.705,7.565l4.091-0.025c0,0-1.792-7.334-1.794-7.508h0.031
	v0.008c0.995-0.376,3.383,3.897,4.72,3.897c1.554,0,2.813-1.918,2.813-4.282c0-2.363-1.26-4.281-2.813-4.281
	c-1.306,0-3.675,4.173-4.714,3.742c0.015-1.648,2.539-5.04,2.539-7.051C90.012,46.918,88.752,45,87.199,45z"/>
<path id="path2254" sodipodi:nodetypes="cscsssccccccssscsc" d="M51.199,81c-1.553,0-2.813,1.918-2.813,4.281
	c0,2.014,2.559,5.401,2.459,7.01c-0.821,0.46-3.359-3.783-4.671-3.783c-1.553,0-2.813,1.918-2.813,4.281
	c0,2.364,1.26,4.281,2.813,4.281c1.347,0,3.656-4.239,4.671-3.856l-1.706,7.565l4.091-0.024c0,0-1.792-7.335-1.794-7.508h0.032
	v0.008c0.995-0.376,3.382,3.897,4.719,3.897c1.553,0,2.813-1.918,2.813-4.282c0-2.363-1.26-4.281-2.813-4.281
	c-1.306,0-3.674,4.173-4.714,3.742c0.015-1.648,2.54-5.04,2.54-7.051C54.012,82.918,52.752,81,51.199,81z"/>
<path id="path2252" sodipodi:nodetypes="cscsssccccccssscsc" d="M86.801,101c1.554,0,2.814-1.918,2.814-4.281
	c0-2.014-2.559-5.401-2.459-7.01c0.82-0.46,3.359,3.783,4.67,3.783c1.554,0,2.814-1.918,2.814-4.281
	c0-2.364-1.261-4.281-2.814-4.281c-1.347,0-3.655,4.239-4.67,3.856l1.705-7.565l-4.091,0.024c0,0,1.792,7.334,1.794,7.508h-0.031
	v-0.008c-0.995,0.376-3.383-3.897-4.72-3.897c-1.554,0-2.813,1.918-2.813,4.282c0,2.363,1.26,4.281,2.813,4.281
	c1.306,0,3.675-4.173,4.714-3.742c-0.015,1.648-2.539,5.04-2.539,7.051C83.988,99.082,85.248,101,86.801,101z"/>
<path id="path2264" sodipodi:nodetypes="cscsssccccccssscsc" d="M88.161,142c1.554,0,2.813-1.918,2.813-4.281
	c0-2.014-2.559-5.401-2.459-7.01c0.821-0.461,3.359,3.782,4.671,3.782c1.554,0,2.813-1.918,2.813-4.281
	c0-2.364-1.26-4.281-2.813-4.281c-1.347,0-3.655,4.239-4.671,3.856l1.706-7.564l-4.091,0.023c0,0,1.792,7.335,1.794,7.508h-0.032
	v-0.008c-0.994,0.376-3.382-3.897-4.719-3.897c-1.554,0-2.814,1.918-2.814,4.282c0,2.363,1.261,4.281,2.814,4.281
	c1.306,0,3.674-4.173,4.713-3.742c-0.014,1.648-2.539,5.039-2.539,7.051C85.348,140.082,86.607,142,88.161,142z"/>
<path id="path2260" sodipodi:nodetypes="cscsssccccccssscsc" d="M52.801,141.779c1.553,0,2.813-1.917,2.813-4.281
	c0-2.014-2.559-5.4-2.459-7.01c0.821-0.46,3.359,3.783,4.671,3.783c1.553,0,2.813-1.918,2.813-4.281s-1.26-4.281-2.813-4.281
	c-1.347,0-3.656,4.238-4.671,3.855L54.862,122l-4.091,0.024c0,0,1.792,7.335,1.794,7.508h-0.032v-0.008
	c-0.995,0.376-3.382-3.897-4.719-3.897c-1.553,0-2.813,1.918-2.813,4.281s1.26,4.281,2.813,4.281c1.306,0,3.674-4.172,4.714-3.742
	c-0.015,1.648-2.54,5.04-2.54,7.051C49.988,139.862,51.248,141.779,52.801,141.779z"/>
<path fill="none" stroke="#000000" stroke-miterlimit="10" d="M134,171.82c0,6.762-5.623,12.244-12.56,12.244H17.298
	c-6.936,0-12.56-5.482-12.56-12.244V17.494c0-6.762,5.624-12.244,12.56-12.244H121.44c6.937,0,12.56,5.482,12.56,12.244V171.82z"/>
</svg>
