<?xml version="1.0" encoding="utf-8"?>
<!-- Generator: Adobe Illustrator 16.0.0, SVG Export Plug-In . SVG Version: 6.00 Build 0)  -->
<!DOCTYPE svg PUBLIC "-//W3C//DTD SVG 1.1//EN" "http://www.w3.org/Graphics/SVG/1.1/DTD/svg11.dtd">
<svg version="1.1"
	 id="svg2" xmlns:dc="http://purl.org/dc/elements/1.1/" xmlns:cc="http://web.resource.org/cc/" xmlns:rdf="http://www.w3.org/1999/02/22-rdf-syntax-ns#" xmlns:svg="http://www.w3.org/2000/svg" xmlns:sodipodi="http://inkscape.sourceforge.net/DTD/sodipodi-0.dtd" xmlns:inkscape="http://www.inkscape.org/namespaces/inkscape" sodipodi:docbase="/home/nicu/Desktop/card_nicu_buculei_01.zip_FILES/cards/white" sodipodi:docname="white_c_8.svg" inkscape:version="0.41+cvs" sodipodi:version="0.32"
	 xmlns="http://www.w3.org/2000/svg" xmlns:xlink="http://www.w3.org/1999/xlink" x="0px" y="0px" width="140px" height="190px"
	 viewBox="0 0 140 190" enable-background="new 0 0 140 190" xml:space="preserve">
<sodipodi:namedview  inkscape:cx="70.000000" inkscape:cy="94.999969" inkscape:zoom="1.0000000" borderopacity="1.0" bordercolor="#666666" pagecolor="#ffffff" id="base" inkscape:window-x="0" inkscape:pageshadow="2" inkscape:pageopacity="0.0" inkscape:window-height="791" inkscape:current-layer="svg2" inkscape:window-y="26" inkscape:window-width="1152">
	</sodipodi:namedview>
<g id="layer1" inkscape:label="Layer 1" inkscape:groupmode="layer">
	<g id="g5630">
		<path id="rect2070" fill-opacity="0.498" d="M21,5h103c8.864,0,16,7.136,16,16v153c0,8.864-7.136,16-16,16H21
			c-8.864,0-16-7.136-16-16V21C5,12.136,12.136,5,21,5z"/>
		<path id="rect1300" fill="#E7E7E7" d="M17,1h103c8.864,0,16,7.136,16,16v153c0,8.864-7.136,16-16,16H17c-8.864,0-16-7.136-16-16
			V17C1,8.136,8.136,1,17,1z"/>
		<path id="path5624" fill="#C7891F" d="M19,3h103c8.864,0,16,7.136,16,16v153c0,8.864-7.136,16-16,16H19c-8.864,0-16-7.136-16-16
			V19C3,10.136,10.136,3,19,3z"/>
		<path id="rect1306" fill="#FFFFFF" d="M18,2h103c8.864,0,16,7.136,16,16v153c0,8.864-7.136,16-16,16H18c-8.864,0-16-7.136-16-16
			V18C2,9.136,9.136,2,18,2z"/>
	</g>
	<g id="g5495" transform="translate(-448.5000,-231.5000)" inkscape:label="Layer 1" inkscape:groupmode="layer">
	</g>
</g>
<g id="g5581" transform="translate(351.5000,184.5000)">
	<path id="text1488" d="M-330.896-155.685c-1.196,0-2.115,0.396-2.758,1.186c-0.642,0.791-0.963,1.922-0.963,3.396
		s0.321,2.605,0.963,3.396c0.643,0.777,1.562,1.165,2.758,1.165c1.185,0,2.093-0.388,2.725-1.165
		c0.631-0.791,0.947-1.922,0.947-3.396c0-1.487-0.316-2.619-0.947-3.396C-328.803-155.289-329.711-155.685-330.896-155.685
		 M-335.564-158.236c-1.506-0.549-2.642-1.393-3.406-2.532s-1.146-2.559-1.146-4.26c0-2.532,0.781-4.461,2.342-5.787
		c1.562-1.326,3.854-1.989,6.878-1.989c3.001,0,5.283,0.663,6.845,1.989c1.562,1.313,2.343,3.242,2.343,5.787
		c0,1.701-0.388,3.121-1.163,4.26c-0.764,1.139-1.899,1.982-3.406,2.532c1.684,0.563,2.952,1.48,3.804,2.753
		c0.864,1.259,1.296,2.853,1.296,4.782c0,2.974-0.819,5.224-2.458,6.751c-1.628,1.514-4.048,2.271-7.26,2.271
		c-3.223,0-5.659-0.757-7.31-2.271c-1.639-1.527-2.459-3.778-2.459-6.751c0-1.929,0.427-3.523,1.279-4.782
		C-338.522-156.756-337.248-157.674-335.564-158.236 M-334.069-164.244c0,1.192,0.271,2.11,0.814,2.752
		c0.554,0.643,1.34,0.965,2.359,0.965c0.997,0,1.767-0.322,2.31-0.965c0.542-0.643,0.814-1.561,0.814-2.752
		c0-1.192-0.271-2.104-0.814-2.733c-0.543-0.643-1.313-0.964-2.31-0.964c-1.019,0-1.805,0.321-2.359,0.964
		C-333.798-166.334-334.069-165.423-334.069-164.244"/>
	<path id="text3657" d="M-233.474-24.15c1.196,0,2.115-0.395,2.758-1.185c0.642-0.79,0.964-1.923,0.964-3.396
		c0-1.475-0.322-2.605-0.964-3.396c-0.643-0.777-1.562-1.165-2.758-1.165c-1.185,0-2.093,0.388-2.725,1.165
		c-0.632,0.791-0.946,1.922-0.946,3.396c0,1.486,0.314,2.618,0.946,3.396C-235.566-24.545-234.658-24.15-233.474-24.15
		 M-228.805-21.598c1.506,0.549,2.641,1.393,3.405,2.531s1.146,2.559,1.146,4.26c0,2.532-0.78,4.461-2.342,5.787
		s-3.854,1.989-6.878,1.99c-3.001-0.001-5.283-0.664-6.845-1.99c-1.562-1.313-2.342-3.242-2.342-5.787
		c0-1.701,0.387-3.121,1.162-4.26c0.764-1.139,1.899-1.982,3.406-2.531c-1.684-0.563-2.952-1.48-3.805-2.753
		c-0.864-1.259-1.296-2.854-1.296-4.782c0-2.975,0.819-5.225,2.458-6.752c1.629-1.514,4.049-2.27,7.261-2.27
		c3.223,0,5.659,0.756,7.31,2.27c1.639,1.527,2.459,3.777,2.459,6.752c0,1.929-0.426,3.523-1.279,4.782
		C-225.848-23.078-227.122-22.16-228.805-21.598 M-230.301-15.59c0-1.192-0.271-2.109-0.814-2.753
		c-0.553-0.644-1.34-0.964-2.358-0.964c-0.997,0-1.767,0.32-2.31,0.964s-0.814,1.561-0.814,2.753s0.271,2.104,0.814,2.732
		c0.543,0.644,1.313,0.965,2.31,0.965c1.019,0,1.806-0.321,2.358-0.965C-230.572-13.5-230.301-14.411-230.301-15.59"/>
</g>
<path id="path908" sodipodi:nodetypes="cscsssccccccssscsc" d="M20.527,48.665c-2.667,0-4.83,3.264-4.83,7.286
	c0,3.427,4.392,9.192,4.222,11.93c-1.41,0.782-5.767-6.438-8.019-6.438c-2.667,0-4.83,3.263-4.83,7.286
	c0,4.022,2.164,7.286,4.83,7.286c2.313,0,6.275-7.214,8.019-6.563L16.99,82.325l7.023-0.042c0,0-3.077-12.481-3.081-12.776h0.056
	v0.014c1.707-0.64,5.806,6.632,8.102,6.632c2.666,0,4.83-3.264,4.83-7.286c0-4.022-2.164-7.285-4.83-7.285
	c-2.243,0-6.308,7.1-8.093,6.368c0.025-2.805,4.359-8.576,4.359-11.999C25.357,51.929,23.194,48.665,20.527,48.665z"/>
<path id="path3647" sodipodi:nodetypes="cscsssccccccssscsc" d="M117.418,139.963c2.666,0,4.83-3.264,4.83-7.286
	c0-3.427-4.393-9.191-4.222-11.93c1.411-0.782,5.768,6.438,8.019,6.438c2.667,0,4.83-3.263,4.83-7.286
	c0-4.021-2.163-7.285-4.83-7.285c-2.313,0-6.275,7.215-8.019,6.563l2.929-12.873l-7.023,0.041c0,0,3.077,12.481,3.081,12.777h-0.056
	v-0.015c-1.707,0.64-5.806-6.632-8.102-6.632c-2.666,0-4.83,3.264-4.83,7.285c0,4.022,2.164,7.286,4.83,7.286
	c2.242,0,6.308-7.101,8.093-6.368c-0.025,2.806-4.36,8.576-4.36,11.999C112.588,136.699,114.752,139.963,117.418,139.963z"/>
<path id="path2242" sodipodi:nodetypes="cscsssccccccssscsc" d="M49.199,36c-1.553,0-2.813,1.918-2.813,4.281
	c0,2.014,2.559,5.401,2.459,7.01c-0.821,0.46-3.359-3.783-4.671-3.783c-1.553,0-2.813,1.918-2.813,4.281
	c0,2.364,1.26,4.281,2.813,4.281c1.347,0,3.656-4.239,4.671-3.856l-1.706,7.565l4.091-0.025c0,0-1.792-7.334-1.794-7.508h0.032
	v0.008c0.995-0.376,3.382,3.897,4.719,3.897c1.553,0,2.813-1.918,2.813-4.282c0-2.363-1.26-4.281-2.813-4.281
	c-1.306,0-3.674,4.173-4.714,3.742c0.015-1.648,2.54-5.04,2.54-7.051C52.012,37.918,50.752,36,49.199,36z"/>
<path id="path2248" sodipodi:nodetypes="cscsssccccccssscsc" d="M90.199,36.22c-1.554,0-2.814,1.918-2.814,4.282
	c0,2.014,2.559,5.401,2.459,7.01c-0.82,0.46-3.359-3.783-4.67-3.783c-1.554,0-2.814,1.918-2.814,4.282
	c0,2.363,1.261,4.281,2.814,4.281c1.347,0,3.655-4.239,4.67-3.856L88.139,56l4.091-0.024c0,0-1.792-7.334-1.794-7.508h0.031v0.008
	c0.995-0.376,3.383,3.897,4.72,3.897c1.554,0,2.813-1.917,2.813-4.281s-1.26-4.281-2.813-4.281c-1.306,0-3.675,4.172-4.714,3.742
	c0.015-1.649,2.539-5.04,2.539-7.051C93.012,38.138,91.752,36.22,90.199,36.22z"/>
<path id="path2254" sodipodi:nodetypes="cscsssccccccssscsc" d="M48.839,71.22c-1.553,0-2.813,1.918-2.813,4.282
	c0,2.014,2.559,5.401,2.459,7.01c-0.821,0.46-3.359-3.783-4.671-3.783C42.26,78.729,41,80.646,41,83.01
	c0,2.363,1.26,4.281,2.813,4.281c1.347,0,3.655-4.239,4.671-3.856L46.778,91l4.091-0.024c0,0-1.792-7.334-1.794-7.508h0.032v0.008
	c0.994-0.376,3.382,3.897,4.719,3.897c1.553,0,2.813-1.918,2.813-4.281c0-2.364-1.26-4.281-2.813-4.281
	c-1.306,0-3.674,4.172-4.714,3.742c0.015-1.649,2.54-5.04,2.54-7.051C51.652,73.138,50.392,71.22,48.839,71.22z"/>
<path id="path2252" sodipodi:nodetypes="cscsssccccccssscsc" d="M88.199,70c-1.554,0-2.814,1.918-2.814,4.281
	c0,2.014,2.559,5.401,2.459,7.01c-0.82,0.46-3.359-3.783-4.67-3.783c-1.554,0-2.814,1.918-2.814,4.281
	c0,2.364,1.261,4.281,2.814,4.281c1.347,0,3.655-4.239,4.67-3.856l-1.705,7.565l4.091-0.024c0,0-1.792-7.334-1.794-7.508h0.031
	v0.008c0.995-0.376,3.383,3.897,4.72,3.897c1.554,0,2.813-1.918,2.813-4.282c0-2.363-1.26-4.281-2.813-4.281
	c-1.306,0-3.675,4.173-4.714,3.742c0.015-1.648,2.539-5.04,2.539-7.051C91.012,71.918,89.752,70,88.199,70z"/>
<path id="path2258" sodipodi:nodetypes="cscsssccccccssscsc" d="M48.161,119c1.553,0,2.813-1.918,2.813-4.281
	c0-2.014-2.559-5.401-2.459-7.01c0.821-0.461,3.359,3.782,4.671,3.782c1.553,0,2.813-1.918,2.813-4.281
	c0-2.364-1.26-4.281-2.813-4.281c-1.347,0-3.655,4.239-4.671,3.856l1.706-7.565l-4.091,0.024c0,0,1.792,7.335,1.794,7.508h-0.032
	v-0.008c-0.994,0.376-3.382-3.897-4.719-3.897c-1.553,0-2.813,1.918-2.813,4.282c0,2.363,1.26,4.281,2.813,4.281
	c1.306,0,3.674-4.174,4.714-3.742c-0.015,1.648-2.54,5.039-2.54,7.051C45.348,117.082,46.608,119,48.161,119z"/>
<path id="path2256" sodipodi:nodetypes="cscsssccccccssscsc" d="M89.801,119.78c1.554,0,2.814-1.918,2.814-4.282
	c0-2.014-2.559-5.4-2.459-7.01c0.82-0.46,3.359,3.783,4.67,3.783c1.554,0,2.814-1.918,2.814-4.281s-1.261-4.281-2.814-4.281
	c-1.347,0-3.655,4.238-4.67,3.855L91.861,100l-4.091,0.024c0,0,1.792,7.335,1.794,7.508h-0.031v-0.008
	c-0.995,0.376-3.383-3.897-4.72-3.897c-1.554,0-2.813,1.918-2.813,4.281s1.26,4.281,2.813,4.281c1.306,0,3.675-4.172,4.714-3.742
	c-0.015,1.648-2.539,5.04-2.539,7.051C86.988,117.862,88.248,119.78,89.801,119.78z"/>
<path id="path2264" sodipodi:nodetypes="cscsssccccccssscsc" d="M90.161,149.78c1.554,0,2.813-1.918,2.813-4.282
	c0-2.014-2.559-5.4-2.459-7.01c0.821-0.46,3.359,3.783,4.671,3.783c1.554,0,2.813-1.918,2.813-4.281s-1.26-4.281-2.813-4.281
	c-1.347,0-3.655,4.238-4.671,3.855L92.222,130l-4.091,0.024c0,0,1.792,7.335,1.794,7.508h-0.032v-0.008
	c-0.994,0.376-3.382-3.897-4.719-3.897c-1.554,0-2.814,1.918-2.814,4.281s1.261,4.281,2.814,4.281c1.306,0,3.674-4.172,4.713-3.742
	c-0.014,1.648-2.539,5.04-2.539,7.051C87.348,147.862,88.607,149.78,90.161,149.78z"/>
<path id="path2260" sodipodi:nodetypes="cscsssccccccssscsc" d="M49.161,149.78c1.553,0,2.813-1.918,2.813-4.282
	c0-2.014-2.559-5.4-2.459-7.01c0.821-0.46,3.359,3.783,4.671,3.783c1.553,0,2.813-1.918,2.813-4.281s-1.26-4.281-2.813-4.281
	c-1.347,0-3.655,4.238-4.671,3.855L51.222,130l-4.091,0.024c0,0,1.792,7.335,1.794,7.508h-0.032v-0.008
	c-0.994,0.376-3.382-3.897-4.719-3.897c-1.553,0-2.813,1.918-2.813,4.281s1.26,4.281,2.813,4.281c1.306,0,3.674-4.172,4.714-3.742
	c-0.015,1.648-2.54,5.04-2.54,7.051C46.348,147.862,47.608,149.78,49.161,149.78z"/>
<path fill="none" stroke="#000000" stroke-miterlimit="10" d="M134,172.07c0,6.762-5.623,12.244-12.56,12.244H17.298
	c-6.936,0-12.56-5.482-12.56-12.244V17.744c0-6.762,5.624-12.244,12.56-12.244H121.44c6.937,0,12.56,5.482,12.56,12.244V172.07z"/>
</svg>
