<?xml version="1.0" encoding="utf-8"?>
<!-- Generator: Adobe Illustrator 16.0.0, SVG Export Plug-In . SVG Version: 6.00 Build 0)  -->
<!DOCTYPE svg PUBLIC "-//W3C//DTD SVG 1.1//EN" "http://www.w3.org/Graphics/SVG/1.1/DTD/svg11.dtd">
<svg version="1.1"
	 id="svg2" xmlns:dc="http://purl.org/dc/elements/1.1/" xmlns:cc="http://web.resource.org/cc/" xmlns:rdf="http://www.w3.org/1999/02/22-rdf-syntax-ns#" xmlns:svg="http://www.w3.org/2000/svg" xmlns:sodipodi="http://inkscape.sourceforge.net/DTD/sodipodi-0.dtd" xmlns:inkscape="http://www.inkscape.org/namespaces/inkscape" sodipodi:docbase="/home/nicu/Desktop/card_nicu_buculei_01.zip_FILES/cards/white" sodipodi:docname="white_c_9.svg" inkscape:version="0.41+cvs" sodipodi:version="0.32"
	 xmlns="http://www.w3.org/2000/svg" xmlns:xlink="http://www.w3.org/1999/xlink" x="0px" y="0px" width="140px" height="190px"
	 viewBox="0 0 140 190" enable-background="new 0 0 140 190" xml:space="preserve">
<sodipodi:namedview  inkscape:cx="70.000000" inkscape:cy="94.999969" inkscape:zoom="1.0000000" borderopacity="1.0" bordercolor="#666666" pagecolor="#ffffff" id="base" inkscape:window-x="0" inkscape:pageshadow="2" inkscape:pageopacity="0.0" inkscape:window-height="791" inkscape:current-layer="svg2" inkscape:window-y="26" inkscape:window-width="1152">
	</sodipodi:namedview>
<g id="layer1" inkscape:label="Layer 1" inkscape:groupmode="layer">
	<g id="g5630">
		<path id="rect2070" fill-opacity="0.498" d="M21,5h103c8.864,0,16,7.136,16,16v153c0,8.864-7.136,16-16,16H21
			c-8.864,0-16-7.136-16-16V21C5,12.136,12.136,5,21,5z"/>
		<path id="rect1300" fill="#E7E7E7" d="M17,1h103c8.864,0,16,7.136,16,16v153c0,8.864-7.136,16-16,16H17c-8.864,0-16-7.136-16-16
			V17C1,8.136,8.136,1,17,1z"/>
		<path id="path5624" fill="#C7891F" d="M19,3h103c8.864,0,16,7.136,16,16v153c0,8.864-7.136,16-16,16H19c-8.864,0-16-7.136-16-16
			V19C3,10.136,10.136,3,19,3z"/>
		<path id="rect1306" fill="#FFFFFF" d="M18,2h103c8.864,0,16,7.136,16,16v153c0,8.864-7.136,16-16,16H18c-8.864,0-16-7.136-16-16
			V18C2,9.136,9.136,2,18,2z"/>
	</g>
	<g id="g5495" transform="translate(-448.5000,-231.5000)" inkscape:label="Layer 1" inkscape:groupmode="layer">
	</g>
</g>
<g id="g5581" transform="translate(351.5000,184.5000)">
</g>
<path id="text1768" fill="#0C0C0C" d="M12.094,41.839v-5.546c1.019,0.576,1.994,1.012,2.924,1.306
	c0.93,0.281,1.85,0.422,2.758,0.422c1.905,0,3.389-0.636,4.453-1.909c1.063-1.286,1.689-3.188,1.877-5.707
	c-0.753,0.67-1.556,1.172-2.409,1.507c-0.853,0.335-1.778,0.502-2.774,0.502c-2.537,0-4.585-0.891-6.147-2.672
	c-1.551-1.795-2.326-4.153-2.326-7.073c0-3.229,0.864-5.814,2.591-7.756C14.78,12.971,17.106,12,20.019,12
	c3.234,0,5.737,1.319,7.509,3.958s2.658,6.37,2.658,11.192c0,4.957-1.036,8.854-3.107,11.695c-2.071,2.826-4.912,4.24-8.522,4.24
	c-1.163,0-2.276-0.107-3.339-0.322C14.154,42.563,13.113,42.254,12.094,41.839 M19.985,27.392c1.119,0,1.96-0.435,2.525-1.306
	c0.565-0.884,0.847-2.204,0.847-3.958c0-1.741-0.282-3.054-0.847-3.938s-1.407-1.326-2.525-1.326s-1.96,0.442-2.525,1.326
	c-0.565,0.884-0.848,2.197-0.848,3.938c0,1.755,0.283,3.075,0.848,3.958C18.025,26.957,18.867,27.392,19.985,27.392"/>
<path id="text3931" fill="#0C0C0C" d="M126.516,147.591v5.546c-1.019-0.576-1.993-1.012-2.924-1.306
	c-0.93-0.282-1.85-0.423-2.758-0.423c-1.904,0-3.389,0.637-4.452,1.91c-1.063,1.285-1.688,3.188-1.877,5.706
	c0.753-0.67,1.556-1.173,2.409-1.507c0.853-0.335,1.777-0.502,2.773-0.502c2.537,0,4.586,0.891,6.147,2.672
	c1.55,1.795,2.325,4.152,2.325,7.072c0,3.229-0.863,5.814-2.592,7.757c-1.738,1.942-4.064,2.913-6.977,2.913
	c-3.234,0-5.737-1.319-7.51-3.958c-1.771-2.64-2.658-6.37-2.658-11.192c0-4.956,1.036-8.854,3.107-11.694
	c2.07-2.826,4.912-4.239,8.522-4.239c1.163,0,2.276,0.107,3.339,0.321C124.456,146.867,125.497,147.176,126.516,147.591
	 M118.625,162.039c-1.119-0.001-1.961,0.435-2.525,1.306c-0.564,0.884-0.848,2.203-0.848,3.958c0,1.742,0.283,3.055,0.848,3.938
	s1.406,1.326,2.525,1.326c1.118,0,1.96-0.442,2.525-1.326c0.564-0.884,0.847-2.196,0.847-3.938c0-1.755-0.282-3.074-0.847-3.958
	C120.585,162.474,119.743,162.038,118.625,162.039"/>
<path id="path908" sodipodi:nodetypes="cscsssccccccssscsc" d="M20.527,48.665c-2.667,0-4.83,3.264-4.83,7.286
	c0,3.427,4.392,9.192,4.222,11.93c-1.41,0.782-5.767-6.438-8.019-6.438c-2.667,0-4.83,3.263-4.83,7.286
	c0,4.022,2.164,7.286,4.83,7.286c2.313,0,6.276-7.214,8.019-6.563L16.99,82.325l7.023-0.042c0,0-3.077-12.481-3.081-12.776h0.056
	v0.014c1.707-0.64,5.806,6.632,8.102,6.632c2.666,0,4.83-3.264,4.83-7.286c0-4.022-2.164-7.285-4.83-7.285
	c-2.243,0-6.308,7.1-8.093,6.368c0.025-2.805,4.359-8.576,4.359-11.999C25.357,51.929,23.194,48.665,20.527,48.665z"/>
<path id="path3921" sodipodi:nodetypes="cscsssccccccssscsc" d="M117.912,139.963c2.667,0,4.83-3.264,4.83-7.286
	c0-3.427-4.392-9.191-4.221-11.93c1.41-0.782,5.767,6.438,8.019,6.438c2.667,0,4.83-3.263,4.83-7.286
	c0-4.021-2.163-7.285-4.83-7.285c-2.313,0-6.275,7.215-8.019,6.563l2.929-12.873l-7.024,0.041c0,0,3.078,12.481,3.082,12.777h-0.057
	v-0.015c-1.707,0.64-5.805-6.632-8.102-6.632c-2.666,0-4.83,3.264-4.83,7.285c0,4.022,2.164,7.286,4.83,7.286
	c2.242,0,6.309-7.101,8.094-6.368c-0.025,2.806-4.36,8.576-4.36,11.999C113.083,136.699,115.246,139.963,117.912,139.963z"/>
<path id="path2242" sodipodi:nodetypes="cscsssccccccssscsc" d="M49.199,36c-1.553,0-2.813,1.918-2.813,4.281
	c0,2.014,2.559,5.401,2.459,7.01c-0.821,0.46-3.359-3.783-4.671-3.783c-1.553,0-2.813,1.918-2.813,4.281
	c0,2.364,1.26,4.281,2.813,4.281c1.347,0,3.656-4.239,4.671-3.856l-1.706,7.565l4.091-0.025c0,0-1.792-7.334-1.794-7.508h0.032
	v0.008c0.995-0.376,3.382,3.897,4.719,3.897c1.553,0,2.813-1.918,2.813-4.282c0-2.363-1.26-4.281-2.813-4.281
	c-1.306,0-3.674,4.173-4.714,3.742c0.015-1.648,2.54-5.04,2.54-7.051C52.012,37.918,50.752,36,49.199,36z"/>
<path id="path2250" sodipodi:nodetypes="cscsssccccccssscsc" d="M69.199,85c-1.553,0-2.813,1.918-2.813,4.281
	c0,2.014,2.559,5.401,2.459,7.01c-0.821,0.461-3.359-3.782-4.671-3.782c-1.553,0-2.813,1.918-2.813,4.281
	c0,2.364,1.26,4.281,2.813,4.281c1.347,0,3.656-4.239,4.671-3.856l-1.706,7.565l4.091-0.024c0,0-1.792-7.335-1.794-7.508h0.032
	v0.008c0.995-0.376,3.382,3.897,4.719,3.897c1.554,0,2.813-1.918,2.813-4.282c0-2.363-1.26-4.281-2.813-4.281
	c-1.306,0-3.675,4.173-4.714,3.742c0.015-1.648,2.539-5.039,2.539-7.051C72.012,86.918,70.752,85,69.199,85z"/>
<path id="path2248" sodipodi:nodetypes="cscsssccccccssscsc" d="M90.199,36.22c-1.554,0-2.814,1.918-2.814,4.282
	c0,2.014,2.559,5.401,2.459,7.01c-0.82,0.46-3.359-3.783-4.67-3.783c-1.554,0-2.814,1.918-2.814,4.282
	c0,2.363,1.261,4.281,2.814,4.281c1.347,0,3.655-4.239,4.67-3.856L88.139,56l4.091-0.024c0,0-1.792-7.334-1.794-7.508h0.031v0.008
	c0.995-0.376,3.383,3.897,4.72,3.897c1.554,0,2.813-1.918,2.813-4.281c0-2.364-1.26-4.281-2.813-4.281
	c-1.306,0-3.675,4.172-4.714,3.742c0.015-1.649,2.539-5.04,2.539-7.051C93.012,38.138,91.752,36.22,90.199,36.22z"/>
<path id="path2254" sodipodi:nodetypes="cscsssccccccssscsc" d="M48.839,71.22c-1.553,0-2.813,1.918-2.813,4.282
	c0,2.014,2.559,5.401,2.459,7.01c-0.821,0.46-3.359-3.783-4.671-3.783C42.26,78.729,41,80.646,41,83.01
	c0,2.363,1.26,4.281,2.813,4.281c1.347,0,3.655-4.239,4.671-3.856L46.778,91l4.091-0.024c0,0-1.792-7.334-1.794-7.508h0.032v0.008
	c0.994-0.376,3.382,3.897,4.719,3.897c1.553,0,2.813-1.918,2.813-4.281c0-2.364-1.26-4.281-2.813-4.281
	c-1.306,0-3.674,4.172-4.714,3.742c0.014-1.649,2.54-5.04,2.54-7.051C51.652,73.138,50.392,71.22,48.839,71.22z"/>
<path id="path2252" sodipodi:nodetypes="cscsssccccccssscsc" d="M88.199,70c-1.554,0-2.814,1.918-2.814,4.281
	c0,2.014,2.559,5.401,2.459,7.01c-0.82,0.46-3.359-3.783-4.67-3.783c-1.554,0-2.814,1.918-2.814,4.281
	c0,2.364,1.261,4.281,2.814,4.281c1.347,0,3.655-4.239,4.67-3.856l-1.705,7.565l4.091-0.024c0,0-1.792-7.334-1.794-7.508h0.031
	v0.008c0.995-0.376,3.383,3.897,4.72,3.897c1.554,0,2.813-1.918,2.813-4.282c0-2.363-1.26-4.281-2.813-4.281
	c-1.306,0-3.675,4.173-4.714,3.742c0.015-1.648,2.539-5.04,2.539-7.051C91.012,71.918,89.752,70,88.199,70z"/>
<path id="path2258" sodipodi:nodetypes="cscsssccccccssscsc" d="M48.161,119c1.553,0,2.813-1.918,2.813-4.281
	c0-2.014-2.559-5.401-2.459-7.01c0.821-0.461,3.359,3.782,4.671,3.782c1.553,0,2.813-1.918,2.813-4.281
	c0-2.364-1.26-4.281-2.813-4.281c-1.347,0-3.655,4.239-4.671,3.856l1.706-7.565l-4.091,0.024c0,0,1.792,7.335,1.794,7.508h-0.032
	v-0.008c-0.994,0.376-3.382-3.897-4.719-3.897c-1.553,0-2.813,1.918-2.813,4.282c0,2.363,1.26,4.281,2.813,4.281
	c1.306,0,3.674-4.174,4.714-3.742c-0.015,1.648-2.54,5.039-2.54,7.051C45.348,117.082,46.608,119,48.161,119z"/>
<path id="path2256" sodipodi:nodetypes="cscsssccccccssscsc" d="M89.801,119.78c1.554,0,2.814-1.918,2.814-4.282
	c0-2.014-2.559-5.4-2.46-7.01c0.821-0.46,3.36,3.783,4.671,3.783c1.554,0,2.814-1.918,2.814-4.281s-1.261-4.281-2.814-4.281
	c-1.347,0-3.655,4.238-4.671,3.855L91.861,100l-4.091,0.024c0,0,1.792,7.335,1.794,7.508h-0.031v-0.008
	c-0.995,0.376-3.383-3.897-4.72-3.897c-1.554,0-2.813,1.918-2.813,4.281s1.26,4.281,2.813,4.281c1.306,0,3.674-4.172,4.714-3.742
	c-0.015,1.648-2.539,5.04-2.539,7.051C86.988,117.862,88.248,119.78,89.801,119.78z"/>
<path id="path2264" sodipodi:nodetypes="cscsssccccccssscsc" d="M90.161,149.78c1.554,0,2.813-1.918,2.813-4.282
	c0-2.014-2.559-5.4-2.459-7.01c0.821-0.46,3.359,3.783,4.671,3.783c1.554,0,2.813-1.918,2.813-4.281s-1.26-4.281-2.813-4.281
	c-1.347,0-3.655,4.238-4.671,3.855L92.222,130l-4.091,0.024c0,0,1.792,7.335,1.794,7.508h-0.032v-0.008
	c-0.994,0.376-3.382-3.897-4.719-3.897c-1.554,0-2.814,1.918-2.814,4.281s1.261,4.281,2.814,4.281c1.306,0,3.674-4.172,4.713-3.742
	c-0.014,1.648-2.539,5.04-2.539,7.051C87.348,147.862,88.607,149.78,90.161,149.78z"/>
<path id="path2260" sodipodi:nodetypes="cscsssccccccssscsc" d="M49.161,149.78c1.553,0,2.813-1.918,2.813-4.282
	c0-2.014-2.559-5.4-2.459-7.01c0.821-0.46,3.359,3.783,4.671,3.783c1.553,0,2.813-1.918,2.813-4.281s-1.26-4.281-2.813-4.281
	c-1.347,0-3.655,4.238-4.671,3.855L51.222,130l-4.091,0.024c0,0,1.792,7.335,1.794,7.508h-0.032v-0.008
	c-0.994,0.376-3.382-3.897-4.719-3.897c-1.553,0-2.813,1.918-2.813,4.281s1.26,4.281,2.813,4.281c1.306,0,3.674-4.172,4.714-3.742
	c-0.015,1.648-2.54,5.04-2.54,7.051C46.348,147.862,47.608,149.78,49.161,149.78z"/>
<path fill="none" stroke="#000000" stroke-miterlimit="10" d="M134,171.32c0,6.762-5.623,12.244-12.56,12.244H17.298
	c-6.936,0-12.56-5.482-12.56-12.244V16.994c0-6.762,5.624-12.244,12.56-12.244H121.44c6.937,0,12.56,5.482,12.56,12.244V171.32z"/>
</svg>
