<?xml version="1.0" encoding="utf-8"?>
<!-- Generator: Adobe Illustrator 16.0.0, SVG Export Plug-In . SVG Version: 6.00 Build 0)  -->
<!DOCTYPE svg PUBLIC "-//W3C//DTD SVG 1.1//EN" "http://www.w3.org/Graphics/SVG/1.1/DTD/svg11.dtd">
<svg version="1.1"
	 id="svg2" xmlns:dc="http://purl.org/dc/elements/1.1/" xmlns:cc="http://web.resource.org/cc/" xmlns:rdf="http://www.w3.org/1999/02/22-rdf-syntax-ns#" xmlns:svg="http://www.w3.org/2000/svg" xmlns:sodipodi="http://inkscape.sourceforge.net/DTD/sodipodi-0.dtd" xmlns:inkscape="http://www.inkscape.org/namespaces/inkscape" sodipodi:docbase="/home/nicu/Desktop/card_nicu_buculei_01.zip_FILES/cards/white" sodipodi:docname="white_c_a.svg" inkscape:version="0.41+cvs" sodipodi:version="0.32"
	 xmlns="http://www.w3.org/2000/svg" xmlns:xlink="http://www.w3.org/1999/xlink" x="0px" y="0px" width="140px" height="190px"
	 viewBox="0 0 140 190" enable-background="new 0 0 140 190" xml:space="preserve">
<sodipodi:namedview  inkscape:cx="70.000000" inkscape:cy="95.000000" inkscape:zoom="1.0000000" borderopacity="1.0" bordercolor="#666666" pagecolor="#ffffff" id="base" inkscape:window-x="0" inkscape:pageshadow="2" inkscape:pageopacity="0.0" inkscape:window-height="791" inkscape:current-layer="svg2" inkscape:window-y="26" inkscape:window-width="1152">
	</sodipodi:namedview>
<g id="layer1" inkscape:label="Layer 1" inkscape:groupmode="layer">
	<g id="g5630">
		<path id="rect2070" fill-opacity="0.498" d="M21,5h103c8.864,0,16,7.136,16,16v153c0,8.864-7.136,16-16,16H21
			c-8.864,0-16-7.136-16-16V21C5,12.136,12.136,5,21,5z"/>
		<path id="rect1300" fill="#E7E7E7" d="M17,1h103c8.864,0,16,7.136,16,16v153c0,8.864-7.136,16-16,16H17c-8.864,0-16-7.136-16-16
			V17C1,8.136,8.136,1,17,1z"/>
		<path id="path5624" fill="#C7891F" d="M19,3h103c8.864,0,16,7.136,16,16v153c0,8.864-7.136,16-16,16H19c-8.864,0-16-7.136-16-16
			V19C3,10.136,10.136,3,19,3z"/>
		<path id="rect1306" fill="#FFFFFF" d="M18,2h103c8.864,0,16,7.136,16,16v153c0,8.864-7.136,16-16,16H18c-8.864,0-16-7.136-16-16
			V18C2,9.136,9.136,2,18,2z"/>
	</g>
	<g id="g5495" transform="translate(-448.5000,-231.5000)" inkscape:label="Layer 1" inkscape:groupmode="layer">
	</g>
</g>
<path id="text1481" d="M25.079,36.774H15.078L13.5,42.24H7.07l9.188-30h7.625l9.187,30h-6.429L25.079,36.774 M16.672,31.208h6.795
	l-3.389-11.936L16.672,31.208"/>
<path id="text4064" d="M113.611,152.096h10.001l1.578-5.466h6.43l-9.188,30h-7.626l-9.187-30h6.429L113.611,152.096
	 M122.018,157.662h-6.795l3.389,11.936L122.018,157.662"/>
<path id="path908" sodipodi:nodetypes="cscsssccccccssscsc" d="M20.527,48.665c-2.667,0-4.83,3.264-4.83,7.286
	c0,3.427,4.392,9.192,4.222,11.93c-1.41,0.782-5.767-6.438-8.019-6.438c-2.667,0-4.83,3.263-4.83,7.286
	c0,4.022,2.164,7.286,4.83,7.286c2.313,0,6.275-7.214,8.019-6.563L16.99,82.325l7.023-0.042c0,0-3.077-12.481-3.081-12.776h0.056
	v0.014c1.707-0.64,5.806,6.632,8.102,6.632c2.666,0,4.83-3.264,4.83-7.286c0-4.022-2.164-7.285-4.83-7.285
	c-2.243,0-6.308,7.1-8.093,6.368c0.025-2.805,4.359-8.576,4.359-11.999C25.357,51.929,23.194,48.665,20.527,48.665z"/>
<path id="path4052" sodipodi:nodetypes="cscsssccccccssscsc" d="M117.418,139.963c2.666,0,4.83-3.264,4.83-7.286
	c0-3.427-4.393-9.191-4.222-11.93c1.411-0.782,5.768,6.438,8.019,6.438c2.667,0,4.83-3.263,4.83-7.286
	c0-4.021-2.163-7.285-4.83-7.285c-2.313,0-6.275,7.215-8.019,6.563l2.929-12.873l-7.023,0.041c0,0,3.077,12.481,3.081,12.777h-0.056
	v-0.015c-1.707,0.64-5.806-6.632-8.102-6.632c-2.666,0-4.83,3.264-4.83,7.285c0,4.022,2.164,7.286,4.83,7.286
	c2.242,0,6.308-7.101,8.093-6.368c-0.025,2.806-4.36,8.576-4.36,11.999C112.588,136.699,114.752,139.963,117.418,139.963z"/>
<path id="path4078" sodipodi:nodetypes="cscsssccccccssscsc" d="M69.529,59.05c-5.726,0-10.372,7.013-10.372,15.656
	c0,7.363,9.432,19.751,9.065,25.634c-3.028,1.682-12.385-13.833-17.221-13.833c-5.726,0-10.372,7.013-10.372,15.656
	c0,8.644,4.646,15.655,10.372,15.655c4.966,0,13.477-15.502,17.221-14.102l-6.29,27.663l15.083-0.089c0,0-6.607-26.82-6.615-27.455
	h0.119v0.03c3.666-1.375,12.467,14.251,17.398,14.251c5.727,0,10.372-7.013,10.372-15.655c0-8.643-4.646-15.656-10.372-15.656
	c-4.816,0-13.546,15.258-17.379,13.684c0.054-6.029,9.362-18.43,9.362-25.785C79.901,66.063,75.256,59.05,69.529,59.05z"/>
<path fill="none" stroke="#000000" stroke-miterlimit="10" d="M134,172.07c0,6.762-5.623,12.244-12.56,12.244H17.298
	c-6.936,0-12.56-5.482-12.56-12.244V17.744c0-6.762,5.624-12.244,12.56-12.244H121.44c6.937,0,12.56,5.482,12.56,12.244V172.07z"/>
</svg>
