<svg xmlns="http://www.w3.org/2000/svg" width="140" height="190" xml:space="preserve"><path fill-opacity=".498" d="M21 5h103c8.864 0 16 7.136 16 16v153c0 8.864-7.136 16-16 16H21c-8.864 0-16-7.136-16-16V21c0-8.864 7.136-16 16-16z"/><path fill="#E7E7E7" d="M17 1h103c8.864 0 16 7.136 16 16v153c0 8.864-7.136 16-16 16H17c-8.864 0-16-7.136-16-16V17C1 8.136 8.136 1 17 1z"/><path fill="#C7891F" d="M19 3h103c8.864 0 16 7.136 16 16v153c0 8.864-7.136 16-16 16H19c-8.864 0-16-7.136-16-16V19c0-8.864 7.136-16 16-16z"/><path fill="#FFF" d="M18 2h103c8.864 0 16 7.136 16 16v153c0 8.864-7.136 16-16 16H18c-8.864 0-16-7.136-16-16V18C2 9.136 9.136 2 18 2z"/><path d="M18.684 12.234h6.396v21.359c0 2.947-.842 5.149-2.525 6.607-1.672 1.458-4.208 2.187-7.609 2.187H13.65v-4.611h.997c1.329 0 2.332-.354 3.007-1.062.687-.708 1.03-1.748 1.03-3.121V12.234M119.996 177H113.6v-21.359c0-2.945.842-5.147 2.525-6.605 1.672-1.458 4.209-2.188 7.609-2.188h1.295v4.61h-.996c-1.329 0-2.332.354-3.008 1.062-.687.709-1.029 1.748-1.029 3.121V177M20.527 48.665c-2.667 0-4.83 3.264-4.83 7.286 0 3.427 4.392 9.192 4.222 11.93-1.41.782-5.767-6.438-8.019-6.438-2.667 0-4.83 3.263-4.83 7.286 0 4.022 2.164 7.286 4.83 7.286 2.313 0 6.275-7.214 8.019-6.563L16.99 82.325l7.023-.042s-3.077-12.481-3.081-12.776h.056v.014c1.707-.64 5.806 6.632 8.102 6.632 2.666 0 4.83-3.264 4.83-7.286s-2.164-7.285-4.83-7.285c-2.243 0-6.308 7.1-8.093 6.368.025-2.805 4.359-8.576 4.359-11.999.001-4.022-2.162-7.286-4.829-7.286zM117.418 139.963c2.666 0 4.83-3.264 4.83-7.286 0-3.427-4.393-9.19-4.223-11.93 1.412-.782 5.769 6.438 8.02 6.438 2.667 0 4.83-3.264 4.83-7.287 0-4.021-2.163-7.284-4.83-7.284-2.313 0-6.275 7.215-8.02 6.563l2.93-12.872-7.023.04s3.077 12.481 3.082 12.777h-.057v-.015c-1.707.64-5.807-6.633-8.102-6.633-2.666 0-4.83 3.265-4.83 7.285 0 4.022 2.164 7.286 4.83 7.286 2.242 0 6.308-7.101 8.093-6.368-.025 2.807-4.36 8.576-4.36 11.999 0 4.023 2.164 7.287 4.83 7.287z"/><g><path fill="#DDB305" d="m87.648 50.874-7.405 14.229s-5.2-.895-9.021-1.06l3.092-16.095s3.091.243 7.639 1.137c4.559.895 5.695 1.789 5.695 1.789z"/><path fill="#A06702" d="M86.035 100.141c2.896 3.119 6.843 8.008 9.253 13.588 4.149 9.603 4.636 16.025 4.636 16.025v.088H76.832v-.176s.729-4.548 3.741-14.15c3.013-9.593 5.452-15.365 5.452-15.365l.01-.01z"/><path fill="#DDB305" d="M80 92.423a1.828 1.828 0 0 0-1.1-1.156l.205-.515c1.468.68 3.519.496 4.394-1.254l.028-.039c.176.175.39.331.623.447.369.185.748.301 1.117.35v.029c.146.02.291.059.428.107 1.38.486 1.953 4.879-1.545 5.938-.651.193-1.226.263-1.711.232-.264 0-.506-.039-.719-.106a3.047 3.047 0 0 1-2.031-1.72v-.01c.399-.806.525-1.701.311-2.303zM73.354 90.382c-1.43-1.419-1.683-4.471.066-5.686.924-.632 1.848-.651 2.518-.321.682.35 1.107 1.05 1.021 1.847l.389.059c-.232 1.215.078 2.682.69 3.577-.166.213-1.517 1.866-3.646 1.186a2.143 2.143 0 0 1-.574-.282 2.048 2.048 0 0 1-.464-.38zM75.616 129.832s.243-1.623 2.518-10.409c2.275-8.786 7.075-20.002 7.075-20.002l.078-.078c.242.253.496.517.748.798l-.01.01s-2.439 5.772-5.452 15.365c-3.013 9.604-3.741 14.15-3.741 14.15v.176h-1.216v-.01z"/><path fill="#DDB305" d="M74.393 91.043c2.129.68 3.479-.972 3.646-1.186.165.262.369.476.583.622.146.098.311.185.484.272l-.203.515c.477.175.904.573 1.099 1.156.214.603.088 1.497-.312 2.304v.01c-.496 1.011-1.42 1.896-2.652 1.924a3.125 3.125 0 0 1-1.42-.33 4.813 4.813 0 0 1-.291-.155c-2.723-1.565-1.584-5.297-1.584-5.297l.076-.117c.174.126.369.214.574.282z"/><path fill="#DDB305" d="M70.516 66.435c6.743.437 10.379 1.516 10.379 1.516 3.741 4.228 7.648 13.908 7.893 17.728.204 3.197-1.594 4.801-3.52 4.578a3.567 3.567 0 0 1-1.117-.35 2.443 2.443 0 0 1-.621-.447l-.03.039c-.875 1.75-2.926 1.934-4.395 1.254a4.389 4.389 0 0 1-.484-.272 2.11 2.11 0 0 1-.583-.622c-.612-.895-.924-2.362-.69-3.577l-.389-.059c.087-.797-.34-1.497-1.021-1.847 0-8.32-4.618-16.581-5.422-17.941zM72.283 127.227c-.408 1.304-2.692.816-3.091 2.439v.176H65.45v-.088c2.43-10.352 10.973-31.559 11.585-33.094 1.232-.028 2.156-.913 2.652-1.924.078.194.621 1.36 2.031 1.72l-.01.039s-1.866 0-2.197 1.138c-.32 1.137 1.789 1.545 1.303 2.848-.485 1.303-2.604 0-3.09 1.457-.486 1.469 2.273 1.226 1.545 2.771-.729 1.545-3.014.563-3.412 1.866-.407 1.302 2.519 1.302 1.944 2.683-.563 1.381-2.926.738-3.323 1.953-.408 1.225 2.108 1.788 1.535 3.256-.563 1.458-2.518.155-2.926 1.458-.408 1.302 1.953 1.545 1.391 3.013-.574 1.469-2.604.244-3.014 1.711-.408 1.459 2.273 1.623 1.788 2.926s-3.013.564-3.256 1.701c-.24 1.144 2.686.649 2.287 1.951z"/><path fill="#DDB305" d="M62.953 129.842c1.351-6.716 4.383-15.007 7.105-21.664.126-.33.262-.66.398-.972.815-2.003 1.604-3.83 2.294-5.396a199.845 199.845 0 0 1 1.613-3.576c.572-1.264.923-1.982.923-1.982l.039-.077c.097.06.194.106.291.155.506.243.991.34 1.42.33-.612 1.535-9.156 22.742-11.585 33.094v.088h-2.498zM71.71 47.861l-2.362 16.104s-7.882-.321-11.867.165l-1.302-16.27s1.38-.243 7.804-.156c6.424.08 7.727.157 7.727.157zM69.192 129.666c.398-1.623 2.683-1.137 3.091-2.439.398-1.302-2.527-.807-2.284-1.953.243-1.137 2.771-.397 3.256-1.7.486-1.302-2.196-1.468-1.788-2.925.408-1.469 2.439-.243 3.014-1.711.563-1.469-1.799-1.711-1.391-3.014s2.361 0 2.926-1.458c.573-1.468-1.943-2.03-1.535-3.256.397-1.215 2.761-.573 3.324-1.953.572-1.381-2.354-1.381-1.945-2.683.398-1.303 2.684-.321 3.412-1.866.729-1.546-2.03-1.303-1.545-2.771.485-1.457 2.604-.155 3.09-1.457.486-1.304-1.623-1.711-1.303-2.849.332-1.138 2.197-1.138 2.197-1.138l.01-.039c.213.068.456.107.719.107v.01s1.166 1.011 2.849 2.77l-.079.079s-4.801 11.216-7.075 20.002c-2.273 8.786-2.518 10.409-2.518 10.409v.01h-6.424l-.001-.175zM70.941 72.489c-.603-.068-8.241-.991-11.672.175l-.981-1.71s3.742-.398 8.212.574c3.567.777 4.296.932 4.441.961zM63.167 80.07c-1.292.078-2.274-3.907-2.274-3.907l.009-.078c.525.068 1.351.185 2.187.321.311.048.612.107.914.155l-.02.087c0 .001.486 3.335-.816 3.422zM61.466 115.193l-.486 2.772-3.421-.088-.894 6.425-2.926-.165 1.059-6.337-3.421-.331.486-2.595 3.091.078.651-3.257 2.848.166-.564 3.256z"/><path fill="#F2DBCC" d="M74.363 98.234c-14.705 4.742-17.942 1.595-17.942 1.595v-3.12c1.905 1.438 3.645 2.031 4.85 1.866 2.682-.369 9.136-3.547 11.983-8.096l.098-.097c.146.156.301.282.467.379l-.077.117s-1.138 3.732 1.584 5.297l-.039.077c-.001 0-.349.721-.924 1.982z"/><path fill="#DDB305" d="M72.682 101.782c-14.307 3.334-17.485.397-17.485.397l-.058-.029c.777-1.477 1.283-2.321 1.283-2.321s3.237 3.147 17.942-1.595c-.429.924-.982 2.139-1.613 3.576l-.069-.028zM65.363 89.575c-3.577.574-5.53-1.292-5.53-1.292s2.75 1.915 5.938.486c2.361-1.059 2.604-3.664 1.302-3.577-.894.049-.408.807-.408.807s-.564-.155-.486-.807c.078-.651 1.292-1.322 2.196-.573.973.816.574 4.393-3.012 4.956z"/><path fill="#A06702" d="M52.038 108.605c.233.185 3.966 2.817 17.883-.486l.136.059c-2.722 6.657-5.754 14.948-7.105 21.664H46.255v-.01c.428-7.494 3.227-15.415 5.783-21.227z"/><path fill="#DDB305" d="m53.253 48.27 2.274 16.017s-5.287.651-8.621 1.953l-8.047-14.472s.972-.816 6.181-2.274c5.2-1.468 8.213-1.224 8.213-1.224z"/><path fill="#A06702" d="M55.197 102.182s3.178 2.936 17.485-.398l.068.029a203.095 203.095 0 0 0-2.294 5.395l-.126-.059c-12.693 3.41-17.815.485-17.815.485l-.039-.02a98.236 98.236 0 0 1 2.663-5.464l.058.032z"/><path fill="#DDB305" d="M52.515 107.634s5.122 2.925 17.815-.485l.126.059a21.41 21.41 0 0 0-.398.973l-.136-.06c-13.917 3.305-17.65.671-17.883.485.146-.34.292-.67.438-.99l.038.018zM53.496 71.362s.612.787 1.234 2.031l-.02.01c-3.499-.904-7.474.564-7.474.564s.398-.564 2.187-1.545c1.789-.973 4.073-1.06 4.073-1.06zM52.515 86.164c1.875 0 1.954 1.623 1.39 2.031-.573.408-.894.331-.894.331s.972-.816.243-1.39c-.739-.563-2.08.719-1.39 2.041.36.69 1.39 1.167 2.508 1.283-.146.019-.301.019-.467.019-1.429 0-2.255-.583-2.624-1.312-.642-1.273.048-3.003 1.234-3.003zM52.767 77.047c.087.593.263 3.042-.826 3.392h-.019c-.166 0-.331-.01-.477-.02-1.03-.476-1.37-3.693-1.37-3.693v-.039c.641.059 1.74.176 2.692.36z"/><path fill="#F2DBCC" d="m60.902 76.085-.009.078s.981 3.985 2.274 3.907c1.302-.087.816-3.421.816-3.421l.02-.087c-.301-.048-.603-.107-.914-.155a70.116 70.116 0 0 0-2.187-.322zm-1.633-3.421c3.431-1.166 11.07-.243 11.672-.175-.146-.029-.875-.185-4.441-.962-4.471-.972-8.212-.574-8.212-.574l.981 1.711zm.564 15.619s1.954 1.866 5.53 1.292c3.586-.563 3.985-4.14 3.013-4.957-.904-.749-2.119-.078-2.196.573-.078.651.486.807.486.807s-.486-.758.408-.807c1.302-.087 1.059 2.518-1.302 3.577-3.189 1.429-5.939-.485-5.939-.485zm-5.462 2.177c1.633.175 3.469-.408 3.819-2.167.01-.01.01-.02.01-.029l.175-1.769s-2.527-.574-2.925-1.303c-.408-.738.972-3.907.642-7.406-.156-1.681-.768-3.236-1.361-4.393-.622-1.244-1.234-2.031-1.234-2.031s-2.284.087-4.072 1.06c-1.788.981-2.187 1.545-2.187 1.545l-.671.029c-.136-3.188.068-5.423.068-5.423s1.41-1.759 14.258-2.245a92.586 92.586 0 0 1 9.623.107c.807 1.36 5.422 9.622 5.422 17.941-.67-.33-1.594-.311-2.518.321-1.749 1.215-1.496 4.267-.066 5.686l-.099.097c-2.848 4.549-9.301 7.727-11.983 8.096-1.205.165-2.945-.428-4.85-1.866-.078-.06-.155-.116-.233-.175-1.886-1.497-3.907-3.81-5.695-7.017l.787-.35c.369.729 1.195 1.312 2.624 1.312.165-.001.32-.001.466-.02z"/><path fill="#F2DBCC" d="M52.767 77.047c-.952-.185-2.051-.301-2.692-.359v.039s.34 3.217 1.37 3.693c.107.049.224.068.34.049l.136-.029h.019c1.09-.351.914-2.799.827-3.393zm-5.53-3.08s3.975-1.468 7.474-.564l.02-.01c.593 1.157 1.205 2.712 1.361 4.393.33 3.499-1.05 6.667-.642 7.406.398.729 2.925 1.303 2.925 1.303l-.175 1.768c0 .01 0 .02-.01.029-.048.224-.583 2.012-3.819 2.167-1.118-.117-2.148-.593-2.508-1.283-.69-1.322.651-2.604 1.39-2.041.729.574-.243 1.39-.243 1.39s.321.078.894-.331c.564-.408.486-2.031-1.39-2.031-1.186 0-1.876 1.73-1.234 3.003l-.787.35a33.69 33.69 0 0 1-1.05-2.041c-2.07-4.393-2.711-9.631-2.877-13.48l.671-.028z"/><path fill="#DDB305" d="M56.421 99.829s-.505.846-1.283 2.321a98.236 98.236 0 0 0-3.101 6.455c-2.556 5.812-5.355 13.731-5.783 21.227v.01H44.39c-.02-.496.029-3.742 2.848-13.753 3.013-10.71 8.582-19.04 8.844-19.429l.01-.01.097-.116.233.175-.001 3.12z"/><path fill="#DDB305" d="M56.082 96.66c-.263.389-5.832 8.719-8.844 19.429-2.819 10.011-2.867 13.257-2.848 13.753h-1.711v-.088c.486-1.633-1.545-1.711-1.302-3.013.243-1.304 2.031-1.216 2.527-2.604.486-1.381-1.798-1.138-1.467-2.438.321-1.293 2.274-1.138 2.76-2.597.496-1.468-1.458-1.302-1.137-2.604.331-1.303 2.031-1.225 2.527-2.439.486-1.225-1.225-1.06-.981-2.273.243-1.225 2.361-.895 2.925-2.196.573-1.303-1.545-1.39-1.215-2.36.321-.974 1.866-.651 2.439-1.789.563-1.138-.894-1.215-.574-2.108.331-.896 1.954-.574 2.44-1.546.496-.98-.895-1.391-.651-2.041.244-.651 1.302-.807 2.041-1.137.622-.272.593-.904.573-1.09 1.409-.645 2.371-.839 2.498-.859z"/><path fill="#DDB305" d="M42.679 129.842h-4.383c1.652-14.617 7.377-25.074 8.786-27.467 0-.01.01-.02.01-.029 2.391-2.604 4.782-4.053 6.492-4.83.02.186.049.816-.573 1.09-.739.33-1.798.484-2.041 1.137-.243.652 1.147 1.06.651 2.041-.486.972-2.109.65-2.44 1.546-.32.894 1.137.972.574 2.108-.574 1.138-2.119.815-2.439 1.789-.331.972 1.788 1.059 1.215 2.36-.564 1.304-2.683.972-2.925 2.196-.243 1.215 1.467 1.05.981 2.273-.496 1.215-2.196 1.137-2.527 2.439-.321 1.303 1.633 1.137 1.137 2.604-.486 1.459-2.439 1.303-2.76 2.596-.331 1.303 1.954 1.06 1.467 2.439-.496 1.391-2.284 1.303-2.527 2.604s1.789 1.38 1.302 3.013v.091z"/><path fill="#A06702" d="M71.225 64.043c3.818.165 9.02 1.06 9.02 1.06l7.404-14.229s-1.137-.894-5.694-1.788c-4.548-.894-7.64-1.137-7.64-1.137l-3.09 16.094zm-13.744.088c3.985-.486 11.867-.165 11.867-.165l2.362-16.104s-1.303-.078-7.727-.156c-6.424-.087-7.804.156-7.804.156l1.302 16.269zm-1.954.156L53.253 48.27s-3.013-.243-8.213 1.225c-5.209 1.458-6.181 2.274-6.181 2.274l8.047 14.472c3.334-1.303 8.621-1.954 8.621-1.954zm5.366 2.041c-12.849.486-14.258 2.245-14.258 2.245s-7.172-12.382-8.912-15.347c-.816-1.38-1.468-2.439-1.468-2.439s7.396-5.608 29.604-5.442c22.198.165 25.124 4.801 25.124 4.801L80.895 67.951s-3.636-1.079-10.379-1.516a92.309 92.309 0 0 0-9.623-.107zM47.082 102.375c-1.409 2.393-7.134 12.85-8.786 27.467h-1.633v-.01s.243-8.456 5.608-20.09c1.448-3.138 3.12-5.54 4.811-7.367z"/><g><path fill="none" stroke="#000" stroke-width=".5" stroke-miterlimit="10" d="M73.255 90.479c-2.848 4.549-9.301 7.727-11.983 8.096-1.205.165-2.945-.429-4.85-1.866l-.233-.175c-1.886-1.497-3.907-3.81-5.695-7.017a33.69 33.69 0 0 1-1.05-2.041c-2.07-4.393-2.711-9.631-2.877-13.48-.136-3.188.068-5.423.068-5.423s1.41-1.759 14.258-2.245a92.586 92.586 0 0 1 9.623.107c6.743.437 10.379 1.516 10.379 1.516 3.741 4.228 7.648 13.908 7.893 17.728.204 3.197-1.594 4.801-3.52 4.578a3.567 3.567 0 0 1-1.117-.35 2.443 2.443 0 0 1-.621-.447c-1.557-1.467-1.079-4.675.301-5.326 1.546-.729 3.577.078 2.838 1.954-.729 1.866-1.788 1.215-1.788 1.215M36.371 129.842h63.697"/><path fill="none" stroke="#000" stroke-width=".5" stroke-miterlimit="10" d="M74.723 88.03s1.137.738 2.031-1.137c.105-.224.176-.447.204-.671.087-.797-.34-1.497-1.021-1.847-.672-.33-1.595-.311-2.519.321-1.749 1.215-1.496 4.267-.067 5.686.146.156.301.282.467.379a2.1 2.1 0 0 0 .574.282c2.127.68 3.479-.972 3.645-1.186.01-.02.02-.029.02-.029"/><path fill="none" stroke="#000" stroke-width=".5" stroke-miterlimit="10" d="M79.757 87.709s1.06.816 1.876-.729c.807-1.545-.895-3.664-3.013-2.605-.72.36-1.118 1.079-1.272 1.905-.233 1.215.077 2.682.689 3.577.165.262.369.476.583.622.146.098.312.185.485.272 1.468.68 3.519.496 4.394-1.254M70.407 66.24s.039.068.106.195c.807 1.36 5.424 9.622 5.424 17.941M79.689 94.727c.397-.807.523-1.701.311-2.304a1.828 1.828 0 0 0-1.1-1.156c-.863-.321-1.924.107-2.234 1.564"/><path fill="none" stroke="#000" stroke-width=".5" stroke-miterlimit="10" d="M73.741 90.878s-1.138 3.732 1.584 5.297c.097.06.194.106.291.155.506.243.991.34 1.42.33 1.233-.028 2.157-.913 2.653-1.924M79.68 94.707s0 .01.01.02v.01c.078.194.621 1.361 2.031 1.72.213.068.456.107.719.107.486.028 1.061-.039 1.711-.233 3.498-1.06 2.926-5.452 1.545-5.938a2.163 2.163 0 0 0-.428-.107c-1.359-.194-3.041.719-2.09 3.285M72.604 67.056s3.17 2.848 4.638 13.335M75.364 68.028s3.333 3.907 4.315 13.908M78.299 70.06s3.246 5.938 4.063 12.693M80.573 71.362s2.438 3.985 3.334 8.951M82.604 72.499s1.877 3.256 2.439 5.53"/><path fill="none" stroke="#000" stroke-width=".5" stroke-miterlimit="10" d="M46.634 68.573s-7.172-12.382-8.912-15.347c-.816-1.38-1.468-2.439-1.468-2.439s7.396-5.608 29.604-5.442c22.199.165 25.125 4.801 25.125 4.801L80.895 67.951"/><path fill="none" stroke="#000" stroke-width=".5" stroke-miterlimit="10" d="M46.907 66.24 38.86 51.768s.972-.816 6.181-2.274c5.2-1.468 8.213-1.225 8.213-1.225l2.274 16.017c-.001.001-5.288.652-8.621 1.954zM57.481 64.131l-1.302-16.27s1.38-.243 7.804-.156c6.424.078 7.727.156 7.727.156l-2.362 16.104c0 .001-7.882-.32-11.867.166zM71.225 64.043l3.09-16.095s3.092.243 7.64 1.137c4.56.894 5.694 1.788 5.694 1.788l-7.404 14.229c-.002.001-5.202-.894-9.02-1.059zM58.375 86.495s-2.527-.574-2.925-1.303c-.408-.738.972-3.907.642-7.406-.156-1.681-.768-3.236-1.361-4.393-.622-1.244-1.234-2.031-1.234-2.031s-2.284.087-4.072 1.06c-1.788.981-2.187 1.545-2.187 1.545s3.975-1.468 7.474-.564M70.98 72.499s-.01 0-.039-.01M59.269 72.664l-.981-1.71s3.742-.398 8.212.574c3.567.777 4.296.933 4.441.962-.602-.069-8.241-.992-11.672.174z"/><path fill="none" stroke="#000" stroke-width=".5" stroke-miterlimit="10" d="M49.346 75.269s3.091.321 4.315.729M60.241 74.618l5.618.972M49.511 76.649s.214.01.564.039c.641.058 1.74.175 2.692.359.35.078.69.156.972.253M60.329 75.998s.224.029.573.087c.525.068 1.351.185 2.187.321.311.048.612.107.914.155a18.63 18.63 0 0 1 1.526.331M51.941 80.439c.292.01.603 0 .904-.048M50.726 80.313a5.846 5.846 0 0 0 1.196.127M61.787 80.07s1.467.243 2.527-.087"/><path fill="none" stroke="#000" stroke-width=".5" stroke-miterlimit="10" d="M50.075 76.727s.34 3.217 1.37 3.693c.107.049.224.068.34.049l.136-.029h.019c1.089-.35.914-2.799.826-3.392 0-.029-.01-.048-.01-.068M60.893 76.163s.981 3.985 2.274 3.907c1.302-.087.816-3.421.816-3.421"/><path d="M50.813 76.814s.321 2.76.895 2.682c.563-.078 0-2.517 0-2.517l-.895-.165zM61.787 76.406s.729 2.925 1.137 2.77c.408-.165.165-2.77.165-2.77h-1.302z"/><path fill="none" stroke="#000" stroke-width=".5" stroke-miterlimit="10" d="M59.833 88.283s1.954 1.866 5.53 1.292c3.586-.563 3.985-4.14 3.013-4.957-.904-.749-2.119-.078-2.196.573-.078.651.486.807.486.807s-.486-.758.408-.807c1.302-.087 1.059 2.518-1.302 3.577-3.189 1.429-5.939-.485-5.939-.485zM58.19 88.292c-.048.224-.583 2.012-3.819 2.167-.146.019-.301.019-.467.019-1.429 0-2.255-.583-2.624-1.312-.642-1.273.048-3.003 1.234-3.003 1.875 0 1.954 1.623 1.39 2.031-.573.408-.894.331-.894.331s.972-.816.243-1.39c-.739-.563-2.08.719-1.39 2.041.36.69 1.39 1.167 2.508 1.283 1.633.176 3.469-.407 3.819-2.167.01-.01.01-.02.01-.029M56.665 91.772s1.137-.243 1.788-.078c.651.165 1.38-.486 2.362-.486.972 0 2.683.078 2.683.078M58.541 93.726s1.701.243 2.517-.243M56.421 96.65V99.829s3.237 3.147 17.942-1.595c.037-.01.076-.028.115-.039M56.421 99.829s-.505.846-1.283 2.321a98.236 98.236 0 0 0-3.101 6.455c-2.556 5.812-5.355 13.731-5.783 21.227"/><path fill="none" stroke="#000" stroke-width=".5" stroke-miterlimit="10" d="M75.286 96.252s-.351.721-.923 1.982c-.428.924-.982 2.139-1.613 3.576a204.696 204.696 0 0 0-2.294 5.396c-.136.312-.272.642-.398.972-2.722 6.657-5.754 14.948-7.105 21.664l-.029.155M47.082 102.375c-1.691 1.827-3.363 4.229-4.811 7.367-5.365 11.634-5.608 20.09-5.608 20.09M56.091 96.65l-.01.01c-.126.02-1.089.214-2.498.855-1.71.776-4.101 2.226-6.492 4.83M44.39 129.909v-.067c-.02-.496.029-3.742 2.848-13.753 3.013-10.71 8.582-19.04 8.844-19.429"/><path fill="none" stroke="#000" stroke-width=".5" stroke-miterlimit="10" d="M47.393 101.859s-.107.166-.301.485c0 .011-.01.021-.01.029-1.409 2.392-7.134 12.849-8.786 27.467 0 .019-.01.048-.01.067M82.439 96.573s1.166 1.011 2.848 2.77c.242.253.496.517.748.798 2.896 3.119 6.843 8.008 9.253 13.588 4.149 9.603 4.636 16.025 4.636 16.025M77.074 96.573s-.01.028-.038.087c-.612 1.535-9.156 22.742-11.585 33.094"/><path fill="none" stroke="#000" stroke-width=".5" stroke-miterlimit="10" d="M85.209 99.421s-4.801 11.216-7.075 20.002-2.518 10.409-2.518 10.409M86.025 100.148s-2.439 5.773-5.452 15.367c-3.013 9.603-3.741 14.149-3.741 14.149M55.197 102.182s3.178 2.936 17.485-.398M52.515 107.634s5.122 2.925 17.815-.485"/><path fill="none" stroke="#000" stroke-width=".5" stroke-miterlimit="10" d="M52.029 108.605h.009c.233.185 3.966 2.817 17.883-.486M53.574 97.467s0 .02.01.049c.02.186.049.816-.573 1.09-.739.33-1.798.484-2.041 1.137-.243.652 1.147 1.06.651 2.041-.486.972-2.109.65-2.44 1.546-.32.894 1.137.972.574 2.108-.574 1.138-2.119.815-2.439 1.789-.331.972 1.788 1.059 1.215 2.36-.564 1.304-2.683.972-2.925 2.196-.243 1.215 1.467 1.05.981 2.273-.496 1.215-2.196 1.137-2.527 2.439-.321 1.303 1.633 1.137 1.137 2.604-.486 1.459-2.439 1.303-2.76 2.596-.331 1.303 1.954 1.06 1.467 2.439-.496 1.391-2.284 1.303-2.527 2.604s1.789 1.38 1.302 3.013M81.711 96.495s-1.865 0-2.197 1.138c-.32 1.137 1.789 1.545 1.303 2.848-.485 1.303-2.604 0-3.09 1.457-.485 1.469 2.273 1.226 1.545 2.771-.729 1.545-3.014.563-3.412 1.866-.407 1.302 2.519 1.302 1.945 2.683-.563 1.381-2.927.738-3.324 1.953-.408 1.225 2.108 1.788 1.535 3.256-.563 1.458-2.518.155-2.926 1.458-.408 1.302 1.953 1.545 1.391 3.013-.573 1.469-2.604.244-3.014 1.711-.408 1.459 2.274 1.623 1.788 2.926-.485 1.303-3.013.564-3.256 1.701-.243 1.146 2.683.65 2.284 1.953-.408 1.303-2.692.815-3.091 2.438"/><path fill="none" stroke="#000" stroke-width=".5" stroke-miterlimit="10" d="M52.952 99.119s0 .71-.758 1.195M50.347 100.693s-.428.38-.593 1.244M50.999 103.025s-.166.808-.651 1.244M48.51 104.378s-.496.437-.544 1.253M49.317 106.875s-.048.593-.428 1.139M46.984 108.557s-.321.486-.428 1.352M47.694 111.21s-.107.758-.544 1.36M45.147 113.105s-.379.543-.438 1.302M45.954 115.875s-.048.865-.379 1.303M43.573 118.256s-.272.604-.321 1.244M44.545 120.919s-.049 1.079-.428 1.565M42.329 123.301s-.486.699-.379 1.467M43.408 126.061s.059 1.195-.379 1.683M41.299 128.617s-.331.484-.166 1.186M81.574 97.166s-.215.875-.651 1.254M79.027 99.07c-.059.156-.438.594-.438 1.187M80.225 101.725s-.225.924-.651 1.303M77.298 103.514s-.438.65-.438 1.243M78.328 106.225s-.116.815-.495 1.352M75.771 108.119s-.535.758-.485 1.359M76.968 110.891s-.272.971-.651 1.623M74.148 112.998s-.545.71-.485 1.361M75.346 115.875s-.166.865-.545 1.409M72.633 117.605s-.438.603-.484 1.252M73.712 120.424s0 .874-.379 1.36M71.117 122.212s-.438.758-.496 1.526M72.574 124.924s0 .758-.271 1.03M70.086 126.498s-.437.438-.437 1.244M71.389 128.938s0 .486-.164.865"/></g></g><path fill="#DDB305" stroke="#000" stroke-width=".25" stroke-miterlimit="10" d="M56.593 115.863s2.995-3.57 4.885-1.3c3.164 3.801-6.38 10.078-6.38 10.078s-5.055-7.381-2.673-10.202c2.266-2.683 4.168 1.424 4.168 1.424z"/><path fill="none" stroke="#000" stroke-miterlimit="10" d="M134 172.07c0 6.762-5.623 12.244-12.56 12.244H17.298c-6.936 0-12.56-5.482-12.56-12.244V17.744c0-6.762 5.624-12.244 12.56-12.244H121.44c6.937 0 12.56 5.482 12.56 12.244V172.07z"/></svg>