<svg xmlns="http://www.w3.org/2000/svg" width="140" height="190" xml:space="preserve"><path fill-opacity=".498" d="M21 5h103c8.864 0 16 7.136 16 16v153c0 8.864-7.136 16-16 16H21c-8.864 0-16-7.136-16-16V21c0-8.864 7.136-16 16-16z"/><path fill="#E7E7E7" d="M17 1h103c8.864 0 16 7.136 16 16v153c0 8.864-7.136 16-16 16H17c-8.864 0-16-7.136-16-16V17C1 8.136 8.136 1 17 1z"/><path fill="#C7891F" d="M19 3h103c8.864 0 16 7.136 16 16v153c0 8.864-7.136 16-16 16H19c-8.864 0-16-7.136-16-16V19c0-8.864 7.136-16 16-16z"/><path fill="#FFF" d="M18 2h103c8.864 0 16 7.136 16 16v153c0 8.864-7.136 16-16 16H18c-8.864 0-16-7.136-16-16V18C2 9.136 9.136 2 18 2z"/><path d="M10.027 12.24h6.396v10.951l9.22-10.951h7.426L21.125 26.446 34.299 42.24h-8.008l-9.868-11.815V42.24h-6.396v-30M128.662 176.63h-6.396v-10.95l-9.22 10.95h-7.427l11.943-14.206-13.174-15.794h8.008l9.869 11.815V146.63h6.396l.001 30M20.527 48.665c-2.667 0-4.83 3.264-4.83 7.286 0 3.427 4.392 9.192 4.222 11.93-1.41.782-5.767-6.438-8.019-6.438-2.667 0-4.83 3.263-4.83 7.286 0 4.022 2.164 7.286 4.83 7.286 2.313 0 6.275-7.214 8.019-6.563L16.99 82.325l7.023-.042s-3.077-12.481-3.081-12.776h.056v.014c1.707-.64 5.806 6.632 8.102 6.632 2.666 0 4.83-3.264 4.83-7.286s-2.164-7.285-4.83-7.285c-2.243 0-6.308 7.1-8.093 6.368.025-2.805 4.359-8.576 4.359-11.999.001-4.022-2.162-7.286-4.829-7.286zM117.418 139.963c2.666 0 4.83-3.264 4.83-7.286 0-3.427-4.393-9.19-4.223-11.93 1.412-.782 5.769 6.438 8.02 6.438 2.667 0 4.83-3.264 4.83-7.287 0-4.021-2.163-7.284-4.83-7.284-2.313 0-6.275 7.215-8.02 6.563l2.93-12.872-7.023.04s3.077 12.481 3.082 12.777h-.057v-.015c-1.707.64-5.807-6.633-8.102-6.633-2.666 0-4.83 3.265-4.83 7.285 0 4.022 2.164 7.286 4.83 7.286 2.242 0 6.308-7.101 8.093-6.368-.025 2.807-4.36 8.576-4.36 11.999 0 4.023 2.164 7.287 4.83 7.287z"/><g><path fill="#B77E00" d="M75.833 107.33c4.51-4.21 7.181-5.641 7.79-5.939h.01a5.135 5.135 0 0 0 1.75-.439l.01.02s6.15 4.53 10.521 15.301c3.891 9.58 4.12 13.619 4.12 14.399h-40.21c.24-.601 1.3-3.101 3.5-6.72 2.539-4.172 7.319-11.802 12.509-16.622z"/><path fill="#EDC607" d="M76.083 63.1c.66.46 1.479 1.07 1.479 1.07s-1.779.66-2.289.45c-.512-.2-.36-1.12-.36-1.12s.51-.86 1.17-.4zM74.104 62.64s-.41-.19-.511-.53a.657.657 0 0 1 .05-.44c.312-.61 1.121-1.47 1.121-1.47s.459 1.27.25 1.78c-.201.51-.91.66-.91.66zM71.913 64.11c-.649-.26-1.37-1.32-1.37-1.32s1.021-.15 1.68-.25c.03 0 .062-.01.102-.01.58 0 .81.87.81.87s-.2.71-.909.77a.716.716 0 0 1-.313-.06z"/><path fill="#B77E00" d="M77.563 64.17s-.819-.61-1.479-1.07-1.17.4-1.17.4-.149.92.36 1.12c.509.21 2.289-.45 2.289-.45zm-5.34 0c.711-.06.91-.77.91-.77s-.229-.87-.81-.87l1.27-.42c.101.34.511.53.511.53s.711-.15.91-.66c.209-.51-.25-1.78-.25-1.78l.159-.9c12.2 2.04 19.841-.12 19.841-.12s-1.221 1.07-4.189 5.8c-1.03 1.64-2.17 3.64-3.2 5.53l-.08-.04s-.53.3-1.45-.08c-.91-.38 0-1.29-1.369-1.52-1.371-.23-1.221.68-2.359.38-1.15-.31-.311-1.22-1.61-1.45-1.29-.23-1.37.69-2.659.46-1.301-.229-.609-1.3-1.761-1.53a2.01 2.01 0 0 0-.33-.03l-.01-.4c-1.67-.13-3.091-.38-4.24-.72l.41-1.47c.106.04.206.07.306.06z"/><path fill="#8E3D00" d="M70.514 74.21c6.699 1.11 11.879 2.68 13.029 3.04-.229.56-2.609 14.96 1.18 19.15.61-1.22 2.7-1.73 3.15.56.3 1.49-.7 3.2-2.49 3.99a5.09 5.09 0 0 1-1.75.438h-.01c-.53.041-1.1.012-1.689-.108-1.051-.21-2.069-.761-3.041-1.58a2.329 2.329 0 0 0-.619-.57c-1.42-1.38-2.721-3.34-3.84-5.67a39.037 39.037 0 0 1-1.859-4.59c-2.18-6.51-2.08-14.54-2.08-14.54l.019-.12z"/><path d="M62.713 83.03c-.71.1-.81-1.99-.81-1.99l1.42.05s.1 1.83-.61 1.94z"/><path fill="#EDC607" d="M65.053 110.02s-.36-2.898-3.41-.148c0 0 .67-1.73 2.39-1.73 1.73-.001 1.02 1.878 1.02 1.878z"/><path fill="#8E3D00" d="M62.563 77.59c-2.44-.21-3.25.15-3.25.15l-.87-1.42s3.46-1.12 9.81 2.23c0 0-3.25-.76-5.69-.96zM61.903 81.04s.1 2.09.81 1.99c.71-.11.61-1.94.61-1.94.35.06.7.13 1.04.23l-.02.08s-.1 2.59-1.63 2.54c-1.52-.05-1.73-3.05-1.73-3.05.43.01 1.36.04 2.34.2l-1.42-.05zM62.333 106.59c-1.01-.84-1.74-2.13-1.96-3.99l.02-.05c.63.19 1.19.25 1.67.181 2.51-.34 9.15-3.311 12.35-9.259l.021-.01c1.119 2.33 2.42 4.29 3.84 5.67.199.21.41.4.619.57.11.119.2.26.291.41.989 1.68.271 4.47-2.74 5.229l-.01.01c-1.181.291-2.711.271-4.631-.25-.09.182-.199.36-.34.551a2.51 2.51 0 0 1-.311.351s-.021.021-.051.06c0 .012-.01.012-.01.021-.479.49-1.11.9-1.84 1.2-2.118.905-5.008.936-6.918-.694z"/><path fill="#EDC607" d="M59.113 130.67c.36-.84 2.42-5.42 7.36-12.92 5.32-8.08 9.69-12.15 9.958-12.4l.012-.01c3.01-.76 3.729-3.55 2.738-5.229-.09-.15-.18-.291-.289-.41.971.818 1.989 1.369 3.039 1.58.592.119 1.16.148 1.69.109-.61.301-3.28 1.729-7.79 5.939-5.189 4.82-9.97 12.449-12.51 16.62-2.2 3.62-3.26 6.12-3.5 6.72h-.708zM61.813 117.02c-.46.19-1.19.45-1.64.422-.61-.041-.8-.83-.69-1.211a.278.278 0 0 1 .08-.16s.31-1.271 1.12-.76c.81.51 1.57 1.521 1.57 1.521s-.18.088-.44.188z"/><path fill="#8E3D00" d="M62.003 94.16c-2.8.15-3.66-1.83-3.66-1.83 5.24 3.35 6.25-1.53 6.25-1.53s.21 3.21-2.59 3.36z"/><path fill="#EDC607" d="M58.003 130.67c.12-.311 1.03-2.57 4.36-10.029 3.38-7.58 8.151-13.811 8.73-14.561 0-.01.011-.01.011-.021.029-.02.051-.039.051-.06.119-.11.22-.229.31-.351.14-.189.25-.369.341-.551 1.92.521 3.449.541 4.629.25-.27.25-4.64 4.32-9.958 12.4-4.94 7.5-7 12.08-7.36 12.92h-1.112v.003zM58.393 114.75s-1.02-.46-.61-1.17c.41-.71 1.58-2.08 1.58-2.08s.66 1.83.56 2.59c-.11.76-1.53.66-1.53.66zM56.923 120.641s-.41-1.721-.41-2.49c0-.76.46-1.17 1.42-.76 0 0 1.02.26.51 1.119-.51.86-1.52 2.131-1.52 2.131zM57.473 116.04c.06-.34.32-.66.67-.63.57.06.65.49.55.84-.03.08-.06.16-.1.23-.2.35-.86.398-1.06 0a.722.722 0 0 1-.06-.44z"/><path fill="#EDC607" d="M57.453 130.67c.18-.609 1.4-4.42 5.16-12.16.15-.3.29-.59.43-.88 3.87-7.8 6.23-10.3 6.23-10.3l-.02-.051c.73-.299 1.36-.709 1.84-1.199-.579.75-5.35 6.979-8.73 14.561-3.33 7.459-4.24 9.721-4.36 10.029h-.55zM56.813 109.46s-.2-1.271.82-1.37c1.01-.1 1.22 1.62 1.22 1.62-1.27-2.13-2.04-.25-2.04-.25zM56.053 117.04c-.71.2-1.93-1.431-1.93-1.431s1.83-1.069 2.39-1.01c.56.051.36 1.061.36 1.061s-.02.16-.07.38c-.1.36-.31.87-.75 1zM54.033 130.67c.04-.311.36-2.33.65-3.82l.3-1.63.92.101s-.7 3.41-.96 5.351l-.91-.002z"/><path fill="#B77E00" d="M64.033 108.141c-1.72 0-2.39 1.729-2.39 1.729 3.05-2.75 3.41.149 3.41.149s.71-1.878-1.02-1.878zm-5.64 6.609s1.42.1 1.53-.66c.1-.76-.56-2.59-.56-2.59s-1.17 1.37-1.58 2.08c-.41.71.61 1.17.61 1.17zm-.76-6.66c-1.02.102-.82 1.37-.82 1.37s.77-1.88 2.04.25c0 0-.21-1.72-1.22-1.62zm-1.12 6.51c-.56-.06-2.39 1.012-2.39 1.012l-.34-.08c1.03-4.36 1.97-7.59 1.97-7.59 1.84.459 3.31-.32 4.19-1.291.09.181.42.92.38 1.541l-.05.709s.97-1.931 2.04-2.289l.02-.021c1.91 1.63 4.8 1.602 6.92.689l.02.051s-2.36 2.5-6.23 10.3l-1.23-.61c.26-.1.44-.188.44-.188s-.76-1.011-1.57-1.521c-.81-.511-1.12.76-1.12.76a.278.278 0 0 0-.08.16l-.79.021c.1-.351.02-.78-.55-.84-.35-.03-.61.29-.67.63h-.67c.05-.221.07-.38.07-.38s.2-1.013-.36-1.063z"/><path fill="#EDC607" d="M53.423 130.67c.05-.32.38-2.46.75-4.43.41-2.141.46-2.391.46-2.391l2.54.101s-1.16 3.18-1.58 6.72h-.65c.26-1.939.96-5.35.96-5.35l-.92-.102-.3 1.631c-.29 1.489-.61 3.51-.65 3.819l-.61.002zM53.543 51.56c.11-.21.23-.34.38-.36.71-.07 1.42 4.98.2 5.14-1.04.13-1.16-3.6-.58-4.78z"/><path fill="#B77E00" d="M57.933 117.391c-.96-.41-1.42 0-1.42.76 0 .771.41 2.49.41 2.49s1.01-1.271 1.52-2.131c.51-.86-.51-1.119-.51-1.119zm-6.76 13.269c.31-4.67 1.51-10.54 2.61-15.13l.34.079s1.22 1.631 1.93 1.431c.44-.13.65-.64.75-1h.67c-.02.16-.01.31.06.44.2.398.86.35 1.06 0 .04-.07.07-.15.1-.23l.79-.02c-.11.379.08 1.17.69 1.209.45.029 1.18-.229 1.64-.42l1.23.609c-.14.29-.28.58-.43.88-3.76 7.74-4.98 11.55-5.16 12.16h-1.86c.42-3.54 1.58-6.72 1.58-6.72l-2.54-.102s-.05.25-.46 2.392c-.37 1.97-.7 4.108-.75 4.43h-2.25v-.008zM61.753 73.21c-10.66-.63-13.06 1.07-13.38 1.35l-.04-.05-3.23-4.37c.95-.45 15.21-6.85 41.51 1.4l.148.08c-1.68 3.11-2.979 5.71-2.979 5.71s-.08-.03-.24-.08c-1.15-.36-6.33-1.93-13.029-3.04-2.72-.44-5.7-.82-8.76-1z"/><path d="M52.293 83.48c-.66-.15-.71-1.98-.71-1.98l1.06.04h.01c.08.02.17.03.25.05.1.67.04 2.05-.61 1.89z"/><path fill="#8E3D00" d="M50.973 77.03c1.93-.561 3.86-.36 3.86-.36s.3.53.62 1.42h-.01c-3.03-.69-6.65.07-6.8.1.05-.07.52-.63 2.33-1.16zM51.993 91.72c1.88 3.66 5.43.66 5.43.66s-.91 2.03-3.2 1.83c-.95-.08-1.5-.53-1.81-1.02-.44-.69-.42-1.47-.42-1.47z"/><path fill="#B77E00" d="M41.873 117.6c3.96-7.3 9.16-12.06 10.29-12.959-.32 1.84-3.32 19.079-3.33 26.029h-11.83l-.04-.01c.09-.73.85-5.58 4.91-13.06z"/><path fill="#8E3D00" d="M52.393 84.55c-1.72-.19-1.58-2.9-1.57-3.09.47-.04 1.11-.04 1.82.08l-1.06-.04s.05 1.83.71 1.98c.65.16.71-1.22.61-1.89.28.05.57.13.86.22v.01c.03.22.34 2.92-1.37 2.73z"/><path fill="#EDC607" d="M50.613 130.67c.37-7.79 4.27-22.99 4.27-22.99l.01-.029c.27.109.55.211.86.291 0 0-.94 3.229-1.97 7.59-1.1 4.59-2.3 10.46-2.61 15.13v.01l-.56-.002z"/><path fill="#EDC607" d="M54.883 107.68s-3.9 15.2-4.27 22.99h-.86c.26-7.59 3.4-24.21 3.4-24.21l.09-.069c.39.5.94.939 1.65 1.26l-.01.029z"/><path fill="#8E3D00" d="M49.343 97.311c-1.07-.399-2.03-2.03-1.47-3.811.53-1.68 2.69-2.01 3.26-.71l.04-.02c.14.29.28.57.43.84 2.79 5.3 6.29 8.17 8.79 8.94l-.02.05c.22 1.86.95 3.15 1.96 3.99l-.02.021c-1.07.359-2.04 2.289-2.04 2.289l.05-.709c.04-.621-.29-1.36-.38-1.541-.88.971-2.35 1.75-4.19 1.291-.31-.08-.59-.182-.86-.291-.71-.319-1.26-.76-1.65-1.26a3.913 3.913 0 0 1-.79-1.92c-.06-.479-.03-.939.07-1.359-2.53-.12-4.65-1.44-4.09-4.07.16-.771.53-1.311.98-1.63l-.07-.1z"/><path fill="#EDC607" d="M48.833 130.67c.01-6.95 3.01-24.189 3.33-26.029.14-.109.21-.16.23-.16l.06-.011c.08.65.33 1.33.79 1.921l-.09.069s-3.14 16.62-3.4 24.21h-.92z"/><path fill="#EDC8C3" d="M52.643 81.54c-.71-.12-1.35-.12-1.82-.08-.01.19-.15 2.9 1.57 3.09 1.71.19 1.4-2.51 1.37-2.73v-.01c-.29-.09-.58-.17-.86-.22v-.04l-.25-.01h-.01zm-1.68 10.79c-2.21-4.72-2.69-10.48-2.72-14.12l.39-.01.01-.01c.15-.03 3.77-.79 6.8-.1h.01c.45 1.26.96 3.24.75 5.44-.35 3.77-1.47 5.189-.86 5.95.61.76 2.39 1.17 2.39 1.17l-.31 1.73s-3.55 3-5.43-.66c0 0-.02.78.42 1.47l-.81.42c-.15-.27-.29-.55-.43-.84-.07-.14-.14-.29-.21-.44z"/><path fill="#EDC8C3" d="M64.363 81.32c-.34-.1-.69-.17-1.04-.23-.98-.16-1.91-.19-2.34-.2 0 0 .21 3 1.73 3.05 1.53.05 1.63-2.54 1.63-2.54l.02-.08zm3.89-2.77c-6.35-3.35-9.81-2.23-9.81-2.23l.87 1.42s.81-.36 3.25-.15c2.44.2 5.69.96 5.69.96zm-9.91 13.78s.86 1.98 3.66 1.83c2.8-.15 2.59-3.36 2.59-3.36s-1.01 4.88-6.25 1.53zm-7.37-15.3c-1.81.53-2.28 1.09-2.33 1.16l-.01.01-.39.01c-.04-2.18.09-3.61.09-3.61l.04-.04c.32-.28 2.72-1.98 13.38-1.35 3.06.18 6.04.56 8.761 1l-.021.12s-.1 8.03 2.08 14.54a39.56 39.56 0 0 0 1.858 4.59l-.02.01c-3.2 5.95-9.84 8.918-12.35 9.26-.48.068-1.04.01-1.67-.182-2.5-.77-6-3.64-8.79-8.94l.81-.42c.31.49.86.94 1.81 1.02 2.29.2 3.2-1.83 3.2-1.83l.31-1.73s-1.78-.41-2.39-1.17c-.61-.76.51-2.18.86-5.95.21-2.2-.3-4.18-.75-5.44-.32-.89-.62-1.42-.62-1.42s-1.928-.198-3.858.362z"/><path fill="#B77E00" d="m43.273 67.66-4.4-5.96s1.91.46 6.86-3.05c3.1-2.19 5.45-5.34 6.78-7.39l1.03.3c-.58 1.18-.46 4.91.58 4.78l.84.71-.61 5.49-.69-5.03s-.76 2.21-1.9 5.18c-1.18 3.06-4.35 3.97-5.34 3.13-.13-.11-.22-.23-.28-.36l-1.29-.04c.08.15.12.36.12.63 0 1.59-1.29 1.64-1.7 1.61z"/><path fill="#EDC607" d="M86.613 71.54c-26.3-8.25-40.56-1.85-41.51-1.4l-.65-.89c.02-.2.15-.73.82-.92.84-.23 1 .61 1.76.31.76-.31.84-1.3 1.68-1.53.83-.23 1.06.77 1.98.46.91-.3.84-1.22 1.91-1.45 1.06-.23 1.14.76 2.21.61 1.06-.15.91-1.37 2.06-1.45 1.14-.07.83.99 2.13.92 1.3-.08.99-.92 2.29-.99 1.29-.08.84 1.14 2.13 1.22 1.3.07 1.22-1.07 2.44-.99 1.22.07.92.99 2.37 1.22 1.45.22 1.29-.84 2.669-.69 1.371.15 1.061 1.22 2.439 1.37 1.23.14 1.54-.64 2.41-.64.1 0 .21.01.33.03 1.15.23.46 1.3 1.76 1.53 1.29.23 1.37-.69 2.66-.46 1.3.23.46 1.14 1.609 1.45 1.141.3.99-.61 2.359-.38 1.37.23.461 1.14 1.37 1.52.921.38 1.45.08 1.45.08l.08.04c-.21.38-.41.75-.609 1.11l-.147-.08z"/><path fill="#B77E00" d="m44.453 69.25-1.18-1.59c.41.03 1.7-.02 1.7-1.61 0-.27-.04-.48-.12-.63l1.29.04c.06.13.15.25.28.36.99.84 4.16-.07 5.34-3.13 1.14-2.97 1.9-5.18 1.9-5.18l.69 5.03.61-5.49-.84-.71c1.22-.16.51-5.21-.2-5.14-.15.02-.27.15-.38.36l-1.03-.3c.8-1.229 1.23-2.07 1.23-2.07s3.13 6.18 17.46 9.38c1.279.29 2.52.53 3.72.73l-.159.9s-.811.86-1.121 1.47a.657.657 0 0 0-.05.44l-1.27.42c-.04 0-.07.01-.101.01-.66.1-1.681.25-1.681.25s.72 1.06 1.37 1.32l-.41 1.47c1.15.34 2.57.59 4.24.72l.01.4c-.87 0-1.18.78-2.41.64-1.38-.15-1.068-1.22-2.439-1.37-1.379-.15-1.219.91-2.669.69-1.45-.23-1.15-1.15-2.37-1.22-1.22-.08-1.14 1.06-2.44.99-1.29-.08-.84-1.3-2.13-1.22-1.3.07-.99.91-2.29.99-1.3.07-.99-.99-2.13-.92-1.15.08-1 1.3-2.06 1.45-1.07.15-1.15-.84-2.21-.61-1.07.23-1 1.15-1.91 1.45-.92.31-1.15-.69-1.98-.46-.84.23-.92 1.22-1.68 1.53-.76.3-.92-.54-1.76-.31-.67.19-.8.72-.82.92z"/><g fill="none" stroke="#000" stroke-width=".5" stroke-miterlimit="10"><path d="M74.413 93.47c-3.2 5.95-9.84 8.919-12.35 9.261-.48.068-1.04.01-1.67-.182-2.5-.77-6-3.64-8.79-8.94-.15-.27-.29-.55-.43-.84-.07-.14-.14-.29-.21-.44-2.21-4.72-2.69-10.48-2.72-14.12-.04-2.18.09-3.61.09-3.61l.04-.04c.32-.28 2.72-1.98 13.38-1.35 3.06.18 6.04.56 8.761 1 6.699 1.11 11.879 2.68 13.029 3.04.16.05.24.08.24.08s1.3-2.6 2.979-5.71c.2-.36.4-.73.61-1.11 1.03-1.89 2.17-3.89 3.2-5.53 2.97-4.73 4.189-5.8 4.189-5.8s-7.641 2.16-19.841.12c-1.2-.2-2.438-.44-3.72-.73-14.33-3.2-17.46-9.38-17.46-9.38s-.43.84-1.23 2.07c-1.33 2.05-3.68 5.2-6.78 7.39-4.95 3.51-6.86 3.05-6.86 3.05l4.4 5.96 1.18 1.59.65.89 3.23 4.37M37.003 130.67h63"/><path d="M44.443 69.32s0-.03.01-.07c.02-.2.15-.73.82-.92.84-.23 1 .61 1.76.31.76-.31.84-1.3 1.68-1.53.83-.23 1.06.77 1.98.46.91-.3.84-1.22 1.91-1.45 1.06-.23 1.14.76 2.21.61 1.06-.15.91-1.37 2.06-1.45 1.14-.07.83.99 2.13.92 1.3-.08.99-.92 2.29-.99 1.29-.08.84 1.14 2.13 1.22 1.3.07 1.22-1.07 2.44-.99 1.22.07.92.99 2.37 1.22 1.45.22 1.29-.84 2.669-.69 1.371.15 1.061 1.22 2.439 1.37 1.23.14 1.54-.64 2.41-.64.1 0 .21.01.33.03 1.15.23.46 1.3 1.76 1.53 1.29.23 1.37-.69 2.66-.46 1.3.23.46 1.14 1.609 1.45 1.141.3.99-.61 2.359-.38 1.37.23.461 1.14 1.37 1.52.921.38 1.45.08 1.45.08"/><path d="M45.053 70.16s.02-.01.05-.02c.95-.45 15.21-6.85 41.51 1.4M43.143 67.65s.05.01.13.01c.41.03 1.7-.02 1.7-1.61 0-.27-.04-.48-.12-.63-.43-.92-1.88.13-1.02.78M89.203 67.04s-1.301.84-3.051.53c-1.76-.3-2.141-2.36-1.149-2.82 1-.46 1.22 1.07.46 1.37M46.953 64.9s.84-.38.31-.91c-.47-.47-1.5.62-1.12 1.47.06.13.15.25.28.36.99.84 4.16-.07 5.34-3.13 1.14-2.97 1.9-5.18 1.9-5.18l.69 5.03.61-5.49s2.74 5.34 5.41 6.4c2.67 1.07 3.66.16 3.66-1.06s-1.67-.69-1.29.3M68.843 62.61s.61-.3.15-.83c-.46-.54-1.52.38-.84 1.75.4.78 1.54 1.52 3.35 2.05 1.149.34 2.57.59 4.24.72.29.02.58.04.88.05 4.8.23 4.8-2.44 4.109-2.97-.681-.54-1.141.45-.76.99M53.543 51.56c.11-.21.23-.34.38-.36.71-.07 1.42 4.98.2 5.14-1.04.13-1.16-3.6-.58-4.78z"/><path d="M74.764 60.2s.459 1.27.25 1.78c-.199.51-.91.66-.91.66s-.41-.19-.511-.53a.657.657 0 0 1 .05-.44c.31-.61 1.121-1.47 1.121-1.47zM74.913 63.5s.51-.86 1.17-.4 1.479 1.07 1.479 1.07-1.779.66-2.289.45c-.509-.2-.36-1.12-.36-1.12zM71.913 64.11c.11.04.21.07.31.06.711-.06.91-.77.91-.77s-.229-.87-.81-.87c-.04 0-.07.01-.101.01-.66.1-1.681.25-1.681.25s.723 1.06 1.372 1.32zM83.633 101.391a5.135 5.135 0 0 0 1.75-.439c1.79-.79 2.79-2.5 2.49-3.99-.45-2.29-2.54-1.78-3.15-.561-.608 1.221 1.73 2.689 2.041.811M70.493 74.33s-.1 8.03 2.08 14.54a39.56 39.56 0 0 0 1.858 4.59c1.12 2.33 2.42 4.29 3.842 5.67.199.21.408.4.619.57.971.819 1.989 1.37 3.039 1.58.592.12 1.16.149 1.69.108M83.553 77.23s-.01.01-.01.02c-.229.56-2.609 14.96 1.18 19.15"/><path d="M72.423 75.81c-.1.15-.35 12.2 6 21.2M74.713 76.52s.66 12.91 4.521 18.2M77.203 78.15s.25 9.3 2.49 13.98M79.333 79.06s.26 6.35 1.431 9.86M81.273 80.23s-.15 4.63.148 6.05M48.633 78.2l.01-.01c.15-.03 3.77-.79 6.8-.1"/><path d="M57.733 90.65s-1.78-.41-2.39-1.17c-.61-.76.51-2.18.86-5.95.21-2.2-.3-4.18-.75-5.44-.32-.89-.62-1.42-.62-1.42s-1.93-.2-3.86.36c-1.81.53-2.28 1.09-2.33 1.16M68.253 78.55s-3.25-.76-5.69-.96c-2.44-.21-3.25.15-3.25.15l-.87-1.42s3.46-1.12 9.81 2.23z"/><path d="M49.803 80.28s2.54-.46 4.42.51M60.533 79.77s3-.46 5.33.71M53.763 81.82c.17.05.34.12.51.19M52.653 81.54c.08.02.17.03.25.05.28.05.57.13.86.22M50.053 81.55s.29-.06.77-.09c.47-.04 1.11-.04 1.82.08M60.733 80.89h.25c.43.01 1.36.04 2.34.2.35.06.7.13 1.04.23.28.08.55.17.79.28M51.273 84.45s1.07.3 2.09.1M61.593 83.84s1.22.3 2.34.05"/><path d="M50.823 81.45v.01c-.01.19-.15 2.9 1.57 3.09 1.71.19 1.4-2.51 1.37-2.73v-.01M60.983 80.89s.21 3 1.73 3.05c1.53.05 1.63-2.54 1.63-2.54M57.423 92.38s-3.55 3-5.43-.66c0 0-.02.78.42 1.47.31.49.86.94 1.81 1.02 2.29.2 3.2-1.83 3.2-1.83zM58.343 92.33s.86 1.98 3.66 1.83c2.8-.15 2.59-3.36 2.59-3.36s-1.01 4.88-6.25 1.53zM55.703 95.23s.86-.05 1.67 0c.82.05 1.58-.26 2.09-.36.51-.1 2.54.2 3.15.25M57.483 96.7s1.22.1 2.33-.25M76.434 105.35c-1.181.291-2.711.271-4.631-.25-.01 0-.029-.01-.039-.01M76.293 102.391s-1.46-.051-1.529-1.621c-.08-1.738 2-2.64 3.51-1.64.221.14.439.33.619.57.11.12.2.26.291.409.989 1.681.271 4.471-2.74 5.229M71.093 106.08c-.479.49-1.11.9-1.84 1.2-2.12.909-5.01.938-6.92-.69-1.01-.84-1.74-2.13-1.96-3.99"/><path d="M68.713 104.891s-1.42-1.58 0-2.851c1.54-1.38 4.53.36 3.09 3.06-.09.182-.199.36-.34.551a2.51 2.51 0 0 1-.311.351c0 .021-.021.04-.051.06M54.223 104.17s1.32.66 1.37-1.061c.06-1.729-2.44-1.879-2.99-.26-.03.09-.06.17-.08.26-.1.421-.13.881-.07 1.359.08.65.33 1.33.79 1.92.39.5.94.94 1.65 1.262.27.108.55.209.86.289 1.84.461 3.31-.319 4.19-1.289.59-.631.92-1.342.94-1.82"/><path d="M50.663 99.6s1.33.461 1.33-1.318c0-1.262-1.51-1.682-2.58-.87-.45.319-.82.858-.98 1.63-.56 2.63 1.56 3.95 4.09 4.07h.02M50.213 94.51s1.42.11 1.01-1.47c-.02-.09-.05-.17-.09-.25-.57-1.3-2.73-.97-3.26.71-.56 1.78.4 3.41 1.47 3.811M59.923 106.609s.01.011.02.041c.09.18.42.92.38 1.539l-.05.711s.97-1.932 2.04-2.291M61.643 109.87s.67-1.729 2.39-1.729c1.73 0 1.02 1.879 1.02 1.879s-.36-2.9-3.41-.15zM58.853 109.71s-.21-1.72-1.22-1.62c-1.02.102-.82 1.37-.82 1.37s.77-1.88 2.04.25zM58.393 114.75s-1.02-.46-.61-1.17c.41-.71 1.58-2.08 1.58-2.08s.66 1.83.56 2.59c-.11.76-1.53.66-1.53.66zM59.483 116.23c.01-.07.04-.121.08-.16 0 0 .31-1.271 1.12-.762.81.512 1.57 1.521 1.57 1.521s-.18.09-.44.189c-.46.189-1.19.449-1.64.42-.61-.038-.8-.829-.69-1.208zM57.933 117.391s1.02.26.51 1.119c-.51.86-1.52 2.131-1.52 2.131s-.41-1.721-.41-2.49c0-.76.46-1.171 1.42-.76zM56.803 116.04c.05-.22.07-.38.07-.38s.2-1.01-.36-1.061c-.56-.061-2.39 1.01-2.39 1.01s1.22 1.631 1.93 1.431c.44-.13.65-.64.75-1zM57.473 116.04c.06-.34.32-.66.67-.63.57.06.65.49.55.84-.03.08-.06.16-.1.23-.2.35-.86.398-1.06 0a.722.722 0 0 1-.06-.44zM53.413 130.71s0-.01.01-.04c.05-.32.38-2.46.75-4.43.41-2.141.46-2.391.46-2.391l2.54.101s-1.16 3.18-1.58 6.72v.04"/><path d="M54.023 130.71s0-.01.01-.04c.04-.311.36-2.33.65-3.82l.3-1.629.92.101s-.7 3.409-.96 5.35c-.01.011-.01.03-.01.04M52.393 104.48c-.02 0-.09.05-.23.158-1.13.9-6.33 5.66-10.29 12.961-4.06 7.479-4.82 12.33-4.91 13.061-.02.07-.02.1-.02.1M85.393 100.97s6.15 4.53 10.521 15.3c3.891 9.58 4.12 13.621 4.12 14.4v.141"/><path d="m52.193 104.48-.03.158c-.32 1.842-3.32 19.08-3.33 26.03v.04M53.153 106.46s-3.14 16.62-3.4 24.21v.04M54.883 107.68s-3.9 15.2-4.27 22.99v.04M55.753 107.939s-.94 3.229-1.97 7.591c-1.1 4.59-2.3 10.46-2.61 15.13M69.273 107.33s-2.36 2.5-6.23 10.3c-.14.29-.28.58-.43.88-3.76 7.74-4.98 11.551-5.16 12.16l-.03.09"/><path d="M71.152 106s-.021.02-.051.061c0 .01-.01.01-.01.021-.58.75-5.35 6.979-8.73 14.56-3.33 7.461-4.24 9.721-4.36 10.03-.02.03-.02.04-.02.04M76.443 105.34l-.012.01c-.27.25-4.64 4.32-9.958 12.4-4.94 7.5-7 12.08-7.36 12.92-.04.09-.06.141-.06.141"/><path d="m83.764 101.33-.131.061h-.01c-.609.301-3.28 1.729-7.79 5.939-5.19 4.82-9.97 12.45-12.51 16.62-2.2 3.62-3.26 6.12-3.5 6.72-.04.09-.06.141-.06.141"/></g></g><path fill="none" stroke="#000" stroke-miterlimit="10" d="M134 171.82c0 6.762-5.623 12.244-12.56 12.244H17.298c-6.936 0-12.56-5.482-12.56-12.244V17.494c0-6.762 5.624-12.244 12.56-12.244H121.44c6.937 0 12.56 5.482 12.56 12.244V171.82z"/></svg>