<svg xmlns="http://www.w3.org/2000/svg" width="140" height="190" xml:space="preserve"><path fill-opacity=".498" d="M21 5h103c8.864 0 16 7.136 16 16v153c0 8.864-7.136 16-16 16H21c-8.864 0-16-7.136-16-16V21c0-8.864 7.136-16 16-16z"/><path fill="#E7E7E7" d="M17 1h103c8.864 0 16 7.136 16 16v153c0 8.864-7.136 16-16 16H17c-8.864 0-16-7.136-16-16V17C1 8.136 8.136 1 17 1z"/><path fill="#C7891F" d="M19 3h103c8.864 0 16 7.136 16 16v153c0 8.864-7.136 16-16 16H19c-8.864 0-16-7.136-16-16V19c0-8.864 7.136-16 16-16z"/><path fill="#FFF" d="M18 2h103c8.864 0 16 7.136 16 16v153c0 8.864-7.136 16-16 16H18c-8.864 0-16-7.136-16-16V18C2 9.136 9.136 2 18 2z"/><path d="M22.039 42.783h-.499c-4.087 0-7.266-1.367-9.536-4.099-2.271-2.733-3.406-6.537-3.406-11.414 0-4.862 1.129-8.673 3.389-11.433 2.27-2.76 5.394-4.139 9.37-4.139 4.021 0 7.149 1.366 9.387 4.099 2.248 2.732 3.373 6.557 3.373 11.473 0 3.376-.598 6.283-1.794 8.721-1.185 2.438-2.896 4.273-5.133 5.506l5 6.751h-6.097l-4.054-5.465m-.682-25.479c-1.949 0-3.461.871-4.535 2.612-1.075 1.741-1.612 4.193-1.612 7.354 0 3.215.526 5.68 1.579 7.395 1.052 1.702 2.575 2.552 4.568 2.552 1.96 0 3.478-.871 4.552-2.612 1.074-1.742 1.611-4.187 1.611-7.334 0-3.161-.537-5.613-1.611-7.354-1.074-1.743-2.591-2.613-4.552-2.613M116.65 146.088h.5c4.086 0 7.265 1.366 9.535 4.1 2.271 2.732 3.405 6.537 3.405 11.412 0 4.863-1.13 8.674-3.39 11.435-2.271 2.76-5.395 4.139-9.37 4.139-4.021 0-7.147-1.364-9.388-4.099-2.248-2.732-3.371-6.559-3.371-11.475 0-3.375.599-6.281 1.794-8.721 1.186-2.438 2.896-4.273 5.134-5.506l-5.001-6.751h6.099l4.053 5.466m.682 25.478c1.949 0 3.461-.871 4.535-2.612s1.611-4.192 1.611-7.354c0-3.215-.525-5.68-1.578-7.395-1.051-1.701-2.574-2.553-4.568-2.553-1.96 0-3.479.871-4.553 2.613-1.073 1.74-1.61 4.186-1.61 7.334 0 3.161.537 5.612 1.61 7.354 1.075 1.74 2.593 2.613 4.553 2.613M20.527 48.665c-2.667 0-4.83 3.264-4.83 7.286 0 3.427 4.392 9.192 4.222 11.93-1.41.782-5.767-6.438-8.019-6.438-2.667 0-4.83 3.263-4.83 7.286 0 4.022 2.164 7.286 4.83 7.286 2.313 0 6.275-7.214 8.019-6.563L16.99 82.325l7.023-.042s-3.077-12.481-3.081-12.776h.056v.014c1.707-.64 5.806 6.632 8.102 6.632 2.666 0 4.83-3.264 4.83-7.286s-2.164-7.285-4.83-7.285c-2.243 0-6.308 7.1-8.093 6.368.025-2.805 4.359-8.576 4.359-11.999.001-4.022-2.162-7.286-4.829-7.286zM117.418 139.963c2.666 0 4.83-3.264 4.83-7.286 0-3.427-4.393-9.19-4.223-11.93 1.412-.782 5.769 6.438 8.02 6.438 2.667 0 4.83-3.264 4.83-7.287 0-4.021-2.163-7.284-4.83-7.284-2.313 0-6.275 7.215-8.02 6.563l2.93-12.872-7.023.04s3.077 12.481 3.082 12.777h-.057v-.015c-1.707.64-5.807-6.633-8.102-6.633-2.666 0-4.83 3.265-4.83 7.285 0 4.022 2.164 7.286 4.83 7.286 2.242 0 6.308-7.101 8.093-6.368-.025 2.807-4.36 8.576-4.36 11.999 0 4.023 2.164 7.287 4.83 7.287z"/><g><path fill="#DD8300" d="M76.887 127.4c-1.039-.5-8.04-4.24-11.45-16.021v-.061c.72.041 1.46.051 2.22.061l.12-.05c1.08 2.54 3.17 4.17 3.17 4.17s0-.53.68-2.2c.26-.63.859-1.38 1.75-2.34.75-.15 9.82-2.029 16.03-8.13 1.42 2.31 2.989 5.319 4.438 9.101 3.891 10.109 3.65 14.92 3.602 15.479h-.03l-20.53-.009z"/><path fill="#F9B438" d="M90.197 86.71c-.09-2.47-.682-6.53-2.771-11.46l.061-.03c.041.1.091.21.149.311.91 1.62 2.88 2.02 2.88 2.02s-1.52 1.93-1.01 3.75c.5 1.82 2.32 2.47 2.32 2.47s-1.51 1.22-1.62 2.94h-.009z"/><path fill="#F9B438" d="m54.387 63.19.48-3.97c.25-.66 1.78-3.65 8.29-4.37.17-.02.34-.03.51-.05 1.34-.07 2.75.14 4.2.57 1.22.37 2.47.91 3.71 1.58.1.11.229.21.38.28.1.05.21.09.32.12 1.39.81 2.77 1.79 4.1 2.9.08.11.17.21.28.31.17.16.35.29.54.39a38.398 38.398 0 0 1 3.789 3.86c.061.07.121.14.181.2a37.89 37.89 0 0 1 3.44 4.75c.188.31.369.61.55.92a46.461 46.461 0 0 1 2.27 4.57c2.091 4.93 2.681 8.99 2.771 11.46.02.8 0 1.43-.04 1.87l.06.04c-2.59 4.32-3.7 9.04-3.88 9.85-1-1.229-1.64-1.8-1.64-1.8l-.04-.02c1-2.67 1.38-5.521 1.38-8.832 0-6.45-5.38-15.7-12.96-22.91-7.59-7.2-11.31-6.14-11.31-6.14s-4.541.222-7.381 4.422z"/><path fill="#F9B438" d="M84.747 69.92c1.17 1.42 3.34 1.67 3.34 1.67s-1.188 2.04-.601 3.63l-.061.03a45.587 45.587 0 0 0-2.27-4.57c-.182-.31-.36-.61-.551-.92l.011-.01c.042.06.082.11.132.17zM82.127 101.391c1.1-1.561 1.93-3.121 2.53-4.74l.04.021s.64.57 1.64 1.8c.12.141.25.301.38.471-.06.83 1.01 2.211.87 3.74-.16 1.619-1.88 2.069-2.938 1.061-1.062-1.01-2.48-2.32-2.48-2.32l-.042-.033z"/><path fill="#F9B438" d="M84.848 65.98s-1.16 2.33-.229 3.77l-.011.01c-1-1.64-2.159-3.24-3.439-4.75 1.258 1.27 3.679.97 3.679.97zM80.896 61.28c-.061.17-.859 2.28.09 3.53a38.398 38.398 0 0 0-3.789-3.86c1.47.84 3.52.37 3.699.33zM79.287 104.859c-.2.351-.4 2.779-1.721 3.841-1.109.899-2.149.56-2.439.43 1.141-1.16 2.53-2.569 4.12-4.3l.04.029z"/><path fill="#DD8300" d="M89.407 102.83c-6.21 6.1-15.28 7.979-16.03 8.13a63.2 63.2 0 0 1 1.75-1.83c.29.13 1.33.47 2.439-.43 1.319-1.062 1.521-3.49 1.721-3.841l-.04-.029c.239-.25.479-.51.72-.78.82-.899 1.53-1.78 2.16-2.659l.04.029s1.42 1.311 2.479 2.32c1.061 1.01 2.779.56 2.939-1.061.141-1.529-.93-2.91-.87-3.74a36.72 36.72 0 0 1 2.692 3.891z"/><path fill="#F9B438" d="M76.157 56.62s-.87 2.19.22 3.63a30.112 30.112 0 0 0-4.1-2.9c1.51.41 3.88-.73 3.88-.73z"/><path fill="#DD8300" d="M54.627 99.891c-.68-.291-1.02-.49-1.02-.49l-.02-.029c2.96-1.99 4.92-3.01 4.92-3.01s.16.14.52.34c.69.38 2.11.949 4.54 1.08 3.69.199 6.42-.86 6.42-.86h.1c.02 1.47.18 2.431.18 2.431l.09.069c-.6.75-1.15 1.649-1.62 2.64l-.06-.028c-1.2.04-2.33.04-3.39-.011-.51-.021-1-.039-1.47-.08-.56-.039-1.09-.101-1.61-.159-.51-.062-1-.12-1.46-.2-.5-.08-.97-.17-1.42-.26a27.678 27.678 0 0 1-2.42-.602c-.98-.302-1.74-.592-2.28-.831z"/><path fill="#F9B438" d="M71.577 56.95c-1.24-.67-2.49-1.21-3.71-1.58v-.01c1.36.4 3.439-1.32 3.439-1.32s-.649 2 .271 2.91z"/><path d="M67.357 75.63s.2 1.22-.61 1.22c-.8 0-.7-1.22-.7-1.22h1.31z"/><path fill="#C68722" d="M72.467 74.01s-6.3-1.21-9.03-.07l-.6-1.29s2.04-.38 5.76.3c3.719.68 3.87 1.06 3.87 1.06z"/><path fill="#F9B438" d="M67.767 104.5c-1.02-.01-1.98-.04-2.89-.1l.41-2.37v-.011c1.06.051 2.19.051 3.39.011l.06.028c-.37.771-.69 1.592-.94 2.45l-.03-.008z"/><path fill="#DD8300" d="M65.437 111.38c3.41 11.78 10.411 15.521 11.45 16.021l-13.37-.01c-.05-.261-.43-2.859.15-8.279.61-5.711 1.37-7.78 1.37-7.78v-.021c.13.01.26.01.4.01v.059z"/><path fill="#F9B438" d="M65.287 102.02v.012l-.41 2.369c-.54-.029-1.06-.069-1.56-.109l.5-2.35c.47.038.96.058 1.47.078zM67.867 55.37c-1.45-.43-2.86-.64-4.2-.57v-.04c.05 0 .1 0 .15-.01 1.42-.15 2.68-2.27 2.68-2.27s0 2.47 1.37 2.88v.01zM62.207 101.78c.52.06 1.05.12 1.61.159l-.5 2.351c-.61-.06-1.18-.12-1.73-.2l.01-.04.6-2.229.01-.041zM60.937 112.01c.33-.24.69-.31.96-.33.56-.05.81.961-.15.961-.42 0-.67-.301-.81-.631z"/><path fill="#C68722" d="M60.637 64.84s-.23-3.95 1.13-6.07c0 0 3.72-1.06 11.31 6.14 7.58 7.21 12.96 16.46 12.96 22.91 0 3.31-.38 6.16-1.38 8.831-.601 1.619-1.431 3.181-2.53 4.74-.63.879-1.34 1.76-2.16 2.659-.24.271-.479.53-.72.78-1.59 1.729-2.979 3.14-4.12 4.3a63.2 63.2 0 0 0-1.75 1.83c-.891.96-1.49 1.71-1.75 2.34-.68 1.67-.68 2.2-.68 2.2s-2.09-1.63-3.17-4.17c-.43-1.01-.71-2.16-.62-3.41.01-.18.03-.359.05-.54.1-.97.3-1.938.59-2.87.25-.859.57-1.68.94-2.449.47-.99 1.02-1.891 1.62-2.641l-.09-.07s-.16-.959-.18-2.43c-.03-1.27.06-2.92.44-4.65.13-.59.289-1.2.5-1.8.58-1.69 1.6-2.979 2.76-4.14l-.03-.03s-3.55-7.39.562-14.12c-6.692.62-13.682-7.34-13.682-7.34z"/><path fill="#F9B438" d="M60.367 114.95c.67-.851 1.61-.341 1.23.22-.29.41-.88.31-1.23-.22zM61.597 104.05l-.01.04c-.6-.08-1.16-.17-1.7-.27l.85-2.2.01-.04c.46.08.95.141 1.46.2l-.01.04-.6 2.23z"/><path fill="#F7DBD5" d="M63.567 97.78c-2.43-.13-3.85-.7-4.54-1.08.39-1.011.19-2.81.19-2.81l.03-.03c3.25 2.59 7.39 2.69 11.28-1.59-.38 1.73-.47 3.38-.44 4.65h-.1s-2.73 1.06-6.42.86z"/><path fill="#DD8300" d="M92.117 76.86c-.061-.13-.311-.13-.551-.01-.239.12-.391.32-.319.44.06.13.31.13.55.01.24-.12.391-.31.32-.44zm.901 6.7c.25-.12.391-.32.33-.44-.061-.13-.311-.14-.551-.02-.25.12-.39.32-.33.45s.31.13.551.01zm-7.231-18.64c-.189.19-.271.42-.17.53.1.1.33.03.529-.16.189-.19.271-.43.17-.53-.099-.1-.33-.03-.529.16zm3.97 5.67c-.08-.12-.33-.09-.55.07-.221.15-.33.37-.25.49.08.11.32.08.54-.07.23-.16.34-.38.26-.49zm-8.111-9.97c.101.1.33.03.521-.16.2-.18.28-.42.181-.52-.101-.1-.341-.03-.529.16-.192.19-.272.42-.173.52zm-4.729-4.79c.11.09.33-.01.5-.22s.22-.45.11-.54c-.11-.09-.33.01-.5.22s-.22.45-.11.54zm-4.84-2.77c.13.06.319-.09.438-.33.11-.25.102-.49-.02-.55-.13-.06-.33.09-.439.33-.118.25-.109.49.021.55zm-5.31-1.55c.14.03.29-.17.34-.43.04-.27-.03-.51-.17-.53-.14-.03-.29.17-.33.44-.05.26.02.5.16.52zm-5.35.49c0-.27-.12-.48-.26-.48-.03 0-.07.01-.1.04l-.1-.36c.04-.02.09-.03.13-.04 4.1-1.16 6.68-4.7 6.68-4.7s1.82 3.39 10.459 4.65c8.649 1.27 14.771-1.52 14.771-1.52s-1.72 7.54-.96 16.64c.75 9.1 5.561 13.9 5.561 13.9s-3.851 2.93-6.979 7.84c-.142.21-.271.43-.4.65l-.06-.04c.04-.44.06-1.07.04-1.87h.01c.11-1.72 1.62-2.94 1.62-2.94s-1.82-.65-2.32-2.47c-.51-1.82 1.01-3.75 1.01-3.75s-1.97-.4-2.879-2.02a2.05 2.05 0 0 1-.149-.311c-.591-1.59.6-3.63.6-3.63s-2.17-.25-3.34-1.67c-.05-.06-.09-.11-.13-.17-.932-1.44.229-3.77.229-3.77s-2.42.3-3.68-.97c-.061-.06-.12-.13-.18-.2-.95-1.25-.15-3.36-.09-3.53-.182.04-2.23.51-3.7-.33-.271-.24-.54-.47-.82-.7-1.09-1.44-.22-3.63-.22-3.63s-2.37 1.14-3.881.73a15.29 15.29 0 0 0-.699-.4c-.92-.91-.271-2.91-.271-2.91s-2.08 1.72-3.438 1.32c-1.37-.41-1.37-2.88-1.37-2.88s-1.26 2.12-2.68 2.27c-.05.01-.1.01-.15.01-1.34 0-2.38-1.83-2.38-1.83l-.11-.43c.136.001.246-.229.236-.499z"/><path fill="#F9B438" d="M59.897 117.71c.92-.399 1.52.81.89.851-.38.019-.72-.301-.89-.851zM60.747 101.58l-.01.04-.85 2.2c-.54-.09-1.04-.2-1.52-.312l.95-2.14.01-.051c.45.093.92.183 1.42.263zM59.677 121.49a1.04 1.04 0 0 1-.61-.37c.28-.41.68-.54 1.01-.59.61-.1.56 1.111-.4.96zM58.777 123.891c.6-.541 1.53-.261 1.25.129-.29.41-.95.55-1.25-.129zM58.487 126.43c.58-.609 1.27.03 1.03.271-.21.209-.74.399-1.03-.271z"/><path fill="#F9B438" d="m59.327 101.32-.01.05-.95 2.14c-.49-.109-.94-.229-1.37-.359v-.01l1.05-2.109c.4.098.82.198 1.28.288zM60.027 124.02c.28-.39-.65-.67-1.25-.129-.12-.24-.18-.591-.17-1.08.03-.83.21-1.351.46-1.689.17.199.38.33.61.37.96.149 1.01-1.062.4-.96-.33.05-.73.18-1.01.59-.54-.63-.67-1.93.25-2.971.2-.221.39-.359.58-.439.17.55.51.87.89.85.63-.039.03-1.25-.89-.85-.17-.54-.18-1.3.13-2.13.1-.261.21-.47.34-.63.35.529.94.63 1.23.22.38-.56-.56-1.069-1.23-.22-.21-.311-.33-.79-.24-1.4.13-.84.45-1.29.81-1.54.14.33.39.63.81.63.96 0 .71-1.01.15-.959-.27.021-.63.09-.96.329a3.13 3.13 0 0 1-.2-.93l.01-.101c1.32.149 2.75.261 4.29.33v.021s-.76 2.069-1.37 7.78c-.58 5.42-.2 8.02-.15 8.279h-5.5c.13-.461.29-.771.47-.961.29.67.82.48 1.03.271.24-.24-.45-.881-1.03-.271-.11-.26-.18-.66-.18-1.25 0-.64.2-1.05.47-1.289.3.679.96.539 1.25.129z"/><path fill="#F9B438" d="M56.247 127.391c.03-.359.25-2.211 1.05-6.91.91-5.311 2.17-9.561 2.17-9.561l.01-.09c.41.061.83.109 1.27.15l-.01.1s.02.49.2.93c-.36.25-.68.7-.81 1.54-.09.61.03 1.091.24 1.4-.13.159-.24.37-.34.63-.31.83-.3 1.59-.13 2.13-.19.08-.38.22-.58.44-.92 1.039-.79 2.34-.25 2.97-.25.34-.43.86-.46 1.688-.01.49.05.842.17 1.08-.27.24-.47.65-.47 1.291 0 .59.07.989.18 1.25-.18.189-.34.5-.47.959h-1.77v.003z"/><path fill="#C68722" d="M59.507 73.99c-3.16-.51-6.31.78-6.31.78s.23-.38 2.05-1.14c1.82-.75 3.79-.52 3.79-.52s.21.32.47.88zM52.147 71.92c.05-3.32.67-6.16 1.96-8.3.09-.15.18-.29.28-.43 2.84-4.2 7.38-4.42 7.38-4.42-1.36 2.12-1.13 6.07-1.13 6.07s-.08.76-2.43 3.41c-2.07 2.34-5.31 3.44-6.06 3.67z"/><path fill="#F9B438" d="M56.997 103.15c-.48-.131-.92-.28-1.33-.432l.01-.039 1.22-1.921.01-.04c.35.102.73.211 1.14.312l-1.05 2.108v.012z"/><path fill="#DD8300" d="M57.317 53.96c.14-.02.22-.26.18-.52-.04-.27-.18-.47-.32-.45-.14.02-.22.26-.18.52.04.27.18.47.32.45zm-2.2 3.19.66-5.48s1.19.64 5.18-.47l.1.36c-.09.07-.15.25-.15.45.01.271.13.49.27.49l.11.43s-.45 2.13-1.66 2.58c-1.22.45-2.08-.91-2.08-.91s-.3 1.92-1.06 2.43c-.63.42-1.2.21-1.37.12z"/><path fill="#F9B438" d="M56.437 111.93c-1.01.062-.81-1.109-.15-.96.29.07.54.4.64.82-.14.08-.3.13-.49.14z"/><path d="M56.037 77.2c-.56-.2-.41-1.26-.41-1.26l.96.05c.41.55 0 1.41-.55 1.21z"/><path fill="#CE1300" d="M55.577 127.391c.02-.41.18-2.57 1.26-8.121 1.22-6.22 1.98-8.5 1.98-8.5v-.028c.21.028.43.06.66.09l-.01.09s-1.26 4.25-2.17 9.562c-.8 4.699-1.02 6.55-1.05 6.908h-.67v-.001z"/><path fill="#F9B438" d="M63.157 54.85c-6.51.72-8.04 3.71-8.29 4.37l.25-2.07c.17.09.74.3 1.37-.12.76-.51 1.06-2.43 1.06-2.43s.86 1.36 2.08.91c1.21-.45 1.66-2.58 1.66-2.58s1.04 1.83 2.38 1.83v.04c-.17.02-.34.03-.51.05z"/><path fill="#DD8300" d="M57.707 110.57c-.77-.131-1.48-.262-2.16-.41l.12-.561c2.83.289 2.61-4.74 5.02-4.591 2.47.15.81 5.511 3.49 5.61 2.68.1 3.03-3.24 3.03-3.24-.02.18-.04.36-.05.54-.09 1.25.19 2.399.62 3.41l-.12.05c-.76-.01-1.5-.02-2.22-.061-.14 0-.27 0-.4-.01a63.787 63.787 0 0 1-4.29-.33c-.44-.039-.86-.09-1.27-.149-.23-.03-.45-.062-.66-.09a30.29 30.29 0 0 1-1.11-.168z"/><path fill="#F9B438" d="M56.097 113.72c-.96.562-1.49-.25-1.03-.67.33-.3.84-.04 1.03.67z"/><path fill="#F9B438" d="M53.337 127.391c.7-.561.73-1.699.48-2.511.57-.34 1.03-1.188.7-2.53-.07-.27-.16-.479-.26-.63.3-.329.57-.92.71-1.85.07-.46.03-.8-.07-1.062.25-.26.47-.688.63-1.31.11-.44.09-.78-.01-1.04.23-.26.44-.67.57-1.24.14-.619.12-1.119.01-1.5.08-.05.16-.1.24-.17.63-.49.74-1.199.59-1.76.6-.34.77-1.17.77-1.17l.01-.051c.36.061.73.121 1.11.171v.028s-.76 2.28-1.98 8.5c-1.08 5.551-1.24 7.711-1.26 8.121h-2.24v.004z"/><path fill="#F9B438" d="M54.367 116.33c-.11-.65.87-.689 1.15.13-.48.55-1.05.45-1.15-.13zM53.757 118.71c-.19-.58.81-.75 1.14.101-.46.509-.98.399-1.14-.101zM55.667 102.72c-1.16-.409-2.03-.84-2.64-1.21l.02-.04 1.58-1.579c.54.239 1.3.529 2.28.829l-.01.04-1.22 1.92-.01.04zM54.257 121.72c-.33.37-.71.421-1.01.23-.47-.309.45-1.12 1.01-.23z"/><path fill="#F9B438" d="M53.427 99.47c.06-.04.11-.069.16-.1l.02.03s.34.199 1.02.488l-1.58 1.58-.02.04c-.73-.43-1.11-.778-1.24-.899.57-.409 1.12-.789 1.64-1.139z"/><path fill="#F7DBD5" d="M66.047 75.63s-.1 1.22.7 1.22c.81 0 .61-1.22.61-1.22h-1.31zm-2.61-1.69c2.73-1.14 9.03.07 9.03.07s-.148-.38-3.87-1.06c-3.72-.68-5.76-.3-5.76-.3l.6 1.29zm-6.85 2.05-.96-.05s-.15 1.06.41 1.26c.55.2.96-.66.55-1.21zm-3.39-1.22s3.15-1.29 6.31-.78c-.26-.56-.47-.88-.47-.88s-1.97-.23-3.79.52c-1.82.76-2.05 1.14-2.05 1.14zm.84 10.32c-1.06-4.05-1.72-7.87-1.87-11.28-.02-.65-.03-1.28-.02-1.89.75-.23 3.99-1.33 6.06-3.67 2.35-2.65 2.43-3.41 2.43-3.41s6.99 7.96 13.679 7.34c-4.109 6.73-.561 14.12-.561 14.12l.03.03c-1.16 1.16-2.181 2.45-2.761 4.14-.209.6-.369 1.21-.5 1.8-3.89 4.28-8.029 4.18-11.279 1.59-2.348-1.86-4.228-5.03-5.208-8.77z"/><path fill="#F9B438" d="M53.197 125.08c-.75 0-.86-1.11-.1-1.11.29 0 .56.38.72.91-.2.14-.42.2-.62.2z"/><path fill="#F9B438" d="M50.827 127.391c.01-.561.15-4.461 1.31-9.141 1.27-5.05 2.78-8.141 2.78-8.141l.02-.09c.2.051.4.101.61.141.68.148 1.39.279 2.16.41l-.01.05s-.17.83-.77 1.17c-.1-.42-.35-.75-.64-.82-.66-.149-.86 1.021.15.96.19-.01.35-.06.49-.14.15.56.04 1.271-.59 1.76-.08.07-.16.12-.24.17-.19-.71-.7-.97-1.03-.67-.46.42.07 1.23 1.03.67.11.38.13.88-.01 1.5-.13.57-.34.98-.57 1.24-.28-.819-1.26-.78-1.15-.13.1.58.67.68 1.15.13.1.26.12.601.01 1.04-.16.62-.38 1.05-.63 1.311-.33-.851-1.33-.681-1.14-.101.16.5.68.61 1.14.101.1.26.14.601.07 1.061-.14.93-.41 1.52-.71 1.85-.56-.89-1.48-.08-1.01.23.3.189.68.14 1.01-.23.1.15.19.36.26.631.33 1.34-.13 2.189-.7 2.529-.16-.529-.43-.91-.72-.91-.76 0-.65 1.11.1 1.11.2 0 .42-.062.62-.2.25.811.22 1.95-.48 2.51h-2.51v-.001z"/><path fill="#C68722" d="M49.057 83.27c.55-4.15 3.08-9.46 3.08-9.46h.03c.15 3.41.81 7.23 1.87 11.28.98 3.74 2.86 6.91 5.21 8.77l-.03.03s.2 1.799-.19 2.81c-.36-.2-.52-.341-.52-.341s-1.96 1.021-4.92 3.011c-.05.03-.1.06-.16.1-3.37-3.06-5.14-10.51-4.37-16.2z"/><path fill="#F9B438" d="M53.607 103.09c-2.02-.66-3.29 1.771-4.65 2.471-1.37.709-2.43-.149-2.43-.149l-.01-.011c1.43-1.641 2.91-3.069 4.36-4.131.31-.229.61-.449.91-.658.13.119.51.47 1.24.898.61.37 1.48.801 2.64 1.21.41.15.85.3 1.33.431.43.131.88.25 1.37.359.48.11.98.221 1.52.311.54.101 1.1.189 1.7.271.55.08 1.12.142 1.73.2.5.04 1.02.08 1.56.109.91.061 1.87.091 2.89.101l.03.01c-.29.931-.49 1.9-.59 2.87 0 0-.35 3.34-3.03 3.24-2.68-.102-1.02-5.46-3.49-5.61-2.41-.149-2.19 4.88-5.02 4.591-.08-.011-.16-.021-.24-.041-3.09-.612.2-5.822-1.82-6.472z"/><path fill="#DD8300" d="M38.637 116.99c1.93-3.641 4.46-7.54 7.14-10.75l.04.029s2.35 2.08 8.41 3.59l-.01.051c-9.21 15.37-17.09 17.449-17.09 17.449v.021h-1.82c.05-.63.44-4.93 3.33-10.39z"/><path fill="#DD8300" d="M46.527 105.41s1.06.859 2.43.148c1.36-.699 2.63-3.129 4.65-2.47 2.02.65-1.27 5.86 1.82 6.47.08.021.16.03.24.041l-.12.561c-.21-.04-.41-.09-.61-.141-.24-.051-.48-.109-.71-.16-6.06-1.51-8.41-3.59-8.41-3.59l-.04-.029c.25-.28.49-.561.74-.84l.01.01z"/><path fill="#DD8300" d="m50.827 127.391-13.7-.011v-.021s7.88-2.079 17.09-17.449l.01-.051c.23.051.47.109.71.16l-.02.09s-1.51 3.091-2.78 8.141c-1.16 4.68-1.3 8.58-1.31 9.141z"/><g fill="none" stroke="#000" stroke-width=".5" stroke-miterlimit="10"><path d="M35.287 127.38h1.84l13.7.011h12.69l13.37.009 20.53.01M51.987 71.97s.06-.02.16-.05c.75-.23 3.99-1.33 6.06-3.67 2.35-2.65 2.43-3.41 2.43-3.41s-.23-3.95 1.13-6.07c0 0-4.54.22-7.38 4.42-.1.14-.19.28-.28.43-1.29 2.14-1.91 4.98-1.96 8.3-.01.61 0 1.24.02 1.89.15 3.41.81 7.23 1.87 11.28.98 3.74 2.86 6.91 5.21 8.77 3.25 2.59 7.39 2.69 11.28-1.59.039-.04.08-.09.119-.13"/><path d="M61.767 58.77s3.72-1.06 11.31 6.14c7.58 7.21 12.96 16.46 12.96 22.91 0 3.31-.38 6.16-1.38 8.831-.601 1.619-1.431 3.181-2.53 4.74-.63.879-1.34 1.76-2.16 2.659-.24.271-.479.53-.72.78a167.16 167.16 0 0 1-4.12 4.3 63.2 63.2 0 0 0-1.75 1.83c-.891.96-1.49 1.71-1.75 2.34-.68 1.671-.68 2.2-.68 2.2s-2.09-1.63-3.17-4.17c-.43-1.01-.71-2.16-.62-3.41.01-.18.03-.359.05-.54.1-.97.3-1.938.59-2.87.25-.859.57-1.68.94-2.449.47-.99 1.02-1.891 1.62-2.641.62-.79 1.292-1.42 1.959-1.82 2.42-1.438 2.949-2.648 2.949-2.648"/><path d="M70.267 99.35s-.16-.959-.18-2.43c-.03-1.27.06-2.92.44-4.65.13-.59.289-1.2.5-1.8.58-1.69 1.6-2.979 2.76-4.14 1.859-1.84 4.1-3.31 5.5-5.41M73.757 86.3s-3.55-7.39.562-14.12c.02-.02.029-.04.039-.06"/><path d="M60.637 64.84s6.99 7.96 13.679 7.34a7.469 7.469 0 0 0 2.319-.59M59.347 64.69s-2.13 2.73-5.69 4.47M59.497 62.64s-1.9 1.67-3.79 2.8M59.877 61.12s-1.75.68-2.5 1.22"/><path d="M61.767 64.38s6.6 6.07 13.73 6.07M62.147 62.72s7.82 5 11.23 5.23M62.607 60.89s5.31 2.73 8.042 4.02M59.507 73.99c.03 0 .05.01.08.01"/><path d="M59.507 73.99c-.26-.56-.47-.88-.47-.88s-1.97-.23-3.79.52c-1.82.76-2.05 1.14-2.05 1.14s3.15-1.29 6.31-.78zM62.307 85.47s-.69 0-1.9-.689c-1.21-.68-.46-2.04 0-5.46.3-2.25-.4-4.24-.9-5.33M63.437 73.94l-.6-1.29s2.04-.38 5.76.3c3.719.68 3.87 1.06 3.87 1.06s-6.3-1.21-9.03-.07zM54.337 76.14s1.59-.76 3.79.3M64.727 75.76s2.5-.68 4.86.23M55.477 78.56s.98.08 1.59-.07M65.867 78.41c.23-.07 1.74 0 2.35-.07"/><path d="M55.097 75.99s-.38 1.97 1.14 1.89c1.51-.07.83-1.74.83-1.74M65.487 75.68s-.15 1.98 1.44 1.9c1.59-.08.91-1.9.91-1.9M59.727 88.48s.91.15 1.56.25c.66.1 1.07-.05 2.13-.25l1.06-.21M61.187 90.19s.96-.05 1.62-.05M61.087 87.41s.41.15.76 0M52.137 73.81s-2.53 5.31-3.08 9.46c-.77 5.69 1 13.14 4.37 16.2l.03.03"/><path d="M51.887 79.27c-.15.05-2.73 9.05 1.26 16.64"/><path d="M52.647 83.42c-.1.15-.46 7.79 2.83 12.59M54.417 89.28s1.21 3.64 3.08 5.97M77.217 71.99c0 .15-.199 3.14-2.479 5.77M78.527 74.07s.709 3.13-2.721 7.88M81.717 79.58c-.05.2-.25 3.99-4.85 7.78M82.986 81.95c-.061.15-.659 6.02-6.229 9.91M83.236 88.63s-2.18 9.4-10.721 13.9M82.827 95.2c-.05.15-4.7 7.53-8.04 10.569M59.217 93.89s.2 1.799-.19 2.81c-.01.01-.01.01-.01.02"/><path d="M69.987 96.92s-2.73 1.061-6.42.86c-2.43-.13-3.85-.7-4.54-1.08-.36-.2-.52-.341-.52-.341s-1.96 1.021-4.92 3.011c-.05.03-.1.06-.16.1-.52.351-1.07.73-1.64 1.142-.3.209-.6.43-.91.658-1.45 1.062-2.93 2.49-4.36 4.131-.25.279-.49.561-.74.841-2.68 3.21-5.21 7.108-7.14 10.75-2.89 5.46-3.28 9.76-3.33 10.39v.08M84.697 96.67s.64.57 1.64 1.8c.12.142.25.3.38.472.771.97 1.7 2.25 2.69 3.89 1.42 2.31 2.989 5.319 4.438 9.101 3.891 10.109 3.65 14.92 3.602 15.479v.05"/><path d="M45.817 106.27s2.35 2.08 8.41 3.592c.23.05.47.108.71.158.2.051.4.102.61.142.68.149 1.39.28 2.16.409.36.061.73.121 1.11.171.21.028.43.06.66.09.41.06.83.11 1.27.149 1.32.149 2.75.261 4.29.33.13.01.26.01.4.01.72.041 1.46.051 2.22.061M73.327 110.97s.021 0 .05-.01c.75-.149 9.82-2.03 16.03-8.13"/><path d="M46.527 105.41s1.06.859 2.43.148c1.36-.699 2.63-3.129 4.65-2.47 2.02.65-1.27 5.86 1.82 6.47.08.021.16.03.24.041 2.83.289 2.61-4.74 5.02-4.591 2.47.15.81 5.511 3.49 5.61 2.68.1 3.03-3.24 3.03-3.24M75.047 109.1s.03.021.08.03c.29.13 1.33.47 2.439-.43 1.319-1.062 1.521-3.49 1.721-3.841M82.167 101.42s1.42 1.311 2.479 2.32c1.061 1.01 2.779.56 2.939-1.061.141-1.529-.93-2.91-.87-3.74a.332.332 0 0 1 .011-.149M51.737 100.561l.05.051c.13.119.51.47 1.24.898.61.37 1.48.801 2.64 1.21.41.15.85.3 1.33.431.43.131.88.25 1.37.359.48.11.98.221 1.52.311.54.101 1.1.189 1.7.271.55.08 1.12.142 1.73.2.5.04 1.02.08 1.56.109.91.061 1.87.091 2.89.101M53.607 99.4s.34.199 1.02.488c.54.24 1.3.53 2.28.83a27.678 27.678 0 0 0 2.42.602c.45.09.92.18 1.42.26.46.08.95.14 1.46.2a35.132 35.132 0 0 0 3.08.239c1.06.051 2.19.051 3.39.011M67.007 102.13l-.31 2.27M65.287 102.03l-.41 2.37"/><path d="M63.817 101.92v.019l-.5 2.351v.01M62.197 101.82l-.6 2.23M60.737 101.62l-.85 2.2-.01.03M59.317 101.37l-.95 2.14-.01.03M58.057 101.01l-.01.02-1.05 2.111M56.897 100.76l-1.22 1.92M55.677 100.359l-1.26 1.771M54.667 99.85l-.04.041-1.58 1.579M37.127 127.359s7.88-2.079 17.09-17.449M77.018 127.46s-.051-.021-.131-.06c-1.039-.5-8.04-4.24-11.45-16.021M65.037 111.33s-.76 2.07-1.37 7.779c-.58 5.421-.2 8.021-.15 8.279v.021M54.917 110.109s-1.51 3.091-2.78 8.141c-1.16 4.68-1.3 8.58-1.31 9.141v.069M58.817 110.77s-.76 2.28-1.98 8.5c-1.08 5.551-1.24 7.711-1.26 8.121v.069M59.467 110.92s-1.26 4.25-2.17 9.561c-.8 4.699-1.02 6.551-1.05 6.91-.01.051-.01.069-.01.069M53.817 124.88c.25.812.22 1.95-.48 2.511a.492.492 0 0 1-.09.069M53.817 124.88c-.2.14-.42.2-.62.2-.75 0-.86-1.11-.1-1.11.29 0 .56.38.72.91z"/><path d="M54.257 121.72c.1.15.19.36.26.63.33 1.342-.13 2.19-.7 2.53M54.257 121.72c-.33.37-.71.421-1.01.23-.47-.309.45-1.12 1.01-.23z"/><path d="M54.897 118.811c.1.26.14.601.07 1.061-.14.93-.41 1.52-.71 1.85M54.897 118.811c-.46.51-.98.399-1.14-.101-.19-.58.81-.75 1.14.101zM55.517 116.46c.1.26.12.601.01 1.04-.16.62-.38 1.05-.63 1.311M55.517 116.46c-.48.55-1.05.45-1.15-.13-.11-.65.87-.689 1.15.13zM56.097 113.72c.11.38.13.88-.01 1.5-.13.57-.34.98-.57 1.24M56.097 113.72c-.96.562-1.49-.25-1.03-.67.33-.3.84-.04 1.03.67z"/><path d="M56.927 111.79c.15.56.04 1.271-.59 1.76-.08.07-.16.12-.24.17M56.927 111.79c-.14.08-.3.13-.49.14-1.01.062-.81-1.109-.15-.96.29.07.54.4.64.82zM57.697 110.62s-.17.83-.77 1.17M58.487 126.43c-.18.19-.34.5-.47.961-.01.01-.01.01-.01.021M58.487 126.43c.29.67.82.48 1.03.271.24-.241-.45-.881-1.03-.271zM58.777 123.891c-.27.239-.47.649-.47 1.289 0 .59.07.99.18 1.25M58.777 123.891c.3.68.96.539 1.25.129.28-.39-.65-.67-1.25-.129zM59.067 121.12c-.25.34-.43.86-.46 1.688-.01.49.05.842.17 1.08M59.067 121.12c.17.2.38.33.61.37.96.148 1.01-1.061.4-.96-.33.05-.73.18-1.01.59zM59.897 117.71c-.19.08-.38.22-.58.44-.92 1.039-.79 2.34-.25 2.97M59.897 117.71c.17.55.51.87.89.851.63-.041.03-1.25-.89-.851zM60.367 114.95c-.13.159-.24.37-.34.63-.31.83-.3 1.59-.13 2.13M60.367 114.95c.35.53.94.63 1.23.22.38-.561-.56-1.07-1.23-.22z"/><path d="M60.937 112.01c-.36.25-.68.7-.81 1.54-.09.61.03 1.091.24 1.4M60.937 112.01c.14.33.39.631.81.631.96 0 .71-1.011.15-.961-.27.02-.63.09-.96.33z"/><path d="M60.737 111.08s.02.49.2.93M86.316 98.59s.011-.04.021-.12c.181-.81 1.29-5.53 3.88-9.85.131-.22.26-.44.4-.65 3.13-4.91 6.979-7.84 6.979-7.84s-4.81-4.8-5.56-13.9c-.761-9.1.96-16.64.96-16.64s-6.12 2.79-14.771 1.52c-8.64-1.26-10.458-4.65-10.458-4.65s-2.58 3.54-6.68 4.7c-.04.01-.09.02-.13.04-3.99 1.11-5.18.47-5.18.47l-.66 5.48-.25 2.07-.48 3.97-.02.16"/><path d="M81.167 65.01a37.89 37.89 0 0 1 3.44 4.75c.188.31.369.61.55.92a46.461 46.461 0 0 1 2.27 4.57c2.091 4.93 2.681 8.99 2.771 11.46.02.8 0 1.43-.04 1.87M54.817 59.35s.01-.05.05-.13c.25-.66 1.78-3.65 8.29-4.37.17-.02.34-.03.51-.05 1.34-.07 2.75.14 4.2.57 1.22.37 2.47.91 3.71 1.58a30.112 30.112 0 0 1 4.8 3.3c.28.23.55.46.82.7a38.398 38.398 0 0 1 3.789 3.86"/><path d="m80.907 61.27-.011.01c-.061.17-.859 2.28.09 3.53.061.07.121.14.181.2 1.26 1.27 3.681.97 3.681.97s-1.16 2.33-.229 3.77c.04.06.08.11.13.17 1.17 1.42 3.34 1.67 3.34 1.67s-1.189 2.04-.6 3.63c.039.1.09.21.148.31.91 1.62 2.881 2.02 2.881 2.02s-1.521 1.93-1.011 3.75c.5 1.82 2.32 2.47 2.32 2.47s-1.511 1.22-1.62 2.94"/><path d="M55.067 57.13s.02.01.05.02c.17.09.74.3 1.37-.12.76-.51 1.06-2.43 1.06-2.43s.86 1.36 2.08.91c1.21-.45 1.66-2.58 1.66-2.58s1.04 1.83 2.38 1.83c.05 0 .1 0 .15-.01 1.42-.15 2.68-2.27 2.68-2.27s0 2.47 1.37 2.88c1.36.4 3.439-1.32 3.439-1.32s-.649 2 .271 2.91c.1.11.229.21.38.28.1.05.21.09.32.12 1.51.41 3.88-.73 3.88-.73s-.87 2.19.22 3.63c.08.11.17.21.28.31.17.16.35.29.54.39 1.47.84 3.52.37 3.699.33M57.497 53.44c.04.26-.04.5-.18.52s-.28-.18-.32-.45c-.04-.26.04-.5.18-.52.14-.02.28.18.32.45zM61.057 51.56c.03-.03.07-.04.1-.04.14 0 .26.21.26.48.01.27-.1.5-.24.5-.14 0-.26-.22-.27-.49 0-.2.06-.38.15-.45zM67.107 51.08c-.05.26-.2.46-.34.43-.14-.02-.21-.26-.16-.52.04-.271.19-.47.33-.44.14.02.21.26.17.53zM72.518 52.73c-.119.24-.311.39-.439.33s-.141-.3-.021-.55c.11-.24.312-.39.44-.33.119.06.129.3.02.55z"/><ellipse transform="rotate(-50.617 77.217 55.457)" cx="77.222" cy="55.456" rx=".487" ry=".252"/><path d="M82.167 60.46c-.19.19-.42.26-.521.16-.101-.1-.021-.33.17-.52.189-.19.431-.26.529-.16.102.1.022.34-.178.52zM86.146 65.29c-.199.19-.431.26-.529.16-.102-.11-.021-.34.17-.53.199-.19.43-.26.529-.16.101.1.021.34-.17.53zM89.497 71.08c-.22.15-.46.18-.54.07-.08-.12.029-.34.25-.49.22-.16.47-.19.55-.07.08.11-.03.33-.26.49zM91.797 77.3c-.24.12-.49.12-.55-.01-.07-.12.08-.32.319-.44.24-.12.49-.12.551.01.071.13-.08.32-.32.44zM93.018 83.56c-.24.12-.49.12-.551-.01-.06-.13.08-.33.33-.45.24-.12.49-.11.551.02.059.12-.08.32-.33.44z"/></g></g><path fill="none" stroke="#000" stroke-miterlimit="10" d="M133.75 171.57c0 6.762-5.623 12.244-12.56 12.244H17.048c-6.936 0-12.56-5.482-12.56-12.244V17.244C4.488 10.482 10.112 5 17.048 5H121.19c6.937 0 12.56 5.482 12.56 12.244V171.57z"/></svg>