<?xml version="1.0" encoding="utf-8"?>
<!-- Generator: Adobe Illustrator 16.0.0, SVG Export Plug-In . SVG Version: 6.00 Build 0)  -->
<!DOCTYPE svg PUBLIC "-//W3C//DTD SVG 1.1//EN" "http://www.w3.org/Graphics/SVG/1.1/DTD/svg11.dtd">
<svg version="1.1"
	 id="svg2" xmlns:dc="http://purl.org/dc/elements/1.1/" xmlns:cc="http://web.resource.org/cc/" xmlns:rdf="http://www.w3.org/1999/02/22-rdf-syntax-ns#" xmlns:svg="http://www.w3.org/2000/svg" xmlns:sodipodi="http://inkscape.sourceforge.net/DTD/sodipodi-0.dtd" xmlns:inkscape="http://www.inkscape.org/namespaces/inkscape" sodipodi:docbase="/home/nicu/Desktop/simple" sodipodi:docname="d_2.svg" inkscape:version="0.41" sodipodi:version="0.32"
	 xmlns="http://www.w3.org/2000/svg" xmlns:xlink="http://www.w3.org/1999/xlink" x="0px" y="0px" width="140px" height="190px"
	 viewBox="0 0 140 190" enable-background="new 0 0 140 190" xml:space="preserve">
<sodipodi:namedview  inkscape:cx="70.000003" inkscape:cy="95.000001" inkscape:zoom="1.9105263" borderopacity="1.0" bordercolor="#666666" pagecolor="#ffffff" id="base" inkscape:window-x="0" inkscape:pageshadow="2" inkscape:pageopacity="0.0" inkscape:window-height="791" inkscape:current-layer="svg2" inkscape:window-y="26" inkscape:window-width="1152">
	</sodipodi:namedview>
<g id="layer1" inkscape:label="Layer 1" inkscape:groupmode="layer">
	<g id="g5630">
		<path id="rect2070" fill-opacity="0.498" d="M21,5h103c8.864,0,16,7.136,16,16v153c0,8.864-7.136,16-16,16H21
			c-8.864,0-16-7.136-16-16V21C5,12.136,12.136,5,21,5z"/>
		<path id="rect1300" fill="#E7E7E7" d="M17,1h103c8.864,0,16,7.136,16,16v153c0,8.864-7.136,16-16,16H17c-8.864,0-16-7.136-16-16
			V17C1,8.136,8.136,1,17,1z"/>
		<path id="path5624" fill="#C7891F" d="M19,3h103c8.864,0,16,7.136,16,16v153c0,8.864-7.136,16-16,16H19c-8.864,0-16-7.136-16-16
			V19C3,10.136,10.136,3,19,3z"/>
		<path id="rect1306" fill="#FFFFFF" d="M18,2h103c8.864,0,16,7.136,16,16v153c0,8.864-7.136,16-16,16H18c-8.864,0-16-7.136-16-16
			V18C2,9.136,9.136,2,18,2z"/>
	</g>
	<g id="g5495" transform="translate(-448.5000,-231.5000)" inkscape:label="Layer 1" inkscape:groupmode="layer">
	</g>
</g>
<g id="g2352" transform="translate(333.5000,184.5000)">
	<path id="text2035" fill="#FF0000" d="M-314.7-148.188h10.915v5.687h-18.025v-5.687l9.054-9.665
		c0.809-0.884,1.407-1.748,1.794-2.592c0.388-0.844,0.582-1.721,0.582-2.632c0-1.406-0.394-2.538-1.18-3.396
		c-0.775-0.857-1.811-1.286-3.107-1.286c-0.997,0-2.087,0.261-3.272,0.784c-1.185,0.509-2.454,1.272-3.805,2.291v-6.591
		c1.44-0.576,2.863-1.011,4.27-1.306c1.407-0.308,2.786-0.462,4.137-0.462c2.968,0,5.272,0.791,6.911,2.371
		c1.65,1.581,2.476,3.784,2.476,6.611c0,1.634-0.349,3.161-1.047,4.581c-0.698,1.407-2.165,3.295-4.402,5.667L-314.7-148.188"/>
	<path id="text2062" fill="#FF0000" d="M-213.381-32.056h-10.914v-5.687h18.025v5.687l-9.055,9.665
		c-0.809,0.884-1.406,1.748-1.794,2.592s-0.581,1.722-0.581,2.633c0,1.406,0.393,2.538,1.18,3.396
		c0.775,0.857,1.811,1.286,3.105,1.286c0.998,0,2.088-0.262,3.273-0.783c1.186-0.51,2.453-1.273,3.805-2.291v6.59
		c-1.439,0.576-2.863,1.012-4.27,1.307c-1.406,0.309-2.785,0.462-4.137,0.462c-2.969,0-5.272-0.79-6.911-2.371
		c-1.65-1.581-2.476-3.784-2.476-6.61c0-1.635,0.349-3.162,1.047-4.582c0.697-1.406,2.165-3.295,4.402-5.666L-213.381-32.056"/>
</g>
<path id="path1608" fill="#FF0000" d="M20.41,48.665c-4.126,8.246-7.134,12.498-13.34,17.04c5.873,4.487,10.013,9.125,13.46,16.621
	c3.079-7.122,6.846-12.43,13.39-16.843C27.338,62.133,23.527,56.828,20.41,48.665z"/>
<path id="path1502" fill="#FF0000" d="M68.77,50.22c-2.403,4.846-4.155,7.345-7.77,10.014c3.421,2.637,5.833,5.362,7.84,9.767
	c1.794-4.185,3.988-7.304,7.8-9.897C72.807,58.134,70.586,55.017,68.77,50.22z"/>
<path id="path1514" fill="#FF0000" d="M68.13,117c-2.403,4.846-4.156,7.344-7.771,10.014c3.421,2.637,5.833,5.361,7.841,9.767
	c1.793-4.185,3.988-7.305,7.799-9.897C72.166,124.914,69.946,121.797,68.13,117z"/>
<path id="path1518" fill="#FF0000" d="M118.34,106.34c-4.126,8.246-7.135,12.498-13.34,17.039
	c5.873,4.488,10.013,9.125,13.46,16.621c3.079-7.121,6.847-12.43,13.39-16.844C125.268,119.809,121.457,114.504,118.34,106.34z"/>
<path fill="none" stroke="#000000" stroke-miterlimit="10" d="M134.25,171.57c0,6.762-5.623,12.244-12.56,12.244H17.548
	c-6.936,0-12.56-5.482-12.56-12.244V17.244C4.988,10.482,10.612,5,17.548,5H121.69c6.937,0,12.56,5.482,12.56,12.244V171.57z"/>
</svg>
