<?xml version="1.0" encoding="utf-8"?>
<!-- Generator: Adobe Illustrator 16.0.0, SVG Export Plug-In . SVG Version: 6.00 Build 0)  -->
<!DOCTYPE svg PUBLIC "-//W3C//DTD SVG 1.1//EN" "http://www.w3.org/Graphics/SVG/1.1/DTD/svg11.dtd">
<svg version="1.1"
	 id="svg2" xmlns:dc="http://purl.org/dc/elements/1.1/" xmlns:cc="http://web.resource.org/cc/" xmlns:rdf="http://www.w3.org/1999/02/22-rdf-syntax-ns#" xmlns:svg="http://www.w3.org/2000/svg" xmlns:sodipodi="http://inkscape.sourceforge.net/DTD/sodipodi-0.dtd" xmlns:inkscape="http://www.inkscape.org/namespaces/inkscape" sodipodi:docbase="/home/nicu/Desktop/simple" sodipodi:docname="d_3.svg" inkscape:version="0.41" sodipodi:version="0.32"
	 xmlns="http://www.w3.org/2000/svg" xmlns:xlink="http://www.w3.org/1999/xlink" x="0px" y="0px" width="140px" height="190px"
	 viewBox="0 0 140 190" enable-background="new 0 0 140 190" xml:space="preserve">
<sodipodi:namedview  inkscape:cx="70.000003" inkscape:cy="95.000001" inkscape:zoom="1.9105263" borderopacity="1.0" bordercolor="#666666" pagecolor="#ffffff" id="base" inkscape:window-x="0" inkscape:pageshadow="2" inkscape:pageopacity="0.0" inkscape:window-height="791" inkscape:current-layer="svg2" inkscape:window-y="26" inkscape:window-width="1152">
	</sodipodi:namedview>
<g id="layer1" inkscape:label="Layer 1" inkscape:groupmode="layer">
	<g id="g5630">
		<path id="rect2070" fill-opacity="0.498" d="M21,5h103c8.864,0,16,7.136,16,16v153c0,8.864-7.136,16-16,16H21
			c-8.864,0-16-7.136-16-16V21C5,12.136,12.136,5,21,5z"/>
		<path id="rect1300" fill="#E7E7E7" d="M17,1h103c8.864,0,16,7.136,16,16v153c0,8.864-7.136,16-16,16H17c-8.864,0-16-7.136-16-16
			V17C1,8.136,8.136,1,17,1z"/>
		<path id="path5624" fill="#C7891F" d="M19,3h103c8.864,0,16,7.136,16,16v153c0,8.864-7.136,16-16,16H19c-8.864,0-16-7.136-16-16
			V19C3,10.136,10.136,3,19,3z"/>
		<path id="rect1306" fill="#FFFFFF" d="M18,2h103c8.864,0,16,7.136,16,16v153c0,8.864-7.136,16-16,16H18c-8.864,0-16-7.136-16-16
			V18C2,9.136,9.136,2,18,2z"/>
	</g>
	<g id="g5495" transform="translate(-448.5000,-231.5000)" inkscape:label="Layer 1" inkscape:groupmode="layer">
	</g>
</g>
<g id="g2352" transform="translate(333.5000,184.5000)">
</g>
<g id="g2569">
	<path id="text2221" fill="#FF0000" d="M24.607,26.063c1.672,0.522,2.94,1.434,3.805,2.733c0.875,1.286,1.313,2.927,1.313,4.923
		c0,2.974-0.941,5.238-2.824,6.792c-1.883,1.541-4.63,2.311-8.24,2.311c-1.274,0-2.553-0.127-3.838-0.382
		c-1.273-0.241-2.536-0.609-3.788-1.105v-5.968c1.196,0.723,2.381,1.272,3.555,1.647c1.185,0.362,2.348,0.542,3.489,0.542
		c1.694,0,2.99-0.355,3.887-1.065c0.908-0.71,1.362-1.728,1.362-3.054c0-1.366-0.465-2.398-1.396-3.094
		c-0.919-0.71-2.281-1.065-4.086-1.065h-2.559v-4.983h2.691c1.606,0,2.802-0.301,3.588-0.904c0.786-0.616,1.18-1.547,1.18-2.793
		c0-1.152-0.382-2.042-1.146-2.672c-0.764-0.629-1.844-0.944-3.24-0.944c-1.03,0-2.071,0.141-3.123,0.422s-2.099,0.697-3.14,1.246
		v-5.667c1.263-0.429,2.514-0.75,3.755-0.965c1.24-0.214,2.458-0.321,3.655-0.321c3.223,0,5.632,0.643,7.227,1.929
		c1.606,1.272,2.409,3.195,2.409,5.767c0,1.755-0.382,3.195-1.146,4.32C27.232,24.824,26.103,25.607,24.607,26.063"/>
	<path id="text1986" fill="#FF0000" d="M114.072,162.934c-1.672-0.523-2.94-1.434-3.805-2.733c-0.875-1.286-1.313-2.927-1.313-4.923
		c0-2.974,0.941-5.238,2.824-6.791c1.883-1.541,4.63-2.312,8.24-2.312c1.273,0,2.553,0.128,3.838,0.382
		c1.273,0.241,2.537,0.609,3.788,1.105v5.968c-1.196-0.724-2.382-1.272-3.556-1.647c-1.185-0.362-2.348-0.543-3.488-0.543
		c-1.695,0-2.99,0.355-3.888,1.064c-0.908,0.711-1.362,1.729-1.362,3.055c0,1.366,0.465,2.398,1.396,3.095
		c0.919,0.71,2.282,1.065,4.087,1.065h2.559v4.982h-2.691c-1.605,0-2.803,0.302-3.588,0.904c-0.787,0.616-1.18,1.547-1.18,2.793
		c0,1.152,0.382,2.043,1.146,2.672c0.764,0.631,1.844,0.945,3.238,0.945c1.031,0,2.072-0.141,3.124-0.422s2.099-0.697,3.14-1.246
		v5.666c-1.263,0.429-2.514,0.75-3.754,0.965c-1.241,0.215-2.459,0.321-3.655,0.321c-3.224,0-5.632-0.644-7.228-1.929
		c-1.605-1.272-2.408-3.195-2.408-5.768c0-1.754,0.382-3.194,1.146-4.319C111.447,164.172,112.577,163.389,114.072,162.934"/>
</g>
<path id="path1608" fill="#FF0000" d="M20.41,48.665c-4.126,8.246-7.134,12.498-13.34,17.04c5.873,4.487,10.013,9.125,13.46,16.621
	c3.079-7.122,6.846-12.43,13.39-16.843C27.338,62.133,23.527,56.828,20.41,48.665z"/>
<path id="path1502" fill="#FF0000" d="M69.77,45.22c-2.403,4.846-4.155,7.345-7.77,10.014c3.421,2.637,5.833,5.362,7.84,9.767
	c1.794-4.185,3.988-7.304,7.8-9.897C73.807,53.134,71.586,50.017,69.77,45.22z"/>
<path id="path1510" fill="#FF0000" d="M70.13,86.22c-2.403,4.846-4.156,7.345-7.771,10.014c3.421,2.637,5.833,5.362,7.841,9.767
	c1.793-4.185,3.988-7.305,7.799-9.897C74.166,94.134,71.946,91.017,70.13,86.22z"/>
<path id="path1514" fill="#FF0000" d="M69.13,123.22c-2.403,4.846-4.156,7.345-7.771,10.014c3.421,2.637,5.833,5.362,7.841,9.767
	c1.793-4.185,3.988-7.305,7.799-9.897C73.166,131.135,70.946,128.018,69.13,123.22z"/>
<path id="path1518" fill="#FF0000" d="M118.34,106.34c-4.126,8.246-7.135,12.498-13.34,17.039
	c5.873,4.488,10.013,9.125,13.46,16.621c3.079-7.121,6.847-12.43,13.39-16.844C125.268,119.809,121.457,114.504,118.34,106.34z"/>
<path fill="none" stroke="#000000" stroke-miterlimit="10" d="M134,171.82c0,6.762-5.623,12.244-12.56,12.244H17.298
	c-6.936,0-12.56-5.482-12.56-12.244V17.494c0-6.762,5.624-12.244,12.56-12.244H121.44c6.937,0,12.56,5.482,12.56,12.244V171.82z"/>
</svg>
