<?xml version="1.0" encoding="utf-8"?>
<!-- Generator: Adobe Illustrator 16.0.0, SVG Export Plug-In . SVG Version: 6.00 Build 0)  -->
<!DOCTYPE svg PUBLIC "-//W3C//DTD SVG 1.1//EN" "http://www.w3.org/Graphics/SVG/1.1/DTD/svg11.dtd">
<svg version="1.1"
	 id="svg2" xmlns:dc="http://purl.org/dc/elements/1.1/" xmlns:cc="http://web.resource.org/cc/" xmlns:rdf="http://www.w3.org/1999/02/22-rdf-syntax-ns#" xmlns:svg="http://www.w3.org/2000/svg" xmlns:sodipodi="http://inkscape.sourceforge.net/DTD/sodipodi-0.dtd" xmlns:inkscape="http://www.inkscape.org/namespaces/inkscape" sodipodi:docbase="/home/nicu/Desktop/simple" sodipodi:docname="d_4.svg" inkscape:version="0.41" sodipodi:version="0.32"
	 xmlns="http://www.w3.org/2000/svg" xmlns:xlink="http://www.w3.org/1999/xlink" x="0px" y="0px" width="140px" height="190px"
	 viewBox="0 0 140 190" enable-background="new 0 0 140 190" xml:space="preserve">
<sodipodi:namedview  inkscape:cx="70.000003" inkscape:cy="95.000001" inkscape:zoom="1.9105263" borderopacity="1.0" bordercolor="#666666" pagecolor="#ffffff" id="base" inkscape:window-x="0" inkscape:pageshadow="2" inkscape:pageopacity="0.0" inkscape:window-height="791" inkscape:current-layer="svg2" inkscape:window-y="26" inkscape:window-width="1152">
	</sodipodi:namedview>
<g id="layer1" inkscape:label="Layer 1" inkscape:groupmode="layer">
	<g id="g5630">
		<path id="rect2070" fill-opacity="0.498" d="M21,5h103c8.864,0,16,7.136,16,16v153c0,8.864-7.136,16-16,16H21
			c-8.864,0-16-7.136-16-16V21C5,12.136,12.136,5,21,5z"/>
		<path id="rect1300" fill="#E7E7E7" d="M17,1h103c8.864,0,16,7.136,16,16v153c0,8.864-7.136,16-16,16H17c-8.864,0-16-7.136-16-16
			V17C1,8.136,8.136,1,17,1z"/>
		<path id="path5624" fill="#C7891F" d="M19,3h103c8.864,0,16,7.136,16,16v153c0,8.864-7.136,16-16,16H19c-8.864,0-16-7.136-16-16
			V19C3,10.136,10.136,3,19,3z"/>
		<path id="rect1306" fill="#FFFFFF" d="M18,2h103c8.864,0,16,7.136,16,16v153c0,8.864-7.136,16-16,16H18c-8.864,0-16-7.136-16-16
			V18C2,9.136,9.136,2,18,2z"/>
	</g>
	<g id="g5495" transform="translate(-448.5000,-231.5000)" inkscape:label="Layer 1" inkscape:groupmode="layer">
	</g>
</g>
<g id="g2352" transform="translate(333.5000,184.5000)">
</g>
<path id="text2358" fill="#FF0000" d="M21.285,18.608l-7.011,12.559h7.011V18.608 M20.221,12.238h7.111v18.928h3.539v5.606h-3.539
	v5.466h-6.047v-5.466H10.287v-6.631L20.221,12.238"/>
<path id="text2242" fill="#FF0000" d="M117.396,170.53l7.011-12.559h-7.011V170.53 M118.459,176.9h-7.111v-18.929h-3.538v-5.606
	h3.538V146.9h6.048v5.465h10.998v6.631L118.459,176.9"/>
<path id="path1608" fill="#FF0000" d="M20.41,48.665c-4.126,8.246-7.134,12.498-13.34,17.04c5.873,4.487,10.013,9.125,13.46,16.621
	c3.079-7.122,6.846-12.43,13.39-16.843C27.338,62.133,23.527,56.828,20.41,48.665z"/>
<path id="path1498" fill="#FF0000" d="M51.13,45c-2.403,4.845-4.156,7.344-7.771,10.013c3.421,2.637,5.833,5.362,7.841,9.767
	c1.793-4.185,3.988-7.305,7.799-9.898C55.166,52.915,52.946,49.797,51.13,45z"/>
<path id="path1500" fill="#FF0000" d="M87.131,45c-2.404,4.845-4.156,7.344-7.771,10.013c3.422,2.637,5.833,5.362,7.842,9.767
	c1.793-4.185,3.987-7.305,7.799-9.898C91.166,52.915,88.946,49.797,87.131,45z"/>
<path id="path1512" fill="#FF0000" d="M53.13,122.22c-2.403,4.846-4.156,7.345-7.771,10.014c3.421,2.637,5.833,5.362,7.841,9.767
	c1.793-4.185,3.988-7.305,7.799-9.897C57.166,130.135,54.946,127.018,53.13,122.22z"/>
<path id="path1516" fill="#FF0000" d="M88.131,122.22c-2.404,4.846-4.156,7.345-7.771,10.014c3.422,2.637,5.833,5.362,7.842,9.767
	c1.793-4.185,3.987-7.305,7.799-9.897C92.166,130.135,89.946,127.018,88.131,122.22z"/>
<path id="path1518" fill="#FF0000" d="M118.34,106.34c-4.126,8.246-7.135,12.498-13.34,17.039
	c5.873,4.488,10.013,9.125,13.46,16.621c3.079-7.121,6.847-12.43,13.39-16.844C125.268,119.809,121.457,114.504,118.34,106.34z"/>
<path fill="none" stroke="#000000" stroke-miterlimit="10" d="M134,171.82c0,6.762-5.623,12.244-12.56,12.244H17.298
	c-6.936,0-12.56-5.482-12.56-12.244V17.494c0-6.762,5.624-12.244,12.56-12.244H121.44c6.937,0,12.56,5.482,12.56,12.244V171.82z"/>
</svg>
