<?xml version="1.0" encoding="utf-8"?>
<!-- Generator: Adobe Illustrator 16.0.0, SVG Export Plug-In . SVG Version: 6.00 Build 0)  -->
<!DOCTYPE svg PUBLIC "-//W3C//DTD SVG 1.1//EN" "http://www.w3.org/Graphics/SVG/1.1/DTD/svg11.dtd">
<svg version="1.1"
	 id="svg2" xmlns:dc="http://purl.org/dc/elements/1.1/" xmlns:cc="http://web.resource.org/cc/" xmlns:rdf="http://www.w3.org/1999/02/22-rdf-syntax-ns#" xmlns:svg="http://www.w3.org/2000/svg" xmlns:sodipodi="http://inkscape.sourceforge.net/DTD/sodipodi-0.dtd" xmlns:inkscape="http://www.inkscape.org/namespaces/inkscape" sodipodi:docbase="/home/nicu/Desktop/simple" sodipodi:docname="d_5.svg" inkscape:version="0.41" sodipodi:version="0.32"
	 xmlns="http://www.w3.org/2000/svg" xmlns:xlink="http://www.w3.org/1999/xlink" x="0px" y="0px" width="140px" height="190px"
	 viewBox="0 0 140 190" enable-background="new 0 0 140 190" xml:space="preserve">
<sodipodi:namedview  inkscape:cx="70.000003" inkscape:cy="95.000001" inkscape:zoom="1.9105263" borderopacity="1.0" bordercolor="#666666" pagecolor="#ffffff" id="base" inkscape:window-x="0" inkscape:pageshadow="2" inkscape:pageopacity="0.0" inkscape:window-height="791" inkscape:current-layer="svg2" inkscape:window-y="26" inkscape:window-width="1152">
	</sodipodi:namedview>
<g id="layer1" inkscape:label="Layer 1" inkscape:groupmode="layer">
	<g id="g5630">
		<path id="rect2070" fill-opacity="0.498" d="M21,5h103c8.864,0,16,7.136,16,16v153c0,8.864-7.136,16-16,16H21
			c-8.864,0-16-7.136-16-16V21C5,12.136,12.136,5,21,5z"/>
		<path id="rect1300" fill="#E7E7E7" d="M17,1h103c8.864,0,16,7.136,16,16v153c0,8.864-7.136,16-16,16H17c-8.864,0-16-7.136-16-16
			V17C1,8.136,8.136,1,17,1z"/>
		<path id="path5624" fill="#C7891F" d="M19,3h103c8.864,0,16,7.136,16,16v153c0,8.864-7.136,16-16,16H19c-8.864,0-16-7.136-16-16
			V19C3,10.136,10.136,3,19,3z"/>
		<path id="rect1306" fill="#FFFFFF" d="M18,2h103c8.864,0,16,7.136,16,16v153c0,8.864-7.136,16-16,16H18c-8.864,0-16-7.136-16-16
			V18C2,9.136,9.136,2,18,2z"/>
	</g>
	<g id="g5495" transform="translate(-448.5000,-231.5000)" inkscape:label="Layer 1" inkscape:groupmode="layer">
	</g>
</g>
<g id="g2352" transform="translate(333.5000,184.5000)">
</g>
<g id="g3925" transform="translate(329.5000,183.5000)">
	<path id="text2531" fill="#FF0000" d="M-317.137-171.262h15.899v5.687h-10.799v4.642c0.488-0.161,0.975-0.281,1.462-0.362
		c0.498-0.094,1.013-0.141,1.545-0.141c3.023,0,5.377,0.918,7.061,2.753c1.684,1.822,2.525,4.367,2.525,7.636
		c0,3.242-0.919,5.78-2.758,7.615c-1.828,1.835-4.37,2.753-7.625,2.753c-1.407,0-2.802-0.167-4.187-0.502
		c-1.374-0.321-2.741-0.817-4.104-1.487v-6.088c1.351,0.938,2.63,1.641,3.837,2.11c1.218,0.469,2.365,0.703,3.439,0.703
		c1.551,0,2.769-0.456,3.655-1.366c0.897-0.924,1.346-2.17,1.346-3.737c0-1.581-0.448-2.827-1.346-3.738
		c-0.886-0.911-2.104-1.366-3.655-1.366c-0.919,0-1.899,0.147-2.94,0.442c-1.041,0.281-2.16,0.723-3.356,1.326V-171.262"/>
	<path id="text2540" fill="#FF0000" d="M-203.184-6.5h-15.898v-5.687h10.799v-4.642c-0.488,0.16-0.975,0.281-1.463,0.361
		c-0.498,0.094-1.014,0.141-1.545,0.141c-3.023,0-5.377-0.917-7.061-2.752c-1.684-1.822-2.525-4.367-2.525-7.636
		c0-3.242,0.92-5.78,2.758-7.616c1.828-1.835,4.369-2.752,7.626-2.752c1.406,0,2.802,0.167,4.187,0.502
		c1.373,0.321,2.741,0.817,4.104,1.486v6.089c-1.352-0.938-2.631-1.641-3.838-2.11c-1.219-0.469-2.364-0.703-3.439-0.703
		c-1.55,0-2.768,0.456-3.654,1.367c-0.896,0.924-1.346,2.17-1.346,3.737c0,1.581,0.449,2.826,1.346,3.737
		c0.887,0.91,2.104,1.366,3.654,1.366c0.92,0,1.9-0.147,2.941-0.442c1.041-0.281,2.16-0.723,3.355-1.326V-6.5"/>
</g>
<path id="path1608" fill="#FF0000" d="M20.41,48.665c-4.126,8.246-7.134,12.498-13.34,17.04c5.873,4.487,10.013,9.125,13.46,16.621
	c3.079-7.122,6.846-12.43,13.39-16.843C27.338,62.133,23.527,56.828,20.41,48.665z"/>
<path id="path1498" fill="#FF0000" d="M51.13,45c-2.403,4.845-4.156,7.344-7.771,10.013c3.421,2.637,5.833,5.362,7.841,9.767
	c1.793-4.185,3.988-7.305,7.799-9.898C55.166,52.915,52.946,49.797,51.13,45z"/>
<path id="path1500" fill="#FF0000" d="M87.131,45c-2.404,4.845-4.156,7.344-7.771,10.013c3.422,2.637,5.833,5.362,7.842,9.767
	c1.793-4.185,3.987-7.305,7.799-9.898C91.166,52.915,88.946,49.797,87.131,45z"/>
<path id="path1512" fill="#FF0000" d="M53.13,122.22c-2.403,4.846-4.156,7.345-7.771,10.014c3.421,2.637,5.833,5.362,7.841,9.767
	c1.793-4.185,3.988-7.305,7.799-9.897C57.166,130.135,54.946,127.018,53.13,122.22z"/>
<path id="path1516" fill="#FF0000" d="M88.131,122c-2.404,4.846-4.156,7.344-7.771,10.014c3.422,2.637,5.833,5.361,7.842,9.767
	c1.793-4.185,3.987-7.305,7.799-9.897C92.166,129.914,89.946,126.797,88.131,122z"/>
<path id="path1518" fill="#FF0000" d="M118.34,106.34c-4.126,8.246-7.135,12.498-13.34,17.039
	c5.873,4.488,10.013,9.125,13.46,16.621c3.079-7.121,6.847-12.43,13.39-16.844C125.268,119.809,121.457,114.504,118.34,106.34z"/>
<path id="path1502" fill="#FF0000" d="M69.77,82.22c-2.403,4.846-4.155,7.345-7.77,10.014c3.421,2.637,5.833,5.362,7.84,9.767
	c1.794-4.185,3.988-7.304,7.8-9.897C73.807,90.134,71.586,87.017,69.77,82.22z"/>
<path fill="none" stroke="#000000" stroke-miterlimit="10" d="M133.75,171.57c0,6.762-5.623,12.244-12.56,12.244H17.048
	c-6.936,0-12.56-5.482-12.56-12.244V17.244C4.488,10.482,10.112,5,17.048,5H121.19c6.937,0,12.56,5.482,12.56,12.244V171.57z"/>
</svg>
