<?xml version="1.0" encoding="utf-8"?>
<!-- Generator: Adobe Illustrator 16.0.0, SVG Export Plug-In . SVG Version: 6.00 Build 0)  -->
<!DOCTYPE svg PUBLIC "-//W3C//DTD SVG 1.1//EN" "http://www.w3.org/Graphics/SVG/1.1/DTD/svg11.dtd">
<svg version="1.1"
	 id="svg2" xmlns:dc="http://purl.org/dc/elements/1.1/" xmlns:cc="http://web.resource.org/cc/" xmlns:rdf="http://www.w3.org/1999/02/22-rdf-syntax-ns#" xmlns:svg="http://www.w3.org/2000/svg" xmlns:sodipodi="http://inkscape.sourceforge.net/DTD/sodipodi-0.dtd" xmlns:inkscape="http://www.inkscape.org/namespaces/inkscape" sodipodi:docbase="/home/nicu/Desktop/simple" sodipodi:docname="d_7.svg" inkscape:version="0.41" sodipodi:version="0.32"
	 xmlns="http://www.w3.org/2000/svg" xmlns:xlink="http://www.w3.org/1999/xlink" x="0px" y="0px" width="140px" height="190px"
	 viewBox="0 0 140 190" enable-background="new 0 0 140 190" xml:space="preserve">
<sodipodi:namedview  inkscape:cx="70.000003" inkscape:cy="95.000001" inkscape:zoom="1.9105263" borderopacity="1.0" bordercolor="#666666" pagecolor="#ffffff" id="base" inkscape:window-x="0" inkscape:pageshadow="2" inkscape:pageopacity="0.0" inkscape:window-height="791" inkscape:current-layer="svg2" inkscape:window-y="26" inkscape:window-width="1152">
	</sodipodi:namedview>
<g id="layer1" inkscape:label="Layer 1" inkscape:groupmode="layer">
	<g id="g5630">
		<path id="rect2070" fill-opacity="0.498" d="M21,5h103c8.864,0,16,7.136,16,16v153c0,8.864-7.136,16-16,16H21
			c-8.864,0-16-7.136-16-16V21C5,12.136,12.136,5,21,5z"/>
		<path id="rect1300" fill="#E7E7E7" d="M17,1h103c8.864,0,16,7.136,16,16v153c0,8.864-7.136,16-16,16H17c-8.864,0-16-7.136-16-16
			V17C1,8.136,8.136,1,17,1z"/>
		<path id="path5624" fill="#C7891F" d="M19,3h103c8.864,0,16,7.136,16,16v153c0,8.864-7.136,16-16,16H19c-8.864,0-16-7.136-16-16
			V19C3,10.136,10.136,3,19,3z"/>
		<path id="rect1306" fill="#FFFFFF" d="M18,2h103c8.864,0,16,7.136,16,16v153c0,8.864-7.136,16-16,16H18c-8.864,0-16-7.136-16-16
			V18C2,9.136,9.136,2,18,2z"/>
	</g>
	<g id="g5495" transform="translate(-448.5000,-231.5000)" inkscape:label="Layer 1" inkscape:groupmode="layer">
	</g>
</g>
<g id="g2352" transform="translate(333.5000,184.5000)">
</g>
<path id="text2850" fill="#FF0000" d="M11.275,11.998h18.689v4.36l-9.668,25.64h-6.23l9.154-24.313H11.275V11.998"/>
<path id="text3250" fill="#FF0000" d="M127.496,177h-18.69v-4.36l9.669-25.64h6.23l-9.154,24.313h11.945V177"/>
<path id="path1608" fill="#FF0000" d="M20.41,48.665c-4.126,8.246-7.134,12.498-13.34,17.04c5.873,4.487,10.013,9.125,13.46,16.621
	c3.079-7.122,6.846-12.43,13.39-16.843C27.338,62.133,23.527,56.828,20.41,48.665z"/>
<path id="path1498" fill="#FF0000" d="M51.13,45c-2.403,4.845-4.156,7.344-7.771,10.013c3.421,2.637,5.833,5.362,7.841,9.767
	c1.793-4.185,3.988-7.305,7.799-9.898C55.166,52.915,52.946,49.797,51.13,45z"/>
<path id="path1500" fill="#FF0000" d="M87.77,45.22c-2.402,4.846-4.154,7.345-7.77,10.014c3.421,2.637,5.832,5.362,7.84,9.767
	c1.795-4.185,3.988-7.304,7.801-9.897C91.807,53.134,89.586,50.017,87.77,45.22z"/>
<path id="path1502" fill="#FF0000" d="M70.13,60.22c-2.403,4.846-4.156,7.345-7.771,10.014c3.421,2.637,5.833,5.362,7.841,9.767
	c1.793-4.185,3.988-7.304,7.799-9.897C74.166,68.134,71.946,65.017,70.13,60.22z"/>
<path id="path1508" fill="#FF0000" d="M70.13,83.22c-2.403,4.846-4.156,7.345-7.771,10.014c3.421,2.637,5.833,5.362,7.841,9.767
	c1.793-4.185,3.988-7.305,7.799-9.897C74.166,91.134,71.946,88.017,70.13,83.22z"/>
<path id="path1512" fill="#FF0000" d="M52.77,122.22c-2.403,4.846-4.155,7.345-7.77,10.014c3.42,2.637,5.833,5.362,7.84,9.767
	c1.794-4.185,3.988-7.305,7.8-9.897C56.806,130.135,54.586,127.018,52.77,122.22z"/>
<path id="path1514" fill="#FF0000" d="M70.13,107.22c-2.403,4.846-4.156,7.345-7.771,10.014c3.421,2.637,5.833,5.362,7.841,9.767
	c1.793-4.185,3.988-7.305,7.799-9.897C74.166,115.135,71.946,112.018,70.13,107.22z"/>
<path id="path1516" fill="#FF0000" d="M88.131,122.22c-2.404,4.846-4.156,7.345-7.771,10.014c3.422,2.637,5.833,5.362,7.842,9.767
	c1.793-4.185,3.987-7.305,7.799-9.897C92.166,130.135,89.946,127.018,88.131,122.22z"/>
<path id="path1518" fill="#FF0000" d="M118.34,106.34c-4.126,8.246-7.135,12.498-13.34,17.039
	c5.873,4.488,10.013,9.125,13.46,16.621c3.079-7.121,6.847-12.43,13.39-16.844C125.268,119.809,121.457,114.504,118.34,106.34z"/>
<path fill="none" stroke="#000000" stroke-miterlimit="10" d="M134,171.57c0,6.762-5.623,12.244-12.56,12.244H17.298
	c-6.936,0-12.56-5.482-12.56-12.244V17.244C4.738,10.482,10.362,5,17.298,5H121.44C128.377,5,134,10.482,134,17.244V171.57z"/>
</svg>
