<?xml version="1.0" encoding="utf-8"?>
<!-- Generator: Adobe Illustrator 16.0.0, SVG Export Plug-In . SVG Version: 6.00 Build 0)  -->
<!DOCTYPE svg PUBLIC "-//W3C//DTD SVG 1.1//EN" "http://www.w3.org/Graphics/SVG/1.1/DTD/svg11.dtd">
<svg version="1.1"
	 id="svg2" xmlns:dc="http://purl.org/dc/elements/1.1/" xmlns:cc="http://web.resource.org/cc/" xmlns:rdf="http://www.w3.org/1999/02/22-rdf-syntax-ns#" xmlns:svg="http://www.w3.org/2000/svg" xmlns:sodipodi="http://inkscape.sourceforge.net/DTD/sodipodi-0.dtd" xmlns:inkscape="http://www.inkscape.org/namespaces/inkscape" sodipodi:docbase="/home/nicu/Desktop/simple" sodipodi:docname="d_8.svg" inkscape:version="0.41" sodipodi:version="0.32"
	 xmlns="http://www.w3.org/2000/svg" xmlns:xlink="http://www.w3.org/1999/xlink" x="0px" y="0px" width="140px" height="190px"
	 viewBox="0 0 140 190" enable-background="new 0 0 140 190" xml:space="preserve">
<sodipodi:namedview  inkscape:cx="70.000003" inkscape:cy="95.000001" inkscape:zoom="1.9105263" borderopacity="1.0" bordercolor="#666666" pagecolor="#ffffff" id="base" inkscape:window-x="0" inkscape:pageshadow="2" inkscape:pageopacity="0.0" inkscape:window-height="791" inkscape:current-layer="svg2" inkscape:window-y="26" inkscape:window-width="1152">
	</sodipodi:namedview>
<g id="layer1" inkscape:label="Layer 1" inkscape:groupmode="layer">
	<g id="g5630">
		<path id="rect2070" fill-opacity="0.498" d="M21,5h103c8.864,0,16,7.136,16,16v153c0,8.864-7.136,16-16,16H21
			c-8.864,0-16-7.136-16-16V21C5,12.136,12.136,5,21,5z"/>
		<path id="rect1300" fill="#E7E7E7" d="M17,1h103c8.864,0,16,7.136,16,16v153c0,8.864-7.136,16-16,16H17c-8.864,0-16-7.136-16-16
			V17C1,8.136,8.136,1,17,1z"/>
		<path id="path5624" fill="#C7891F" d="M19,3h103c8.864,0,16,7.136,16,16v153c0,8.864-7.136,16-16,16H19c-8.864,0-16-7.136-16-16
			V19C3,10.136,10.136,3,19,3z"/>
		<path id="rect1306" fill="#FFFFFF" d="M18,2h103c8.864,0,16,7.136,16,16v153c0,8.864-7.136,16-16,16H18c-8.864,0-16-7.136-16-16
			V18C2,9.136,9.136,2,18,2z"/>
	</g>
	<g id="g5495" transform="translate(-448.5000,-231.5000)" inkscape:label="Layer 1" inkscape:groupmode="layer">
	</g>
</g>
<g id="g5581" transform="translate(351.5000,184.5000)">
	<path id="text1488" fill="#FF0000" d="M-330.896-155.685c-1.196,0-2.115,0.396-2.758,1.186c-0.642,0.791-0.963,1.922-0.963,3.396
		s0.321,2.605,0.963,3.396c0.643,0.777,1.562,1.165,2.758,1.165c1.185,0,2.093-0.388,2.725-1.165
		c0.631-0.791,0.947-1.922,0.947-3.396c0-1.487-0.316-2.619-0.947-3.396C-328.803-155.289-329.711-155.685-330.896-155.685
		 M-335.564-158.236c-1.506-0.549-2.642-1.393-3.406-2.532s-1.146-2.559-1.146-4.26c0-2.532,0.781-4.461,2.342-5.787
		c1.562-1.326,3.854-1.989,6.878-1.989c3.001,0,5.283,0.663,6.845,1.989c1.562,1.313,2.343,3.242,2.343,5.787
		c0,1.701-0.388,3.121-1.163,4.26c-0.764,1.139-1.899,1.982-3.406,2.532c1.684,0.563,2.952,1.48,3.804,2.753
		c0.864,1.259,1.296,2.853,1.296,4.782c0,2.974-0.819,5.224-2.458,6.751c-1.628,1.514-4.048,2.271-7.26,2.271
		c-3.223,0-5.659-0.757-7.31-2.271c-1.639-1.527-2.459-3.778-2.459-6.751c0-1.929,0.427-3.523,1.279-4.782
		C-338.522-156.756-337.248-157.674-335.564-158.236 M-334.069-164.244c0,1.192,0.271,2.11,0.814,2.752
		c0.554,0.643,1.34,0.965,2.359,0.965c0.997,0,1.767-0.322,2.31-0.965c0.542-0.643,0.814-1.561,0.814-2.752
		c0-1.192-0.271-2.104-0.814-2.733c-0.543-0.643-1.313-0.964-2.31-0.964c-1.019,0-1.805,0.321-2.359,0.964
		C-333.798-166.334-334.069-165.423-334.069-164.244"/>
	<path id="text3444" fill="#FF0000" d="M-233.474-24.15c1.196,0,2.115-0.395,2.758-1.185c0.642-0.79,0.964-1.923,0.964-3.396
		c0-1.475-0.322-2.605-0.964-3.396c-0.643-0.777-1.562-1.165-2.758-1.165c-1.185,0-2.093,0.388-2.725,1.165
		c-0.632,0.791-0.946,1.922-0.946,3.396c0,1.486,0.314,2.618,0.946,3.396C-235.566-24.545-234.658-24.15-233.474-24.15
		 M-228.805-21.598c1.506,0.549,2.641,1.393,3.405,2.531s1.146,2.559,1.146,4.26c0,2.532-0.78,4.461-2.342,5.787
		s-3.854,1.989-6.878,1.99c-3.001-0.001-5.283-0.664-6.845-1.99c-1.562-1.313-2.342-3.242-2.342-5.787
		c0-1.701,0.387-3.121,1.162-4.26c0.764-1.139,1.899-1.982,3.406-2.531c-1.684-0.563-2.952-1.48-3.805-2.753
		c-0.864-1.259-1.296-2.854-1.296-4.782c0-2.975,0.819-5.225,2.458-6.752c1.629-1.514,4.049-2.27,7.261-2.27
		c3.223,0,5.659,0.756,7.31,2.27c1.639,1.527,2.459,3.777,2.459,6.752c0,1.929-0.426,3.523-1.279,4.782
		C-225.848-23.078-227.122-22.16-228.805-21.598 M-230.301-15.59c0-1.192-0.271-2.109-0.814-2.753
		c-0.553-0.644-1.34-0.964-2.358-0.964c-0.997,0-1.767,0.32-2.31,0.964s-0.814,1.561-0.814,2.753s0.271,2.104,0.814,2.732
		c0.543,0.644,1.313,0.965,2.31,0.965c1.019,0,1.806-0.321,2.358-0.965C-230.572-13.5-230.301-14.411-230.301-15.59"/>
</g>
<path id="path1608" fill="#FF0000" d="M20.41,48.665c-4.126,8.246-7.134,12.498-13.34,17.04c5.873,4.487,10.013,9.125,13.46,16.621
	c3.079-7.122,6.846-12.43,13.39-16.843C27.338,62.133,23.527,56.828,20.41,48.665z"/>
<path id="path1498" fill="#FF0000" d="M49.13,36.22c-2.403,4.846-4.156,7.345-7.771,10.014c3.421,2.637,5.833,5.362,7.841,9.767
	c1.793-4.185,3.988-7.304,7.799-9.897C53.166,44.134,50.946,41.017,49.13,36.22z"/>
<path id="path1500" fill="#FF0000" d="M90.131,36.22c-2.404,4.846-4.156,7.345-7.771,10.014c3.422,2.637,5.833,5.362,7.842,9.767
	c1.793-4.185,3.987-7.304,7.799-9.897C94.166,44.134,91.946,41.017,90.131,36.22z"/>
<path id="path1504" fill="#FF0000" d="M48.77,71.22c-2.403,4.846-4.155,7.345-7.77,10.014c3.42,2.637,5.833,5.362,7.84,9.767
	c1.794-4.185,3.988-7.304,7.8-9.897C52.806,79.134,50.586,76.017,48.77,71.22z"/>
<path id="path1506" fill="#FF0000" d="M88.131,70.22c-2.404,4.846-4.156,7.345-7.771,10.014c3.422,2.637,5.833,5.362,7.842,9.767
	c1.793-4.185,3.987-7.304,7.799-9.897C92.166,78.134,89.946,75.017,88.131,70.22z"/>
<path id="path1508" fill="#FF0000" d="M89.77,100c-2.402,4.846-4.154,7.344-7.77,10.014c3.421,2.637,5.832,5.361,7.84,9.767
	c1.795-4.185,3.988-7.305,7.801-9.897C93.807,107.914,91.586,104.797,89.77,100z"/>
<path id="path1510" fill="#FF0000" d="M48.13,100c-2.403,4.846-4.156,7.344-7.771,10.014c3.421,2.637,5.833,5.361,7.841,9.767
	c1.793-4.185,3.988-7.305,7.799-9.897C52.166,107.914,49.946,104.797,48.13,100z"/>
<path id="path1512" fill="#FF0000" d="M49.13,130c-2.403,4.846-4.156,7.344-7.771,10.014c3.421,2.637,5.833,5.361,7.841,9.767
	c1.793-4.185,3.988-7.305,7.799-9.897C53.166,137.914,50.946,134.797,49.13,130z"/>
<path id="path1516" fill="#FF0000" d="M90.131,130.22c-2.404,4.846-4.156,7.345-7.771,10.014c3.422,2.637,5.833,5.362,7.842,9.767
	c1.793-4.185,3.987-7.305,7.799-9.897C94.166,138.135,91.946,135.018,90.131,130.22z"/>
<path id="path1518" fill="#FF0000" d="M118.34,106.34c-4.126,8.246-7.135,12.498-13.34,17.039
	c5.873,4.488,10.013,9.125,13.46,16.621c3.079-7.121,6.847-12.43,13.39-16.844C125.268,119.809,121.457,114.504,118.34,106.34z"/>
<path fill="none" stroke="#000000" stroke-miterlimit="10" d="M134,171.57c0,6.762-5.623,12.244-12.56,12.244H17.298
	c-6.936,0-12.56-5.482-12.56-12.244V17.244C4.738,10.482,10.362,5,17.298,5H121.44C128.377,5,134,10.482,134,17.244V171.57z"/>
</svg>
