<?xml version="1.0" encoding="utf-8"?>
<!-- Generator: Adobe Illustrator 16.0.0, SVG Export Plug-In . SVG Version: 6.00 Build 0)  -->
<!DOCTYPE svg PUBLIC "-//W3C//DTD SVG 1.1//EN" "http://www.w3.org/Graphics/SVG/1.1/DTD/svg11.dtd">
<svg version="1.1"
	 id="svg2" xmlns:dc="http://purl.org/dc/elements/1.1/" xmlns:cc="http://web.resource.org/cc/" xmlns:rdf="http://www.w3.org/1999/02/22-rdf-syntax-ns#" xmlns:svg="http://www.w3.org/2000/svg" xmlns:sodipodi="http://inkscape.sourceforge.net/DTD/sodipodi-0.dtd" xmlns:inkscape="http://www.inkscape.org/namespaces/inkscape" sodipodi:docbase="/home/nicu/Desktop/simple" sodipodi:docname="d_9.svg" inkscape:version="0.41" sodipodi:version="0.32"
	 xmlns="http://www.w3.org/2000/svg" xmlns:xlink="http://www.w3.org/1999/xlink" x="0px" y="0px" width="140px" height="190px"
	 viewBox="0 0 140 190" enable-background="new 0 0 140 190" xml:space="preserve">
<sodipodi:namedview  inkscape:cx="70.000003" inkscape:cy="95.000001" inkscape:zoom="1.9105263" borderopacity="1.0" bordercolor="#666666" pagecolor="#ffffff" id="base" inkscape:window-x="0" inkscape:pageshadow="2" inkscape:pageopacity="0.0" inkscape:window-height="791" inkscape:current-layer="svg2" inkscape:window-y="26" inkscape:window-width="1152">
	</sodipodi:namedview>
<g id="layer1" inkscape:label="Layer 1" inkscape:groupmode="layer">
	<g id="g5630">
		<path id="rect2070" fill-opacity="0.498" d="M21,5h103c8.864,0,16,7.136,16,16v153c0,8.864-7.136,16-16,16H21
			c-8.864,0-16-7.136-16-16V21C5,12.136,12.136,5,21,5z"/>
		<path id="rect1300" fill="#E7E7E7" d="M17,1h103c8.864,0,16,7.136,16,16v153c0,8.864-7.136,16-16,16H17c-8.864,0-16-7.136-16-16
			V17C1,8.136,8.136,1,17,1z"/>
		<path id="path5624" fill="#C7891F" d="M19,3h103c8.864,0,16,7.136,16,16v153c0,8.864-7.136,16-16,16H19c-8.864,0-16-7.136-16-16
			V19C3,10.136,10.136,3,19,3z"/>
		<path id="rect1306" fill="#FFFFFF" d="M18,2h103c8.864,0,16,7.136,16,16v153c0,8.864-7.136,16-16,16H18c-8.864,0-16-7.136-16-16
			V18C2,9.136,9.136,2,18,2z"/>
	</g>
	<g id="g5495" transform="translate(-448.5000,-231.5000)" inkscape:label="Layer 1" inkscape:groupmode="layer">
	</g>
</g>
<g id="g5581" transform="translate(351.5000,184.5000)">
</g>
<path id="text1768" fill="#FF0000" d="M12.164,41.575v-5.546c1.019,0.576,1.994,1.011,2.924,1.306
	c0.931,0.282,1.85,0.422,2.758,0.422c1.905,0,3.389-0.636,4.453-1.909c1.063-1.286,1.689-3.188,1.877-5.707
	c-0.753,0.67-1.556,1.172-2.409,1.507c-0.853,0.334-1.778,0.502-2.774,0.502c-2.536,0-4.585-0.891-6.147-2.673
	c-1.55-1.795-2.326-4.152-2.326-7.073c0-3.229,0.864-5.814,2.592-7.756c1.739-1.942,4.064-2.913,6.978-2.914
	c3.234,0,5.737,1.32,7.509,3.958c1.772,2.639,2.658,6.37,2.658,11.192c0,4.956-1.036,8.854-3.106,11.694
	c-2.071,2.827-4.912,4.24-8.522,4.24c-1.163,0-2.276-0.107-3.339-0.322C14.224,42.298,13.183,41.99,12.164,41.575 M20.056,27.128
	c1.118,0,1.96-0.436,2.525-1.306c0.565-0.884,0.847-2.204,0.847-3.958c0-1.742-0.282-3.054-0.847-3.938
	c-0.565-0.884-1.407-1.326-2.525-1.326c-1.119,0-1.96,0.442-2.525,1.326c-0.565,0.884-0.847,2.197-0.847,3.938
	c0,1.755,0.282,3.074,0.847,3.958C18.095,26.692,18.937,27.128,20.056,27.128"/>
<path id="text3678" fill="#FF0000" d="M126.516,147.591v5.546c-1.019-0.576-1.993-1.012-2.924-1.306
	c-0.93-0.282-1.85-0.423-2.758-0.423c-1.904,0-3.389,0.637-4.452,1.91c-1.063,1.285-1.688,3.188-1.877,5.706
	c0.753-0.67,1.556-1.173,2.409-1.507c0.853-0.335,1.777-0.502,2.773-0.502c2.537,0,4.586,0.891,6.147,2.672
	c1.55,1.795,2.325,4.152,2.325,7.072c0,3.229-0.863,5.814-2.592,7.757c-1.738,1.942-4.064,2.913-6.977,2.913
	c-3.234,0-5.737-1.319-7.51-3.958c-1.771-2.64-2.658-6.37-2.658-11.192c0-4.956,1.036-8.854,3.107-11.694
	c2.07-2.826,4.912-4.239,8.522-4.239c1.163,0,2.276,0.107,3.339,0.321C124.456,146.867,125.497,147.176,126.516,147.591
	 M118.625,162.039c-1.119-0.001-1.961,0.435-2.525,1.306c-0.564,0.884-0.848,2.203-0.848,3.958c0,1.742,0.283,3.055,0.848,3.938
	s1.406,1.326,2.525,1.326c1.118,0,1.96-0.442,2.525-1.326c0.564-0.884,0.847-2.196,0.847-3.938c0-1.755-0.282-3.074-0.847-3.958
	C120.585,162.474,119.743,162.038,118.625,162.039"/>
<path id="path1608" fill="#FF0000" d="M20.41,48.665c-4.126,8.246-7.134,12.498-13.34,17.04c5.873,4.487,10.013,9.125,13.46,16.621
	c3.079-7.122,6.846-12.43,13.39-16.843C27.338,62.133,23.527,56.828,20.41,48.665z"/>
<path id="path1498" fill="#FF0000" d="M49.13,36.22c-2.403,4.846-4.156,7.345-7.771,10.014c3.421,2.637,5.833,5.362,7.841,9.767
	c1.793-4.185,3.988-7.304,7.799-9.897C53.166,44.134,50.946,41.017,49.13,36.22z"/>
<path id="path1500" fill="#FF0000" d="M90.131,36.22c-2.404,4.846-4.156,7.345-7.771,10.014c3.422,2.637,5.833,5.362,7.842,9.767
	c1.793-4.185,3.987-7.304,7.799-9.897C94.166,44.134,91.946,41.017,90.131,36.22z"/>
<path id="path1504" fill="#FF0000" d="M48.77,71.22c-2.403,4.846-4.155,7.345-7.77,10.014c3.42,2.637,5.833,5.362,7.84,9.767
	c1.794-4.185,3.988-7.304,7.8-9.897C52.806,79.134,50.586,76.017,48.77,71.22z"/>
<path id="path1506" fill="#FF0000" d="M88.131,70.22c-2.404,4.846-4.156,7.345-7.771,10.014c3.422,2.637,5.833,5.362,7.842,9.767
	c1.793-4.185,3.987-7.304,7.799-9.897C92.166,78.134,89.946,75.017,88.131,70.22z"/>
<path id="path1508" fill="#FF0000" d="M89.77,100c-2.402,4.846-4.154,7.344-7.77,10.014c3.421,2.637,5.832,5.361,7.84,9.767
	c1.795-4.185,3.988-7.305,7.801-9.897C93.807,107.914,91.586,104.797,89.77,100z"/>
<path id="path1510" fill="#FF0000" d="M48.13,100c-2.403,4.846-4.156,7.344-7.771,10.014c3.421,2.637,5.833,5.361,7.841,9.767
	c1.793-4.185,3.988-7.305,7.799-9.897C52.166,107.914,49.946,104.797,48.13,100z"/>
<path id="path1512" fill="#FF0000" d="M49.13,130c-2.403,4.846-4.156,7.344-7.771,10.014c3.421,2.637,5.833,5.361,7.841,9.767
	c1.793-4.185,3.988-7.305,7.799-9.897C53.166,137.914,50.946,134.797,49.13,130z"/>
<path id="path1514" fill="#FF0000" d="M69.13,85.22c-2.403,4.846-4.156,7.345-7.771,10.014c3.421,2.637,5.833,5.362,7.841,9.767
	c1.793-4.185,3.988-7.305,7.799-9.897C73.166,93.134,70.946,90.017,69.13,85.22z"/>
<path id="path1516" fill="#FF0000" d="M90.131,130.22c-2.404,4.846-4.156,7.345-7.771,10.014c3.422,2.637,5.833,5.362,7.842,9.767
	c1.793-4.185,3.987-7.305,7.799-9.897C94.166,138.135,91.946,135.018,90.131,130.22z"/>
<path id="path1518" fill="#FF0000" d="M118.34,106.34c-4.126,8.246-7.135,12.498-13.34,17.039
	c5.873,4.488,10.013,9.125,13.46,16.621c3.079-7.121,6.847-12.43,13.39-16.844C125.268,119.809,121.457,114.504,118.34,106.34z"/>
<path fill="none" stroke="#000000" stroke-miterlimit="10" d="M133.75,171.57c0,6.762-5.623,12.244-12.56,12.244H17.048
	c-6.936,0-12.56-5.482-12.56-12.244V17.244C4.488,10.482,10.112,5,17.048,5H121.19c6.937,0,12.56,5.482,12.56,12.244V171.57z"/>
</svg>
