<svg xmlns="http://www.w3.org/2000/svg" width="140" height="190" xml:space="preserve"><path fill-opacity=".498" d="M21 5h103c8.864 0 16 7.136 16 16v153c0 8.864-7.136 16-16 16H21c-8.864 0-16-7.136-16-16V21c0-8.864 7.136-16 16-16z"/><path fill="#E7E7E7" d="M17 1h103c8.864 0 16 7.136 16 16v153c0 8.864-7.136 16-16 16H17c-8.864 0-16-7.136-16-16V17C1 8.136 8.136 1 17 1z"/><path fill="#C7891F" d="M19 3h103c8.864 0 16 7.136 16 16v153c0 8.864-7.136 16-16 16H19c-8.864 0-16-7.136-16-16V19c0-8.864 7.136-16 16-16z"/><path fill="#FFF" d="M18 2h103c8.864 0 16 7.136 16 16v153c0 8.864-7.136 16-16 16H18c-8.864 0-16-7.136-16-16V18C2 9.136 9.136 2 18 2z"/><path fill="red" d="M18.684 12.234h6.396v21.359c0 2.947-.842 5.149-2.525 6.607-1.672 1.458-4.208 2.187-7.609 2.187H13.65v-4.611h.997c1.329 0 2.332-.354 3.007-1.062.687-.708 1.03-1.748 1.03-3.121V12.234M119.996 177H113.6v-21.359c0-2.945.842-5.147 2.525-6.605 1.673-1.458 4.209-2.188 7.609-2.188h1.295v4.61h-.996c-1.329 0-2.331.354-3.008 1.062-.687.709-1.029 1.748-1.029 3.121V177M20.41 48.665c-4.126 8.246-7.134 12.498-13.34 17.04 5.873 4.487 10.013 9.125 13.46 16.621 3.079-7.122 6.846-12.43 13.39-16.843-6.582-3.35-10.393-8.655-13.51-16.818zM118.34 106.34c-4.126 8.246-7.135 12.498-13.34 17.039 5.873 4.488 10.014 9.125 13.46 16.621 3.079-7.121 6.847-12.43 13.39-16.844-6.582-3.347-10.393-8.652-13.51-16.816z"/><g><path fill="#DDB305" d="m88.079 54.612-7.406 14.229s-5.198-.894-9.019-1.06l3.09-16.095s3.091.243 7.64 1.137c4.557.895 5.695 1.789 5.695 1.789z"/><path fill="#0868A3" d="M86.466 103.878c2.896 3.12 6.843 8.009 9.252 13.587 4.15 9.604 4.638 16.027 4.638 16.027v.087H77.262v-.175s.729-4.549 3.742-14.15c3.014-9.593 5.452-15.365 5.452-15.365l.01-.011z"/><path fill="#DDB305" d="M80.119 98.465c.398-.807.523-1.701.311-2.304a1.83 1.83 0 0 0-1.098-1.157l.204-.515c1.468.68 3.519.496 4.394-1.254l.028-.039c.175.175.39.331.622.447.369.185.748.301 1.118.35v.029c.146.02.291.058.428.107 1.38.486 1.953 4.879-1.546 5.938-.65.194-1.225.263-1.71.233-.263 0-.506-.039-.72-.106-1.409-.359-1.953-1.525-2.031-1.721v-.008zM78.467 93.595c-.165.214-1.516 1.866-3.645 1.187a2.08 2.08 0 0 1-.573-.282 2.124 2.124 0 0 1-.467-.379c-1.429-1.419-1.683-4.471.067-5.686.924-.632 1.848-.651 2.518-.321.681.35 1.107 1.049 1.021 1.847l.389.058c-.233 1.214.077 2.682.69 3.576zM81.004 119.254c-3.014 9.602-3.742 14.15-3.742 14.15v.175h-1.215v-.011s.243-1.623 2.518-10.408c2.273-8.786 7.076-20.001 7.076-20.001l.077-.078c.242.253.495.515.748.797l-.01.011s-2.438 5.772-5.452 15.365z"/><path fill="#DDB305" d="M74.822 94.781c2.129.681 3.479-.972 3.645-1.187.165.262.369.476.583.622.146.097.312.185.486.272l-.204.515c.477.175.902.574 1.098 1.157.215.603.088 1.497-.311 2.304v.01c-.496 1.012-1.419 1.896-2.653 1.924-.428.011-.913-.088-1.419-.33a5.523 5.523 0 0 1-.292-.155c-2.721-1.563-1.584-5.296-1.584-5.296l.078-.117c.175.125.369.213.573.281z"/><path fill="#DDB305" d="M76.367 88.114c0-8.32-4.616-16.581-5.424-17.941 6.746.438 10.381 1.516 10.381 1.516 3.742 4.228 7.648 13.908 7.892 17.728.204 3.198-1.594 4.801-3.518 4.578a3.539 3.539 0 0 1-1.118-.35 2.424 2.424 0 0 1-.622-.447l-.028.039c-.875 1.75-2.926 1.934-4.394 1.254a4.423 4.423 0 0 1-.486-.272 2.123 2.123 0 0 1-.583-.622c-.611-.894-.923-2.362-.689-3.577l-.389-.058c.088-.799-.341-1.499-1.022-1.848zM74.91 114.948c-.408 1.225 2.107 1.788 1.535 3.256-.563 1.458-2.519.155-2.926 1.458-.408 1.302 1.953 1.545 1.391 3.013-.574 1.468-2.605.243-3.014 1.71-.408 1.458 2.273 1.623 1.789 2.926-.486 1.304-3.015.563-3.256 1.701-.243 1.146 2.682.65 2.284 1.953-.408 1.303-2.692.816-3.09 2.439v.175h-3.742v-.087c2.43-10.352 10.973-31.559 11.585-33.094 1.234-.029 2.157-.914 2.653-1.924.078.193.622 1.359 2.031 1.719l-.01.039s-1.867 0-2.197 1.138c-.32 1.138 1.789 1.546 1.303 2.848-.484 1.304-2.604 0-3.09 1.458-.486 1.469 2.273 1.225 1.545 2.771-.729 1.545-3.014.563-3.411 1.865-.408 1.303 2.517 1.303 1.942 2.683-.562 1.379-2.923.737-3.322 1.953z"/><path fill="#DDB305" d="M76.445 118.204c.572-1.468-1.943-2.031-1.535-3.256.398-1.216 2.76-.574 3.322-1.954.574-1.38-2.352-1.38-1.942-2.684.397-1.302 2.683-.319 3.411-1.865.729-1.545-2.031-1.303-1.545-2.771.484-1.458 2.604-.155 3.09-1.458.486-1.302-1.623-1.71-1.303-2.848.33-1.137 2.197-1.137 2.197-1.137l.01-.039c.213.067.457.106.72.106v.009s1.166 1.012 2.848 2.771l-.077.078s-4.803 11.215-7.076 20.001-2.518 10.409-2.518 10.409v.01h-6.424v-.176c.398-1.622 2.682-1.137 3.09-2.438.398-1.303-2.526-.807-2.284-1.953.243-1.138 2.77-.397 3.256-1.7.484-1.304-2.197-1.469-1.789-2.927.408-1.467 2.438-.241 3.014-1.71.563-1.468-1.799-1.711-1.391-3.013s2.363.003 2.926-1.455zM74.793 101.973c.573-1.263.924-1.981.924-1.981l.038-.078c.099.06.194.106.292.155.506.242.991.341 1.419.33-.612 1.537-9.155 22.742-11.585 33.095v.087h-2.498c1.351-6.716 4.383-15.006 7.105-21.663.126-.331.262-.661.399-.974a208.983 208.983 0 0 1 2.293-5.394 201.088 201.088 0 0 1 1.613-3.577zM58.718 74.691s3.742-.398 8.213.574c3.567.777 4.295.933 4.441.962-.603-.068-8.242-.991-11.673.175l-.981-1.711zM63.597 83.808c-1.292.078-2.274-3.907-2.274-3.907l.009-.078c.525.068 1.351.185 2.187.321.311.048.612.107.914.155l-.02.088s.486 3.334-.816 3.421zM65.793 93.313c-3.577.573-5.53-1.293-5.53-1.293s2.75 1.915 5.938.486c2.361-1.06 2.604-3.664 1.302-3.577-.894.048-.408.807-.408.807s-.564-.156-.486-.807c.078-.651 1.292-1.322 2.196-.574.973.818.574 4.395-3.012 4.958z"/><path fill="#DDB305" d="M56.852 103.566s3.237 3.148 17.941-1.594c-.428.924-.98 2.139-1.613 3.576l-.068-.029c-14.305 3.334-17.483.398-17.483.398l-.058-.029c.775-1.476 1.281-2.322 1.281-2.322z"/><path fill="#F2DBCC" d="M56.852 103.566v-3.119c1.905 1.438 3.645 2.031 4.85 1.865 2.683-.369 9.136-3.547 11.983-8.096l.098-.097c.146.155.302.282.467.379l-.078.117s-1.137 3.731 1.584 5.296l-.038.078s-.351.72-.924 1.982c-14.706 4.745-17.942 1.595-17.942 1.595z"/><path fill="#DDB305" d="M56.609 51.599s1.38-.243 7.804-.155c6.425.078 7.728.155 7.728.155l-2.362 16.104s-7.882-.321-11.867.165l-1.303-16.269z"/><path fill="#0868A3" d="M46.686 133.568c.428-7.492 3.227-15.413 5.783-21.227.233.186 3.966 2.819 17.883-.484l.136.059c-2.722 6.657-5.754 14.947-7.105 21.663H46.686v-.011z"/><path fill="#0868A3" d="M52.906 111.352a97.986 97.986 0 0 1 2.663-5.461l.058.028s3.178 2.937 17.484-.397l.068.028a205.555 205.555 0 0 0-2.295 5.394l-.126-.058c-12.693 3.411-17.815.485-17.815.485l-.037-.019z"/><path fill="#DDB305" d="M52.945 111.371s5.122 2.926 17.815-.485l.126.058c-.136.313-.271.643-.398.974l-.136-.06c-13.917 3.306-17.65.672-17.883.485.146-.34.292-.67.438-.991l.038.019zM52.945 89.902c1.875 0 1.954 1.623 1.39 2.031-.573.408-.894.331-.894.331s.972-.816.243-1.39c-.739-.564-2.08.719-1.39 2.041.36.69 1.39 1.166 2.508 1.283-.146.02-.301.02-.467.02-1.429 0-2.255-.583-2.624-1.312-.642-1.274.048-3.004 1.234-3.004zM53.197 80.786c.087.593.263 3.042-.826 3.392h-.019c-.166 0-.331-.01-.477-.019-1.03-.477-1.37-3.693-1.37-3.693v-.039c.641.057 1.74.174 2.692.359zM49.854 76.159c1.789-.972 4.072-1.06 4.072-1.06s.612.788 1.234 2.032l-.02.009c-3.499-.904-7.474.564-7.474.564s.4-.563 2.188-1.545z"/><path fill="#F2DBCC" d="M59.699 76.402c3.431-1.167 11.07-.243 11.673-.175-.146-.029-.875-.185-4.441-.962-4.471-.972-8.213-.574-8.213-.574l.981 1.711zm4.734 3.897c-.301-.048-.603-.107-.914-.155a72.793 72.793 0 0 0-2.187-.321l-.009.078s.981 3.985 2.274 3.907c1.302-.087.816-3.421.816-3.421l.02-.088zm-4.17 11.722s1.954 1.866 5.53 1.293c3.586-.564 3.985-4.141 3.013-4.957-.904-.748-2.119-.078-2.196.574-.078.651.486.807.486.807s-.486-.758.408-.807c1.302-.087 1.059 2.517-1.302 3.577-3.188 1.428-5.939-.487-5.939-.487zm-13.198-19.71s1.409-1.759 14.258-2.245a92.563 92.563 0 0 1 9.622.107c.807 1.36 5.423 9.622 5.423 17.941-.67-.331-1.595-.312-2.517.321-1.75 1.215-1.498 4.267-.068 5.686l-.098.097c-2.848 4.548-9.301 7.726-11.983 8.097-1.205.164-2.945-.429-4.85-1.866-.078-.06-.155-.117-.233-.175-1.886-1.498-3.907-3.812-5.695-7.019l.787-.35c.369.729 1.195 1.312 2.624 1.312.166 0 .321 0 .467-.02 1.633.175 3.47-.408 3.819-2.167.01-.01.01-.021.01-.029l.175-1.769s-2.527-.573-2.925-1.302c-.408-.739.972-3.907.642-7.406-.156-1.681-.768-3.236-1.361-4.393-.622-1.244-1.234-2.032-1.234-2.032s-2.284.088-4.072 1.06c-1.788.981-2.187 1.545-2.187 1.545l-.671.029c-.137-3.187.067-5.422.067-5.422z"/><path fill="#F2DBCC" d="M52.371 84.177c1.089-.35.914-2.799.826-3.392-.952-.185-2.051-.301-2.692-.36v.039s.34 3.217 1.37 3.693a.586.586 0 0 0 .34.048l.136-.029a.148.148 0 0 0 .02.001zm-2.497 7.037c-2.07-4.393-2.711-9.631-2.877-13.48l.671-.029s3.975-1.468 7.474-.564l.02-.009c.593 1.156 1.205 2.711 1.361 4.393.33 3.499-1.05 6.667-.642 7.406.398.729 2.925 1.302 2.925 1.302l-.175 1.769c0 .009 0 .019-.01.029-.048.224-.583 2.012-3.819 2.167-1.118-.117-2.148-.593-2.508-1.283-.69-1.322.651-2.605 1.39-2.041.729.573-.243 1.39-.243 1.39s.321.078.894-.331c.564-.408.486-2.031-1.39-2.031-1.186 0-1.876 1.73-1.234 3.003l-.787.35a32.304 32.304 0 0 1-1.05-2.041z"/><path fill="#DDB305" d="M44.82 133.579c-.02-.495.029-3.741 2.848-13.752 3.013-10.711 8.582-19.04 8.844-19.429l.01-.01.097-.117.233.176v3.119s-.505.846-1.283 2.322a97.458 97.458 0 0 0-3.101 6.453c-2.556 5.813-5.355 13.733-5.783 21.227v.011H44.82z"/><path fill="#DDB305" d="M45.626 122.84c.496-1.468-1.458-1.303-1.137-2.604.331-1.303 2.031-1.226 2.527-2.439.486-1.225-1.225-1.061-.981-2.273.243-1.226 2.361-.896 2.925-2.196.573-1.304-1.545-1.392-1.215-2.362.321-.972 1.866-.65 2.439-1.788.563-1.137-.894-1.215-.573-2.108.33-.895 1.953-.573 2.439-1.545.496-.981-.895-1.391-.651-2.041.244-.651 1.302-.808 2.041-1.138.622-.271.593-.903.573-1.089 1.409-.642 2.372-.836 2.498-.855-.263.39-5.832 8.719-8.844 19.43-2.819 10.011-2.867 13.257-2.848 13.752h-1.711v-.087c.486-1.634-1.545-1.711-1.302-3.015.243-1.302 2.031-1.215 2.527-2.604.486-1.38-1.798-1.137-1.467-2.439.321-1.296 2.274-1.141 2.76-2.599z"/><path fill="#DDB305" d="M44.489 120.234c-.321 1.303 1.633 1.138 1.137 2.604-.486 1.458-2.439 1.304-2.76 2.595-.331 1.303 1.954 1.061 1.467 2.439-.496 1.391-2.284 1.303-2.527 2.604-.243 1.304 1.789 1.381 1.302 3.015v.087h-4.383c1.652-14.617 7.377-25.075 8.786-27.467 0-.01.01-.02.01-.028 2.391-2.604 4.782-4.053 6.492-4.83.02.185.049.815-.573 1.089-.739.33-1.798.485-2.041 1.137-.243.652 1.147 1.061.651 2.041-.486.973-2.109.651-2.439 1.545-.321.896 1.137.974.573 2.109-.573 1.137-2.119.816-2.439 1.788-.331.972 1.788 1.06 1.215 2.362-.564 1.302-2.683.972-2.925 2.195-.243 1.215 1.467 1.051.981 2.274-.495 1.218-2.196 1.141-2.527 2.441zM47.337 69.978 39.29 55.506s.972-.816 6.181-2.274c5.2-1.467 8.213-1.225 8.213-1.225l2.274 16.017s-5.288.652-8.621 1.954z"/><path fill="#0868A3" d="M82.384 52.824c-4.549-.894-7.64-1.137-7.64-1.137l-3.09 16.095c3.818.166 9.019 1.06 9.019 1.06l7.406-14.229c0-.001-1.138-.895-5.695-1.789zm-17.971-1.38c-6.424-.087-7.804.155-7.804.155l1.302 16.27c3.985-.486 11.867-.165 11.867-.165L72.139 51.6c.002-.001-1.301-.079-7.726-.156zm-10.729.563s-3.013-.243-8.213 1.225c-5.209 1.458-6.181 2.274-6.181 2.274l8.047 14.472c3.333-1.302 8.621-1.954 8.621-1.954l-2.274-16.017zm-6.619 20.304s-7.173-12.382-8.913-15.347c-.816-1.38-1.468-2.439-1.468-2.439s7.396-5.608 29.604-5.442c22.198.165 25.124 4.801 25.124 4.801L81.324 71.688s-3.635-1.079-10.381-1.516a92.55 92.55 0 0 0-9.622-.107c-12.847.486-14.256 2.246-14.256 2.246zM47.512 106.113c-1.409 2.391-7.134 12.849-8.786 27.466h-1.633v-.011s.243-8.454 5.608-20.088c1.448-3.139 3.12-5.541 4.811-7.367z"/><g><path fill="none" stroke="#000" stroke-width=".5" stroke-miterlimit="10" d="M73.686 94.217c-2.848 4.549-9.301 7.727-11.983 8.096-1.205.166-2.945-.428-4.85-1.865l-.233-.176c-1.886-1.496-3.907-3.811-5.695-7.018a33.396 33.396 0 0 1-1.05-2.041c-2.07-4.393-2.711-9.631-2.877-13.48-.136-3.188.068-5.423.068-5.423s1.409-1.759 14.258-2.245a92.563 92.563 0 0 1 9.622.107c6.744.438 10.38 1.516 10.38 1.516 3.741 4.228 7.649 13.908 7.892 17.728.204 3.198-1.594 4.801-3.518 4.578a3.539 3.539 0 0 1-1.118-.35 2.407 2.407 0 0 1-.622-.447c-1.555-1.468-1.079-4.675.302-5.326 1.546-.729 3.576.078 2.839 1.954-.729 1.866-1.789 1.215-1.789 1.215M36.801 133.579H100.5"/><path fill="none" stroke="#000" stroke-width=".5" stroke-miterlimit="10" d="M75.152 91.768s1.138.739 2.031-1.137c.106-.224.176-.447.203-.67.088-.797-.34-1.497-1.021-1.847-.671-.331-1.595-.312-2.517.321-1.75 1.215-1.498 4.267-.068 5.686.146.155.302.282.467.379.175.126.369.214.572.282 2.13.681 3.479-.972 3.646-1.186.011-.02.021-.029.021-.029"/><path fill="none" stroke="#000" stroke-width=".5" stroke-miterlimit="10" d="M80.188 91.447s1.06.816 1.875-.729c.809-1.545-.894-3.664-3.013-2.604-.719.359-1.116 1.079-1.272 1.905-.232 1.215.078 2.683.689 3.577.165.262.369.476.583.622.146.097.312.185.486.272 1.468.68 3.519.496 4.394-1.254M70.838 69.978s.038.068.105.194c.808 1.36 5.424 9.622 5.424 17.941M80.119 98.465c.398-.807.523-1.701.311-2.304a1.83 1.83 0 0 0-1.098-1.157c-.865-.321-1.925.107-2.234 1.564"/><path fill="none" stroke="#000" stroke-width=".5" stroke-miterlimit="10" d="M74.171 94.616s-1.137 3.731 1.584 5.296c.099.059.194.107.292.156.506.242.991.34 1.419.33 1.234-.029 2.157-.914 2.653-1.924"/><path fill="none" stroke="#000" stroke-width=".5" stroke-miterlimit="10" d="M80.109 98.445s0 .01.01.02v.01c.078.194.622 1.36 2.031 1.721.214.068.457.106.72.106.485.028 1.06-.038 1.71-.233 3.499-1.06 2.926-5.452 1.546-5.938a2.146 2.146 0 0 0-.428-.107c-1.361-.194-3.042.719-2.091 3.285M73.034 70.794s3.168 2.848 4.636 13.334M75.794 71.766s3.334 3.907 4.315 13.908M78.729 73.797s3.246 5.938 4.063 12.693M81.004 75.1s2.439 3.985 3.333 8.952M83.035 76.237s1.876 3.256 2.439 5.53"/><path fill="none" stroke="#000" stroke-width=".5" stroke-miterlimit="10" d="M47.065 72.311s-7.173-12.382-8.913-15.347c-.816-1.38-1.468-2.439-1.468-2.439s7.396-5.608 29.604-5.442c22.198.165 25.124 4.801 25.124 4.801L81.324 71.688"/><path fill="none" stroke="#000" stroke-width=".5" stroke-miterlimit="10" d="M47.337 69.978 39.29 55.506s.972-.816 6.181-2.274c5.2-1.467 8.213-1.225 8.213-1.225l2.274 16.017s-5.288.652-8.621 1.954zM57.911 67.869l-1.302-16.27s1.38-.243 7.804-.155c6.425.078 7.728.155 7.728.155l-2.362 16.104c-.001.001-7.883-.32-11.868.166zM71.654 67.781l3.09-16.095s3.091.243 7.64 1.137c4.56.894 5.695 1.789 5.695 1.789l-7.406 14.229s-5.198-.894-9.019-1.06zM58.805 90.232s-2.527-.573-2.925-1.302c-.408-.739.972-3.907.642-7.406-.156-1.681-.768-3.236-1.361-4.393-.622-1.244-1.234-2.032-1.234-2.032s-2.284.088-4.072 1.06c-1.788.981-2.187 1.545-2.187 1.545s3.975-1.468 7.474-.564M71.411 76.237s-.011 0-.039-.01M59.699 76.402l-.981-1.711s3.742-.398 8.213.574c3.567.777 4.295.933 4.441.962-.602-.068-8.242-.991-11.673.175z"/><path fill="none" stroke="#000" stroke-width=".5" stroke-miterlimit="10" d="M49.776 79.007s3.091.321 4.315.729M60.671 78.355l5.618.973M49.941 80.387s.214.009.564.039c.641.059 1.74.175 2.692.36.35.078.69.155.972.252M60.759 79.736s.224.029.573.087c.525.068 1.351.185 2.187.321.311.048.612.107.914.155a18.63 18.63 0 0 1 1.526.331M52.371 84.177c.292.01.603 0 .904-.048M51.156 84.051a5.846 5.846 0 0 0 1.196.126M62.217 83.808s1.467.243 2.527-.087"/><path fill="none" stroke="#000" stroke-width=".5" stroke-miterlimit="10" d="M50.505 80.465s.34 3.217 1.37 3.693a.586.586 0 0 0 .34.048l.136-.029h.019c1.089-.35.914-2.799.826-3.392 0-.029-.01-.049-.01-.068M61.323 79.901s.981 3.985 2.274 3.907c1.302-.087.816-3.421.816-3.421"/><path d="M51.244 80.552s.321 2.76.895 2.683c.563-.078 0-2.518 0-2.518l-.895-.165zM62.217 80.144s.729 2.925 1.137 2.77c.408-.166.165-2.77.165-2.77h-1.302z"/><path fill="none" stroke="#000" stroke-width=".5" stroke-miterlimit="10" d="M60.263 92.021s1.954 1.866 5.53 1.293c3.586-.564 3.985-4.141 3.013-4.957-.904-.748-2.119-.078-2.196.574-.078.651.486.807.486.807s-.486-.758.408-.807c1.302-.087 1.059 2.517-1.302 3.577-3.188 1.428-5.939-.487-5.939-.487zM58.621 92.03c-.048.224-.583 2.012-3.819 2.167-.146.02-.301.02-.467.02-1.429 0-2.255-.583-2.624-1.312-.642-1.273.048-3.003 1.234-3.003 1.875 0 1.954 1.623 1.39 2.031-.573.408-.894.331-.894.331s.972-.816.243-1.39c-.739-.564-2.08.719-1.39 2.041.36.69 1.39 1.166 2.508 1.283 1.632.175 3.469-.408 3.819-2.168.01-.01.01-.021.01-.029M57.095 95.51s1.137-.243 1.789-.078c.651.166 1.38-.486 2.361-.486.972 0 2.683.078 2.683.078M58.971 97.463s1.701.243 2.517-.242M56.852 100.389v3.18s3.237 3.147 17.941-1.596c.039-.01.078-.029.117-.037M56.852 103.566s-.505.846-1.283 2.322a97.458 97.458 0 0 0-3.101 6.453c-2.556 5.813-5.355 13.733-5.783 21.227"/><path fill="none" stroke="#000" stroke-width=".5" stroke-miterlimit="10" d="M75.717 99.99s-.351.72-.924 1.982c-.428.924-.98 2.139-1.613 3.576a209.442 209.442 0 0 0-2.294 5.395c-.136.312-.271.642-.398.973-2.722 6.657-5.754 14.947-7.105 21.663l-.029.155M47.512 106.113c-1.691 1.826-3.363 4.228-4.811 7.367-5.365 11.634-5.608 20.088-5.608 20.088M56.521 100.389l-.01.01c-.126.021-1.089.215-2.498.855-1.71.777-4.101 2.227-6.492 4.83"/><path fill="none" stroke="#000" stroke-width=".5" stroke-miterlimit="10" d="M44.82 133.646v-.067c-.02-.495.029-3.741 2.848-13.752 3.013-10.711 8.582-19.04 8.844-19.429M47.823 105.6s-.107.164-.301.484c0 .01-.01.02-.01.029-1.409 2.391-7.134 12.849-8.786 27.466 0 .021-.01.049-.01.067M82.87 100.311s1.166 1.013 2.848 2.771c.242.253.495.516.748.797 2.896 3.12 6.843 8.01 9.252 13.587 4.15 9.603 4.638 16.027 4.638 16.027M77.505 100.311s-.01.029-.039.088c-.612 1.537-9.155 22.742-11.585 33.095"/><path fill="none" stroke="#000" stroke-width=".5" stroke-miterlimit="10" d="M85.641 103.159s-4.803 11.215-7.076 20.001c-2.273 8.785-2.518 10.408-2.518 10.408M86.456 103.889s-2.438 5.772-5.452 15.365c-3.014 9.602-3.742 14.15-3.742 14.15M55.627 105.919s3.178 2.937 17.484-.397M52.945 111.371s5.122 2.926 17.815-.485"/><path fill="none" stroke="#000" stroke-width=".5" stroke-miterlimit="10" d="M52.459 112.343h.009c.233.187 3.966 2.819 17.883-.485M54.004 101.205s0 .02.01.049c.02.186.049.816-.573 1.089-.739.33-1.798.485-2.041 1.138-.243.651 1.147 1.06.651 2.041-.486.972-2.109.65-2.439 1.545-.321.895 1.137.973.573 2.108-.573 1.138-2.119.816-2.439 1.788-.331.973 1.788 1.061 1.215 2.362-.564 1.302-2.683.972-2.925 2.196-.243 1.215 1.467 1.049.981 2.273-.496 1.215-2.196 1.137-2.527 2.439-.321 1.302 1.633 1.137 1.137 2.604-.486 1.458-2.439 1.303-2.76 2.596-.331 1.303 1.954 1.06 1.467 2.438-.496 1.39-2.284 1.303-2.527 2.604-.243 1.303 1.789 1.381 1.302 3.014M82.141 100.232s-1.865 0-2.195 1.138c-.321 1.138 1.787 1.546 1.302 2.848-.485 1.304-2.604 0-3.09 1.458-.486 1.469 2.272 1.225 1.545 2.771-.729 1.545-3.013.563-3.411 1.865-.408 1.303 2.518 1.303 1.943 2.683-.563 1.38-2.926.739-3.323 1.954-.408 1.225 2.108 1.787 1.534 3.256-.563 1.458-2.518.154-2.926 1.458-.408 1.302 1.955 1.545 1.392 3.013-.574 1.469-2.604.243-3.015 1.71-.407 1.458 2.274 1.623 1.789 2.927-.485 1.303-3.014.563-3.255 1.701-.243 1.146 2.681.649 2.284 1.952-.407 1.304-2.692.816-3.09 2.439"/><path fill="none" stroke="#000" stroke-width=".5" stroke-miterlimit="10" d="M53.382 102.857s0 .709-.758 1.194M50.777 104.432s-.428.379-.593 1.244M51.429 106.766s-.166.807-.651 1.243M48.94 108.115s-.496.438-.544 1.254M49.747 110.613s-.048.593-.428 1.137M47.415 112.295s-.321.485-.428 1.352M48.124 114.948s-.107.758-.544 1.36M45.578 116.843s-.379.546-.438 1.304M46.384 119.613s-.048.865-.379 1.302M44.003 121.994s-.272.604-.321 1.244M44.975 124.657s-.048 1.079-.428 1.563M42.759 127.038s-.486.7-.379 1.468M43.838 129.799s.059 1.195-.379 1.682M41.729 132.354s-.331.486-.165 1.187M82.005 100.904s-.214.873-.651 1.253M79.458 102.809c-.058.155-.438.594-.438 1.187M80.652 105.462s-.223.924-.649 1.304M77.729 107.25s-.438.65-.438 1.244M78.759 109.962s-.116.815-.495 1.351M76.202 111.857s-.534.758-.485 1.359M77.396 114.627s-.271.973-.649 1.623M74.579 116.736s-.544.709-.485 1.359M75.773 119.613s-.164.865-.543 1.408M73.063 121.343s-.438.603-.485 1.255M74.143 124.161s0 .875-.379 1.36M71.547 125.95s-.438.758-.495 1.524M73.005 128.661s0 .759-.272 1.03M70.518 130.236s-.438.437-.438 1.244M71.818 132.676s0 .485-.164.864"/></g></g><path fill="#DDB305" stroke="#000" stroke-width=".25" stroke-miterlimit="10" d="M56.719 120.113s2.994-3.57 4.885-1.3c3.164 3.801-6.381 10.078-6.381 10.078s-5.054-7.381-2.673-10.202c2.266-2.683 4.169 1.424 4.169 1.424z"/><path fill="none" stroke="#000" stroke-miterlimit="10" d="M134.25 171.82c0 6.762-5.623 12.244-12.56 12.244H17.548c-6.936 0-12.56-5.482-12.56-12.244V17.494c0-6.762 5.624-12.244 12.56-12.244H121.69c6.937 0 12.56 5.482 12.56 12.244V171.82z"/></svg>