<svg xmlns="http://www.w3.org/2000/svg" width="140" height="190" xml:space="preserve"><path fill-opacity=".498" d="M21 5h103c8.864 0 16 7.136 16 16v153c0 8.864-7.136 16-16 16H21c-8.864 0-16-7.136-16-16V21c0-8.864 7.136-16 16-16z"/><path fill="#E7E7E7" d="M17 1h103c8.864 0 16 7.136 16 16v153c0 8.864-7.136 16-16 16H17c-8.864 0-16-7.136-16-16V17C1 8.136 8.136 1 17 1z"/><path fill="#C7891F" d="M19 3h103c8.864 0 16 7.136 16 16v153c0 8.864-7.136 16-16 16H19c-8.864 0-16-7.136-16-16V19c0-8.864 7.136-16 16-16z"/><path fill="#FFF" d="M18 2h103c8.864 0 16 7.136 16 16v153c0 8.864-7.136 16-16 16H18c-8.864 0-16-7.136-16-16V18C2 9.136 9.136 2 18 2z"/><path fill="red" d="M10.027 12.24h6.396v10.951l9.22-10.951h7.426L21.125 26.446 34.299 42.24h-8.008l-9.868-11.815V42.24h-6.396v-30M128.662 176.63h-6.396v-10.95l-9.22 10.95h-7.427l11.943-14.206-13.174-15.794h8.008l9.869 11.815V146.63h6.396l.001 30M20.41 48.665c-4.126 8.246-7.134 12.498-13.34 17.04 5.873 4.487 10.013 9.125 13.46 16.621 3.079-7.122 6.846-12.43 13.39-16.843-6.582-3.35-10.393-8.655-13.51-16.818zM118.34 106.34c-4.126 8.246-7.135 12.498-13.34 17.039 5.873 4.488 10.014 9.125 13.46 16.621 3.079-7.121 6.847-12.43 13.39-16.844-6.582-3.347-10.393-8.652-13.51-16.816z"/><g><path fill="#085BAF" d="M83.876 74.917c-1.149-.36-6.33-1.93-13.03-3.04-2.72-.44-5.7-.82-8.76-1-10.66-.63-13.06 1.07-13.38 1.35l-.04-.05-3.23-4.37c.95-.45 15.21-6.85 41.509 1.4l.15.08c-1.681 3.11-2.979 5.71-2.979 5.71s-.08-.03-.24-.08zM76.166 104.997c4.51-4.21 7.18-5.64 7.79-5.94h.01a5.135 5.135 0 0 0 1.75-.438l.011.021s6.149 4.529 10.521 15.299c3.89 9.58 4.12 13.621 4.12 14.4h-40.21c.24-.6 1.3-3.1 3.5-6.72 2.538-4.172 7.319-11.803 12.508-16.622z"/><path fill="#EDC607" d="M76.416 60.767c.66.46 1.48 1.07 1.48 1.07s-1.78.66-2.291.45c-.51-.2-.359-1.12-.359-1.12s.51-.86 1.17-.4zM75.346 59.647c-.199.51-.91.66-.91.66s-.408-.19-.51-.53a.64.64 0 0 1 .051-.44c.311-.61 1.119-1.47 1.119-1.47s.461 1.27.25 1.78zM72.246 61.777c-.65-.26-1.37-1.32-1.37-1.32s1.021-.15 1.681-.25c.029 0 .061-.01.101-.01.579 0 .81.87.81.87s-.199.71-.91.77a.712.712 0 0 1-.312-.06z"/><path fill="#085BAF" d="M77.896 61.837s-.82-.61-1.48-1.07-1.17.4-1.17.4-.15.92.359 1.12c.511.21 2.291-.45 2.291-.45zm-3.97-2.06c.102.34.51.53.51.53s.711-.15.91-.66c.211-.51-.25-1.78-.25-1.78l.16-.9c12.2 2.04 19.84-.12 19.84-.12s-1.22 1.07-4.188 5.8c-1.03 1.64-2.171 3.64-3.2 5.53l-.08-.04s-.529.3-1.45-.08c-.909-.38 0-1.29-1.37-1.52-1.369-.23-1.22.68-2.358.38-1.15-.31-.312-1.22-1.61-1.45-1.29-.23-1.37.69-2.66.46-1.3-.229-.609-1.3-1.76-1.53a2.02 2.02 0 0 0-.33-.03l-.01-.4c-1.67-.13-3.09-.38-4.24-.72l.41-1.47c.109.04.21.07.311.06.709-.06.909-.77.909-.77s-.229-.87-.81-.87l1.266-.42z"/><path fill="#8E3D00" d="M70.846 71.877c6.7 1.11 11.881 2.68 13.03 3.04-.229.56-2.61 14.96 1.181 19.15.609-1.22 2.699-1.73 3.149.56.3 1.49-.7 3.2-2.49 3.99a5.09 5.09 0 0 1-1.75.439h-.01c-.53.039-1.101.01-1.69-.109-1.05-.211-2.068-.762-3.039-1.58a2.342 2.342 0 0 0-.619-.57c-1.422-1.38-2.722-3.34-3.842-5.67a39.21 39.21 0 0 1-1.858-4.59c-2.181-6.51-2.08-14.54-2.08-14.54l.018-.12z"/><path d="M63.046 80.697c-.71.1-.81-1.99-.81-1.99l1.42.05s.1 1.83-.61 1.94z"/><path fill="#EDC607" d="M65.386 107.688s-.36-2.899-3.41-.149c0 0 .67-1.729 2.39-1.729 1.73-.003 1.02 1.878 1.02 1.878z"/><path fill="#8E3D00" d="M62.896 75.257c-2.44-.21-3.25.15-3.25.15l-.87-1.42s3.46-1.12 9.81 2.23c0 0-3.25-.76-5.69-.96zM62.236 78.707s.1 2.09.81 1.99c.71-.11.61-1.94.61-1.94.35.06.7.13 1.04.23l-.02.08s-.1 2.59-1.63 2.54c-1.52-.05-1.73-3.05-1.73-3.05.43.01 1.36.04 2.34.2l-1.42-.05zM62.666 104.257c-1.01-.84-1.74-2.13-1.96-3.989l.02-.051c.63.19 1.19.25 1.67.182 2.51-.342 9.15-3.312 12.35-9.26l.02-.01c1.12 2.33 2.42 4.29 3.842 5.67.199.21.408.4.619.57.109.12.199.26.289.409.99 1.681.271 4.471-2.738 5.229l-.012.011c-1.18.289-2.709.271-4.629-.25a3.901 3.901 0 0 1-.341.551c-.09.119-.188.238-.31.35 0 0-.021.02-.051.061 0 .011-.011.011-.011.021-.479.49-1.11.899-1.84 1.2-2.118.906-5.008.936-6.918-.694z"/><path fill="#EDC607" d="M59.446 128.337c.36-.84 2.42-5.42 7.36-12.92 5.32-8.08 9.69-12.149 9.959-12.399l.01-.011c3.011-.76 3.729-3.55 2.74-5.229a2.606 2.606 0 0 0-.291-.409c.971.819 1.99 1.37 3.041 1.58.59.12 1.159.149 1.689.108-.609.301-3.28 1.73-7.79 5.94-5.19 4.819-9.97 12.45-12.51 16.62-2.2 3.619-3.26 6.119-3.5 6.72h-.708zM62.146 114.688c-.46.189-1.19.449-1.64.42-.61-.039-.8-.83-.69-1.209.01-.07.04-.121.08-.16 0 0 .31-1.271 1.12-.762.81.512 1.57 1.521 1.57 1.521s-.18.089-.44.19z"/><path fill="#8E3D00" d="M62.336 91.827c-2.8.15-3.66-1.83-3.66-1.83 5.24 3.35 6.25-1.53 6.25-1.53s.21 3.21-2.59 3.36z"/><path fill="#EDC607" d="M58.336 128.337c.12-.31 1.03-2.569 4.36-10.03 3.38-7.58 8.15-13.81 8.73-14.56 0-.011.01-.011.01-.021.03-.021.051-.041.051-.061.121-.109.221-.23.311-.35.141-.19.25-.371.34-.551 1.92.521 3.45.539 4.631.25-.271.25-4.641 4.319-9.959 12.399-4.94 7.5-7 12.08-7.36 12.92h-1.112v.004zM58.726 112.417s-1.02-.46-.61-1.17c.41-.71 1.58-2.08 1.58-2.08s.66 1.83.56 2.59c-.11.761-1.53.66-1.53.66zM57.256 118.307s-.41-1.72-.41-2.488c0-.762.46-1.17 1.42-.762 0 0 1.02.262.51 1.12-.51.86-1.52 2.13-1.52 2.13zM57.806 113.707c.06-.34.32-.66.67-.63.57.06.65.489.55.84-.03.08-.06.16-.1.229-.2.351-.86.399-1.06 0a.717.717 0 0 1-.06-.439z"/><path fill="#EDC607" d="M57.786 128.337c.18-.61 1.4-4.42 5.16-12.16.15-.3.29-.59.43-.88 3.87-7.8 6.23-10.3 6.23-10.3l-.02-.05c.73-.301 1.359-.711 1.84-1.2-.58.75-5.35 6.979-8.73 14.56-3.33 7.461-4.24 9.721-4.36 10.03h-.55zM57.146 107.127s-.2-1.27.82-1.37c1.01-.1 1.22 1.62 1.22 1.62-1.27-2.13-2.04-.25-2.04-.25zM56.386 114.707c-.71.2-1.93-1.43-1.93-1.43s1.83-1.07 2.39-1.012c.56.051.36 1.062.36 1.062s-.02.159-.07.38c-.1.359-.31.87-.75 1zM54.366 128.337c.04-.31.36-2.33.65-3.819l.3-1.631.92.102s-.7 3.41-.96 5.35l-.91-.002z"/><path fill="#085BAF" d="M64.366 105.807c-1.72 0-2.39 1.73-2.39 1.73 3.05-2.75 3.41.148 3.41.148s.71-1.878-1.02-1.878zm-6.25 5.44c-.41.71.61 1.17.61 1.17s1.42.101 1.53-.66c.1-.76-.56-2.59-.56-2.59s-1.17 1.37-1.58 2.08zm-.15-5.49c-1.02.101-.82 1.37-.82 1.37s.77-1.88 2.04.25c0 0-.21-1.72-1.22-1.62zm-1.12 6.511c-.56-.061-2.39 1.01-2.39 1.01l-.34-.079a170.42 170.42 0 0 1 1.97-7.591c1.84.461 3.31-.319 4.19-1.289.09.18.42.92.38 1.539l-.05.711s.97-1.932 2.04-2.291l.02-.021c1.91 1.63 4.8 1.601 6.92.69l.02.05s-2.36 2.5-6.23 10.3l-1.23-.609c.26-.101.44-.189.44-.189s-.76-1.01-1.57-1.521c-.81-.51-1.12.762-1.12.762a.269.269 0 0 0-.08.16l-.79.02c.1-.35.02-.779-.55-.84-.35-.03-.61.29-.67.63h-.67c.05-.22.07-.38.07-.38s.2-1.014-.36-1.062z"/><path fill="#EDC607" d="M53.756 128.337c.05-.319.38-2.46.75-4.43.41-2.142.46-2.392.46-2.392l2.54.102s-1.16 3.18-1.58 6.72h-.65c.26-1.938.96-5.351.96-5.351l-.92-.101-.3 1.63c-.29 1.49-.61 3.512-.65 3.82l-.61.002zM54.256 48.867c.71-.07 1.42 4.98.2 5.14-1.04.13-1.16-3.6-.58-4.78.11-.21.23-.34.38-.36z"/><path fill="#085BAF" d="M58.266 115.057c-.96-.408-1.42 0-1.42.762 0 .77.41 2.488.41 2.488s1.01-1.27 1.52-2.13c.51-.861-.51-1.12-.51-1.12zm-6.76 13.27c.31-4.67 1.51-10.54 2.61-15.13l.34.08s1.22 1.63 1.93 1.43c.44-.13.65-.641.75-1h.67c-.02.16-.01.311.06.439.2.399.86.351 1.06 0 .04-.069.07-.149.1-.229l.79-.021c-.11.381.08 1.17.69 1.211.45.028 1.18-.23 1.64-.422l1.23.61c-.14.29-.28.58-.43.88-3.76 7.74-4.98 11.551-5.16 12.16h-1.86c.42-3.54 1.58-6.72 1.58-6.72l-2.54-.101s-.05.25-.46 2.391c-.37 1.97-.7 4.109-.75 4.43h-2.25v-.008z"/><path d="M52.626 81.147c-.66-.15-.71-1.98-.71-1.98l1.06.04h.01c.08.02.17.03.25.05.1.67.04 2.05-.61 1.89z"/><path fill="#8E3D00" d="M55.776 75.757c-3.03-.69-6.65.07-6.8.1.05-.07.52-.63 2.33-1.16 1.93-.56 3.86-.36 3.86-.36s.3.53.62 1.42h-.01zM52.326 89.387c1.88 3.66 5.43.66 5.43.66s-.91 2.03-3.2 1.83c-.95-.08-1.5-.53-1.81-1.02-.44-.69-.42-1.47-.42-1.47zM52.726 82.217c-1.72-.19-1.58-2.9-1.57-3.09.47-.04 1.11-.04 1.82.08l-1.06-.04s.05 1.83.71 1.98c.65.16.71-1.22.61-1.89.28.05.57.13.86.22v.01c.03.22.34 2.92-1.37 2.73z"/><path fill="#EDC607" d="M54.116 113.197c-1.1 4.59-2.3 10.46-2.61 15.13v.01h-.56c.37-7.79 4.27-22.989 4.27-22.989l.01-.029c.27.108.55.209.86.289 0-.001-.94 3.229-1.97 7.589z"/><path fill="#EDC607" d="M50.086 128.337c.26-7.59 3.4-24.21 3.4-24.21l.09-.07c.39.5.94.94 1.65 1.262l-.01.029s-3.9 15.199-4.27 22.989h-.86z"/><path fill="#8E3D00" d="m49.746 95.077-.07-.1c-1.07-.4-2.03-2.03-1.47-3.81.53-1.68 2.69-2.01 3.26-.71l.04-.02c.14.29.28.57.43.84 2.79 5.3 6.29 8.17 8.79 8.94l-.02.051c.22 1.859.95 3.149 1.96 3.989l-.02.021c-1.07.359-2.04 2.291-2.04 2.291l.05-.711c.04-.619-.29-1.359-.38-1.539-.88.97-2.35 1.75-4.19 1.289-.31-.08-.59-.181-.86-.289-.71-.32-1.26-.762-1.65-1.262-.46-.59-.71-1.27-.79-1.92a3.82 3.82 0 0 1 .07-1.359c-2.53-.119-4.65-1.439-4.09-4.069.16-.771.53-1.312.98-1.632z"/><path fill="#EDC607" d="M53.486 104.127s-3.14 16.62-3.4 24.21h-.92c.01-6.95 3.01-24.188 3.33-26.03.14-.108.21-.158.23-.158l.06-.012c.08.65.33 1.33.79 1.92l-.09.07z"/><path fill="#EDC8C3" d="M52.976 79.207c-.71-.12-1.35-.12-1.82-.08-.01.19-.15 2.9 1.57 3.09 1.71.19 1.4-2.51 1.37-2.73v-.01c-.29-.09-.58-.17-.86-.22v-.04l-.25-.01h-.01zm-4-3.35c.15-.03 3.77-.79 6.8-.1h.01c.45 1.26.96 3.24.75 5.44-.35 3.77-1.47 5.19-.86 5.95.61.76 2.39 1.17 2.39 1.17l-.31 1.73s-3.55 3-5.43-.66c0 0-.02.78.42 1.47l-.81.42c-.15-.27-.29-.55-.43-.84-.07-.14-.14-.29-.21-.44-2.21-4.72-2.69-10.48-2.72-14.12l.39-.01.01-.01z"/><path fill="#EDC8C3" d="M64.696 78.987c-.34-.1-.69-.17-1.04-.23-.98-.16-1.91-.19-2.34-.2 0 0 .21 3 1.73 3.05 1.53.05 1.63-2.54 1.63-2.54l.02-.08zm3.89-2.77c-6.35-3.35-9.81-2.23-9.81-2.23l.87 1.42s.81-.36 3.25-.15c2.44.2 5.69.96 5.69.96zm-9.91 13.78s.86 1.98 3.66 1.83c2.8-.15 2.59-3.36 2.59-3.36s-1.01 4.88-6.25 1.53zm-7.37-15.3c-1.81.53-2.28 1.09-2.33 1.16l-.01.01-.39.01c-.04-2.18.09-3.61.09-3.61l.04-.04c.32-.28 2.72-1.98 13.38-1.35 3.06.18 6.04.56 8.76 1l-.02.12s-.102 8.03 2.08 14.54c.55 1.63 1.17 3.17 1.859 4.59l-.021.01c-3.2 5.95-9.84 8.919-12.35 9.259-.48.069-1.04.011-1.67-.181-2.5-.77-6-3.64-8.79-8.94l.81-.42c.31.49.86.94 1.81 1.02 2.29.2 3.2-1.83 3.2-1.83l.31-1.73s-1.78-.41-2.39-1.17c-.61-.76.51-2.18.86-5.95.21-2.2-.3-4.18-.75-5.44-.32-.89-.62-1.42-.62-1.42s-1.928-.198-3.858.362z"/><path fill="#085BAF" d="M42.206 115.268c3.96-7.301 9.16-12.061 10.29-12.961-.32 1.842-3.32 19.08-3.33 26.03h-11.83l-.04-.01c.09-.729.85-5.58 4.91-13.059zM43.606 65.327l-4.4-5.96s1.91.46 6.86-3.05c3.1-2.19 5.45-5.34 6.78-7.39l1.03.3c-.58 1.18-.46 4.91.58 4.78l.84.71-.61 5.49-.69-5.03s-.76 2.21-1.9 5.18c-1.18 3.06-4.35 3.97-5.34 3.13-.13-.11-.22-.23-.28-.36l-1.29-.04c.08.15.12.36.12.63 0 1.59-1.29 1.64-1.7 1.61z"/><path fill="#EDC607" d="M47.366 66.307c.76-.31.84-1.3 1.68-1.53.83-.23 1.06.77 1.98.46.91-.3.84-1.22 1.91-1.45 1.06-.23 1.14.76 2.21.61 1.06-.15.91-1.37 2.06-1.45 1.14-.07.83.99 2.13.92 1.3-.08.99-.92 2.29-.99 1.29-.08.84 1.14 2.13 1.22 1.3.07 1.22-1.07 2.44-.99 1.22.07.92.99 2.37 1.22 1.45.22 1.29-.84 2.67-.69 1.369.15 1.06 1.22 2.438 1.37 1.23.14 1.54-.64 2.41-.64.101 0 .21.01.33.03 1.149.23.46 1.3 1.76 1.53 1.29.23 1.37-.69 2.66-.46 1.3.23.46 1.14 1.61 1.45 1.14.3.988-.61 2.359-.38 1.369.23.459 1.14 1.369 1.52.92.38 1.45.08 1.45.08l.08.04c-.21.38-.41.75-.61 1.11l-.148-.08c-26.3-8.25-40.56-1.85-41.51-1.4l-.65-.89c.02-.2.15-.73.82-.92.842-.23 1.002.61 1.762.31z"/><path fill="#085BAF" d="M46.756 63.487c.99.84 4.16-.07 5.34-3.13 1.14-2.97 1.9-5.18 1.9-5.18l.69 5.03.61-5.49-.84-.71c1.22-.16.51-5.21-.2-5.14-.15.02-.27.15-.38.36l-1.03-.3c.8-1.229 1.23-2.07 1.23-2.07s3.13 6.18 17.46 9.38c1.28.29 2.521.53 3.72.73l-.16.9s-.81.86-1.119 1.47a.64.64 0 0 0-.051.44l-1.27.42c-.04 0-.07.01-.102.01-.658.1-1.68.25-1.68.25s.721 1.06 1.37 1.32l-.41 1.47c1.149.34 2.569.59 4.24.72l.01.4c-.87 0-1.181.78-2.41.64-1.38-.15-1.069-1.22-2.438-1.37-1.38-.15-1.22.91-2.67.69-1.45-.23-1.15-1.15-2.37-1.22-1.22-.08-1.14 1.06-2.44.99-1.29-.08-.84-1.3-2.13-1.22-1.3.07-.99.91-2.29.99-1.3.07-.99-.99-2.13-.92-1.15.08-1 1.3-2.06 1.45-1.07.15-1.15-.84-2.21-.61-1.07.23-1 1.15-1.91 1.45-.92.31-1.15-.69-1.98-.46-.84.23-.92 1.22-1.68 1.53-.76.3-.92-.54-1.76-.31-.67.19-.8.72-.82.92l-1.18-1.59c.41.03 1.7-.02 1.7-1.61 0-.27-.04-.48-.12-.63l1.29.04c.06.13.15.25.28.36z"/><g fill="none" stroke="#000" stroke-width=".5" stroke-miterlimit="10"><path d="M74.746 91.137c-3.2 5.95-9.84 8.919-12.35 9.259-.48.069-1.04.011-1.67-.181-2.5-.771-6-3.64-8.79-8.94-.15-.27-.29-.55-.43-.84-.07-.14-.14-.29-.21-.44-2.21-4.72-2.69-10.48-2.72-14.12-.04-2.18.09-3.61.09-3.61l.04-.04c.32-.28 2.72-1.98 13.38-1.35 3.06.18 6.04.56 8.76 1 6.7 1.11 11.881 2.68 13.03 3.04.16.05.24.08.24.08s1.3-2.6 2.979-5.71c.199-.36.399-.73.609-1.11 1.029-1.89 2.17-3.89 3.199-5.53 2.971-4.73 4.189-5.8 4.189-5.8s-7.64 2.16-19.84.12a66.04 66.04 0 0 1-3.72-.73c-14.33-3.2-17.46-9.38-17.46-9.38s-.43.84-1.23 2.07c-1.33 2.05-3.68 5.2-6.78 7.39-4.95 3.51-6.86 3.05-6.86 3.05l4.4 5.96 1.18 1.59.65.89 3.23 4.37M37.336 128.337h63"/><path d="M44.776 66.987s0-.03.01-.07c.02-.2.15-.73.82-.92.84-.23 1 .61 1.76.31.76-.31.84-1.3 1.68-1.53.83-.23 1.06.77 1.98.46.91-.3.84-1.22 1.91-1.45 1.06-.23 1.14.76 2.21.61 1.06-.15.91-1.37 2.06-1.45 1.14-.07.83.99 2.13.92 1.3-.08.99-.92 2.29-.99 1.29-.08.84 1.14 2.13 1.22 1.3.07 1.22-1.07 2.44-.99 1.22.07.92.99 2.37 1.22 1.45.22 1.29-.84 2.67-.69 1.369.15 1.06 1.22 2.438 1.37 1.229.14 1.54-.64 2.41-.64.101 0 .21.01.33.03 1.149.23.46 1.3 1.76 1.53 1.29.23 1.37-.69 2.66-.46 1.3.23.46 1.14 1.61 1.45 1.14.3.988-.61 2.359-.38 1.369.23.459 1.14 1.369 1.52.92.38 1.45.08 1.45.08"/><path d="M45.386 67.827s.02-.01.05-.02c.95-.45 15.21-6.85 41.509 1.4M43.476 65.317s.05.01.13.01c.41.03 1.7-.02 1.7-1.61 0-.27-.04-.48-.12-.63-.43-.92-1.88.13-1.02.78M89.536 64.707s-1.3.84-3.05.53c-1.762-.3-2.141-2.36-1.15-2.82 1-.46 1.221 1.07.46 1.37M47.286 62.567s.84-.38.31-.91c-.47-.47-1.5.62-1.12 1.47.06.13.15.25.28.36.99.84 4.16-.07 5.34-3.13 1.14-2.97 1.9-5.18 1.9-5.18l.69 5.03.61-5.49s2.74 5.34 5.41 6.4c2.67 1.07 3.66.16 3.66-1.06s-1.67-.69-1.29.3M69.176 60.277s.61-.3.15-.83c-.46-.54-1.52.38-.84 1.75.4.78 1.54 1.52 3.35 2.05 1.15.34 2.57.59 4.24.72.29.02.58.04.88.05 4.8.23 4.8-2.44 4.11-2.97-.682-.54-1.142.45-.762.99M53.876 49.227c.11-.21.23-.34.38-.36.71-.07 1.42 4.98.2 5.14-1.04.13-1.16-3.6-.58-4.78z"/><path d="M75.096 57.867s.461 1.27.25 1.78c-.199.51-.91.66-.91.66s-.408-.19-.51-.53a.64.64 0 0 1 .051-.44c.309-.61 1.119-1.47 1.119-1.47zM75.246 61.167s.51-.86 1.17-.4 1.48 1.07 1.48 1.07-1.78.66-2.291.45c-.509-.2-.359-1.12-.359-1.12zM72.246 61.777c.109.04.21.07.311.06.709-.06.909-.77.909-.77s-.229-.87-.81-.87c-.04 0-.07.01-.102.01-.658.1-1.68.25-1.68.25s.722 1.06 1.372 1.32zM83.966 99.057a5.135 5.135 0 0 0 1.75-.438c1.79-.79 2.79-2.5 2.49-3.99-.45-2.29-2.54-1.78-3.149-.56s1.729 2.69 2.039.81M70.826 71.997s-.102 8.03 2.08 14.54c.55 1.63 1.17 3.17 1.859 4.59 1.119 2.33 2.42 4.29 3.84 5.67.199.21.41.4.619.57.971.818 1.99 1.369 3.041 1.58.59.119 1.159.148 1.689.109M83.886 74.897s-.01.01-.01.02c-.229.56-2.61 14.96 1.181 19.15"/><path d="M72.756 73.477c-.1.15-.35 12.2 6 21.2M75.046 74.187s.66 12.91 4.521 18.2M77.536 75.817s.25 9.3 2.489 13.98M79.666 76.727s.26 6.35 1.43 9.86M81.605 77.897s-.149 4.63.149 6.05M48.966 75.867l.01-.01c.15-.03 3.77-.79 6.8-.1"/><path d="M58.066 88.317s-1.78-.41-2.39-1.17c-.61-.76.51-2.18.86-5.95.21-2.2-.3-4.18-.75-5.44-.32-.89-.62-1.42-.62-1.42s-1.93-.2-3.86.36c-1.81.53-2.28 1.09-2.33 1.16M68.586 76.217s-3.25-.76-5.69-.96c-2.44-.21-3.25.15-3.25.15l-.87-1.42s3.46-1.12 9.81 2.23z"/><path d="M50.136 77.947s2.54-.46 4.42.51M60.866 77.437s3-.46 5.33.71M54.096 79.487c.17.05.34.12.51.19M52.986 79.207c.08.02.17.03.25.05.28.05.57.13.86.22M50.386 79.217s.29-.06.77-.09c.47-.04 1.11-.04 1.82.08M61.066 78.557h.25c.43.01 1.36.04 2.34.2.35.06.7.13 1.04.23.28.08.55.17.79.28M51.606 82.117s1.07.3 2.09.1M61.926 81.507s1.22.3 2.34.05"/><path d="M51.156 79.117v.01c-.01.19-.15 2.9 1.57 3.09 1.71.19 1.4-2.51 1.37-2.73v-.01M61.316 78.557s.21 3 1.73 3.05c1.53.05 1.63-2.54 1.63-2.54M57.756 90.047s-3.55 3-5.43-.66c0 0-.02.78.42 1.47.31.49.86.94 1.81 1.02 2.29.2 3.2-1.83 3.2-1.83zM58.676 89.997s.86 1.98 3.66 1.83c2.8-.15 2.59-3.36 2.59-3.36s-1.01 4.88-6.25 1.53zM56.036 92.897s.86-.05 1.67 0c.82.05 1.58-.26 2.09-.36.51-.1 2.54.2 3.15.25M57.816 94.367s1.22.1 2.33-.25M76.766 103.018c-1.18.289-2.709.271-4.63-.25-.01 0-.028-.011-.04-.011M76.626 100.057s-1.46-.05-1.53-1.619c-.08-1.739 2-2.641 3.512-1.641.22.141.438.33.619.57.109.119.199.26.289.41.99 1.68.271 4.47-2.738 5.229M71.426 103.747c-.479.489-1.11.899-1.84 1.2-2.12.91-5.01.938-6.92-.69-1.01-.84-1.74-2.13-1.96-3.989"/><path d="M69.046 102.557s-1.42-1.58 0-2.85c1.54-1.38 4.53.359 3.09 3.061a3.8 3.8 0 0 1-.34.551c-.09.119-.188.238-.31.35 0 .02-.021.04-.051.061M54.556 101.837s1.32.66 1.37-1.06c.06-1.73-2.44-1.881-2.99-.262-.03.092-.06.17-.08.262-.1.42-.13.88-.07 1.358.08.65.33 1.33.79 1.921.39.5.94.939 1.65 1.26.27.109.55.211.86.291 1.84.459 3.31-.32 4.19-1.291.59-.631.92-1.34.94-1.819"/><path d="M50.996 97.268s1.33.459 1.33-1.319c0-1.26-1.51-1.68-2.58-.87-.45.32-.82.859-.98 1.63-.56 2.63 1.56 3.95 4.09 4.069h.02M50.546 92.177s1.42.11 1.01-1.47c-.02-.09-.05-.17-.09-.25-.57-1.3-2.73-.97-3.26.71-.56 1.78.4 3.41 1.47 3.81M60.256 104.277s.01.01.02.039c.09.181.42.92.38 1.541l-.05.709s.97-1.931 2.04-2.289M61.976 107.537s.67-1.73 2.39-1.73c1.73 0 1.02 1.881 1.02 1.881s-.36-2.901-3.41-.151zM59.186 107.377s-.21-1.72-1.22-1.62c-1.02.101-.82 1.37-.82 1.37s.77-1.88 2.04.25zM58.726 112.417s-1.02-.46-.61-1.17c.41-.71 1.58-2.08 1.58-2.08s.66 1.83.56 2.59c-.11.761-1.53.66-1.53.66zM59.816 113.896a.278.278 0 0 1 .08-.16s.31-1.271 1.12-.76c.81.51 1.57 1.521 1.57 1.521s-.18.09-.44.188c-.46.19-1.19.45-1.64.422-.61-.041-.8-.83-.69-1.211zM58.266 115.057s1.02.262.51 1.12c-.51.86-1.52 2.13-1.52 2.13s-.41-1.72-.41-2.488c0-.762.46-1.173 1.42-.762zM57.136 113.707c.05-.221.07-.38.07-.38s.2-1.011-.36-1.062c-.56-.06-2.39 1.012-2.39 1.012s1.22 1.63 1.93 1.43c.44-.13.65-.641.75-1zM57.806 113.707c.06-.34.32-.66.67-.63.57.06.65.489.55.84-.03.08-.06.16-.1.229-.2.351-.86.399-1.06 0a.717.717 0 0 1-.06-.439zM53.746 128.377s0-.01.01-.04c.05-.319.38-2.46.75-4.43.41-2.142.46-2.392.46-2.392l2.54.102s-1.16 3.18-1.58 6.72v.04"/><path d="M54.356 128.377s0-.01.01-.04c.04-.31.36-2.33.65-3.819l.3-1.631.92.102s-.7 3.41-.96 5.35c-.01.01-.01.03-.01.04M52.726 102.146c-.02 0-.09.051-.23.16-1.13.899-6.33 5.659-10.29 12.959-4.06 7.48-4.82 12.33-4.91 13.062-.02.069-.02.1-.02.1M85.727 98.637s6.149 4.53 10.521 15.301c3.89 9.58 4.12 13.619 4.12 14.399v.14"/><path d="m52.526 102.146-.03.16c-.32 1.84-3.32 19.079-3.33 26.029v.04M53.486 104.127s-3.14 16.62-3.4 24.21v.04M55.216 105.348s-3.9 15.199-4.27 22.989v.04M56.086 105.607s-.94 3.229-1.97 7.59c-1.1 4.59-2.3 10.46-2.61 15.13M69.606 104.997s-2.36 2.5-6.23 10.3c-.14.29-.28.58-.43.88-3.76 7.74-4.98 11.55-5.16 12.16l-.03.09"/><path d="M71.486 103.667s-.021.021-.051.06c0 .012-.011.012-.011.021-.579.75-5.35 6.979-8.73 14.561-3.33 7.459-4.24 9.721-4.36 10.029-.02.03-.02.04-.02.04M76.775 103.007l-.01.011c-.271.25-4.641 4.319-9.959 12.399-4.94 7.5-7 12.08-7.36 12.92-.04.09-.06.14-.06.14"/><path d="M84.096 98.997s-.039.021-.13.06h-.01c-.61.301-3.28 1.73-7.79 5.94-5.189 4.819-9.97 12.45-12.51 16.62-2.2 3.619-3.26 6.119-3.5 6.72-.04.09-.06.14-.06.14"/></g></g><path fill="none" stroke="#000" stroke-miterlimit="10" d="M133.75 171.32c0 6.762-5.623 12.244-12.56 12.244H17.048c-6.936 0-12.56-5.482-12.56-12.244V16.994c0-6.762 5.624-12.244 12.56-12.244H121.19c6.937 0 12.56 5.482 12.56 12.244V171.32z"/></svg>