<?xml version="1.0" encoding="utf-8"?>
<!-- Generator: Adobe Illustrator 16.0.0, SVG Export Plug-In . SVG Version: 6.00 Build 0)  -->
<!DOCTYPE svg PUBLIC "-//W3C//DTD SVG 1.1//EN" "http://www.w3.org/Graphics/SVG/1.1/DTD/svg11.dtd">
<svg version="1.1"
	 id="svg2" xmlns:dc="http://purl.org/dc/elements/1.1/" xmlns:cc="http://web.resource.org/cc/" xmlns:rdf="http://www.w3.org/1999/02/22-rdf-syntax-ns#" xmlns:svg="http://www.w3.org/2000/svg" xmlns:sodipodi="http://inkscape.sourceforge.net/DTD/sodipodi-0.dtd" xmlns:inkscape="http://www.inkscape.org/namespaces/inkscape" sodipodi:docbase="/home/nicu/Desktop/simple" sodipodi:docname="d_10.svg" inkscape:version="0.41" sodipodi:version="0.32"
	 xmlns="http://www.w3.org/2000/svg" xmlns:xlink="http://www.w3.org/1999/xlink" x="0px" y="0px" width="140px" height="190px"
	 viewBox="0 0 140 190" enable-background="new 0 0 140 190" xml:space="preserve">
<sodipodi:namedview  inkscape:cx="70.000003" inkscape:cy="95.000001" inkscape:zoom="1.9105263" borderopacity="1.0" bordercolor="#666666" pagecolor="#ffffff" id="base" inkscape:window-x="0" inkscape:pageshadow="2" inkscape:pageopacity="0.0" inkscape:window-height="791" inkscape:current-layer="svg2" inkscape:window-y="26" inkscape:window-width="1152">
	</sodipodi:namedview>
<g id="layer1" inkscape:label="Layer 1" inkscape:groupmode="layer">
	<g id="g5630">
		<path id="rect2070" fill-opacity="0.498" d="M21,5h103c8.864,0,16,7.136,16,16v153c0,8.864-7.136,16-16,16H21
			c-8.864,0-16-7.136-16-16V21C5,12.136,12.136,5,21,5z"/>
		<path id="rect1300" fill="#E7E7E7" d="M17,1h103c8.864,0,16,7.136,16,16v153c0,8.864-7.136,16-16,16H17c-8.864,0-16-7.136-16-16
			V17C1,8.136,8.136,1,17,1z"/>
		<path id="path5624" fill="#C7891F" d="M19,3h103c8.864,0,16,7.136,16,16v153c0,8.864-7.136,16-16,16H19c-8.864,0-16-7.136-16-16
			V19C3,10.136,10.136,3,19,3z"/>
		<path id="rect1306" fill="#FFFFFF" d="M18,2h103c8.864,0,16,7.136,16,16v153c0,8.864-7.136,16-16,16H18c-8.864,0-16-7.136-16-16
			V18C2,9.136,9.136,2,18,2z"/>
	</g>
	<g id="g5495" transform="translate(-448.5000,-231.5000)" inkscape:label="Layer 1" inkscape:groupmode="layer">
	</g>
</g>
<path id="path1698" fill="#FF0000" d="M11.677,42.368v-23.59L6.44,18.709l0.252-3.623l4.955-3.089h5.492v30.37 M30.573,27.146
	c0-3.751-0.265-6.39-0.795-7.917c-0.52-1.541-1.4-2.311-2.641-2.311c-1.24,0-2.125,0.77-2.656,2.311
	c-0.53,1.527-0.795,4.166-0.795,7.917c0,3.791,0.265,6.463,0.795,8.017c0.53,1.554,1.416,2.331,2.656,2.331
	c1.23,0,2.111-0.777,2.641-2.331C30.308,33.61,30.573,30.938,30.573,27.146 M36.35,27.207c0,4.97-0.8,8.808-2.401,11.514
	c-1.601,2.693-3.872,4.039-6.813,4.039c-2.951,0-5.227-1.346-6.828-4.039c-1.601-2.706-2.401-6.543-2.401-11.514
	c0-4.983,0.8-8.821,2.401-11.513c1.601-2.706,3.876-4.059,6.828-4.059c2.941,0,5.212,1.353,6.813,4.059
	C35.55,18.386,36.35,22.224,36.35,27.207"/>
<path id="path4483" fill="#FF0000" d="M127.201,146.465v23.59l5.237,0.069l-0.253,3.622l-4.954,3.089h-5.492v-30.37
	 M108.306,161.688c0,3.75,0.265,6.389,0.796,7.916c0.52,1.541,1.4,2.311,2.641,2.311s2.125-0.77,2.656-2.311
	c0.529-1.527,0.795-4.166,0.795-7.916c0-3.791-0.266-6.464-0.795-8.018c-0.531-1.555-1.416-2.331-2.656-2.331
	c-1.23,0-2.111,0.776-2.641,2.331C108.57,155.224,108.306,157.896,108.306,161.688 M102.528,161.627c0-4.971,0.8-8.809,2.401-11.514
	c1.6-2.693,3.871-4.039,6.813-4.039c2.951,0,5.227,1.346,6.828,4.039c1.6,2.705,2.4,6.543,2.4,11.514c0,4.982-0.801,8.82-2.4,11.514
	c-1.602,2.705-3.877,4.059-6.828,4.059c-2.941,0-5.213-1.354-6.813-4.059C103.328,170.447,102.528,166.609,102.528,161.627"/>
<path id="path1608" fill="#FF0000" d="M20.41,48.665c-4.126,8.246-7.134,12.498-13.34,17.04c5.873,4.487,10.013,9.125,13.46,16.621
	c3.079-7.122,6.846-12.43,13.39-16.843C27.338,62.133,23.527,56.828,20.41,48.665z"/>
<path id="path1498" fill="#FF0000" d="M49.13,36.22c-2.403,4.846-4.156,7.345-7.771,10.014c3.421,2.637,5.833,5.362,7.841,9.767
	c1.793-4.185,3.988-7.304,7.799-9.897C53.166,44.134,50.946,41.017,49.13,36.22z"/>
<path id="path1500" fill="#FF0000" d="M90.131,36.22c-2.404,4.846-4.156,7.345-7.771,10.014c3.422,2.637,5.833,5.362,7.842,9.767
	c1.793-4.185,3.987-7.304,7.799-9.897C94.166,44.134,91.946,41.017,90.131,36.22z"/>
<path id="path1502" fill="#FF0000" d="M68.77,50.22c-2.403,4.846-4.155,7.345-7.77,10.014c3.421,2.637,5.833,5.362,7.84,9.767
	c1.794-4.185,3.988-7.304,7.8-9.897C72.807,58.134,70.586,55.017,68.77,50.22z"/>
<path id="path1504" fill="#FF0000" d="M48.77,71.22c-2.403,4.846-4.155,7.345-7.77,10.014c3.42,2.637,5.833,5.362,7.84,9.767
	c1.794-4.185,3.988-7.304,7.8-9.897C52.806,79.134,50.586,76.017,48.77,71.22z"/>
<path id="path1506" fill="#FF0000" d="M88.131,70.22c-2.404,4.846-4.156,7.345-7.771,10.014c3.422,2.637,5.833,5.362,7.842,9.767
	c1.793-4.185,3.987-7.304,7.799-9.897C92.166,78.134,89.946,75.017,88.131,70.22z"/>
<path id="path1508" fill="#FF0000" d="M89.77,100c-2.402,4.846-4.154,7.344-7.77,10.014c3.421,2.637,5.832,5.361,7.84,9.767
	c1.795-4.185,3.988-7.305,7.801-9.897C93.807,107.914,91.586,104.797,89.77,100z"/>
<path id="path1510" fill="#FF0000" d="M48.13,100c-2.403,4.846-4.156,7.344-7.771,10.014c3.421,2.637,5.833,5.361,7.841,9.767
	c1.793-4.185,3.988-7.305,7.799-9.897C52.166,107.914,49.946,104.797,48.13,100z"/>
<path id="path1512" fill="#FF0000" d="M49.13,130c-2.403,4.846-4.156,7.344-7.771,10.014c3.421,2.637,5.833,5.361,7.841,9.767
	c1.793-4.185,3.988-7.305,7.799-9.897C53.166,137.914,50.946,134.797,49.13,130z"/>
<path id="path1514" fill="#FF0000" d="M68.13,117c-2.403,4.846-4.156,7.344-7.771,10.014c3.421,2.637,5.833,5.361,7.841,9.767
	c1.793-4.185,3.988-7.305,7.799-9.897C72.166,124.914,69.946,121.797,68.13,117z"/>
<path id="path1516" fill="#FF0000" d="M90.131,130.22c-2.404,4.846-4.156,7.345-7.771,10.014c3.422,2.637,5.833,5.362,7.842,9.767
	c1.793-4.185,3.987-7.305,7.799-9.897C94.166,138.135,91.946,135.018,90.131,130.22z"/>
<path id="path1518" fill="#FF0000" d="M118.34,106.303c-4.126,8.245-7.135,12.498-13.34,17.039
	c5.873,4.487,10.013,9.125,13.46,16.621c3.079-7.121,6.847-12.43,13.39-16.844C125.268,119.771,121.457,114.466,118.34,106.303z"/>
<path fill="none" stroke="#000000" stroke-miterlimit="10" d="M134,171.82c0,6.762-5.623,12.244-12.56,12.244H17.298
	c-6.936,0-12.56-5.482-12.56-12.244V17.494c0-6.762,5.624-12.244,12.56-12.244H121.44c6.937,0,12.56,5.482,12.56,12.244V171.82z"/>
</svg>
