<?xml version="1.0" encoding="utf-8"?>
<!-- Generator: Adobe Illustrator 16.0.0, SVG Export Plug-In . SVG Version: 6.00 Build 0)  -->
<!DOCTYPE svg PUBLIC "-//W3C//DTD SVG 1.1//EN" "http://www.w3.org/Graphics/SVG/1.1/DTD/svg11.dtd">
<svg version="1.1"
	 id="svg2" xmlns:dc="http://purl.org/dc/elements/1.1/" xmlns:cc="http://web.resource.org/cc/" xmlns:rdf="http://www.w3.org/1999/02/22-rdf-syntax-ns#" xmlns:svg="http://www.w3.org/2000/svg" xmlns:sodipodi="http://inkscape.sourceforge.net/DTD/sodipodi-0.dtd" xmlns:inkscape="http://www.inkscape.org/namespaces/inkscape" sodipodi:docbase="/home/nicu/Desktop/simple" sodipodi:docname="h_2.svg" inkscape:version="0.41" sodipodi:version="0.32"
	 xmlns="http://www.w3.org/2000/svg" xmlns:xlink="http://www.w3.org/1999/xlink" x="0px" y="0px" width="140px" height="190px"
	 viewBox="0 0 140 190" enable-background="new 0 0 140 190" xml:space="preserve">
<sodipodi:namedview  inkscape:cx="70.000003" inkscape:cy="95.000001" inkscape:zoom="1.9105263" borderopacity="1.0" bordercolor="#666666" pagecolor="#ffffff" id="base" inkscape:window-x="0" inkscape:pageshadow="2" inkscape:pageopacity="0.0" inkscape:window-height="791" inkscape:current-layer="svg2" inkscape:window-y="26" inkscape:window-width="1152">
	</sodipodi:namedview>
<g id="layer1" inkscape:label="Layer 1" inkscape:groupmode="layer">
	<g id="g5630">
		<path id="rect2070" fill-opacity="0.498" d="M21,5h103c8.864,0,16,7.136,16,16v153c0,8.864-7.136,16-16,16H21
			c-8.864,0-16-7.136-16-16V21C5,12.136,12.136,5,21,5z"/>
		<path id="rect1300" fill="#E7E7E7" d="M17,1h103c8.864,0,16,7.136,16,16v153c0,8.864-7.136,16-16,16H17c-8.864,0-16-7.136-16-16
			V17C1,8.136,8.136,1,17,1z"/>
		<path id="path5624" fill="#C7891F" d="M19,3h103c8.864,0,16,7.136,16,16v153c0,8.864-7.136,16-16,16H19c-8.864,0-16-7.136-16-16
			V19C3,10.136,10.136,3,19,3z"/>
		<path id="rect1306" fill="#FFFFFF" d="M18,2h103c8.864,0,16,7.136,16,16v153c0,8.864-7.136,16-16,16H18c-8.864,0-16-7.136-16-16
			V18C2,9.136,9.136,2,18,2z"/>
	</g>
	<g id="g5495" transform="translate(-448.5000,-231.5000)" inkscape:label="Layer 1" inkscape:groupmode="layer">
	</g>
</g>
<path id="text1386" fill="#FF0000" d="M18.8,36.312h10.915v5.687H11.69v-5.687l9.054-9.665c0.809-0.884,1.407-1.748,1.794-2.592
	c0.387-0.844,0.581-1.721,0.581-2.632c0-1.406-0.393-2.538-1.179-3.396c-0.775-0.857-1.811-1.286-3.107-1.286
	c-0.997,0-2.087,0.261-3.273,0.784c-1.185,0.509-2.453,1.272-3.804,2.291v-6.591c1.44-0.576,2.863-1.011,4.27-1.306
	c1.407-0.308,2.786-0.462,4.137-0.462c2.968,0,5.272,0.791,6.911,2.371c1.65,1.581,2.476,3.784,2.476,6.611
	c0,1.634-0.349,3.161-1.047,4.581c-0.698,1.407-2.165,3.295-4.402,5.667L18.8,36.312"/>
<g id="g1390" transform="matrix(0.286388,0.000000,0.000000,0.388772,-29.60833,-9.472414)">
	<path id="path1392" fill="#FF0000" d="M150.703,150.006c-2.803,0.014-5.882,0.52-9.292,1.653
		c-37.167,21.093,12.939,55.106,34.094,84.314l0.61,0.149c23.251-31.924,67.508-67.054,33.692-84.463
		c-26.792-8.9-33.948,20.727-34.198,21.796C175.391,172.523,169.925,149.912,150.703,150.006z"/>
</g>
<path id="text12521" fill="#FF0000" d="M120.064,152.688H109.15v-5.687h18.025v5.687l-9.055,9.665
	c-0.809,0.885-1.406,1.748-1.794,2.592s-0.581,1.722-0.581,2.633c0,1.406,0.393,2.538,1.18,3.396
	c0.775,0.857,1.811,1.286,3.105,1.286c0.998,0,2.088-0.262,3.273-0.783c1.186-0.51,2.453-1.273,3.805-2.291v6.591
	c-1.439,0.575-2.863,1.011-4.27,1.306c-1.406,0.309-2.785,0.463-4.137,0.463c-2.969,0-5.272-0.791-6.912-2.371
	c-1.649-1.581-2.475-3.785-2.475-6.611c0-1.635,0.349-3.161,1.047-4.581c0.697-1.407,2.165-3.296,4.402-5.667L120.064,152.688"/>
<g id="g12525" transform="matrix(-0.286388,0.000000,0.000000,-0.388772,168.4700,198.3135)">
	<path id="path12527" fill="#FF0000" d="M150.703,150.007c-2.803,0.012-5.882,0.52-9.289,1.653
		c-37.168,21.093,12.937,55.106,34.092,84.312l0.61,0.151c23.249-31.927,67.506-67.053,33.69-84.463
		c-26.792-8.9-33.946,20.726-34.198,21.796C175.391,172.521,169.924,149.911,150.703,150.007z"/>
</g>
<g id="g1989">
	<g id="g2352" transform="translate(333.5000,184.5000)">
		<g id="g2020" transform="matrix(0.166355,0.000000,0.000000,0.229660,-293.8061,-168.7277)">
			<path id="path2022" fill="#FF0000" d="M150.703,150.006c-2.803,0.013-5.882,0.521-9.293,1.654
				c-37.165,21.091,12.938,55.104,34.095,84.313l0.611,0.149c23.25-31.924,67.506-67.053,33.687-84.462
				c-26.786-8.902-33.942,20.725-34.195,21.795C175.391,172.521,169.926,149.912,150.703,150.006z"/>
		</g>
	</g>
</g>
<g id="g1861" transform="matrix(-0.166355,0.000000,0.000000,-0.229660,98.30610,170.4476)">
	<path id="path1863" fill="#FF0000" d="M150.7,150.006c-2.8,0.013-5.882,0.519-9.287,1.654
		c-37.171,21.091,12.938,55.104,34.092,84.313l0.61,0.149c23.25-31.926,67.506-67.053,33.69-84.462
		c-26.789-8.904-33.948,20.725-34.198,21.792C175.391,172.522,169.926,149.909,150.7,150.006z"/>
</g>
<path fill="none" stroke="#000000" stroke-miterlimit="10" d="M133.75,171.82c0,6.762-5.623,12.244-12.56,12.244H17.048
	c-6.936,0-12.56-5.482-12.56-12.244V17.494c0-6.762,5.624-12.244,12.56-12.244H121.19c6.937,0,12.56,5.482,12.56,12.244V171.82z"/>
</svg>
