<?xml version="1.0" encoding="utf-8"?>
<!-- Generator: Adobe Illustrator 16.0.0, SVG Export Plug-In . SVG Version: 6.00 Build 0)  -->
<!DOCTYPE svg PUBLIC "-//W3C//DTD SVG 1.1//EN" "http://www.w3.org/Graphics/SVG/1.1/DTD/svg11.dtd">
<svg version="1.1"
	 id="svg2" xmlns:dc="http://purl.org/dc/elements/1.1/" xmlns:cc="http://web.resource.org/cc/" xmlns:rdf="http://www.w3.org/1999/02/22-rdf-syntax-ns#" xmlns:svg="http://www.w3.org/2000/svg" xmlns:sodipodi="http://inkscape.sourceforge.net/DTD/sodipodi-0.dtd" xmlns:inkscape="http://www.inkscape.org/namespaces/inkscape" sodipodi:docbase="/home/nicu/Desktop/simple" sodipodi:docname="h_3.svg" inkscape:version="0.41" sodipodi:version="0.32"
	 xmlns="http://www.w3.org/2000/svg" xmlns:xlink="http://www.w3.org/1999/xlink" x="0px" y="0px" width="140px" height="190px"
	 viewBox="0 0 140 190" enable-background="new 0 0 140 190" xml:space="preserve">
<sodipodi:namedview  inkscape:cx="70.000003" inkscape:cy="95.000001" inkscape:zoom="1.9105263" borderopacity="1.0" bordercolor="#666666" pagecolor="#ffffff" id="base" inkscape:window-x="0" inkscape:pageshadow="2" inkscape:pageopacity="0.0" inkscape:window-height="791" inkscape:current-layer="svg2" inkscape:window-y="26" inkscape:window-width="1152">
	</sodipodi:namedview>
<g id="layer1" inkscape:label="Layer 1" inkscape:groupmode="layer">
	<g id="g5630">
		<path id="rect2070" fill-opacity="0.498" d="M21,5h103c8.864,0,16,7.136,16,16v153c0,8.864-7.136,16-16,16H21
			c-8.864,0-16-7.136-16-16V21C5,12.136,12.136,5,21,5z"/>
		<path id="rect1300" fill="#E7E7E7" d="M17,1h103c8.864,0,16,7.136,16,16v153c0,8.864-7.136,16-16,16H17c-8.864,0-16-7.136-16-16
			V17C1,8.136,8.136,1,17,1z"/>
		<path id="path5624" fill="#C7891F" d="M19,3h103c8.864,0,16,7.136,16,16v153c0,8.864-7.136,16-16,16H19c-8.864,0-16-7.136-16-16
			V19C3,10.136,10.136,3,19,3z"/>
		<path id="rect1306" fill="#FFFFFF" d="M18,2h103c8.864,0,16,7.136,16,16v153c0,8.864-7.136,16-16,16H18c-8.864,0-16-7.136-16-16
			V18C2,9.136,9.136,2,18,2z"/>
	</g>
	<g id="g5495" transform="translate(-448.5000,-231.5000)" inkscape:label="Layer 1" inkscape:groupmode="layer">
	</g>
</g>
<path id="text1386" fill="#FF0000" d="M24.848,25.822c1.672,0.522,2.94,1.434,3.804,2.733c0.875,1.286,1.313,2.927,1.313,4.923
	c0,2.974-0.941,5.238-2.824,6.792c-1.883,1.541-4.629,2.311-8.24,2.311c-1.273,0-2.553-0.127-3.837-0.382
	c-1.274-0.241-2.537-0.609-3.788-1.105v-5.968c1.196,0.723,2.381,1.272,3.555,1.647c1.185,0.362,2.348,0.542,3.489,0.542
	c1.695,0,2.991-0.355,3.888-1.065c0.908-0.71,1.362-1.728,1.362-3.054c0-1.366-0.465-2.398-1.396-3.094
	c-0.919-0.71-2.282-1.065-4.087-1.065h-2.559v-4.983h2.691c1.606,0,2.802-0.301,3.588-0.904c0.787-0.616,1.18-1.547,1.18-2.793
	c0-1.152-0.382-2.042-1.146-2.672c-0.765-0.629-1.844-0.944-3.24-0.944c-1.03,0-2.071,0.141-3.124,0.422
	c-1.052,0.281-2.099,0.697-3.14,1.246v-5.667c1.263-0.429,2.514-0.75,3.754-0.964c1.241-0.214,2.459-0.322,3.655-0.322
	c3.223,0,5.632,0.643,7.227,1.929c1.606,1.272,2.409,3.195,2.409,5.767c0,1.755-0.382,3.195-1.146,4.32
	C27.473,24.583,26.343,25.367,24.848,25.822"/>
<g id="g1390" transform="matrix(0.286388,0.000000,0.000000,0.388772,-29.60833,-9.472414)">
	<path id="path1392" fill="#FF0000" d="M150.703,150.006c-2.803,0.014-5.882,0.52-9.292,1.653
		c-37.167,21.093,12.939,55.106,34.094,84.314l0.61,0.149c23.251-31.924,67.508-67.054,33.692-84.463
		c-26.792-8.9-33.948,20.727-34.198,21.796C175.391,172.523,169.925,149.912,150.703,150.006z"/>
</g>
<path id="text12830" fill="#FF0000" d="M114.018,163.178c-1.672-0.522-2.94-1.434-3.805-2.732c-0.875-1.287-1.313-2.928-1.313-4.924
	c0-2.974,0.941-5.237,2.824-6.791c1.883-1.541,4.631-2.311,8.24-2.311c1.274,0,2.554,0.127,3.838,0.381
	c1.273,0.242,2.537,0.609,3.788,1.105v5.968c-1.196-0.724-2.382-1.272-3.556-1.647c-1.185-0.361-2.348-0.543-3.488-0.543
	c-1.694,0-2.99,0.355-3.888,1.065c-0.908,0.71-1.362,1.728-1.362,3.054c0,1.367,0.465,2.398,1.396,3.095
	c0.919,0.71,2.282,1.065,4.087,1.065h2.559v4.982h-2.691c-1.605,0-2.802,0.302-3.588,0.904c-0.787,0.616-1.18,1.547-1.18,2.793
	c0,1.152,0.382,2.043,1.146,2.673c0.764,0.63,1.844,0.944,3.239,0.944c1.03,0,2.071-0.141,3.123-0.422s2.099-0.697,3.14-1.246v5.666
	c-1.262,0.43-2.514,0.75-3.754,0.965s-2.459,0.322-3.655,0.322c-3.224,0-5.632-0.644-7.227-1.93
	c-1.606-1.272-2.409-3.195-2.409-5.767c0-1.755,0.383-3.194,1.146-4.32C111.393,164.416,112.522,163.633,114.018,163.178"/>
<g id="g12834" transform="matrix(-0.286388,0.000000,0.000000,-0.388772,168.4700,198.3135)">
	<path id="path12836" fill="#FF0000" d="M150.703,150.007c-2.803,0.012-5.882,0.52-9.289,1.653
		c-37.168,21.093,12.937,55.106,34.092,84.312l0.61,0.151c23.249-31.927,67.506-67.053,33.69-84.463
		c-26.792-8.9-33.946,20.726-34.198,21.796C175.391,172.521,169.924,149.911,150.703,150.007z"/>
</g>
<g id="g2364">
	<g id="g2352" transform="translate(333.5000,184.5000)">
	</g>
	<g id="g2569">
	</g>
</g>
<g id="g1861" transform="matrix(0.166355,0.000000,0.000000,0.229660,40.69390,10.77234)">
	<path id="path1863" fill="#FF0000" d="M150.703,150.006c-2.803,0.015-5.882,0.521-9.293,1.654
		c-37.165,21.091,12.938,55.104,34.095,84.313l0.611,0.149c23.25-31.923,67.506-67.053,33.687-84.462
		c-26.786-8.902-33.942,20.725-34.195,21.795C175.391,172.521,169.926,149.912,150.703,150.006z"/>
</g>
<g id="g2406" transform="matrix(0.166355,0.000000,0.000000,0.229660,41.05389,52.55238)">
	<path id="path2408" fill="#FF0000" d="M150.703,150.007c-2.803,0.013-5.882,0.519-9.29,1.652
		c-37.168,21.093,12.938,55.107,34.092,84.315l0.611,0.149c23.247-31.926,67.509-67.055,33.69-84.464
		c-26.786-8.9-33.945,20.728-34.195,21.795C175.39,172.522,169.925,149.911,150.703,150.007z"/>
</g>
<g id="g2410" transform="matrix(-0.166355,0.000000,0.000000,-0.229660,98.30610,177.2277)">
	<path id="path2412" fill="#FF0000" d="M150.7,150.006c-2.8,0.013-5.882,0.519-9.287,1.654
		c-37.171,21.091,12.938,55.104,34.092,84.313l0.61,0.149c23.25-31.926,67.506-67.053,33.69-84.462
		c-26.789-8.9-33.948,20.725-34.198,21.793C175.391,172.521,169.926,149.912,150.7,150.006z"/>
</g>
<path fill="none" stroke="#000000" stroke-miterlimit="10" d="M134,171.32c0,6.762-5.623,12.244-12.56,12.244H17.298
	c-6.936,0-12.56-5.482-12.56-12.244V16.994c0-6.762,5.624-12.244,12.56-12.244H121.44c6.937,0,12.56,5.482,12.56,12.244V171.32z"/>
</svg>
