<?xml version="1.0" encoding="utf-8"?>
<!-- Generator: Adobe Illustrator 16.0.0, SVG Export Plug-In . SVG Version: 6.00 Build 0)  -->
<!DOCTYPE svg PUBLIC "-//W3C//DTD SVG 1.1//EN" "http://www.w3.org/Graphics/SVG/1.1/DTD/svg11.dtd">
<svg version="1.1"
	 id="svg2" xmlns:dc="http://purl.org/dc/elements/1.1/" xmlns:cc="http://web.resource.org/cc/" xmlns:rdf="http://www.w3.org/1999/02/22-rdf-syntax-ns#" xmlns:svg="http://www.w3.org/2000/svg" xmlns:sodipodi="http://inkscape.sourceforge.net/DTD/sodipodi-0.dtd" xmlns:inkscape="http://www.inkscape.org/namespaces/inkscape" sodipodi:docbase="/home/nicu/Desktop/simple" sodipodi:docname="h_5.svg" inkscape:version="0.41" sodipodi:version="0.32"
	 xmlns="http://www.w3.org/2000/svg" xmlns:xlink="http://www.w3.org/1999/xlink" x="0px" y="0px" width="140px" height="190px"
	 viewBox="0 0 140 190" enable-background="new 0 0 140 190" xml:space="preserve">
<sodipodi:namedview  inkscape:cx="70.000003" inkscape:cy="95.000001" inkscape:zoom="1.9105263" borderopacity="1.0" bordercolor="#666666" pagecolor="#ffffff" id="base" inkscape:window-x="0" inkscape:pageshadow="2" inkscape:pageopacity="0.0" inkscape:window-height="791" inkscape:current-layer="svg2" inkscape:window-y="26" inkscape:window-width="1152">
	</sodipodi:namedview>
<g id="layer1" inkscape:label="Layer 1" inkscape:groupmode="layer">
	<g id="g5630">
		<path id="rect2070" fill-opacity="0.498" d="M21,5h103c8.864,0,16,7.136,16,16v153c0,8.864-7.136,16-16,16H21
			c-8.864,0-16-7.136-16-16V21C5,12.136,12.136,5,21,5z"/>
		<path id="rect1300" fill="#E7E7E7" d="M17,1h103c8.864,0,16,7.136,16,16v153c0,8.864-7.136,16-16,16H17c-8.864,0-16-7.136-16-16
			V17C1,8.136,8.136,1,17,1z"/>
		<path id="path5624" fill="#C7891F" d="M19,3h103c8.864,0,16,7.136,16,16v153c0,8.864-7.136,16-16,16H19c-8.864,0-16-7.136-16-16
			V19C3,10.136,10.136,3,19,3z"/>
		<path id="rect1306" fill="#FFFFFF" d="M18,2h103c8.864,0,16,7.136,16,16v153c0,8.864-7.136,16-16,16H18c-8.864,0-16-7.136-16-16
			V18C2,9.136,9.136,2,18,2z"/>
	</g>
	<g id="g5495" transform="translate(-448.5000,-231.5000)" inkscape:label="Layer 1" inkscape:groupmode="layer">
	</g>
</g>
<path id="text1386" fill="#FF0000" d="M12.604,11.998h15.899v5.687H17.704v4.642c0.487-0.161,0.975-0.281,1.462-0.362
	c0.498-0.094,1.013-0.141,1.545-0.141c3.023,0,5.377,0.917,7.061,2.753c1.684,1.822,2.525,4.367,2.525,7.636
	c0,3.242-0.919,5.78-2.758,7.615c-1.828,1.835-4.37,2.753-7.625,2.753c-1.407,0-2.802-0.167-4.187-0.502
	c-1.374-0.321-2.741-0.817-4.104-1.487v-6.088c1.351,0.938,2.63,1.641,3.837,2.11c1.218,0.469,2.365,0.703,3.439,0.703
	c1.551,0,2.769-0.456,3.655-1.366c0.897-0.924,1.345-2.17,1.345-3.737c0-1.581-0.448-2.827-1.345-3.738
	c-0.886-0.911-2.104-1.366-3.655-1.366c-0.919,0-1.899,0.147-2.94,0.442c-1.041,0.281-2.16,0.723-3.356,1.326V11.998"/>
<g id="g1390" transform="matrix(0.286388,0.000000,0.000000,0.388772,-29.60833,-9.472414)">
	<path id="path1392" fill="#FF0000" d="M150.703,150.006c-2.803,0.014-5.882,0.52-9.292,1.653
		c-37.167,21.093,12.939,55.106,34.094,84.314l0.61,0.149c23.251-31.924,67.508-67.054,33.692-84.463
		c-26.792-8.9-33.948,20.727-34.198,21.796C175.391,172.523,169.925,149.912,150.703,150.006z"/>
</g>
<path id="text13635" fill="#FF0000" d="M126.262,177.002h-15.898v-5.687h10.799v-4.642c-0.488,0.16-0.975,0.281-1.463,0.361
	c-0.498,0.094-1.014,0.141-1.545,0.141c-3.023,0-5.377-0.918-7.061-2.752c-1.684-1.822-2.525-4.367-2.525-7.637
	c0-3.241,0.92-5.779,2.758-7.615c1.828-1.835,4.369-2.752,7.626-2.752c1.406,0,2.802,0.167,4.187,0.502
	c1.373,0.321,2.741,0.816,4.104,1.486v6.089c-1.352-0.938-2.631-1.642-3.838-2.11c-1.219-0.469-2.365-0.703-3.439-0.703
	c-1.55,0-2.769,0.456-3.654,1.367c-0.896,0.924-1.346,2.17-1.346,3.736c0,1.581,0.449,2.827,1.346,3.738
	c0.886,0.91,2.104,1.366,3.654,1.366c0.92,0,1.9-0.147,2.941-0.442c1.041-0.281,2.159-0.723,3.355-1.326V177.002"/>
<g id="g13639" transform="matrix(-0.286388,0.000000,0.000000,-0.388772,168.4700,198.3135)">
	<path id="path13641" fill="#FF0000" d="M150.703,150.007c-2.803,0.012-5.882,0.52-9.289,1.653
		c-37.168,21.093,12.937,55.106,34.092,84.312l0.61,0.151c23.249-31.927,67.506-67.053,33.69-84.463
		c-26.792-8.9-33.946,20.726-34.198,21.796C175.391,172.521,169.924,149.911,150.703,150.007z"/>
</g>
<g id="g3558">
	<g id="g2352" transform="translate(333.5000,184.5000)">
	</g>
	<g id="g2569">
		<g id="g3424">
			<g id="g3925" transform="translate(329.5000,183.5000)">
			</g>
		</g>
	</g>
</g>
<g id="g1861" transform="matrix(0.166355,0.000000,0.000000,0.229660,22.05389,10.77234)">
	<path id="path1863" fill="#FF0000" d="M150.703,150.006c-2.803,0.015-5.882,0.521-9.29,1.654
		c-37.168,21.091,12.938,55.104,34.092,84.313l0.611,0.149c23.25-31.923,67.509-67.053,33.69-84.462
		c-26.789-8.902-33.945,20.725-34.195,21.795C175.39,172.521,169.925,149.912,150.703,150.006z"/>
</g>
<g id="g3606" transform="matrix(0.166355,0.000000,0.000000,0.229660,58.05389,10.77234)">
	<path id="path3608" fill="#FF0000" d="M150.703,150.006c-2.8,0.015-5.882,0.521-9.293,1.654
		c-37.165,21.091,12.938,55.104,34.095,84.313l0.61,0.149c23.247-31.923,67.509-67.053,33.69-84.462
		c-26.786-8.902-33.948,20.725-34.195,21.795C175.388,172.522,169.928,149.913,150.703,150.006z"/>
</g>
<g id="g3610" transform="matrix(0.166355,0.000000,0.000000,0.229660,40.69390,47.77234)">
	<path id="path3612" fill="#FF0000" d="M150.704,150.006c-2.803,0.015-5.882,0.521-9.293,1.654
		c-37.165,21.091,12.938,55.104,34.095,84.313l0.611,0.149c23.25-31.924,67.506-67.053,33.687-84.462
		c-26.786-8.902-33.942,20.725-34.195,21.795C175.392,172.522,169.926,149.913,150.704,150.006z"/>
</g>
<g id="g3614" transform="matrix(-0.166355,0.000000,0.000000,-0.229660,82.30610,176.2277)">
	<path id="path3616" fill="#FF0000" d="M150.703,150.005c-2.803,0.013-5.882,0.519-9.293,1.654
		c-37.165,21.091,12.938,55.104,34.095,84.313l0.611,0.149c23.25-31.926,67.506-67.053,33.69-84.462
		c-26.789-8.9-33.948,20.725-34.198,21.792C175.391,172.521,169.925,149.912,150.703,150.005z"/>
</g>
<g id="g3618" transform="matrix(-0.166355,0.000000,0.000000,-0.229660,117.3061,176.2277)">
	<path id="path3620" fill="#FF0000" d="M150.7,150.005c-2.8,0.013-5.882,0.519-9.287,1.654
		c-37.171,21.091,12.938,55.104,34.095,84.313l0.61,0.149c23.247-31.926,67.503-67.053,33.684-84.462
		c-26.786-8.9-33.942,20.725-34.195,21.792C175.391,172.521,169.926,149.912,150.7,150.005z"/>
</g>
<path fill="none" stroke="#000000" stroke-miterlimit="10" d="M134,171.82c0,6.762-5.623,12.244-12.56,12.244H17.298
	c-6.936,0-12.56-5.482-12.56-12.244V17.494c0-6.762,5.624-12.244,12.56-12.244H121.44c6.937,0,12.56,5.482,12.56,12.244V171.82z"/>
</svg>
