<?xml version="1.0" encoding="utf-8"?>
<!-- Generator: Adobe Illustrator 16.0.0, SVG Export Plug-In . SVG Version: 6.00 Build 0)  -->
<!DOCTYPE svg PUBLIC "-//W3C//DTD SVG 1.1//EN" "http://www.w3.org/Graphics/SVG/1.1/DTD/svg11.dtd">
<svg version="1.1"
	 id="svg2" xmlns:dc="http://purl.org/dc/elements/1.1/" xmlns:cc="http://web.resource.org/cc/" xmlns:rdf="http://www.w3.org/1999/02/22-rdf-syntax-ns#" xmlns:svg="http://www.w3.org/2000/svg" xmlns:sodipodi="http://inkscape.sourceforge.net/DTD/sodipodi-0.dtd" xmlns:inkscape="http://www.inkscape.org/namespaces/inkscape" sodipodi:docbase="/home/nicu/Desktop/simple" sodipodi:docname="h_6.svg" inkscape:version="0.41" sodipodi:version="0.32"
	 xmlns="http://www.w3.org/2000/svg" xmlns:xlink="http://www.w3.org/1999/xlink" x="0px" y="0px" width="140px" height="190px"
	 viewBox="0 0 140 190" enable-background="new 0 0 140 190" xml:space="preserve">
<sodipodi:namedview  inkscape:cx="70.000003" inkscape:cy="95.000001" inkscape:zoom="1.9105263" borderopacity="1.0" bordercolor="#666666" pagecolor="#ffffff" id="base" inkscape:window-x="0" inkscape:pageshadow="2" inkscape:pageopacity="0.0" inkscape:window-height="791" inkscape:current-layer="svg2" inkscape:window-y="26" inkscape:window-width="1152">
	</sodipodi:namedview>
<g id="layer1" inkscape:label="Layer 1" inkscape:groupmode="layer">
	<g id="g5630">
		<path id="rect2070" fill-opacity="0.498" d="M21,5h103c8.864,0,16,7.136,16,16v153c0,8.864-7.136,16-16,16H21
			c-8.864,0-16-7.136-16-16V21C5,12.136,12.136,5,21,5z"/>
		<path id="rect1300" fill="#E7E7E7" d="M17,1h103c8.864,0,16,7.136,16,16v153c0,8.864-7.136,16-16,16H17c-8.864,0-16-7.136-16-16
			V17C1,8.136,8.136,1,17,1z"/>
		<path id="path5624" fill="#C7891F" d="M19,3h103c8.864,0,16,7.136,16,16v153c0,8.864-7.136,16-16,16H19c-8.864,0-16-7.136-16-16
			V19C3,10.136,10.136,3,19,3z"/>
		<path id="rect1306" fill="#FFFFFF" d="M18,2h103c8.864,0,16,7.136,16,16v153c0,8.864-7.136,16-16,16H18c-8.864,0-16-7.136-16-16
			V18C2,9.136,9.136,2,18,2z"/>
	</g>
	<g id="g5495" transform="translate(-448.5000,-231.5000)" inkscape:label="Layer 1" inkscape:groupmode="layer">
	</g>
</g>
<path id="text1386" fill="#FF0000" d="M21.309,27.189c-1.119,0-1.96,0.442-2.525,1.326c-0.554,0.871-0.831,2.184-0.831,3.938
	c0,1.755,0.277,3.075,0.831,3.958c0.565,0.871,1.407,1.306,2.525,1.306c1.129,0,1.971-0.435,2.525-1.306
	c0.565-0.884,0.848-2.204,0.848-3.958c0-1.754-0.283-3.067-0.848-3.938C23.28,27.631,22.438,27.189,21.309,27.189 M29.217,12.782
	v5.546c-1.052-0.603-2.043-1.045-2.974-1.326c-0.931-0.295-1.839-0.442-2.725-0.442c-1.905,0-3.389,0.643-4.452,1.929
	c-1.063,1.272-1.684,3.168-1.861,5.687c0.731-0.656,1.523-1.146,2.375-1.467c0.853-0.335,1.783-0.502,2.791-0.502
	c2.537,0,4.58,0.897,6.13,2.693c1.562,1.795,2.342,4.146,2.342,7.053c0,3.215-0.869,5.793-2.608,7.736
	c-1.739,1.929-4.07,2.894-6.994,2.894c-3.223,0-5.721-1.313-7.493-3.938c-1.761-2.639-2.642-6.376-2.642-11.212
	c0-4.957,1.03-8.848,3.09-11.674c2.071-2.84,4.907-4.26,8.506-4.26c1.141,0,2.248,0.107,3.323,0.322
	C27.102,12.032,28.165,12.353,29.217,12.782"/>
<g id="g1390" transform="matrix(0.286388,0.000000,0.000000,0.388772,-29.60833,-9.472414)">
	<path id="path1392" fill="#FF0000" d="M150.703,150.006c-2.803,0.014-5.882,0.52-9.292,1.653
		c-37.167,21.093,12.939,55.106,34.094,84.314l0.61,0.149c23.251-31.924,67.508-67.054,33.692-84.463
		c-26.792-8.9-33.948,20.727-34.198,21.796C175.391,172.523,169.925,149.912,150.703,150.006z"/>
</g>
<path id="text14132" fill="#FF0000" d="M117.557,161.811c1.119,0,1.96-0.441,2.525-1.326c0.554-0.87,0.83-2.184,0.83-3.938
	c0-1.755-0.276-3.074-0.83-3.959c-0.565-0.871-1.406-1.306-2.525-1.306c-1.13,0-1.972,0.435-2.525,1.306
	c-0.564,0.885-0.848,2.204-0.848,3.959c0,1.754,0.283,3.067,0.848,3.938C115.585,161.369,116.427,161.811,117.557,161.811
	 M109.648,176.219v-5.547c1.053,0.604,2.043,1.045,2.975,1.326c0.93,0.295,1.838,0.442,2.724,0.442c1.905,0,3.39-0.644,4.452-1.929
	c1.063-1.272,1.684-3.168,1.861-5.687c-0.73,0.656-1.523,1.146-2.376,1.467c-0.853,0.335-1.783,0.503-2.791,0.503
	c-2.536,0-4.579-0.898-6.13-2.693c-1.563-1.795-2.343-4.146-2.343-7.053c0-3.215,0.87-5.793,2.608-7.736
	c1.738-1.929,4.07-2.893,6.994-2.893c3.223,0,5.721,1.313,7.492,3.938c1.762,2.639,2.642,6.377,2.642,11.213
	c0,4.956-1.03,8.848-3.09,11.674c-2.071,2.84-4.906,4.26-8.506,4.26c-1.142,0-2.249-0.107-3.323-0.321
	S110.701,176.646,109.648,176.219"/>
<g id="g14136" transform="matrix(-0.286429,0.000000,0.000000,-0.388772,168.4791,198.3135)">
	<path id="path14138" fill="#FF0000" d="M150.706,150.007c-2.806,0.013-5.885,0.52-9.294,1.653
		c-37.166,21.093,12.939,55.106,34.094,84.312l0.61,0.151c23.249-31.927,67.507-67.053,33.689-84.463
		c-26.791-8.9-33.944,20.726-34.197,21.796C175.391,172.521,169.925,149.911,150.706,150.007z"/>
</g>
<g id="g4151">
	<g id="g2352" transform="translate(333.5000,184.5000)">
	</g>
	<g id="g2569">
		<g id="g3424">
			<g id="g3925" transform="translate(329.5000,183.5000)">
			</g>
			<g id="g4557" transform="translate(325.5000,242.5000)">
			</g>
		</g>
	</g>
</g>
<g id="g1861" transform="matrix(0.166355,0.000000,0.000000,0.229660,22.05389,10.55238)">
	<path id="path1863" fill="#FF0000" d="M150.703,150.007c-2.803,0.013-5.882,0.519-9.29,1.652
		c-37.168,21.093,12.938,55.106,34.092,84.313l0.611,0.151c23.25-31.926,67.509-67.055,33.69-84.464
		c-26.789-8.9-33.945,20.727-34.195,21.795C175.39,172.522,169.925,149.911,150.703,150.007z"/>
</g>
<g id="g4204" transform="matrix(0.166355,0.000000,0.000000,0.229660,58.05389,10.77234)">
	<path id="path4206" fill="#FF0000" d="M150.703,150.006c-2.8,0.015-5.882,0.521-9.293,1.654
		c-37.165,21.091,12.938,55.104,34.095,84.313l0.61,0.149c23.247-31.923,67.509-67.053,33.69-84.462
		c-26.786-8.902-33.948,20.725-34.195,21.795C175.388,172.522,169.928,149.913,150.703,150.006z"/>
</g>
<g id="g4208" transform="matrix(0.166355,0.000000,0.000000,0.229660,22.05389,46.77234)">
	<path id="path4210" fill="#FF0000" d="M150.703,150.006c-2.803,0.015-5.882,0.521-9.29,1.654
		c-37.168,21.091,12.938,55.104,34.092,84.313l0.611,0.149c23.25-31.924,67.509-67.053,33.69-84.462
		c-26.789-8.902-33.945,20.725-34.195,21.795C175.391,172.522,169.925,149.913,150.703,150.006z"/>
</g>
<g id="g4212" transform="matrix(-0.166355,0.000000,0.000000,-0.229660,115.9461,135.4476)">
	<path id="path4214" fill="#FF0000" d="M150.702,150.006c-2.8,0.013-5.882,0.519-9.293,1.654
		c-37.165,21.091,12.938,55.104,34.095,84.311l0.611,0.151c23.247-31.926,67.509-67.053,33.69-84.462
		c-26.786-8.904-33.948,20.725-34.195,21.792C175.387,172.521,169.928,149.908,150.702,150.006z"/>
</g>
<g id="g4216" transform="matrix(-0.166355,0.000000,0.000000,-0.229660,82.30610,176.2277)">
	<path id="path4218" fill="#FF0000" d="M150.703,150.005c-2.803,0.013-5.882,0.519-9.293,1.654
		c-37.165,21.091,12.938,55.104,34.095,84.313l0.611,0.149c23.25-31.926,67.506-67.053,33.69-84.462
		c-26.789-8.9-33.948,20.725-34.198,21.792C175.391,172.52,169.925,149.911,150.703,150.005z"/>
</g>
<g id="g4220" transform="matrix(-0.166355,0.000000,0.000000,-0.229660,117.3061,176.2277)">
	<path id="path4222" fill="#FF0000" d="M150.7,150.005c-2.8,0.013-5.882,0.519-9.287,1.654
		c-37.171,21.091,12.938,55.104,34.095,84.313l0.61,0.149c23.247-31.926,67.503-67.053,33.684-84.462
		c-26.786-8.9-33.942,20.725-34.195,21.792C175.391,172.52,169.926,149.911,150.7,150.005z"/>
</g>
<path fill="none" stroke="#000000" stroke-miterlimit="10" d="M134.25,171.821c0,6.762-5.623,12.244-12.56,12.244H17.548
	c-6.936,0-12.56-5.482-12.56-12.244V17.494c0-6.762,5.624-12.244,12.56-12.244H121.69c6.937,0,12.56,5.482,12.56,12.244V171.821z"/>
</svg>
