<?xml version="1.0" encoding="utf-8"?>
<!-- Generator: Adobe Illustrator 16.0.0, SVG Export Plug-In . SVG Version: 6.00 Build 0)  -->
<!DOCTYPE svg PUBLIC "-//W3C//DTD SVG 1.1//EN" "http://www.w3.org/Graphics/SVG/1.1/DTD/svg11.dtd">
<svg version="1.1"
	 id="svg2" xmlns:dc="http://purl.org/dc/elements/1.1/" xmlns:cc="http://web.resource.org/cc/" xmlns:rdf="http://www.w3.org/1999/02/22-rdf-syntax-ns#" xmlns:svg="http://www.w3.org/2000/svg" xmlns:sodipodi="http://inkscape.sourceforge.net/DTD/sodipodi-0.dtd" xmlns:inkscape="http://www.inkscape.org/namespaces/inkscape" sodipodi:docbase="/home/nicu/Desktop/simple" sodipodi:docname="h_8.svg" inkscape:version="0.41" sodipodi:version="0.32"
	 xmlns="http://www.w3.org/2000/svg" xmlns:xlink="http://www.w3.org/1999/xlink" x="0px" y="0px" width="140px" height="190px"
	 viewBox="0 0 140 190" enable-background="new 0 0 140 190" xml:space="preserve">
<sodipodi:namedview  inkscape:cx="70.000003" inkscape:cy="95.000001" inkscape:zoom="1.9105263" borderopacity="1.0" bordercolor="#666666" pagecolor="#ffffff" id="base" inkscape:window-x="0" inkscape:pageshadow="2" inkscape:pageopacity="0.0" inkscape:window-height="791" inkscape:current-layer="svg2" inkscape:window-y="26" inkscape:window-width="1152">
	</sodipodi:namedview>
<g id="layer1" inkscape:label="Layer 1" inkscape:groupmode="layer">
	<g id="g5630">
		<path id="rect2070" fill-opacity="0.498" d="M21,5h103c8.864,0,16,7.136,16,16v153c0,8.864-7.136,16-16,16H21
			c-8.864,0-16-7.136-16-16V21C5,12.136,12.136,5,21,5z"/>
		<path id="rect1300" fill="#E7E7E7" d="M17,1h103c8.864,0,16,7.136,16,16v153c0,8.864-7.136,16-16,16H17c-8.864,0-16-7.136-16-16
			V17C1,8.136,8.136,1,17,1z"/>
		<path id="path5624" fill="#C7891F" d="M19,3h103c8.864,0,16,7.136,16,16v153c0,8.864-7.136,16-16,16H19c-8.864,0-16-7.136-16-16
			V19C3,10.136,10.136,3,19,3z"/>
		<path id="rect1306" fill="#FFFFFF" d="M18,2h103c8.864,0,16,7.136,16,16v153c0,8.864-7.136,16-16,16H18c-8.864,0-16-7.136-16-16
			V18C2,9.136,9.136,2,18,2z"/>
	</g>
	<g id="g5495" transform="translate(-448.5000,-231.5000)" inkscape:label="Layer 1" inkscape:groupmode="layer">
	</g>
</g>
<path id="text1386" fill="#FF0000" d="M20.844,28.575c-1.196,0-2.115,0.396-2.758,1.186c-0.643,0.791-0.963,1.922-0.963,3.396
	s0.321,2.605,0.963,3.396c0.643,0.777,1.562,1.166,2.758,1.166c1.185,0,2.093-0.388,2.725-1.166c0.631-0.79,0.947-1.922,0.947-3.396
	c0-1.487-0.315-2.619-0.947-3.396C22.937,28.971,22.029,28.575,20.844,28.575 M16.175,26.023c-1.506-0.549-2.641-1.393-3.406-2.532
	c-0.764-1.139-1.146-2.559-1.146-4.26c0-2.532,0.781-4.461,2.342-5.787s3.854-1.989,6.878-1.989c3.001,0,5.283,0.663,6.845,1.989
	c1.562,1.313,2.342,3.242,2.342,5.787c0,1.701-0.388,3.121-1.163,4.26c-0.765,1.139-1.899,1.982-3.406,2.532
	c1.683,0.563,2.952,1.48,3.804,2.753c0.864,1.259,1.296,2.853,1.296,4.782c0,2.974-0.819,5.224-2.458,6.751
	c-1.628,1.514-4.048,2.271-7.26,2.271c-3.223,0-5.66-0.757-7.31-2.271c-1.639-1.527-2.459-3.778-2.459-6.751
	c0-1.929,0.426-3.523,1.279-4.782C13.218,27.504,14.492,26.586,16.175,26.023 M17.671,20.016c0,1.192,0.271,2.11,0.814,2.752
	c0.554,0.643,1.34,0.965,2.359,0.965c0.997,0,1.767-0.322,2.309-0.965c0.543-0.643,0.814-1.561,0.814-2.752
	c0-1.192-0.271-2.104-0.814-2.733c-0.542-0.643-1.312-0.964-2.309-0.964c-1.019,0-1.805,0.321-2.359,0.964
	C17.942,17.926,17.671,18.837,17.671,20.016"/>
<g id="g1390" transform="matrix(0.286388,0.000000,0.000000,0.388772,-29.60833,-9.472414)">
	<path id="path1392" fill="#FF0000" d="M150.703,150.006c-2.803,0.014-5.882,0.52-9.292,1.653
		c-37.167,21.093,12.939,55.106,34.094,84.314l0.61,0.149c23.251-31.924,67.508-67.054,33.692-84.463
		c-26.792-8.9-33.948,20.727-34.198,21.796C175.391,172.523,169.925,149.912,150.703,150.006z"/>
</g>
<path id="text15077" fill="#FF0000" d="M118.021,160.425c1.196,0,2.115-0.396,2.758-1.186s0.964-1.923,0.964-3.396
	c0-1.475-0.321-2.605-0.964-3.396c-0.643-0.777-1.562-1.165-2.758-1.165c-1.186,0-2.094,0.388-2.725,1.165
	c-0.631,0.791-0.947,1.922-0.947,3.396c0,1.486,0.316,2.618,0.947,3.396C115.928,160.029,116.836,160.425,118.021,160.425
	 M122.689,162.977c1.507,0.549,2.643,1.393,3.406,2.531s1.146,2.559,1.146,4.26c0,2.532-0.781,4.461-2.343,5.787
	s-3.854,1.99-6.878,1.99c-3.002,0-5.283-0.664-6.845-1.99c-1.562-1.313-2.343-3.241-2.343-5.787c0-1.701,0.389-3.121,1.164-4.26
	c0.764-1.139,1.898-1.982,3.405-2.531c-1.684-0.563-2.952-1.48-3.805-2.753c-0.864-1.259-1.296-2.853-1.296-4.782
	c0-2.974,0.82-5.225,2.459-6.752c1.628-1.514,4.048-2.27,7.26-2.27c3.223,0,5.66,0.756,7.311,2.27
	c1.639,1.527,2.458,3.778,2.458,6.752c0,1.93-0.427,3.523-1.278,4.782C125.646,161.496,124.373,162.414,122.689,162.977
	 M121.195,168.984c0-1.192-0.271-2.109-0.814-2.753c-0.554-0.643-1.34-0.964-2.359-0.964c-0.996,0-1.767,0.321-2.309,0.964
	c-0.543,0.644-0.814,1.561-0.814,2.753s0.271,2.104,0.814,2.732c0.542,0.644,1.313,0.965,2.309,0.965
	c1.02,0,1.806-0.321,2.359-0.965C120.924,171.074,121.195,170.163,121.195,168.984"/>
<g id="g15081" transform="matrix(-0.286388,0.000000,0.000000,-0.388772,168.4700,198.3135)">
	<path id="path15083" fill="#FF0000" d="M150.703,150.007c-2.803,0.012-5.882,0.52-9.289,1.653
		c-37.168,21.093,12.937,55.106,34.092,84.312l0.61,0.151c23.249-31.927,67.506-67.053,33.69-84.463
		c-26.792-8.9-33.946,20.726-34.198,21.796C175.391,172.521,169.924,149.911,150.703,150.007z"/>
</g>
<g id="g5202">
	<g id="g5581" transform="translate(351.5000,184.5000)">
	</g>
</g>
<g id="g1861" transform="matrix(0.166355,0.000000,0.000000,0.229660,19.05389,5.772344)">
	<path id="path1863" fill="#FF0000" d="M150.703,150.006c-2.803,0.015-5.882,0.521-9.29,1.654
		c-37.168,21.091,12.938,55.104,34.092,84.313l0.611,0.149c23.25-31.923,67.509-67.053,33.69-84.462
		c-26.789-8.902-33.945,20.725-34.195,21.795C175.39,172.521,169.925,149.912,150.703,150.006z"/>
</g>
<g id="g5250" transform="matrix(0.166355,0.000000,0.000000,0.229660,58.05389,5.552379)">
	<path id="path5252" fill="#FF0000" d="M150.703,150.007c-2.8,0.013-5.882,0.519-9.293,1.652
		c-37.165,21.093,12.938,55.106,34.095,84.313l0.61,0.151c23.247-31.926,67.509-67.055,33.69-84.464
		c-26.786-8.9-33.948,20.727-34.195,21.795C175.388,172.522,169.928,149.911,150.703,150.007z"/>
</g>
<g id="g5254" transform="matrix(0.166355,0.000000,0.000000,0.229660,19.69390,36.77234)">
	<path id="path5256" fill="#FF0000" d="M150.704,150.006c-2.803,0.015-5.882,0.521-9.293,1.654
		c-37.165,21.091,12.938,55.104,34.095,84.313l0.61,0.149c23.25-31.924,67.506-67.053,33.69-84.462
		c-26.789-8.902-33.948,20.725-34.198,21.795C175.392,172.521,169.926,149.913,150.704,150.006z"/>
</g>
<g id="g5258" transform="matrix(0.166355,0.000000,0.000000,0.229660,59.05389,35.77234)">
	<path id="path5260" fill="#FF0000" d="M150.703,150.006c-2.8,0.015-5.882,0.521-9.293,1.654
		c-37.165,21.091,12.938,55.104,34.095,84.313l0.61,0.149c23.247-31.924,67.509-67.053,33.69-84.462
		c-26.786-8.902-33.948,20.725-34.195,21.795C175.388,172.521,169.929,149.913,150.703,150.006z"/>
</g>
<g id="g5262" transform="matrix(-0.166355,0.000000,0.000000,-0.229660,78.30610,154.2277)">
	<path id="path5264" fill="#FF0000" d="M150.702,150.005c-2.803,0.013-5.882,0.519-9.293,1.654
		c-37.165,21.091,12.938,55.104,34.095,84.313l0.611,0.149c23.25-31.926,67.506-67.053,33.69-84.462
		c-26.789-8.9-33.948,20.725-34.198,21.792C175.39,172.521,169.925,149.912,150.702,150.005z"/>
</g>
<g id="g5266" transform="matrix(-0.166355,0.000000,0.000000,-0.229660,78.94611,181.2277)">
	<path id="path5268" fill="#FF0000" d="M150.702,150.005c-2.803,0.013-5.882,0.519-9.29,1.654
		c-37.168,21.091,12.938,55.104,34.092,84.313l0.611,0.149c23.25-31.926,67.509-67.053,33.69-84.462
		c-26.79-8.9-33.945,20.725-34.195,21.793C175.39,172.521,169.924,149.912,150.702,150.005z"/>
</g>
<g id="g5270" transform="matrix(-0.166355,0.000000,0.000000,-0.229660,116.3061,181.2277)">
	<path id="path5272" fill="#FF0000" d="M150.7,150.005c-2.8,0.013-5.882,0.519-9.287,1.654
		c-37.171,21.091,12.938,55.104,34.095,84.313l0.61,0.149c23.247-31.926,67.503-67.053,33.684-84.462
		c-26.786-8.9-33.942,20.725-34.195,21.793C175.39,172.521,169.925,149.912,150.7,150.005z"/>
</g>
<g id="g5274" transform="matrix(-0.166355,0.000000,0.000000,-0.229660,117.9461,153.4476)">
	<path id="path5276" fill="#FF0000" d="M150.702,150.006c-2.8,0.013-5.882,0.519-9.293,1.654
		c-37.165,21.091,12.938,55.104,34.095,84.313l0.611,0.149c23.247-31.926,67.509-67.053,33.69-84.462
		c-26.786-8.904-33.948,20.725-34.195,21.792C175.386,172.521,169.927,149.908,150.702,150.006z"/>
</g>
<path fill="none" stroke="#000000" stroke-miterlimit="10" d="M134,171.57c0,6.762-5.623,12.244-12.56,12.244H17.298
	c-6.936,0-12.56-5.482-12.56-12.244V17.244C4.738,10.482,10.362,5,17.298,5h104.143C128.377,5,134,10.482,134,17.244V171.57z"/>
</svg>
