<?xml version="1.0" encoding="utf-8"?>
<!-- Generator: Adobe Illustrator 16.0.0, SVG Export Plug-In . SVG Version: 6.00 Build 0)  -->
<!DOCTYPE svg PUBLIC "-//W3C//DTD SVG 1.1//EN" "http://www.w3.org/Graphics/SVG/1.1/DTD/svg11.dtd">
<svg version="1.1"
	 id="svg2" xmlns:dc="http://purl.org/dc/elements/1.1/" xmlns:cc="http://web.resource.org/cc/" xmlns:rdf="http://www.w3.org/1999/02/22-rdf-syntax-ns#" xmlns:svg="http://www.w3.org/2000/svg" xmlns:sodipodi="http://inkscape.sourceforge.net/DTD/sodipodi-0.dtd" xmlns:inkscape="http://www.inkscape.org/namespaces/inkscape" sodipodi:docbase="/home/nicu/Desktop/simple" sodipodi:docname="h_9.svg" inkscape:version="0.41" sodipodi:version="0.32"
	 xmlns="http://www.w3.org/2000/svg" xmlns:xlink="http://www.w3.org/1999/xlink" x="0px" y="0px" width="140px" height="190px"
	 viewBox="0 0 140 190" enable-background="new 0 0 140 190" xml:space="preserve">
<sodipodi:namedview  inkscape:cx="70.000003" inkscape:cy="95.000001" inkscape:zoom="1.9105263" borderopacity="1.0" bordercolor="#666666" pagecolor="#ffffff" id="base" inkscape:window-x="0" inkscape:pageshadow="2" inkscape:pageopacity="0.0" inkscape:window-height="791" inkscape:current-layer="svg2" inkscape:window-y="26" inkscape:window-width="1152">
	</sodipodi:namedview>
<g id="layer1" inkscape:label="Layer 1" inkscape:groupmode="layer">
	<g id="g5630">
		<path id="rect2070" fill-opacity="0.498" d="M21,5h103c8.864,0,16,7.136,16,16v153c0,8.864-7.136,16-16,16H21
			c-8.864,0-16-7.136-16-16V21C5,12.136,12.136,5,21,5z"/>
		<path id="rect1300" fill="#E7E7E7" d="M17,1h103c8.864,0,16,7.136,16,16v153c0,8.864-7.136,16-16,16H17c-8.864,0-16-7.136-16-16
			V17C1,8.136,8.136,1,17,1z"/>
		<path id="path5624" fill="#C7891F" d="M19,3h103c8.864,0,16,7.136,16,16v153c0,8.864-7.136,16-16,16H19c-8.864,0-16-7.136-16-16
			V19C3,10.136,10.136,3,19,3z"/>
		<path id="rect1306" fill="#FFFFFF" d="M18,2h103c8.864,0,16,7.136,16,16v153c0,8.864-7.136,16-16,16H18c-8.864,0-16-7.136-16-16
			V18C2,9.136,9.136,2,18,2z"/>
	</g>
	<g id="g5495" transform="translate(-448.5000,-231.5000)" inkscape:label="Layer 1" inkscape:groupmode="layer">
	</g>
</g>
<path id="text1386" fill="#FF0000" d="M12.404,41.335v-5.546c1.019,0.576,1.994,1.011,2.924,1.306
	c0.93,0.282,1.85,0.422,2.758,0.422c1.905,0,3.389-0.636,4.453-1.909c1.063-1.286,1.689-3.188,1.877-5.707
	c-0.753,0.67-1.556,1.172-2.409,1.507c-0.853,0.334-1.778,0.502-2.774,0.502c-2.537,0-4.585-0.891-6.147-2.672
	c-1.551-1.795-2.326-4.152-2.326-7.073c0-3.229,0.864-5.814,2.591-7.756c1.739-1.942,4.065-2.914,6.978-2.914
	c3.234,0,5.737,1.32,7.509,3.958c1.772,2.639,2.658,6.37,2.658,11.192c0,4.956-1.036,8.854-3.106,11.694
	c-2.071,2.826-4.912,4.24-8.523,4.24c-1.163,0-2.276-0.107-3.339-0.322C14.464,42.058,13.423,41.75,12.404,41.335 M20.295,26.888
	c1.119,0,1.96-0.436,2.525-1.306c0.565-0.884,0.847-2.204,0.847-3.958c0-1.742-0.282-3.054-0.847-3.938s-1.407-1.326-2.525-1.326
	s-1.96,0.442-2.525,1.326c-0.565,0.884-0.848,2.197-0.848,3.938c0,1.755,0.283,3.074,0.848,3.958
	C18.335,26.452,19.177,26.888,20.295,26.888"/>
<g id="g1390" transform="matrix(0.286388,0.000000,0.000000,0.388772,-29.60833,-9.472414)">
	<path id="path1392" fill="#FF0000" d="M150.703,150.006c-2.803,0.014-5.882,0.52-9.292,1.653
		c-37.167,21.093,12.939,55.106,34.094,84.314l0.61,0.149c23.251-31.924,67.508-67.054,33.692-84.463
		c-26.792-8.9-33.948,20.727-34.198,21.796C175.391,172.523,169.925,149.912,150.703,150.006z"/>
</g>
<path id="text15424" fill="#FF0000" d="M126.461,147.665v5.546c-1.019-0.576-1.993-1.012-2.924-1.307
	c-0.93-0.281-1.85-0.422-2.758-0.422c-1.904,0-3.389,0.637-4.452,1.909c-1.063,1.286-1.688,3.188-1.878,5.707
	c0.754-0.67,1.557-1.173,2.41-1.507c0.852-0.336,1.777-0.503,2.773-0.503c2.537,0,4.586,0.892,6.147,2.673
	c1.55,1.795,2.325,4.152,2.325,7.072c0,3.229-0.863,5.814-2.592,7.757c-1.738,1.942-4.064,2.913-6.977,2.913
	c-3.234,0-5.737-1.319-7.51-3.958c-1.771-2.64-2.658-6.37-2.658-11.192c0-4.956,1.035-8.854,3.107-11.694
	c2.07-2.827,4.912-4.239,8.521-4.239c1.164,0,2.276,0.106,3.34,0.32C124.401,146.941,125.442,147.25,126.461,147.665
	 M118.57,162.112c-1.119,0-1.961,0.436-2.525,1.306c-0.564,0.885-0.848,2.204-0.848,3.959c0,1.741,0.283,3.055,0.848,3.938
	s1.406,1.326,2.525,1.326c1.118,0,1.96-0.442,2.525-1.326c0.564-0.884,0.847-2.197,0.847-3.938c0-1.755-0.282-3.074-0.847-3.959
	C120.53,162.548,119.688,162.112,118.57,162.112"/>
<g id="g15428" transform="matrix(-0.286388,0.000000,0.000000,-0.388772,168.4700,198.3135)">
	<path id="path15430" fill="#FF0000" d="M150.703,150.007c-2.803,0.012-5.882,0.52-9.289,1.653
		c-37.168,21.093,12.937,55.106,34.092,84.312l0.61,0.151c23.249-31.927,67.506-67.053,33.69-84.463
		c-26.792-8.9-33.946,20.726-34.198,21.796C175.391,172.521,169.924,149.911,150.703,150.007z"/>
</g>
<g id="g6860" transform="translate(352.5000,189.5000)">
	<g id="g6908" transform="matrix(0.166355,0.000000,0.000000,0.229660,-313.4461,-138.7277)">
		<path id="path6910" fill="#FF0000" d="M150.703,150.006c-2.803,0.013-5.882,0.521-9.29,1.654
			c-37.168,21.091,12.938,55.104,34.092,84.313l0.611,0.149c23.247-31.926,67.509-67.053,33.69-84.462
			c-26.79-8.902-33.945,20.725-34.195,21.795C175.39,172.521,169.925,149.913,150.703,150.006z"/>
	</g>
	<g id="g5202">
		<g id="g5581" transform="translate(351.5000,184.5000)">
		</g>
	</g>
	<g id="g6888" transform="matrix(0.166355,0.000000,0.000000,0.229660,-333.4461,-183.7277)">
		<path id="path6890" fill="#FF0000" d="M150.702,150.006c-2.803,0.013-5.882,0.521-9.29,1.654
			c-37.168,21.091,12.938,55.104,34.092,84.313l0.611,0.149c23.25-31.923,67.509-67.053,33.69-84.462
			c-26.789-8.902-33.945,20.725-34.195,21.795C175.39,172.521,169.925,149.912,150.702,150.006z"/>
	</g>
	<g id="g5250" transform="matrix(0.166355,0.000000,0.000000,0.229660,-294.4461,-183.9476)">
		<path id="path5252" fill="#FF0000" d="M150.702,150.007c-2.8,0.013-5.882,0.519-9.293,1.652
			c-37.165,21.093,12.938,55.106,34.095,84.313l0.61,0.151c23.247-31.926,67.509-67.055,33.69-84.464
			c-26.786-8.9-33.948,20.727-34.195,21.795C175.387,172.522,169.928,149.911,150.702,150.007z"/>
	</g>
	<g id="g5254" transform="matrix(0.166355,0.000000,0.000000,0.229660,-332.8061,-152.7277)">
		<path id="path5256" fill="#FF0000" d="M150.703,150.006c-2.803,0.013-5.882,0.521-9.293,1.654
			c-37.165,21.091,12.938,55.104,34.095,84.313l0.61,0.149c23.25-31.924,67.509-67.053,33.69-84.462
			c-26.789-8.902-33.945,20.725-34.198,21.795C175.391,172.521,169.926,149.913,150.703,150.006z"/>
	</g>
	<g id="g5258" transform="matrix(0.166355,0.000000,0.000000,0.229660,-293.4461,-153.7277)">
		<path id="path5260" fill="#FF0000" d="M150.702,150.006c-2.8,0.013-5.882,0.521-9.293,1.654
			c-37.165,21.091,12.938,55.104,34.095,84.313l0.61,0.149c23.247-31.924,67.509-67.053,33.69-84.462
			c-26.786-8.902-33.948,20.725-34.195,21.795C175.387,172.521,169.928,149.913,150.702,150.006z"/>
	</g>
	<g id="g5262" transform="matrix(-0.166355,0.000000,0.000000,-0.229660,-274.1939,-35.27230)">
		<path id="path5264" fill="#FF0000" d="M150.703,150.006c-2.803,0.013-5.882,0.519-9.293,1.654
			c-37.165,21.091,12.938,55.104,34.095,84.313l0.611,0.149c23.25-31.926,67.506-67.053,33.69-84.462
			c-26.789-8.9-33.948,20.725-34.198,21.792C175.391,172.521,169.926,149.912,150.703,150.006z"/>
	</g>
	<g id="g5266" transform="matrix(-0.166355,0.000000,0.000000,-0.229660,-273.5539,-8.272300)">
		<path id="path5268" fill="#FF0000" d="M150.703,150.006c-2.803,0.013-5.882,0.519-9.29,1.654
			c-37.168,21.091,12.938,55.104,34.092,84.313l0.611,0.149c23.25-31.926,67.509-67.053,33.69-84.462
			c-26.79-8.9-33.945,20.725-34.195,21.793C175.39,172.521,169.925,149.912,150.703,150.006z"/>
	</g>
	<g id="g5270" transform="matrix(-0.166355,0.000000,0.000000,-0.229660,-236.1939,-8.272300)">
		<path id="path5272" fill="#FF0000" d="M150.701,150.006c-2.8,0.013-5.882,0.519-9.287,1.654
			c-37.171,21.091,12.938,55.104,34.095,84.313l0.61,0.149c23.247-31.926,67.503-67.053,33.684-84.462
			c-26.786-8.9-33.942,20.725-34.195,21.793C175.391,172.521,169.926,149.912,150.701,150.006z"/>
	</g>
	<g id="g5274" transform="matrix(-0.166355,0.000000,0.000000,-0.229660,-234.5539,-36.05240)">
		<path id="path5276" fill="#FF0000" d="M150.703,150.007c-2.8,0.013-5.882,0.519-9.293,1.654
			c-37.165,21.091,12.938,55.104,34.095,84.313l0.611,0.149c23.247-31.926,67.509-67.053,33.69-84.462
			c-26.786-8.904-33.948,20.725-34.195,21.792C175.387,172.522,169.928,149.909,150.703,150.007z"/>
	</g>
</g>
<path fill="none" stroke="#000000" stroke-miterlimit="10" d="M134,171.57c0,6.762-5.623,12.244-12.56,12.244H17.298
	c-6.936,0-12.56-5.482-12.56-12.244V17.244C4.738,10.482,10.362,5,17.298,5H121.44C128.377,5,134,10.482,134,17.244V171.57z"/>
</svg>
