<svg xmlns="http://www.w3.org/2000/svg" width="140" height="190" xml:space="preserve"><path fill-opacity=".498" d="M21 5h103c8.864 0 16 7.136 16 16v153c0 8.864-7.136 16-16 16H21c-8.864 0-16-7.136-16-16V21c0-8.864 7.136-16 16-16z"/><path fill="#E7E7E7" d="M17 1h103c8.864 0 16 7.136 16 16v153c0 8.864-7.136 16-16 16H17c-8.864 0-16-7.136-16-16V17C1 8.136 8.136 1 17 1z"/><path fill="#C7891F" d="M19 3h103c8.864 0 16 7.136 16 16v153c0 8.864-7.136 16-16 16H19c-8.864 0-16-7.136-16-16V19c0-8.864 7.136-16 16-16z"/><path fill="#FFF" d="M18 2h103c8.864 0 16 7.136 16 16v153c0 8.864-7.136 16-16 16H18c-8.864 0-16-7.136-16-16V18C2 9.136 9.136 2 18 2z"/><path fill="red" d="M18.924 11.994h6.396v21.359c0 2.947-.842 5.149-2.525 6.607-1.672 1.458-4.208 2.187-7.609 2.187H13.89v-4.611h.997c1.329 0 2.332-.354 3.007-1.062.687-.708 1.03-1.748 1.03-3.121V11.994M13.551 48.846c-.803.005-1.684.202-2.66.642-10.645 8.2 3.705 21.424 9.763 32.78l.175.057c6.659-12.41 19.333-26.069 9.649-32.837-7.673-3.46-9.723 8.058-9.794 8.474-.062-.362-1.628-9.153-7.133-9.116zM119.941 177.006h-6.396v-21.357c0-2.947.842-5.149 2.523-6.606 1.674-1.459 4.209-2.188 7.609-2.188h1.297v4.611h-.998c-1.328 0-2.33.354-3.006 1.063-.688.707-1.031 1.748-1.031 3.121v21.357"/><g><path fill="red" d="M125.313 139.995c.803-.005 1.685-.202 2.662-.643 10.645-8.2-3.707-21.423-9.766-32.778l-.175-.059c-6.659 12.413-19.336 26.069-9.65 32.837 7.675 3.46 9.723-8.057 9.796-8.473.062.363 1.628 9.153 7.133 9.116z"/></g><g><path fill="#DDB305" d="m88.312 52.54-7.405 14.229s-5.2-.894-9.021-1.06l3.092-16.095s3.09.243 7.639 1.137c4.559.895 5.695 1.789 5.695 1.789z"/><path fill="#548703" d="M86.699 101.807c2.896 3.119 6.843 8.008 9.253 13.586 4.149 9.604 4.636 16.027 4.636 16.027v.087H77.495v-.175s.729-4.549 3.741-14.15c3.014-9.593 5.453-15.365 5.453-15.365l.01-.01z"/><path fill="#DDB305" d="M79.77 92.417c1.469.68 3.52.496 4.395-1.254l.027-.039c.177.175.39.331.623.447.369.185.748.301 1.117.35v.029c.146.02.291.058.428.107 1.381.486 1.953 4.878-1.545 5.938-.65.194-1.226.262-1.711.233-.263 0-.506-.039-.72-.107-1.409-.359-1.952-1.525-2.03-1.721v-.01c.397-.807.524-1.701.312-2.304a1.834 1.834 0 0 0-1.099-1.157l.203-.512zM74.016 92.048c-1.429-1.419-1.681-4.471.068-5.686.923-.632 1.848-.651 2.518-.321.681.35 1.107 1.049 1.021 1.847l.389.058c-.232 1.215.077 2.683.689 3.577-.165.214-1.516 1.866-3.645 1.186a2.086 2.086 0 0 1-.574-.282 2.097 2.097 0 0 1-.466-.379zM76.279 131.497s.244-1.623 2.519-10.409c2.275-8.786 7.075-20.001 7.075-20.001l.078-.078c.242.253.494.515.748.798l-.01.01s-2.439 5.772-5.453 15.365c-3.012 9.603-3.741 14.15-3.741 14.15v.175h-1.216v-.01z"/><path fill="#DDB305" d="M75.989 97.84c-2.722-1.564-1.585-5.296-1.585-5.296l.078-.117c.175.126.369.214.572.282 2.129.681 3.479-.972 3.646-1.186.166.262.37.476.583.622.156.097.313.185.486.272l-.205.515c.478.175.904.573 1.1 1.157.214.603.087 1.497-.313 2.304v.01c-.494 1.012-1.418 1.896-2.652 1.925-.428.01-.913-.088-1.42-.33-.095-.051-.193-.1-.29-.158z"/><path fill="#DDB305" d="M76.602 86.042c0-8.32-4.617-16.581-5.424-17.941 6.745.438 10.381 1.516 10.381 1.516 3.741 4.228 7.648 13.908 7.893 17.728.203 3.198-1.596 4.801-3.52 4.578a3.541 3.541 0 0 1-1.117-.35 2.447 2.447 0 0 1-.623-.447l-.027.039c-.875 1.75-2.926 1.934-4.395 1.254a5.723 5.723 0 0 1-.485-.272 2.136 2.136 0 0 1-.583-.622c-.612-.894-.924-2.362-.689-3.577l-.389-.058c.085-.799-.343-1.499-1.022-1.848zM73.919 125.238c-.485 1.303-3.013.563-3.256 1.701-.243 1.146 2.683.649 2.284 1.953-.408 1.303-2.692.815-3.091 2.438v.175h-3.742v-.087c2.43-10.353 10.973-31.558 11.585-33.094 1.234-.029 2.158-.913 2.652-1.925.078.194.623 1.36 2.031 1.721l-.01.039s-1.866 0-2.196 1.137c-.319 1.139 1.788 1.546 1.304 2.848-.486 1.304-2.605 0-3.092 1.459-.486 1.467 2.274 1.225 1.545 2.771-.729 1.545-3.013.563-3.41 1.865-.408 1.303 2.518 1.303 1.943 2.683-.564 1.38-2.926.739-3.324 1.954-.408 1.226 2.108 1.788 1.535 3.256-.563 1.458-2.517.155-2.925 1.458-.407 1.303 1.953 1.545 1.39 3.014-.572 1.467-2.604.242-3.013 1.709-.406 1.458 2.275 1.623 1.79 2.925z"/><path fill="#DDB305" d="M71.12 108.861a296.93 296.93 0 0 1 2.293-5.385 225.194 225.194 0 0 1 1.612-3.576c.574-1.264.925-1.982.925-1.982l.039-.078c.097.059.194.107.29.156.507.242.992.34 1.42.33-.612 1.535-9.155 22.742-11.585 33.094v.087h-2.498c1.351-6.716 4.383-15.016 7.095-21.673.146-.331.271-.661.409-.973zM72.373 49.527l-2.361 16.104s-7.882-.321-11.867.165l-1.302-16.27s1.38-.243 7.805-.155c6.422.078 7.725.156 7.725.156zM72.947 128.893c.398-1.303-2.527-.807-2.284-1.953.243-1.138 2.771-.397 3.256-1.7.485-1.304-2.196-1.468-1.788-2.927.408-1.467 2.439-.242 3.014-1.709.563-1.469-1.799-1.711-1.391-3.014s2.361 0 2.926-1.458c.572-1.468-1.943-2.03-1.535-3.256.397-1.215 2.76-.574 3.323-1.954.573-1.38-2.353-1.38-1.944-2.683.398-1.302 2.684-.32 3.412-1.865.729-1.546-2.031-1.304-1.545-2.771.484-1.459 2.604-.155 3.09-1.459.485-1.302-1.623-1.709-1.303-2.848.33-1.137 2.196-1.137 2.196-1.137l.01-.039c.214.068.457.107.72.107v.008s1.166 1.013 2.849 2.771l-.078.078s-4.801 11.215-7.075 20.001c-2.273 8.786-2.518 10.409-2.518 10.409v.01h-6.424v-.175c.397-1.62 2.681-1.134 3.089-2.436zM58.952 72.619s3.742-.398 8.212.574c3.566.777 4.296.933 4.441.962-.604-.068-8.243-.991-11.672.175l-.981-1.711zM63.831 81.736c-1.293.078-2.274-3.907-2.274-3.907l.01-.078a77.85 77.85 0 0 1 2.187.321c.301.048.612.097.914.155l-.019.088c-.002 0 .484 3.333-.818 3.421z"/><path fill="#F2DBCC" d="M61.935 100.241c2.683-.37 9.135-3.548 11.984-8.096l.097-.097c.146.155.303.282.467.379l-.078.117s-1.137 3.731 1.586 5.296l-.039.078s-.35.721-.924 1.982c-14.706 4.742-17.941 1.595-17.941 1.595v-3.12c1.903 1.438 3.643 2.031 4.848 1.866z"/><path fill="#DDB305" d="M75.025 99.9c-.428.924-.98 2.139-1.612 3.576l-.067-.028c-14.307 3.334-17.485.397-17.485.397l-.059-.029c.788-1.478 1.283-2.321 1.283-2.321s3.237 3.15 17.94-1.595zM69.04 86.284c.972.816.573 4.393-3.013 4.957-3.577.573-5.53-1.293-5.53-1.293s2.75 1.915 5.938.486c2.362-1.06 2.605-3.664 1.302-3.577-.894.048-.408.807-.408.807s-.563-.156-.486-.807c.078-.65 1.293-1.321 2.197-.573z"/><path fill="#548703" d="M73.413 103.479a287.454 287.454 0 0 0-2.293 5.383l-.127-.047c-12.693 3.41-17.815.484-17.815.484l-.048-.02a104.812 104.812 0 0 1 2.672-5.463l.059.029s3.178 2.937 17.485-.397l.067.031z"/><path fill="#548703" d="m70.585 109.785.127.049c-2.712 6.657-5.744 14.957-7.095 21.673H46.919v-.01c.427-7.493 3.227-15.414 5.773-21.228 0 .002 3.499 2.937 17.893-.484z"/><path fill="#DDB305" d="M71.12 108.861c-.138.312-.263.642-.408.973l-.127-.049c-14.394 3.421-17.893.484-17.893.484.155-.34.301-.67.438-.99l.048.02s5.122 2.926 17.815-.484l.127.046zM55.375 75.068c-3.499-.904-7.474.564-7.474.564s.398-.564 2.187-1.545c1.788-.972 4.072-1.06 4.072-1.06s.612.788 1.234 2.032l-.019.009zM51.944 90.833c-.641-1.273.049-3.003 1.234-3.003 1.876 0 1.954 1.623 1.39 2.031-.574.408-.895.331-.895.331s.972-.816.243-1.39c-.739-.564-2.08.719-1.39 2.041.359.69 1.39 1.166 2.507 1.283-.146.02-.301.02-.466.02-1.427-.001-2.254-.584-2.623-1.313zM52.109 82.086c-1.03-.477-1.371-3.693-1.371-3.693v-.039c.642.059 1.74.175 2.692.36.087.593.262 3.042-.826 3.392h-.02a8.605 8.605 0 0 1-.475-.02z"/><path fill="#F2DBCC" d="M59.933 74.33c3.431-1.167 11.07-.243 11.672-.175-.146-.029-.875-.186-4.441-.962-4.471-.972-8.212-.574-8.212-.574l.981 1.711zm3.819 3.742a77.313 77.313 0 0 0-2.187-.321l-.01.078s.981 3.985 2.274 3.907c1.302-.087.816-3.421.816-3.421l.019-.088c-.299-.058-.61-.107-.912-.155zm7.426-9.972c.807 1.36 5.424 9.622 5.424 17.941-.67-.331-1.595-.311-2.518.321-1.749 1.215-1.497 4.267-.068 5.686l-.097.097c-2.849 4.548-9.301 7.726-11.984 8.096-1.205.165-2.945-.429-4.85-1.866l-.233-.175c-1.885-1.497-3.907-3.81-5.695-7.018l.787-.35c.37.729 1.196 1.312 2.625 1.312.165 0 .32 0 .466-.02 1.633.175 3.47-.408 3.82-2.167.009-.01.009-.02.009-.029l.175-1.769s-2.527-.573-2.926-1.302c-.408-.739.972-3.907.642-7.406-.155-1.681-.768-3.236-1.361-4.393-.622-1.244-1.234-2.032-1.234-2.032s-2.284.088-4.072 1.06c-1.789.981-2.187 1.545-2.187 1.545l-.67.029c-.136-3.188.068-5.423.068-5.423s1.409-1.759 14.258-2.245a92.794 92.794 0 0 1 9.621.108zm-3.441 18.758c1.303-.087 1.06 2.517-1.302 3.577-3.188 1.429-5.938-.486-5.938-.486s1.954 1.866 5.53 1.293c3.586-.564 3.985-4.141 3.013-4.957-.904-.748-2.119-.078-2.197.574-.078.651.486.807.486.807s-.486-.76.408-.808z"/><path fill="#F2DBCC" d="M53.431 78.713c-.953-.185-2.051-.301-2.692-.36v.039s.34 3.217 1.371 3.693a.586.586 0 0 0 .34.048l.136-.029h.02c1.087-.349.913-2.798.825-3.391zm5.433 11.216c0 .009 0 .019-.009.029-.049.233-.583 2.021-3.82 2.167-1.118-.117-2.148-.593-2.507-1.283-.69-1.322.651-2.605 1.39-2.041.729.573-.243 1.39-.243 1.39s.321.078.895-.331c.563-.408.486-2.031-1.39-2.031-1.186 0-1.875 1.73-1.234 3.003l-.787.35a33.97 33.97 0 0 1-1.05-2.041c-2.07-4.393-2.711-9.631-2.876-13.48l.67-.029s3.975-1.468 7.474-.564l.019-.009c.593 1.156 1.206 2.711 1.361 4.393.331 3.499-1.05 6.667-.642 7.406.399.729 2.926 1.302 2.926 1.302l-.177 1.769z"/><path fill="#DDB305" d="M45.053 131.507c-.02-.495.029-3.741 2.848-13.752 3.013-10.711 8.582-19.04 8.844-19.429l.01-.01.097-.116.233.175v3.12s-.496.845-1.283 2.321a104.008 104.008 0 0 0-2.672 5.463c-.136.32-.282.65-.438.99-2.546 5.813-5.346 13.733-5.773 21.228v.01h-1.866z"/><path fill="#DDB305" d="M45.053 131.507h-1.71v-.087c.486-1.633-1.545-1.711-1.302-3.014s2.031-1.215 2.527-2.604c.486-1.38-1.798-1.137-1.468-2.438.321-1.293 2.274-1.137 2.76-2.596.496-1.468-1.458-1.303-1.137-2.604.331-1.303 2.031-1.225 2.527-2.439.486-1.225-1.225-1.06-.981-2.273.243-1.225 2.362-.895 2.925-2.196.574-1.303-1.545-1.391-1.215-2.362.321-.972 1.866-.65 2.439-1.787.564-1.138-.894-1.215-.573-2.109.331-.895 1.954-.573 2.439-1.545.496-.981-.894-1.391-.651-2.041.243-.651 1.303-.807 2.041-1.137.622-.272.593-.904.574-1.09 1.409-.642 2.371-.836 2.498-.854-.262.389-5.832 8.718-8.844 19.429-2.82 10.006-2.868 13.252-2.849 13.747zM47.57 67.906l-8.047-14.472s.972-.816 6.182-2.274c5.2-1.467 8.212-1.225 8.212-1.225l2.274 16.017s-5.287.652-8.621 1.954z"/><path fill="#DDB305" d="M42.04 128.406c-.243 1.303 1.788 1.381 1.302 3.014v.087h-4.383c1.652-14.616 7.376-25.075 8.786-27.466 0-.01.009-.02.009-.029 2.391-2.604 4.782-4.053 6.493-4.83.02.186.048.816-.574 1.09-.738.33-1.798.484-2.041 1.137-.243.65 1.147 1.06.651 2.041-.486.972-2.109.65-2.439 1.545-.321.895 1.137.973.573 2.109-.573 1.137-2.119.815-2.439 1.787-.33.973 1.789 1.061 1.215 2.362-.563 1.302-2.682.972-2.925 2.196-.243 1.215 1.468 1.05.981 2.273-.496 1.215-2.196 1.137-2.527 2.439-.321 1.302 1.633 1.137 1.137 2.604-.486 1.459-2.439 1.303-2.76 2.596-.331 1.303 1.954 1.06 1.468 2.438-.495 1.392-2.284 1.305-2.527 2.607z"/><path fill="#548703" d="M72.373 49.527s-1.303-.078-7.726-.155c-6.424-.087-7.805.155-7.805.155l1.302 16.27c3.985-.486 11.867-.165 11.867-.165l2.362-16.105zm-.484 16.182c3.818.166 9.02 1.06 9.02 1.06l7.404-14.229s-1.137-.895-5.694-1.789c-4.55-.894-7.64-1.137-7.64-1.137l-3.09 16.095zM39.523 53.434l8.047 14.472c3.334-1.302 8.621-1.954 8.621-1.954l-2.274-16.017s-3.013-.243-8.212 1.225c-5.21 1.458-6.182 2.274-6.182 2.274zm-2.605-.982s7.396-5.608 29.604-5.442c22.199.165 25.125 4.801 25.125 4.801L81.559 69.616s-3.636-1.079-10.381-1.516a92.554 92.554 0 0 0-9.622-.107c-12.849.486-14.258 2.245-14.258 2.245s-7.173-12.382-8.913-15.347c-.816-1.379-1.467-2.439-1.467-2.439zM42.935 111.408c1.448-3.141 3.12-5.54 4.811-7.367-1.41 2.391-7.134 12.85-8.786 27.466h-1.633v-.01s.242-8.455 5.608-20.089z"/><g><path fill="none" stroke="#000" stroke-width=".5" stroke-miterlimit="10" d="M73.919 92.145c-2.849 4.548-9.301 7.726-11.984 8.096-1.205.165-2.945-.429-4.85-1.866l-.233-.175c-1.885-1.497-3.907-3.81-5.695-7.018a33.97 33.97 0 0 1-1.05-2.041c-2.07-4.393-2.711-9.631-2.876-13.48-.136-3.188.068-5.423.068-5.423s1.409-1.759 14.258-2.245a92.582 92.582 0 0 1 9.623.107c6.744.438 10.379 1.516 10.379 1.516 3.742 4.228 7.649 13.908 7.894 17.728.204 3.198-1.595 4.801-3.519 4.578a3.568 3.568 0 0 1-1.119-.35 2.436 2.436 0 0 1-.621-.447c-1.555-1.468-1.078-4.675.302-5.326 1.545-.729 3.575.078 2.838 1.954-.729 1.866-1.788 1.215-1.788 1.215M37.035 131.507H100.732"/><path fill="none" stroke="#000" stroke-width=".5" stroke-miterlimit="10" d="M75.387 89.696s1.137.739 2.031-1.137a2.27 2.27 0 0 0 .204-.67c.087-.797-.341-1.497-1.021-1.847-.672-.331-1.596-.311-2.519.321-1.749 1.215-1.497 4.267-.067 5.686.146.155.301.282.467.379.175.126.369.214.572.282 2.129.681 3.479-.972 3.646-1.186.01-.02.021-.029.021-.029"/><path fill="none" stroke="#000" stroke-width=".5" stroke-miterlimit="10" d="M80.421 89.375s1.06.816 1.876-.729c.807-1.545-.895-3.664-3.014-2.604-.719.359-1.117 1.079-1.272 1.905-.233 1.215.077 2.683.689 3.577.166.262.37.476.583.622.156.097.313.185.486.272 1.467.68 3.519.496 4.394-1.254M71.07 67.906s.039.068.106.194c.808 1.36 5.425 9.622 5.425 17.941M80.353 96.393c.397-.807.524-1.701.312-2.304a1.834 1.834 0 0 0-1.099-1.157c-.865-.321-1.924.107-2.235 1.565"/><path fill="none" stroke="#000" stroke-width=".5" stroke-miterlimit="10" d="M74.404 92.543s-1.137 3.732 1.585 5.296c.097.06.194.106.29.156.507.241.992.34 1.42.33 1.234-.029 2.158-.913 2.652-1.925M80.343 96.373s0 .01.011.02v.01c.078.195.621 1.361 2.03 1.721.214.068.457.107.72.107.485.027 1.061-.039 1.711-.233 3.498-1.06 2.926-5.453 1.545-5.938a2.129 2.129 0 0 0-.428-.107c-1.359-.194-3.041.719-2.09 3.285M73.268 68.722s3.168 2.848 4.637 13.334M76.027 69.694s3.334 3.907 4.314 13.908M78.963 71.725s3.246 5.938 4.063 12.693M81.236 73.027s2.439 3.985 3.334 8.952M83.27 74.165s1.875 3.256 2.438 5.53"/><path fill="none" stroke="#000" stroke-width=".5" stroke-miterlimit="10" d="M47.298 70.238s-7.173-12.382-8.913-15.347c-.816-1.38-1.467-2.439-1.467-2.439s7.396-5.608 29.604-5.442c22.199.165 25.125 4.801 25.125 4.801L81.559 69.616"/><path fill="none" stroke="#000" stroke-width=".5" stroke-miterlimit="10" d="m47.57 67.906-8.047-14.472s.972-.816 6.182-2.274c5.2-1.467 8.212-1.225 8.212-1.225l2.274 16.017s-5.287.652-8.621 1.954zM58.145 65.796l-1.302-16.27s1.38-.243 7.805-.155c6.424.078 7.726.155 7.726.155L70.013 65.63c-.001.001-7.884-.319-11.868.166zM71.889 65.709l3.09-16.095s3.09.243 7.64 1.137c4.559.894 5.694 1.789 5.694 1.789l-7.404 14.229c-.002 0-5.202-.894-9.02-1.06zM59.039 88.16s-2.527-.573-2.926-1.302c-.408-.739.972-3.907.642-7.406-.155-1.681-.768-3.236-1.361-4.393-.622-1.244-1.234-2.032-1.234-2.032s-2.284.088-4.072 1.06c-1.789.981-2.187 1.545-2.187 1.545s3.975-1.468 7.474-.564M71.645 74.165s-.01 0-.039-.01M59.933 74.33l-.981-1.711s3.742-.398 8.212.574c3.566.777 4.296.933 4.441.962-.602-.068-8.241-.991-11.672.175z"/><path fill="none" stroke="#000" stroke-width=".5" stroke-miterlimit="10" d="M50.01 76.935s3.091.321 4.315.729M60.905 76.283l5.617.972M50.175 78.315s.214.009.563.039c.642.059 1.74.175 2.692.36.35.078.69.155.972.252M60.993 77.664s.223.029.573.087a77.85 77.85 0 0 1 2.187.321c.301.048.612.097.914.155a18.63 18.63 0 0 1 1.526.331M52.605 82.105c.292.01.603 0 .904-.048M51.39 81.979a5.846 5.846 0 0 0 1.195.126M62.45 81.736s1.468.243 2.527-.087"/><path fill="none" stroke="#000" stroke-width=".5" stroke-miterlimit="10" d="M50.739 78.393s.34 3.217 1.371 3.693a.586.586 0 0 0 .34.048l.136-.029h.02c1.088-.35.914-2.799.826-3.392 0-.029-.01-.049-.01-.068M61.556 77.829s.981 3.985 2.274 3.907c1.302-.087.816-3.421.816-3.421"/><path d="M51.478 78.48s.321 2.76.894 2.683c.564-.078 0-2.518 0-2.518l-.894-.165zM62.45 78.072s.729 2.925 1.137 2.77c.408-.166.165-2.77.165-2.77H62.45z"/><path fill="none" stroke="#000" stroke-width=".5" stroke-miterlimit="10" d="M60.497 89.948s1.954 1.866 5.53 1.293c3.586-.564 3.985-4.141 3.013-4.957-.904-.748-2.119-.078-2.197.574-.078.651.486.807.486.807s-.486-.758.408-.807c1.303-.087 1.06 2.517-1.302 3.577-3.188 1.428-5.938-.487-5.938-.487zM58.854 89.958c-.049.233-.583 2.021-3.82 2.167-.146.02-.301.02-.466.02-1.429 0-2.255-.583-2.625-1.312-.641-1.273.049-3.003 1.234-3.003 1.876 0 1.954 1.623 1.39 2.031-.574.408-.895.331-.895.331s.972-.816.243-1.39c-.739-.564-2.08.719-1.39 2.041.359.69 1.39 1.166 2.507 1.283 1.635.174 3.472-.409 3.822-2.168.009-.01.009-.02.009-.029M57.329 93.438s1.137-.243 1.788-.078c.651.165 1.38-.486 2.362-.486.972 0 2.682.078 2.682.078M59.204 95.391s1.701.243 2.517-.243M57.085 98.316V101.495s3.236 3.147 17.94-1.595c.039-.01.078-.029.117-.039M57.085 101.495s-.496.845-1.283 2.321a104.008 104.008 0 0 0-2.672 5.463c-.136.32-.282.65-.438.99-2.546 5.813-5.346 13.733-5.773 21.228"/><path fill="none" stroke="#000" stroke-width=".5" stroke-miterlimit="10" d="M75.95 97.918s-.351.721-.925 1.982c-.428.924-.98 2.139-1.612 3.576a290.974 290.974 0 0 0-2.293 5.385c-.138.312-.263.642-.408.973-2.712 6.657-5.744 14.957-7.095 21.673l-.029.155M47.746 104.041c-1.691 1.827-3.363 4.229-4.811 7.367-5.365 11.634-5.608 20.089-5.608 20.089M56.755 98.316l-.01.01c-.126.02-1.088.214-2.498.855-1.71.776-4.102 2.226-6.493 4.829"/><path fill="none" stroke="#000" stroke-width=".5" stroke-miterlimit="10" d="M45.053 131.575v-.068c-.02-.495.029-3.741 2.848-13.752 3.013-10.711 8.582-19.04 8.844-19.429M48.057 103.525s-.107.166-.302.485c0 .011-.009.021-.009.029-1.41 2.392-7.134 12.849-8.786 27.466 0 .02-.01.049-.01.068M83.103 98.238s1.166 1.012 2.848 2.771c.242.253.494.515.748.798 2.896 3.119 6.843 8.008 9.253 13.586 4.149 9.604 4.636 16.027 4.636 16.027M77.738 98.238s-.01.029-.039.088c-.612 1.535-9.155 22.742-11.585 33.094"/><path fill="none" stroke="#000" stroke-width=".5" stroke-miterlimit="10" d="M85.873 101.087s-4.801 11.215-7.075 20.001-2.519 10.409-2.519 10.409M86.689 101.814s-2.439 5.773-5.453 15.367c-3.012 9.602-3.741 14.149-3.741 14.149M55.861 103.848s3.178 2.936 17.485-.398M53.178 109.299s5.122 2.926 17.815-.484"/><path fill="none" stroke="#000" stroke-width=".5" stroke-miterlimit="10" d="M52.692 110.271s3.499 2.936 17.893-.485M54.238 99.133s0 .02.01.049c.02.186.048.816-.574 1.09-.738.33-1.798.484-2.041 1.137-.243.65 1.147 1.06.651 2.041-.486.972-2.109.65-2.439 1.545-.321.895 1.137.973.573 2.109-.573 1.137-2.119.815-2.439 1.787-.33.973 1.789 1.061 1.215 2.362-.563 1.302-2.682.972-2.925 2.196-.243 1.215 1.468 1.05.981 2.273-.496 1.215-2.196 1.137-2.527 2.439-.321 1.302 1.633 1.137 1.137 2.604-.486 1.459-2.439 1.303-2.76 2.596-.331 1.303 1.954 1.06 1.468 2.438-.496 1.39-2.284 1.304-2.527 2.604-.243 1.303 1.788 1.381 1.302 3.014M82.374 98.161s-1.866 0-2.196 1.137c-.32 1.138 1.788 1.546 1.303 2.849s-2.604 0-3.09 1.457c-.486 1.469 2.273 1.226 1.545 2.771-.729 1.545-3.014.563-3.412 1.865-.407 1.303 2.519 1.303 1.944 2.683-.563 1.38-2.926.739-3.323 1.954-.408 1.225 2.107 1.788 1.535 3.256-.563 1.458-2.518.155-2.926 1.458-.408 1.302 1.953 1.545 1.391 3.013-.574 1.469-2.604.244-3.014 1.711-.408 1.457 2.273 1.623 1.788 2.926s-3.013.563-3.256 1.701c-.243 1.146 2.683.649 2.284 1.953-.408 1.303-2.692.815-3.091 2.438"/><path fill="none" stroke="#000" stroke-width=".5" stroke-miterlimit="10" d="M53.616 100.785s0 .71-.758 1.195M51.011 102.359s-.428.379-.593 1.244M51.662 104.691s-.165.808-.651 1.244M49.174 106.043s-.496.438-.544 1.254M49.981 108.541s-.049.593-.428 1.137M47.648 110.223s-.321.485-.428 1.352M48.358 112.876s-.107.758-.544 1.36M45.811 114.771s-.379.545-.438 1.303M46.618 117.541s-.049.865-.379 1.302M44.237 119.922s-.272.604-.321 1.244M45.208 122.585s-.048 1.079-.427 1.563M42.993 124.966s-.486.7-.379 1.468M44.072 127.727s.058 1.195-.379 1.683M41.962 130.282s-.33.485-.165 1.186M82.238 98.832s-.215.874-.651 1.253M79.691 100.736c-.059.154-.438.593-.438 1.186M80.889 103.391s-.225.924-.652 1.303M77.962 105.178s-.438.651-.438 1.244M78.992 107.891s-.117.815-.496 1.351M76.436 109.785s-.533.758-.484 1.359M77.632 112.555s-.272.973-.651 1.623M74.812 114.664s-.545.709-.485 1.359M76.009 117.541s-.166.865-.545 1.409M73.297 119.271s-.438.603-.486 1.254M74.376 122.089s0 .875-.38 1.361M71.779 123.878s-.438.758-.494 1.524M73.238 126.589s0 .759-.271 1.03M70.75 128.164s-.437.438-.437 1.244M72.053 130.604s0 .485-.164.864"/></g></g><path fill="#DDB305" stroke="#000" stroke-width=".25" stroke-miterlimit="10" d="M57.844 117.738s2.994-3.57 4.885-1.3c3.164 3.801-6.381 10.078-6.381 10.078s-5.054-7.381-2.673-10.202c2.266-2.683 4.169 1.424 4.169 1.424z"/><path fill="none" stroke="#000" stroke-miterlimit="10" d="M134.5 171.82c0 6.762-5.623 12.244-12.56 12.244H17.798c-6.936 0-12.56-5.482-12.56-12.244V17.494c0-6.762 5.624-12.244 12.56-12.244H121.94c6.937 0 12.56 5.482 12.56 12.244V171.82z"/></svg>