<svg xmlns="http://www.w3.org/2000/svg" width="140" height="190" xml:space="preserve"><path fill-opacity=".498" d="M21 5h103c8.864 0 16 7.136 16 16v153c0 8.864-7.136 16-16 16H21c-8.864 0-16-7.136-16-16V21c0-8.864 7.136-16 16-16z"/><path fill="#E7E7E7" d="M17 1h103c8.864 0 16 7.136 16 16v153c0 8.864-7.136 16-16 16H17c-8.864 0-16-7.136-16-16V17C1 8.136 8.136 1 17 1z"/><path fill="#C7891F" d="M19 3h103c8.864 0 16 7.136 16 16v153c0 8.864-7.136 16-16 16H19c-8.864 0-16-7.136-16-16V19c0-8.864 7.136-16 16-16z"/><path fill="#FFF" d="M18 2h103c8.864 0 16 7.136 16 16v153c0 8.864-7.136 16-16 16H18c-8.864 0-16-7.136-16-16V18C2 9.136 9.136 2 18 2z"/><path fill="red" d="M10.027 12.24h6.396v10.951l9.22-10.951h7.426L21.125 26.446 34.299 42.24h-8.008l-9.868-11.815V42.24h-6.396v-30M128.662 176.63h-6.396v-10.95l-9.22 10.95h-7.427l11.943-14.206-13.174-15.794h8.008l9.869 11.815V146.63h6.396l.001 30"/><g><path fill="red" d="M13.551 48.846c-.803.005-1.684.202-2.66.642-10.645 8.2 3.705 21.424 9.763 32.78l.175.057c6.659-12.41 19.333-26.069 9.649-32.837-7.673-3.46-9.723 8.058-9.794 8.474-.062-.362-1.628-9.153-7.133-9.116z"/></g><g><path fill="red" d="M125.313 139.995c.803-.005 1.685-.202 2.662-.643 10.645-8.2-3.707-21.423-9.766-32.778l-.175-.059c-6.659 12.413-19.336 26.069-9.65 32.837 7.675 3.46 9.723-8.057 9.796-8.473.062.363 1.628 9.153 7.133 9.116z"/></g><g><path fill="#657C03" d="M84.21 74.916c-1.149-.36-6.33-1.93-13.03-3.04-2.72-.44-5.7-.82-8.76-1-10.66-.63-13.06 1.07-13.38 1.35l-.04-.05-3.23-4.37c.95-.45 15.21-6.85 41.509 1.4l.15.08c-1.681 3.11-2.979 5.71-2.979 5.71s-.08-.03-.24-.08zM86.061 98.636s6.149 4.53 10.521 15.3c3.89 9.58 4.12 13.621 4.12 14.4H60.49c.24-.6 1.3-3.1 3.5-6.72 2.54-4.171 7.318-11.8 12.51-16.62 4.51-4.21 7.18-5.641 7.79-5.939h.01a5.135 5.135 0 0 0 1.75-.439l.011.018z"/><path fill="#EDC607" d="M78.23 61.836s-1.78.66-2.291.45c-.51-.2-.359-1.12-.359-1.12s.51-.86 1.17-.4 1.48 1.07 1.48 1.07zM74.77 60.306s-.408-.19-.51-.53a.64.64 0 0 1 .051-.44c.311-.61 1.119-1.47 1.119-1.47s.461 1.27.25 1.78c-.2.51-.91.66-.91.66zM72.99 60.196c.58 0 .81.87.81.87s-.2.71-.909.77a.719.719 0 0 1-.311-.06c-.65-.26-1.37-1.32-1.37-1.32s1.021-.15 1.681-.25c.029 0 .059-.01.099-.01z"/><path fill="#657C03" d="M75.939 62.286c.511.21 2.291-.45 2.291-.45s-.82-.61-1.48-1.07-1.17.4-1.17.4-.15.92.359 1.12zm-3.048-.45c.709-.06.909-.77.909-.77s-.229-.87-.81-.87l1.27-.42c.102.34.51.53.51.53s.711-.15.91-.66c.211-.51-.25-1.78-.25-1.78l.16-.9c12.2 2.04 19.84-.12 19.84-.12s-1.22 1.07-4.188 5.8c-1.03 1.64-2.171 3.64-3.2 5.53l-.08-.04s-.529.3-1.449-.08c-.91-.38 0-1.29-1.371-1.52-1.369-.23-1.22.68-2.358.38-1.15-.31-.312-1.22-1.61-1.45-1.29-.23-1.37.69-2.66.46-1.3-.23-.609-1.3-1.76-1.53a2.02 2.02 0 0 0-.33-.03l-.01-.4c-1.67-.13-3.09-.38-4.24-.72l.41-1.47c.105.04.206.07.307.06z"/><path fill="#8E3D00" d="M78.939 96.796c-1.42-1.38-2.721-3.34-3.84-5.67a39.037 39.037 0 0 1-1.859-4.59c-2.182-6.51-2.08-14.54-2.08-14.54l.02-.12c6.7 1.11 11.881 2.68 13.03 3.04-.229.56-2.61 14.96 1.181 19.15.609-1.22 2.699-1.73 3.149.56.3 1.49-.7 3.2-2.49 3.99a5.09 5.09 0 0 1-1.75.438h-.01c-.53.04-1.101.012-1.69-.109-1.05-.209-2.068-.76-3.039-1.579a2.371 2.371 0 0 0-.622-.57z"/><path d="M63.99 78.756s.1 1.83-.61 1.94c-.71.1-.81-1.99-.81-1.99l1.42.05z"/><path fill="#EDC607" d="M65.72 107.686s-.36-2.898-3.41-.148c0 0 .67-1.73 2.39-1.73 1.73-.001 1.02 1.878 1.02 1.878z"/><path fill="#8E3D00" d="M63.23 75.256c-2.44-.21-3.25.15-3.25.15l-.87-1.42s3.46-1.12 9.81 2.23c0 0-3.25-.76-5.69-.96zM63.38 81.606c-1.52-.05-1.73-3.05-1.73-3.05.43.01 1.36.04 2.34.2l-1.42-.05s.1 2.09.81 1.99c.71-.11.61-1.94.61-1.94.35.06.7.13 1.04.23l-.02.08s-.1 2.59-1.63 2.54zM61.06 100.216c.63.19 1.19.25 1.67.181 2.51-.34 9.15-3.311 12.35-9.259l.02-.01c1.121 2.33 2.42 4.29 3.842 5.67.199.21.408.4.619.57.109.119.199.26.289.41.99 1.68.271 4.47-2.738 5.229l-.012.01c-1.18.291-2.709.271-4.629-.25-.091.182-.201.36-.341.551a2.5 2.5 0 0 1-.31.351s-.021.021-.051.06c0 .012-.011.012-.011.021-.479.49-1.108.9-1.84 1.2-2.12.909-5.01.938-6.92-.69-1.01-.84-1.74-2.13-1.96-3.99l.022-.054z"/><path fill="#EDC607" d="M63.99 121.616c-2.2 3.62-3.26 6.12-3.5 6.72h-.71c.36-.84 2.42-5.42 7.36-12.92 5.32-8.08 9.69-12.15 9.959-12.4l.01-.01c3.011-.76 3.729-3.55 2.74-5.229a2.525 2.525 0 0 0-.291-.41c.971.818 1.99 1.369 3.041 1.58.59.119 1.159.148 1.689.109-.609.301-3.28 1.729-7.79 5.939-5.187 4.821-9.968 12.45-12.508 16.621zM61.35 112.977c.81.51 1.57 1.521 1.57 1.521s-.18.09-.44.188c-.46.19-1.19.45-1.64.422-.61-.041-.8-.83-.69-1.211a.278.278 0 0 1 .08-.16c0-.001.31-1.271 1.12-.76z"/><path fill="#8E3D00" d="M62.67 91.826c-2.8.15-3.66-1.83-3.66-1.83 5.24 3.35 6.25-1.53 6.25-1.53s.21 3.21-2.59 3.36z"/><path fill="#EDC607" d="M67.14 115.416c-4.94 7.5-7 12.08-7.36 12.92h-1.11c.12-.311 1.03-2.57 4.36-10.029 3.38-7.58 8.15-13.811 8.73-14.561 0-.01.01-.01.01-.021.03-.02.051-.039.051-.06.121-.11.221-.229.311-.351a3.52 3.52 0 0 0 .34-.551c1.92.521 3.45.541 4.631.25-.273.253-4.643 4.323-9.963 12.403zM59.06 112.416s-1.02-.46-.61-1.17c.41-.71 1.58-2.08 1.58-2.08s.66 1.83.56 2.59c-.11.76-1.53.66-1.53.66zM57.59 118.307s-.41-1.721-.41-2.49c0-.76.46-1.17 1.42-.76 0 0 1.02.26.51 1.119-.51.86-1.52 2.131-1.52 2.131zM58.14 113.706c.06-.34.32-.66.67-.63.57.06.65.49.55.84-.03.08-.06.16-.1.23-.2.35-.86.398-1.06 0a.722.722 0 0 1-.06-.44z"/><path fill="#EDC607" d="M63.71 115.296c3.87-7.8 6.23-10.3 6.23-10.3l-.02-.051c.73-.299 1.359-.709 1.84-1.199-.58.75-5.35 6.979-8.73 14.561-3.33 7.459-4.24 9.721-4.36 10.029h-.55c.18-.609 1.4-4.42 5.16-12.16.15-.3.29-.59.43-.88zM57.48 107.126s-.2-1.271.82-1.37c1.01-.1 1.22 1.62 1.22 1.62-1.27-2.13-2.04-.25-2.04-.25zM56.72 114.706c-.71.2-1.93-1.431-1.93-1.431s1.83-1.069 2.39-1.01c.56.051.36 1.061.36 1.061s-.02.16-.07.38c-.1.36-.31.87-.75 1zM54.7 128.336c.04-.311.36-2.33.65-3.82l.3-1.63.92.101s-.7 3.41-.96 5.351l-.91-.002z"/><path fill="#657C03" d="M58.45 111.246c-.41.71.61 1.17.61 1.17s1.42.1 1.53-.66c.1-.76-.56-2.59-.56-2.59s-1.17 1.37-1.58 2.08zm-.15-5.49c-1.02.102-.82 1.37-.82 1.37s.77-1.88 2.04.25c0 0-.21-1.72-1.22-1.62zm4.62 8.74s-.76-1.01-1.57-1.521c-.81-.51-1.12.762-1.12.762a.269.269 0 0 0-.08.16l-.79.02c.1-.35.02-.78-.55-.84-.35-.03-.61.29-.67.63h-.67c.05-.22.07-.38.07-.38s.2-1.01-.36-1.061c-.56-.061-2.39 1.01-2.39 1.01l-.34-.08c1.03-4.359 1.97-7.59 1.97-7.59 1.84.461 3.31-.319 4.19-1.289.09.18.42.92.38 1.539l-.05.711s.97-1.932 2.04-2.291l.02-.021c1.91 1.63 4.8 1.601 6.92.69l.02.05s-2.36 2.5-6.23 10.3l-1.23-.609c.26-.1.44-.19.44-.19zm1.78-8.689c-1.72 0-2.39 1.729-2.39 1.729 3.05-2.75 3.41.149 3.41.149s.71-1.878-1.02-1.878z"/><path fill="#EDC607" d="M54.09 128.336c.05-.32.38-2.46.75-4.43.41-2.141.46-2.391.46-2.391l2.54.101s-1.16 3.18-1.58 6.72h-.65c.26-1.939.96-5.35.96-5.35l-.92-.102-.3 1.631c-.29 1.489-.61 3.51-.65 3.819l-.61.002zM54.59 48.866c.71-.07 1.42 4.98.2 5.14-1.04.13-1.16-3.6-.58-4.78.11-.21.23-.34.38-.36z"/><path d="M53.57 79.256c.1.67.04 2.05-.61 1.89-.66-.15-.71-1.98-.71-1.98l1.06.04h.01c.08.02.17.03.25.05z"/><path fill="#8E3D00" d="M51.64 74.696c1.93-.56 3.86-.36 3.86-.36s.3.53.62 1.42h-.01c-3.03-.69-6.65.07-6.8.1.05-.07.52-.63 2.33-1.16zM53.08 90.856c-.44-.69-.42-1.47-.42-1.47 1.88 3.66 5.43.66 5.43.66s-.91 2.03-3.2 1.83c-.95-.08-1.5-.53-1.81-1.02z"/><path fill="#657C03" d="M57.18 115.816c0 .77.41 2.488.41 2.488s1.01-1.27 1.52-2.13c.51-.858-.51-1.12-.51-1.12-.96-.408-1.42.003-1.42.762zm-5.34 12.51c.31-4.67 1.51-10.54 2.61-15.131l.34.08s1.22 1.631 1.93 1.431c.44-.13.65-.64.75-1h.67c-.02.16-.01.31.06.44.2.398.86.35 1.06 0 .04-.07.07-.15.1-.23l.79-.02c-.11.379.08 1.17.69 1.209.45.029 1.18-.229 1.64-.42l1.23.609c-.14.29-.28.58-.43.88-3.76 7.74-4.98 11.55-5.16 12.16h-1.86c.42-3.54 1.58-6.72 1.58-6.72l-2.54-.102s-.05.25-.46 2.392c-.37 1.97-.7 4.108-.75 4.43h-2.25v-.008z"/><path fill="#8E3D00" d="M53.06 82.216c-1.72-.19-1.58-2.9-1.57-3.09.47-.04 1.11-.04 1.82.08l-1.06-.04s.05 1.83.71 1.98c.65.16.71-1.22.61-1.89.28.05.57.13.86.22v.01c.03.22.34 2.92-1.37 2.73z"/><path fill="#EDC607" d="M51.28 128.336c.37-7.79 4.27-22.99 4.27-22.99l.01-.029c.27.109.55.211.86.291 0 0-.94 3.229-1.97 7.59-1.1 4.59-2.3 10.46-2.61 15.13v.01l-.56-.002z"/><path fill="#EDC607" d="M55.55 105.346s-3.9 15.2-4.27 22.99h-.86c.26-7.59 3.4-24.21 3.4-24.21l.09-.069c.39.5.94.939 1.65 1.26l-.01.029z"/><path fill="#8E3D00" d="m51.8 90.456.04-.02c.14.29.28.57.43.84 2.79 5.3 6.29 8.169 8.79 8.94l-.02.05c.22 1.86.95 3.15 1.96 3.99l-.02.021c-1.07.358-2.04 2.289-2.04 2.289l.05-.709c.04-.621-.29-1.36-.38-1.541-.88.971-2.35 1.75-4.19 1.291-.31-.08-.59-.182-.86-.291-.71-.319-1.26-.76-1.65-1.26a3.913 3.913 0 0 1-.79-1.921c-.06-.479-.03-.938.07-1.358-2.53-.12-4.65-1.44-4.09-4.07.16-.771.53-1.31.98-1.63l-.07-.1c-1.07-.4-2.03-2.03-1.47-3.81.53-1.681 2.69-2.011 3.26-.711z"/><path fill="#EDC607" d="M53.82 104.126s-3.14 16.62-3.4 24.21h-.92c.01-6.95 3.01-24.189 3.33-26.029.14-.109.21-.16.23-.16l.06-.011c.08.65.33 1.33.79 1.921l-.09.069z"/><path fill="#657C03" d="M42.54 115.266c3.96-7.3 9.16-12.06 10.29-12.959-.32 1.84-3.32 19.079-3.33 26.029H37.67l-.04-.01c.09-.73.85-5.58 4.91-13.06z"/><path fill="#EDC8C3" d="M51.49 79.126c-.01.19-.15 2.9 1.57 3.09 1.71.19 1.4-2.51 1.37-2.73v-.01c-.29-.09-.58-.17-.86-.22v-.04l-.25-.01h-.01c-.71-.12-1.35-.12-1.82-.08zm.78 12.15c-.15-.27-.29-.55-.43-.84-.07-.14-.14-.29-.21-.44-2.21-4.72-2.69-10.48-2.72-14.12l.39-.01.01-.01c.15-.03 3.77-.79 6.8-.1h.01c.45 1.26.96 3.24.75 5.44-.35 3.77-1.47 5.19-.86 5.95.61.76 2.39 1.17 2.39 1.17l-.31 1.73s-3.55 3-5.43-.66c0 0-.02.78.42 1.47l-.81.42z"/><path fill="#EDC8C3" d="M65.03 78.986c-.34-.1-.69-.17-1.04-.23-.98-.16-1.91-.19-2.34-.2 0 0 .21 3 1.73 3.05 1.53.05 1.63-2.54 1.63-2.54l.02-.08zm-1.8-3.73c2.44.2 5.69.96 5.69.96-6.35-3.35-9.81-2.23-9.81-2.23l.87 1.42s.81-.36 3.25-.15zm-4.22 14.74s.86 1.98 3.66 1.83c2.8-.15 2.59-3.36 2.59-3.36s-1.01 4.88-6.25 1.53zm-7.37-15.3c-1.81.53-2.28 1.09-2.33 1.16l-.01.01-.39.01c-.04-2.18.09-3.61.09-3.61l.04-.04c.32-.28 2.72-1.98 13.38-1.35 3.06.18 6.04.56 8.76 1l-.02.12s-.102 8.03 2.08 14.54c.55 1.63 1.17 3.17 1.859 4.59l-.021.01c-3.2 5.95-9.84 8.919-12.35 9.261-.48.068-1.04.01-1.67-.182-2.5-.77-6-3.64-8.79-8.94l.81-.42c.31.49.86.94 1.81 1.02 2.29.2 3.2-1.83 3.2-1.83l.31-1.73s-1.78-.41-2.39-1.17c-.61-.76.51-2.18.86-5.95.21-2.2-.3-4.18-.75-5.44-.32-.89-.62-1.42-.62-1.42s-1.928-.199-3.858.361z"/><path fill="#657C03" d="M52.43 60.356c-1.18 3.06-4.35 3.97-5.34 3.13-.13-.11-.22-.23-.28-.36l-1.29-.04c.08.15.12.36.12.63 0 1.59-1.29 1.64-1.7 1.61l-4.4-5.96s1.91.46 6.86-3.05c3.1-2.19 5.45-5.34 6.78-7.39l1.03.3c-.58 1.18-.46 4.91.58 4.78l.84.71-.61 5.49-.69-5.03s-.76 2.21-1.9 5.18z"/><path fill="#EDC607" d="M51.36 65.236c.91-.3.84-1.22 1.91-1.45 1.06-.23 1.14.76 2.21.61 1.06-.15.91-1.37 2.06-1.45 1.14-.07.83.99 2.13.92 1.3-.08.99-.92 2.29-.99 1.29-.08.84 1.14 2.13 1.22 1.3.07 1.22-1.07 2.44-.99 1.22.07.92.99 2.37 1.22 1.45.22 1.29-.84 2.67-.69 1.369.15 1.06 1.22 2.438 1.37 1.23.14 1.54-.64 2.41-.64.101 0 .21.01.33.03 1.149.23.46 1.3 1.76 1.53 1.29.23 1.37-.69 2.66-.46 1.3.23.46 1.14 1.61 1.45 1.14.3.988-.61 2.359-.38 1.369.23.459 1.14 1.369 1.52.92.38 1.45.08 1.45.08l.08.04c-.21.38-.41.75-.61 1.11l-.148-.08c-26.3-8.25-40.56-1.85-41.51-1.4l-.65-.89c.02-.2.15-.73.82-.92.84-.23 1 .61 1.76.31.76-.31.84-1.3 1.68-1.53.832-.23 1.062.77 1.982.46z"/><path fill="#657C03" d="M47.09 63.486c.99.84 4.16-.07 5.34-3.13 1.14-2.97 1.9-5.18 1.9-5.18l.69 5.03.61-5.49-.84-.71c1.22-.16.51-5.21-.2-5.14-.15.02-.27.15-.38.36l-1.03-.3c.8-1.23 1.23-2.07 1.23-2.07s3.13 6.18 17.46 9.38c1.28.29 2.521.53 3.72.73l-.16.9s-.81.86-1.119 1.47a.64.64 0 0 0-.051.44l-1.27.42c-.04 0-.07.01-.102.01-.658.1-1.68.25-1.68.25s.721 1.06 1.37 1.32l-.41 1.47c1.149.34 2.569.59 4.24.72l.01.4c-.87 0-1.181.78-2.41.64-1.38-.15-1.069-1.22-2.438-1.37-1.38-.15-1.22.91-2.67.69-1.45-.23-1.15-1.15-2.37-1.22-1.22-.08-1.14 1.06-2.44.99-1.29-.08-.84-1.3-2.13-1.22-1.3.07-.99.91-2.29.99-1.3.07-.99-.99-2.13-.92-1.15.08-1 1.3-2.06 1.45-1.07.15-1.15-.84-2.21-.61-1.07.23-1 1.15-1.91 1.45-.92.31-1.15-.69-1.98-.46-.84.23-.92 1.22-1.68 1.53-.76.3-.92-.54-1.76-.31-.67.19-.8.72-.82.92l-1.18-1.59c.41.03 1.7-.02 1.7-1.61 0-.27-.04-.48-.12-.63l1.29.04c.06.13.15.25.28.36z"/><g fill="none" stroke="#000" stroke-width=".5" stroke-miterlimit="10"><path d="M75.08 91.136c-3.2 5.95-9.84 8.919-12.35 9.261-.48.068-1.04.01-1.67-.182-2.5-.77-6-3.64-8.79-8.94-.15-.27-.29-.55-.43-.84-.07-.14-.14-.29-.21-.44-2.21-4.72-2.69-10.48-2.72-14.12-.04-2.18.09-3.61.09-3.61l.04-.04c.32-.28 2.72-1.98 13.38-1.35 3.06.18 6.04.56 8.76 1 6.7 1.11 11.881 2.68 13.03 3.04.16.05.24.08.24.08s1.3-2.6 2.979-5.71c.199-.36.399-.73.609-1.11 1.029-1.89 2.17-3.89 3.2-5.53 2.97-4.73 4.188-5.8 4.188-5.8s-7.64 2.16-19.84.12a66.04 66.04 0 0 1-3.72-.73c-14.33-3.2-17.46-9.38-17.46-9.38s-.43.84-1.23 2.07c-1.33 2.05-3.68 5.2-6.78 7.39-4.95 3.51-6.86 3.05-6.86 3.05l4.4 5.96 1.18 1.59.65.89 3.23 4.37M37.67 128.336h63"/><path d="M45.11 66.986s0-.03.01-.07c.02-.2.15-.73.82-.92.84-.23 1 .61 1.76.31.76-.31.84-1.3 1.68-1.53.83-.23 1.06.77 1.98.46.91-.3.84-1.22 1.91-1.45 1.06-.23 1.14.76 2.21.61 1.06-.15.91-1.37 2.06-1.45 1.14-.07.83.99 2.13.92 1.3-.08.99-.92 2.29-.99 1.29-.08.84 1.14 2.13 1.22 1.3.07 1.22-1.07 2.44-.99 1.22.07.92.99 2.37 1.22 1.45.22 1.29-.84 2.67-.69 1.369.15 1.06 1.22 2.438 1.37 1.23.14 1.54-.64 2.41-.64.101 0 .21.01.33.03 1.149.23.46 1.3 1.76 1.53 1.29.23 1.37-.69 2.66-.46 1.3.23.46 1.14 1.61 1.45 1.14.3.988-.61 2.359-.38 1.369.23.459 1.14 1.369 1.52.92.38 1.45.08 1.45.08"/><path d="M45.72 67.826s.02-.01.05-.02c.95-.45 15.21-6.85 41.509 1.4M43.81 65.316s.05.01.13.01c.41.03 1.7-.02 1.7-1.61 0-.27-.04-.48-.12-.63-.43-.92-1.88.13-1.02.78M89.87 64.706s-1.3.84-3.05.53c-1.762-.3-2.141-2.36-1.15-2.82 1-.46 1.221 1.07.46 1.37M47.62 62.566s.84-.38.31-.91c-.47-.47-1.5.62-1.12 1.47.06.13.15.25.28.36.99.84 4.16-.07 5.34-3.13 1.14-2.97 1.9-5.18 1.9-5.18l.69 5.03.61-5.49s2.74 5.34 5.41 6.4c2.67 1.07 3.66.16 3.66-1.06s-1.67-.69-1.29.3M69.51 60.276s.61-.3.15-.83c-.46-.54-1.52.38-.84 1.75.4.78 1.54 1.52 3.35 2.05 1.15.34 2.57.59 4.24.72.29.02.58.04.88.05 4.8.23 4.8-2.44 4.11-2.97-.682-.54-1.142.45-.762.99M54.21 49.226c.11-.21.23-.34.38-.36.71-.07 1.42 4.98.2 5.14-1.04.13-1.16-3.6-.58-4.78z"/><path d="M75.43 57.866s.461 1.27.25 1.78c-.199.51-.91.66-.91.66s-.408-.19-.51-.53a.64.64 0 0 1 .051-.44c.309-.61 1.119-1.47 1.119-1.47zM75.58 61.166s.51-.86 1.17-.4 1.48 1.07 1.48 1.07-1.78.66-2.291.45c-.509-.2-.359-1.12-.359-1.12zM72.58 61.776c.109.04.21.07.311.06.709-.06.909-.77.909-.77s-.229-.87-.81-.87c-.04 0-.07.01-.102.01-.658.1-1.68.25-1.68.25s.722 1.06 1.372 1.32zM84.3 99.057a5.135 5.135 0 0 0 1.75-.439c1.79-.79 2.79-2.5 2.49-3.99-.45-2.29-2.54-1.78-3.149-.56s1.729 2.69 2.039.81M71.16 71.996s-.102 8.03 2.08 14.54c.55 1.63 1.17 3.17 1.859 4.59 1.119 2.33 2.42 4.29 3.84 5.67.199.21.41.399.619.57.972.819 1.99 1.37 3.041 1.579.59.121 1.159.15 1.689.109M84.221 74.896s-.011.01-.011.02c-.229.56-2.61 14.96 1.181 19.15"/><path d="M73.09 73.476c-.1.15-.35 12.2 6 21.2M75.38 74.186s.66 12.91 4.521 18.2M77.87 75.816s.25 9.3 2.489 13.98M80 76.726s.26 6.35 1.43 9.86M81.939 77.896s-.149 4.63.149 6.05M49.3 75.866l.01-.01c.15-.03 3.77-.79 6.8-.1"/><path d="M58.4 88.316s-1.78-.41-2.39-1.17c-.61-.76.51-2.18.86-5.95.21-2.2-.3-4.18-.75-5.44-.32-.89-.62-1.42-.62-1.42s-1.93-.2-3.86.36c-1.81.53-2.28 1.09-2.33 1.16M68.92 76.216s-3.25-.76-5.69-.96c-2.44-.21-3.25.15-3.25.15l-.87-1.42s3.46-1.12 9.81 2.23z"/><path d="M50.47 77.946s2.54-.46 4.42.51M61.2 77.436s3-.46 5.33.71M54.43 79.486c.17.05.34.12.51.19M53.32 79.206c.08.02.17.03.25.05.28.05.57.13.86.22M50.72 79.216s.29-.06.77-.09c.47-.04 1.11-.04 1.82.08M61.4 78.556h.25c.43.01 1.36.04 2.34.2.35.06.7.13 1.04.23.28.08.55.17.79.28M51.94 82.116s1.07.3 2.09.1M62.26 81.506s1.22.3 2.34.05"/><path d="M51.49 79.116v.01c-.01.19-.15 2.9 1.57 3.09 1.71.19 1.4-2.51 1.37-2.73v-.01M61.65 78.556s.21 3 1.73 3.05c1.53.05 1.63-2.54 1.63-2.54M58.09 90.046s-3.55 3-5.43-.66c0 0-.02.78.42 1.47.31.49.86.94 1.81 1.02 2.29.2 3.2-1.83 3.2-1.83zM59.01 89.996s.86 1.98 3.66 1.83c2.8-.15 2.59-3.36 2.59-3.36s-1.01 4.88-6.25 1.53zM56.37 92.896s.86-.05 1.67 0c.82.05 1.58-.26 2.09-.36.51-.1 2.54.2 3.15.25M58.15 94.366s1.22.1 2.33-.25M77.1 103.016c-1.18.291-2.709.271-4.629-.25-.011 0-.029-.01-.041-.01M76.96 100.057s-1.46-.051-1.53-1.621c-.08-1.738 2-2.64 3.512-1.64.22.14.438.33.619.57.109.12.199.26.289.409.99 1.681.271 4.471-2.738 5.229M71.76 103.746c-.479.49-1.109.9-1.84 1.199-2.12.91-5.01.939-6.92-.689-1.01-.84-1.74-2.13-1.96-3.99"/><path d="M69.38 102.557s-1.42-1.58 0-2.851c1.54-1.38 4.53.36 3.091 3.06-.091.182-.201.36-.341.551a2.5 2.5 0 0 1-.31.351c0 .021-.021.04-.051.06M54.89 101.836s1.32.66 1.37-1.061c.06-1.729-2.44-1.879-2.99-.26-.03.09-.06.17-.08.26-.1.42-.13.881-.07 1.359.08.65.33 1.33.79 1.92.39.5.94.94 1.65 1.262.27.108.55.209.86.289 1.84.461 3.31-.319 4.19-1.289.59-.631.92-1.342.94-1.82"/><path d="M51.33 97.266s1.33.461 1.33-1.318c0-1.26-1.51-1.68-2.58-.87-.45.32-.82.858-.98 1.63-.56 2.63 1.56 3.95 4.09 4.07h.02M50.88 92.176s1.42.11 1.01-1.47c-.02-.09-.05-.17-.09-.25-.57-1.3-2.73-.97-3.26.71-.56 1.78.4 3.41 1.47 3.81M60.59 104.275s.01.011.02.041c.09.18.42.92.38 1.539l-.05.711s.97-1.932 2.04-2.291M62.31 107.536s.67-1.729 2.39-1.729c1.73 0 1.02 1.879 1.02 1.879s-.36-2.9-3.41-.15zM59.52 107.376s-.21-1.72-1.22-1.62c-1.02.102-.82 1.37-.82 1.37s.77-1.88 2.04.25zM59.06 112.416s-1.02-.46-.61-1.17c.41-.71 1.58-2.08 1.58-2.08s.66 1.83.56 2.59c-.11.76-1.53.66-1.53.66zM60.15 113.896c.01-.07.04-.121.08-.16 0 0 .31-1.271 1.12-.762.81.512 1.57 1.521 1.57 1.521s-.18.09-.44.189c-.46.189-1.19.449-1.64.42-.61-.038-.8-.829-.69-1.208zM58.6 115.057s1.02.26.51 1.119c-.51.86-1.52 2.131-1.52 2.131s-.41-1.721-.41-2.49c0-.76.46-1.171 1.42-.76zM57.47 113.706c.05-.22.07-.38.07-.38s.2-1.01-.36-1.061c-.56-.061-2.39 1.01-2.39 1.01s1.22 1.631 1.93 1.431c.44-.13.65-.64.75-1zM58.14 113.706c.06-.34.32-.66.67-.63.57.06.65.49.55.84-.03.08-.06.16-.1.23-.2.35-.86.398-1.06 0a.722.722 0 0 1-.06-.44zM54.08 128.376s0-.01.01-.04c.05-.32.38-2.46.75-4.43.41-2.141.46-2.391.46-2.391l2.54.101s-1.16 3.18-1.58 6.72v.04"/><path d="M54.69 128.376s0-.01.01-.04c.04-.311.36-2.33.65-3.82l.3-1.63.92.101s-.7 3.41-.96 5.351c-.01.011-.01.03-.01.04M53.06 102.146c-.02 0-.09.049-.23.158-1.13.9-6.33 5.66-10.29 12.961-4.06 7.479-4.82 12.329-4.91 13.061-.02.07-.02.1-.02.1M86.061 98.636s6.149 4.53 10.521 15.3c3.89 9.58 4.12 13.621 4.12 14.4v.141"/><path d="m52.86 102.146-.03.158c-.32 1.842-3.32 19.08-3.33 26.03v.04M53.82 104.126s-3.14 16.62-3.4 24.21v.04M55.55 105.346s-3.9 15.2-4.27 22.99v.04M56.42 105.605s-.94 3.229-1.97 7.59c-1.1 4.591-2.3 10.461-2.61 15.131M69.94 104.996s-2.36 2.5-6.23 10.3c-.14.29-.28.58-.43.88-3.76 7.74-4.98 11.551-5.16 12.16l-.03.09"/><path d="M71.82 103.666s-.021.02-.051.061c0 .01-.011.01-.011.021-.579.75-5.35 6.979-8.73 14.56-3.33 7.461-4.24 9.721-4.36 10.03-.02.03-.02.04-.02.04M77.109 103.006l-.01.01c-.271.25-4.641 4.32-9.959 12.4-4.94 7.5-7 12.08-7.36 12.92-.04.09-.06.141-.06.141"/><path d="M84.43 98.996s-.039.02-.13.061h-.01c-.61.301-3.28 1.729-7.79 5.939-5.189 4.82-9.97 12.449-12.51 16.62-2.2 3.62-3.26 6.12-3.5 6.72-.04.09-.06.141-.06.141"/></g></g><path fill="none" stroke="#000" stroke-miterlimit="10" d="M134.25 171.32c0 6.762-5.623 12.244-12.56 12.244H17.548c-6.936 0-12.56-5.482-12.56-12.244V16.994c0-6.762 5.624-12.244 12.56-12.244H121.69c6.937 0 12.56 5.482 12.56 12.244V171.32z"/></svg>