<svg xmlns="http://www.w3.org/2000/svg" width="140" height="190" xml:space="preserve"><path fill-opacity=".498" d="M21 5h103c8.864 0 16 7.136 16 16v153c0 8.864-7.136 16-16 16H21c-8.864 0-16-7.136-16-16V21c0-8.864 7.136-16 16-16z"/><path fill="#E7E7E7" d="M17 1h103c8.864 0 16 7.136 16 16v153c0 8.864-7.136 16-16 16H17c-8.864 0-16-7.136-16-16V17C1 8.136 8.136 1 17 1z"/><path fill="#C7891F" d="M19 3h103c8.864 0 16 7.136 16 16v153c0 8.864-7.136 16-16 16H19c-8.864 0-16-7.136-16-16V19c0-8.864 7.136-16 16-16z"/><path fill="#FFF" d="M18 2h103c8.864 0 16 7.136 16 16v153c0 8.864-7.136 16-16 16H18c-8.864 0-16-7.136-16-16V18C2 9.136 9.136 2 18 2z"/><path fill="red" d="M22.039 42.783h-.499c-4.087 0-7.266-1.367-9.536-4.099-2.271-2.733-3.406-6.537-3.406-11.414 0-4.862 1.129-8.673 3.389-11.433 2.27-2.76 5.394-4.139 9.37-4.139 4.021 0 7.149 1.366 9.387 4.099 2.248 2.732 3.373 6.557 3.373 11.473 0 3.376-.598 6.283-1.794 8.721-1.185 2.438-2.896 4.273-5.133 5.506l5 6.751h-6.097l-4.054-5.465m-.682-25.479c-1.949 0-3.461.871-4.535 2.612-1.075 1.741-1.612 4.193-1.612 7.354 0 3.215.526 5.68 1.579 7.395 1.052 1.702 2.575 2.552 4.568 2.552 1.96 0 3.478-.871 4.552-2.612 1.074-1.742 1.611-4.187 1.611-7.334 0-3.161-.537-5.613-1.611-7.354-1.074-1.743-2.591-2.613-4.552-2.613M116.65 146.088h.5c4.086 0 7.265 1.366 9.535 4.1 2.271 2.732 3.405 6.537 3.405 11.412 0 4.863-1.13 8.674-3.39 11.435-2.271 2.76-5.395 4.139-9.37 4.139-4.021 0-7.147-1.364-9.388-4.099-2.248-2.732-3.371-6.559-3.371-11.475 0-3.375.599-6.281 1.794-8.721 1.186-2.438 2.896-4.273 5.134-5.506l-5.001-6.751h6.099l4.053 5.466m.682 25.478c1.949 0 3.461-.871 4.535-2.612s1.611-4.192 1.611-7.354c0-3.215-.525-5.68-1.578-7.395-1.051-1.701-2.574-2.553-4.568-2.553-1.96 0-3.479.871-4.553 2.613-1.073 1.74-1.61 4.186-1.61 7.334 0 3.161.537 5.612 1.61 7.354 1.075 1.74 2.593 2.613 4.553 2.613"/><g><path fill="red" d="M13.551 48.846c-.803.005-1.684.202-2.66.642-10.645 8.2 3.705 21.424 9.763 32.78l.175.057c6.659-12.41 19.333-26.069 9.649-32.837-7.673-3.46-9.723 8.058-9.794 8.474-.062-.362-1.628-9.153-7.133-9.116z"/></g><g><path fill="red" d="M125.31 139.995c.803-.005 1.685-.202 2.66-.643 10.645-8.2-3.704-21.423-9.763-32.778l-.174-.059c-6.659 12.413-19.334 26.069-9.648 32.837 7.672 3.46 9.72-8.057 9.793-8.473.062.363 1.628 9.153 7.132 9.116z"/></g><g><path fill="#F9B438" d="M89.59 80.8c.5 1.82 2.32 2.47 2.32 2.47s-1.51 1.22-1.62 2.94h-.011c-.09-2.47-.68-6.53-2.771-11.46l.062-.03c.039.1.09.21.148.31.91 1.62 2.881 2.02 2.881 2.02s-1.519 1.93-1.009 3.75z"/><path fill="#F9B438" d="M87.51 74.75a45.587 45.587 0 0 0-2.27-4.57c-.182-.31-.36-.61-.551-.92l.011-.01c.04.06.079.11.13.17 1.17 1.42 3.34 1.67 3.34 1.67s-1.189 2.04-.6 3.63l-.06.03zM86.42 97.97c.12.142.25.3.38.472-.06.828 1.011 2.209.87 3.738-.16 1.62-1.88 2.07-2.939 1.062a261.003 261.003 0 0 0-2.479-2.32l-.04-.03c1.1-1.56 1.93-3.119 2.53-4.738l.04.02c-.003-.004.638.566 1.638 1.796z"/><path fill="#F9B438" d="M84.689 69.26c-1-1.64-2.16-3.24-3.439-4.75 1.26 1.271 3.68.97 3.68.97s-1.16 2.33-.229 3.77l-.012.01zM80.98 60.78c-.062.17-.86 2.28.09 3.53a38.524 38.524 0 0 0-3.791-3.86c1.471.84 3.521.37 3.701.33zM79.37 104.359c-.2.351-.399 2.779-1.72 3.841-1.11.899-2.15.56-2.44.43 1.14-1.16 2.53-2.569 4.12-4.3l.04.029z"/><path fill="#3B820D" d="M75.21 108.63c.29.13 1.33.47 2.44-.43 1.318-1.062 1.52-3.49 1.72-3.841l-.04-.029c.24-.25.479-.51.72-.78.82-.899 1.53-1.78 2.16-2.659l.04.029s1.42 1.311 2.48 2.32c1.06 1.01 2.778.56 2.938-1.061.14-1.529-.93-2.91-.87-3.74.771.971 1.7 2.25 2.69 3.891-6.21 6.1-15.28 7.979-16.03 8.13.492-.54 1.071-1.14 1.752-1.83z"/><path fill="#F9B438" d="M76.24 56.12s-.87 2.19.22 3.63a30.058 30.058 0 0 0-4.101-2.9c1.511.41 3.881-.73 3.881-.73zM71.66 56.45c-1.24-.67-2.49-1.21-3.71-1.58v-.01c1.36.4 3.438-1.32 3.438-1.32s-.648 2 .272 2.91z"/><path d="M67.44 75.13s.2 1.22-.61 1.22c-.8 0-.7-1.22-.7-1.22h1.31z"/><path fill="#3B820D" d="M76.971 126.9c-1.041-.5-8.041-4.24-11.451-16.021v-.061c.72.041 1.46.051 2.22.061l.12-.05c1.08 2.54 3.169 4.17 3.169 4.17s0-.53.681-2.2c.261-.63.86-1.38 1.75-2.34.75-.15 9.819-2.029 16.03-8.13 1.42 2.31 2.99 5.319 4.439 9.101 3.891 10.109 3.649 14.92 3.6 15.479H97.5l-20.529-.009z"/><path fill="#C68722" d="M62.92 72.15s2.04-.38 5.76.3c3.72.68 3.87 1.06 3.87 1.06s-6.3-1.21-9.03-.07l-.6-1.29z"/><path fill="#F9B438" d="M67.85 104c-1.02-.01-1.98-.04-2.89-.1l.41-2.37v-.011c1.06.051 2.19.051 3.39.011l.06.028c-.37.771-.69 1.592-.94 2.45l-.03-.008z"/><path fill="#3B820D" d="M63.6 126.891c-.05-.261-.43-2.859.15-8.279.61-5.711 1.37-7.78 1.37-7.78v-.021c.13.01.26.01.4.01v.061c3.41 11.78 10.41 15.521 11.451 16.021l-13.371-.012z"/><path fill="#F9B438" d="M64.96 103.9c-.54-.03-1.06-.07-1.56-.11l.5-2.351c.47.041.96.061 1.47.08v.011l-.41 2.37zM63.75 54.26c.05 0 .1 0 .15-.01 1.42-.15 2.68-2.27 2.68-2.27s0 2.47 1.37 2.88v.01c-1.45-.43-2.86-.64-4.2-.57v-.04z"/><path fill="#F9B438" d="M63.4 103.79c-.61-.06-1.18-.12-1.73-.2l.01-.04.6-2.229.01-.039c.52.06 1.05.119 1.61.16l-.5 2.348zM61.02 111.51c.33-.24.69-.31.96-.33.56-.05.81.961-.15.961-.42 0-.67-.301-.81-.631z"/><path fill="#C68722" d="M60.72 64.34s-.23-3.95 1.13-6.07c0 0 3.72-1.06 11.31 6.14 7.58 7.21 12.96 16.46 12.96 22.91 0 3.31-.38 6.16-1.38 8.831-.602 1.619-1.432 3.181-2.53 4.74-.63.879-1.34 1.76-2.16 2.659-.239.271-.479.53-.72.78-1.59 1.729-2.98 3.14-4.12 4.3a61.87 61.87 0 0 0-1.75 1.83c-.89.96-1.489 1.71-1.75 2.34-.681 1.67-.681 2.2-.681 2.2s-2.089-1.63-3.169-4.17c-.43-1.01-.71-2.16-.62-3.41.01-.18.03-.359.05-.54.1-.97.3-1.938.59-2.87.25-.859.57-1.68.94-2.449.47-.99 1.02-1.891 1.62-2.641l-.09-.07s-.16-.959-.18-2.43c-.03-1.27.06-2.92.439-4.65.131-.59.291-1.2.5-1.8.58-1.69 1.601-2.979 2.761-4.14l-.03-.03s-3.55-7.39.561-14.12c-6.691.62-13.681-7.34-13.681-7.34z"/><path fill="#F9B438" d="M60.45 114.45c.67-.851 1.61-.341 1.23.22-.29.41-.88.31-1.23-.22zM61.68 103.55l-.01.04c-.6-.08-1.16-.17-1.7-.27l.85-2.2.01-.04c.46.08.95.141 1.46.2l-.01.04-.6 2.23z"/><path fill="#3B820D" d="M93.1 83.06c.25-.12.392-.32.33-.44-.06-.13-.31-.14-.55-.02-.25.12-.39.32-.33.45.059.13.309.13.55.01zm-3.26-12.97c-.08-.12-.33-.09-.55.07-.22.15-.33.37-.25.49.08.11.319.08.54-.07.231-.16.34-.38.26-.49zm1.81 6.26c-.24.12-.392.32-.32.44.061.13.311.13.55.01.24-.12.39-.31.32-.44-.059-.13-.309-.13-.55-.01zm-9.92-16.23c.1.1.328.03.52-.16.2-.18.279-.42.18-.52s-.34-.03-.529.16c-.191.19-.271.42-.171.52zm4.14 4.3c-.19.19-.271.42-.17.53.1.1.329.03.53-.16.188-.19.27-.43.17-.53-.1-.1-.33-.03-.53.16zM77 55.33c.109.09.33-.01.5-.22s.221-.45.109-.54c-.109-.09-.33.01-.5.22s-.218.45-.109.54zm-4.84-2.77c.13.06.32-.09.439-.33.109-.25.101-.49-.021-.55-.13-.06-.33.09-.44.33-.118.25-.109.49.022.55zm-5.47-2.07c-.05.26.02.5.16.52.14.03.29-.17.34-.43.04-.27-.03-.51-.17-.53-.14-.03-.29.17-.33.44zm-2.94 3.77c-1.34 0-2.38-1.83-2.38-1.83l-.11-.43c.14 0 .25-.23.24-.5 0-.27-.12-.48-.26-.48-.03 0-.07.01-.1.04l-.1-.36c.04-.02.09-.03.13-.04 4.1-1.16 6.68-4.7 6.68-4.7s1.82 3.39 10.458 4.65c8.65 1.27 14.771-1.52 14.771-1.52s-1.721 7.54-.96 16.64c.75 9.1 5.56 13.9 5.56 13.9s-3.85 2.93-6.979 7.84c-.141.21-.271.43-.4.65l-.06-.04c.04-.44.06-1.07.04-1.87h.01c.109-1.72 1.62-2.94 1.62-2.94s-1.82-.65-2.32-2.47c-.51-1.82 1.011-3.75 1.011-3.75s-1.971-.4-2.881-2.02c-.06-.1-.109-.21-.148-.311-.59-1.59.6-3.63.6-3.63s-2.17-.25-3.34-1.67c-.05-.06-.09-.11-.13-.17-.931-1.44.229-3.77.229-3.77s-2.42.3-3.681-.97c-.06-.06-.12-.13-.181-.2-.949-1.25-.149-3.36-.09-3.53-.181.04-2.229.51-3.699-.33-.271-.24-.54-.47-.82-.7-1.09-1.44-.22-3.63-.22-3.63s-2.37 1.14-3.88.73c-.23-.14-.461-.27-.7-.4-.92-.91-.271-2.91-.271-2.91s-2.081 1.72-3.439 1.32c-1.37-.41-1.37-2.88-1.37-2.88s-1.26 2.12-2.68 2.27c-.05.011-.1.011-.15.011z"/><path fill="#F9B438" d="M59.98 117.21c.92-.399 1.52.81.89.851-.38.019-.72-.301-.89-.851zM60.83 101.08l-.01.04-.85 2.2c-.54-.09-1.04-.2-1.52-.312l.95-2.14.01-.051c.45.093.92.183 1.42.263zM59.76 120.99a1.04 1.04 0 0 1-.61-.37c.28-.41.68-.54 1.01-.59.61-.1.56 1.111-.4.96zM58.86 123.391c.6-.541 1.53-.261 1.25.129-.29.41-.95.55-1.25-.129z"/><path fill="#F7DBD5" d="M63.65 97.28c-2.43-.13-3.85-.7-4.54-1.08.39-1.01.19-2.81.19-2.81l.03-.03c3.25 2.59 7.39 2.69 11.279-1.59a19.922 19.922 0 0 0-.439 4.65h-.1s-2.73 1.06-6.42.86z"/><path fill="#F9B438" d="M58.57 125.93c.58-.609 1.27.03 1.03.271-.21.209-.74.399-1.03-.271zM59.41 100.82l-.01.05-.95 2.14c-.49-.109-.94-.229-1.37-.359v-.01l1.05-2.109c.4.098.82.198 1.28.288z"/><path fill="#F9B438" d="M60.11 123.52c.28-.39-.65-.67-1.25-.129-.12-.24-.18-.591-.17-1.08.03-.83.21-1.351.46-1.689.17.199.38.33.61.37.96.149 1.01-1.062.4-.96-.33.05-.73.18-1.01.59-.54-.63-.67-1.93.25-2.971.2-.221.39-.359.58-.439.17.55.51.87.89.85.63-.039.03-1.25-.89-.85-.17-.54-.18-1.3.13-2.13.1-.261.21-.47.34-.63.35.529.94.63 1.23.22.38-.56-.56-1.069-1.23-.22-.21-.311-.33-.79-.24-1.4.13-.84.45-1.29.81-1.54.14.33.39.63.81.63.96 0 .71-1.01.15-.959-.27.021-.63.09-.96.329a3.13 3.13 0 0 1-.2-.93l.01-.101c1.32.149 2.75.261 4.29.33v.021s-.76 2.069-1.37 7.78c-.58 5.42-.2 8.02-.15 8.279h-5.5c.13-.461.29-.771.47-.961.29.67.82.48 1.03.271.24-.24-.45-.881-1.03-.271-.11-.26-.18-.66-.18-1.25 0-.64.2-1.05.47-1.289.3.679.96.539 1.25.129z"/><path fill="#F9B438" d="M56.33 126.891c.03-.359.25-2.211 1.05-6.91.91-5.311 2.17-9.561 2.17-9.561l.01-.09c.41.061.83.109 1.27.15l-.01.1s.02.49.2.93c-.36.25-.68.7-.81 1.54-.09.61.03 1.091.24 1.4-.13.159-.24.37-.34.63-.31.83-.3 1.59-.13 2.13-.19.08-.38.22-.58.44-.92 1.039-.79 2.34-.25 2.97-.25.34-.43.86-.46 1.688-.01.49.05.842.17 1.08-.27.24-.47.65-.47 1.291 0 .59.07.989.18 1.25-.18.189-.34.5-.47.959h-1.77v.003z"/><path fill="#3B820D" d="M53.67 98.87c2.96-1.99 4.92-3.011 4.92-3.011s.16.141.52.341c.69.38 2.11.95 4.54 1.08 3.69.2 6.42-.86 6.42-.86h.1c.02 1.471.18 2.43.18 2.43l.09.07c-.6.75-1.15 1.65-1.62 2.641l-.06-.029c-1.2.039-2.33.039-3.39-.012-.51-.02-1-.039-1.47-.078-.56-.041-1.09-.102-1.61-.16-.51-.062-1-.12-1.46-.2a34.974 34.974 0 0 1-2.7-.55c-.41-.102-.79-.211-1.14-.312-.98-.3-1.74-.59-2.28-.829-.68-.291-1.02-.49-1.02-.49l-.02-.031z"/><path fill="#F9B438" d="M57.08 102.641v.01a15.67 15.67 0 0 1-1.33-.431l.01-.04 1.22-1.92.01-.04c.35.101.73.21 1.14.312l-1.05 2.109z"/><path fill="#3B820D" d="M57.26 52.49c-.14.02-.22.26-.18.52.04.271.18.47.32.45s.22-.26.18-.52c-.04-.27-.18-.47-.32-.45zm-2.06 4.16.66-5.48s1.19.64 5.18-.47l.1.36c-.09.07-.15.25-.15.45.01.27.13.49.27.49l.11.43s-.45 2.13-1.66 2.58c-1.22.45-2.08-.91-2.08-.91s-.3 1.92-1.06 2.43c-.63.42-1.2.21-1.37.12z"/><path fill="#F9B438" d="M57.01 111.29c-.14.08-.3.13-.49.14-1.01.062-.81-1.109-.15-.96.29.07.54.4.64.82z"/><path d="M56.67 75.49c.41.55 0 1.41-.55 1.21-.56-.2-.41-1.26-.41-1.26l.96.05z"/><path fill="#CE1300" d="M56.92 118.77c1.22-6.22 1.98-8.5 1.98-8.5v-.028c.21.028.43.06.66.09l-.01.09s-1.26 4.25-2.17 9.562c-.8 4.699-1.02 6.55-1.05 6.908h-.67c.02-.412.18-2.572 1.26-8.122z"/><path fill="#3B820D" d="M60.77 104.51c2.47.15.81 5.51 3.49 5.61 2.68.1 3.03-3.24 3.03-3.24-.02.181-.04.36-.05.54-.09 1.25.19 2.4.62 3.41l-.12.05c-.76-.01-1.5-.021-2.22-.06-.14 0-.27 0-.4-.012-1.54-.068-2.97-.18-4.29-.328-.44-.041-.86-.092-1.27-.15-.23-.03-.45-.061-.66-.09a48.083 48.083 0 0 1-3.27-.58l.12-.561c2.83.292 2.61-4.74 5.02-4.589z"/><path fill="#F9B438" d="M56.18 113.22c-.96.562-1.49-.25-1.03-.67.33-.3.84-.04 1.03.67z"/><path fill="#F9B438" d="M55.05 119.37c.07-.46.03-.8-.07-1.062.25-.26.47-.688.63-1.31.11-.44.09-.78-.01-1.04.23-.26.44-.67.57-1.24.14-.619.12-1.119.01-1.5.08-.05.16-.1.24-.17.63-.49.74-1.199.59-1.76.6-.34.77-1.17.77-1.17l.01-.051c.36.061.73.121 1.11.171v.028s-.76 2.28-1.98 8.5c-1.08 5.551-1.24 7.711-1.26 8.121h-2.24c.7-.561.73-1.699.48-2.511.57-.34 1.03-1.188.7-2.53-.07-.27-.16-.479-.26-.63.3-.325.57-.916.71-1.846z"/><path fill="#C68722" d="M55.33 73.13c1.82-.75 3.79-.52 3.79-.52s.21.32.47.88c-3.16-.51-6.31.78-6.31.78s.23-.38 2.05-1.14z"/><path fill="#F9B438" d="M55.6 115.96c-.48.55-1.05.45-1.15-.13-.11-.65.87-.689 1.15.13zM63.24 54.35c-6.51.72-8.04 3.71-8.29 4.37l.25-2.07c.17.09.74.3 1.37-.12.76-.51 1.06-2.43 1.06-2.43s.86 1.36 2.08.91c1.21-.45 1.66-2.58 1.66-2.58s1.04 1.83 2.38 1.83v.04c-.17.02-.34.03-.51.05z"/><path fill="#F9B438" d="M54.95 58.72c.25-.66 1.78-3.65 8.29-4.37.17-.02.34-.03.51-.05 1.34-.07 2.75.14 4.2.57 1.22.37 2.47.91 3.71 1.58.1.11.229.21.38.28.101.05.21.09.319.12 1.391.81 2.771 1.79 4.101 2.9.08.11.17.21.28.31.17.16.35.29.539.39a38.524 38.524 0 0 1 3.791 3.86c.06.07.119.14.18.2a37.983 37.983 0 0 1 3.439 4.75c.189.31.369.61.551.92a46.911 46.911 0 0 1 2.27 4.57c2.09 4.93 2.682 8.99 2.771 11.46.02.8 0 1.43-.04 1.87l.06.04c-2.59 4.32-3.699 9.04-3.88 9.85-1-1.229-1.64-1.8-1.64-1.8l-.04-.02c1-2.67 1.38-5.521 1.38-8.832 0-6.45-5.38-15.7-12.96-22.91-7.59-7.2-11.31-6.14-11.31-6.14s-4.54.22-7.38 4.42l.479-3.968zM53.84 118.21c-.19-.58.81-.75 1.14.101-.46.509-.98.399-1.14-.101zM55.76 102.18l-.01.04c-1.16-.409-2.03-.84-2.64-1.21l.02-.04 1.58-1.579c.54.239 1.3.529 2.28.829l-.01.04-1.22 1.92zM54.34 121.22c-.33.37-.71.421-1.01.23-.47-.309.45-1.12 1.01-.23z"/><path fill="#C68722" d="M60.72 64.34s-.08.76-2.43 3.41c-2.07 2.34-5.31 3.44-6.06 3.67.05-3.32.67-6.16 1.96-8.3.09-.15.18-.29.28-.43 2.84-4.2 7.38-4.42 7.38-4.42-1.36 2.12-1.13 6.07-1.13 6.07z"/><path fill="#F9B438" d="m54.71 99.391-1.58 1.579-.02.04c-.73-.43-1.11-.779-1.24-.898.57-.41 1.12-.791 1.64-1.142.06-.04.11-.069.16-.1l.02.03s.34.2 1.02.491z"/><path fill="#F7DBD5" d="M66.83 76.35c.81 0 .61-1.22.61-1.22h-1.31s-.1 1.22.7 1.22zm-3.31-2.91c2.73-1.14 9.03.07 9.03.07s-.149-.38-3.87-1.06c-3.72-.68-5.76-.3-5.76-.3l.6 1.29zm-10.24.83s3.15-1.29 6.31-.78c-.26-.56-.47-.88-.47-.88s-1.97-.23-3.79.52c-1.82.76-2.05 1.14-2.05 1.14zm6.05 19.09c-2.35-1.86-4.23-5.03-5.21-8.77-1.06-4.05-1.72-7.87-1.87-11.28-.02-.65-.03-1.28-.02-1.89.75-.23 3.99-1.33 6.06-3.67 2.35-2.65 2.43-3.41 2.43-3.41s6.99 7.96 13.68 7.34c-4.11 6.73-.56 14.12-.56 14.12l.03.03c-1.16 1.16-2.181 2.45-2.761 4.14-.209.6-.369 1.21-.5 1.8-3.889 4.28-8.029 4.18-11.279 1.59zM56.12 76.7c.55.2.96-.66.55-1.21l-.96-.05s-.15 1.06.41 1.26z"/><path fill="#F9B438" d="M53.9 124.38c-.2.14-.42.2-.62.2-.75 0-.86-1.11-.1-1.11.29 0 .56.38.72.91z"/><path fill="#F9B438" d="M56.18 113.22c.11.38.13.88-.01 1.5-.13.57-.34.98-.57 1.24-.28-.819-1.26-.78-1.15-.13.1.58.67.68 1.15.13.1.26.12.601.01 1.04-.16.62-.38 1.05-.63 1.311-.33-.851-1.33-.681-1.14-.101.16.5.68.61 1.14.101.1.26.14.601.07 1.061-.14.93-.41 1.52-.71 1.85-.56-.89-1.48-.08-1.01.23.3.189.68.14 1.01-.23.1.15.19.36.26.631.33 1.34-.13 2.189-.7 2.529-.16-.529-.43-.91-.72-.91-.76 0-.65 1.11.1 1.11.2 0 .42-.062.62-.2.25.811.22 1.95-.48 2.51h-2.51c.01-.56.15-4.459 1.31-9.14 1.27-5.05 2.78-8.14 2.78-8.14l.02-.092c.2.051.4.102.61.142.68.149 1.39.28 2.16.409l-.01.051s-.17.83-.77 1.17c-.1-.42-.35-.75-.64-.82-.66-.148-.86 1.021.15.961.19-.011.35-.061.49-.141.15.561.04 1.27-.59 1.76-.08.068-.16.118-.24.168-.19-.71-.7-.97-1.03-.67-.46.42.07 1.23 1.03.67zM55.75 102.22c.41.15.85.3 1.33.431.43.131.88.25 1.37.359.48.11.98.221 1.52.311.54.101 1.1.189 1.7.271.55.08 1.12.142 1.73.2.5.04 1.02.08 1.56.109.91.061 1.87.091 2.89.101l.03.01c-.29.931-.49 1.9-.59 2.87 0 0-.35 3.34-3.03 3.24-2.68-.102-1.02-5.46-3.49-5.61-2.41-.149-2.19 4.88-5.02 4.591-.08-.011-.16-.021-.24-.041-3.09-.608.2-5.818-1.82-6.47-2.02-.659-3.29 1.771-4.65 2.47-1.37.711-2.43-.148-2.43-.148l-.01-.01c1.43-1.642 2.91-3.07 4.36-4.131.31-.229.61-.449.91-.66.13.121.51.471 1.24.899.61.368 1.48.799 2.64 1.208z"/><path fill="#C68722" d="M58.59 95.859s-1.96 1.021-4.92 3.011c-.05.03-.1.06-.16.1-3.37-3.06-5.14-10.51-4.37-16.2.55-4.15 3.08-9.46 3.08-9.46h.03c.15 3.41.81 7.23 1.87 11.28.98 3.74 2.86 6.91 5.21 8.77l-.03.03s.2 1.8-.19 2.81c-.36-.2-.52-.341-.52-.341z"/><path fill="#3B820D" d="M46.61 104.91s1.06.859 2.43.148c1.36-.699 2.63-3.129 4.65-2.47 2.02.65-1.27 5.86 1.82 6.47.08.021.16.03.24.041l-.12.561c-.21-.04-.41-.09-.61-.141-.24-.051-.48-.109-.71-.16-6.06-1.51-8.41-3.59-8.41-3.59l-.04-.029c.25-.28.49-.57.74-.84l.01.01z"/><path fill="#3B820D" d="M37.21 126.859s7.88-2.079 17.09-17.449l.01-.051c.23.051.47.109.71.16l-.02.09s-1.51 3.091-2.78 8.141c-1.16 4.68-1.3 8.58-1.31 9.141l-13.7-.011v-.021z"/><path fill="#3B820D" d="M37.21 126.859v.021h-1.82c.05-.63.44-4.93 3.33-10.39 1.93-3.641 4.46-7.54 7.14-10.75l.04.029s2.35 2.08 8.41 3.59l-.01.051c-9.21 15.37-17.09 17.449-17.09 17.449z"/><g fill="none" stroke="#000" stroke-width=".5" stroke-miterlimit="10"><path d="M35.37 126.88h1.84l13.7.011H63.6l13.371.009 20.529.01M52.07 71.47s.06-.02.16-.05c.75-.23 3.99-1.33 6.06-3.67 2.35-2.65 2.43-3.41 2.43-3.41s-.23-3.95 1.13-6.07c0 0-4.54.22-7.38 4.42-.1.14-.19.28-.28.43-1.29 2.14-1.91 4.98-1.96 8.3-.01.61 0 1.24.02 1.89.15 3.41.81 7.23 1.87 11.28.98 3.74 2.86 6.91 5.21 8.77 3.25 2.59 7.39 2.69 11.279-1.59.041-.04.08-.09.121-.13"/><path d="M61.85 58.27s3.72-1.06 11.31 6.14c7.58 7.21 12.96 16.46 12.96 22.91 0 3.31-.38 6.16-1.38 8.831-.602 1.619-1.432 3.181-2.53 4.74-.63.879-1.34 1.76-2.16 2.659-.239.271-.479.53-.72.78-1.59 1.729-2.98 3.141-4.12 4.3a61.87 61.87 0 0 0-1.75 1.83c-.89.96-1.489 1.71-1.75 2.34-.681 1.671-.681 2.2-.681 2.2s-2.089-1.63-3.169-4.17c-.43-1.01-.71-2.16-.62-3.41.01-.18.03-.359.05-.54.1-.97.3-1.938.59-2.87.25-.859.57-1.68.94-2.449.47-.99 1.02-1.891 1.62-2.641.621-.79 1.291-1.42 1.96-1.82 2.42-1.438 2.949-2.648 2.949-2.648"/><path d="M70.35 98.85s-.16-.959-.18-2.43c-.03-1.27.06-2.92.439-4.65.131-.59.291-1.2.5-1.8.58-1.69 1.601-2.979 2.761-4.14 1.86-1.84 4.101-3.31 5.5-5.41M73.84 85.8s-3.55-7.39.561-14.12c.021-.02.029-.04.041-.06"/><path d="M60.72 64.34s6.99 7.96 13.68 7.34c.779-.07 1.56-.26 2.318-.59M59.43 64.19s-2.13 2.73-5.69 4.47M59.58 62.14s-1.9 1.67-3.79 2.8M59.96 60.62s-1.75.68-2.5 1.22"/><path d="M61.85 63.88s6.6 6.07 13.73 6.07M62.23 62.22s7.82 5 11.23 5.23M62.69 60.39s5.31 2.73 8.041 4.02M59.59 73.49c.03 0 .05.01.08.01"/><path d="M59.59 73.49c-.26-.56-.47-.88-.47-.88s-1.97-.23-3.79.52c-1.82.76-2.05 1.14-2.05 1.14s3.15-1.29 6.31-.78zM62.39 84.97s-.69 0-1.9-.689c-1.21-.68-.46-2.04 0-5.46.3-2.25-.4-4.24-.9-5.33M63.52 73.44l-.6-1.29s2.04-.38 5.76.3c3.72.68 3.87 1.06 3.87 1.06s-6.3-1.21-9.03-.07zM54.42 75.64s1.59-.76 3.79.3M64.81 75.26s2.5-.68 4.86.23M55.56 78.06s.98.08 1.59-.07M65.95 77.91c.23-.07 1.74 0 2.35-.07"/><path d="M55.18 75.49s-.38 1.97 1.14 1.89c1.51-.07.83-1.74.83-1.74M65.57 75.18s-.15 1.98 1.44 1.9c1.59-.08.91-1.9.91-1.9M59.81 87.98s.91.15 1.56.25c.66.1 1.07-.05 2.13-.25l1.06-.21M61.27 89.69s.96-.05 1.62-.05M61.17 86.91s.41.15.76 0M52.22 73.31s-2.53 5.31-3.08 9.46c-.77 5.69 1 13.14 4.37 16.2l.03.03"/><path d="M51.97 78.77c-.15.05-2.73 9.05 1.26 16.64"/><path d="M52.73 82.92c-.1.15-.46 7.79 2.83 12.59M54.5 88.78s1.21 3.64 3.08 5.97M77.3 71.49c0 .15-.2 3.14-2.479 5.77M78.609 73.57s.711 3.13-2.721 7.88M81.8 79.08c-.05.2-.25 3.99-4.85 7.78M83.07 81.45c-.062.15-.66 6.02-6.23 9.91M83.32 88.13s-2.182 9.4-10.721 13.9M82.91 94.7c-.051.15-4.7 7.53-8.04 10.569M59.3 93.39s.2 1.8-.19 2.81c-.01.01-.01.01-.01.02"/><path d="M70.07 96.42s-2.73 1.061-6.42.86c-2.43-.13-3.85-.7-4.54-1.08-.36-.2-.52-.341-.52-.341s-1.96 1.021-4.92 3.011c-.05.03-.1.06-.16.1-.52.351-1.07.73-1.64 1.142-.3.209-.6.43-.91.658-1.45 1.062-2.93 2.49-4.36 4.131-.25.271-.49.561-.74.841-2.68 3.21-5.21 7.108-7.14 10.75-2.89 5.46-3.28 9.76-3.33 10.39v.08M84.779 96.17s.641.57 1.641 1.8c.12.142.25.3.38.472.771.97 1.7 2.25 2.69 3.89 1.42 2.31 2.99 5.319 4.439 9.101 3.891 10.109 3.649 14.92 3.6 15.479v.05"/><path d="M45.9 105.77s2.35 2.08 8.41 3.592c.23.05.47.108.71.158.2.051.4.102.61.142.68.149 1.39.28 2.16.409.36.061.73.121 1.11.171.21.028.43.06.66.09.41.06.83.11 1.27.149 1.32.149 2.75.261 4.29.33.13.01.26.01.4.01.72.041 1.46.051 2.22.061M73.41 110.47s.02 0 .05-.01c.75-.149 9.819-2.03 16.03-8.13"/><path d="M46.61 104.91s1.06.859 2.43.148c1.36-.699 2.63-3.129 4.65-2.47 2.02.65-1.27 5.86 1.82 6.47.08.021.16.03.24.041 2.83.289 2.61-4.74 5.02-4.591 2.47.15.81 5.511 3.49 5.61 2.68.1 3.03-3.24 3.03-3.24M75.13 108.6s.03.021.08.03c.29.13 1.33.47 2.44-.43 1.318-1.062 1.52-3.49 1.72-3.841M82.25 100.92s1.42 1.311 2.48 2.32c1.06 1.01 2.778.56 2.938-1.061.14-1.529-.93-2.91-.87-3.74a.349.349 0 0 1 .01-.149M51.82 100.061l.05.051c.13.119.51.47 1.24.898.61.37 1.48.801 2.64 1.21.41.15.85.3 1.33.431.43.131.88.25 1.37.359.48.11.98.221 1.52.311.54.101 1.1.189 1.7.271.55.08 1.12.142 1.73.2.5.04 1.02.08 1.56.109.91.061 1.87.091 2.89.101M53.69 98.9s.34.199 1.02.488c.54.24 1.3.53 2.28.83a27.678 27.678 0 0 0 2.42.602c.45.09.92.18 1.42.26.46.08.95.14 1.46.2a35.132 35.132 0 0 0 3.08.239c1.06.051 2.19.051 3.39.011M67.09 101.63l-.31 2.27M65.37 101.53l-.41 2.37"/><path d="M63.9 101.42v.019l-.5 2.351v.01M62.28 101.32l-.6 2.23M60.82 101.12l-.85 2.2-.01.03M59.4 100.87l-.95 2.14-.01.03M58.14 100.51l-.01.02-1.05 2.111M56.98 100.26l-1.22 1.92M55.76 99.859l-1.26 1.771M54.75 99.35l-.04.041-1.58 1.579M37.21 126.859s7.88-2.079 17.09-17.449M77.1 126.96s-.05-.021-.129-.06c-1.041-.5-8.041-4.24-11.451-16.021M65.12 110.83s-.76 2.07-1.37 7.779c-.58 5.421-.2 8.021-.15 8.279v.021M55 109.609s-1.51 3.091-2.78 8.141c-1.16 4.68-1.3 8.58-1.31 9.141v.069M58.9 110.27s-.76 2.28-1.98 8.5c-1.08 5.551-1.24 7.711-1.26 8.121v.069M59.55 110.42s-1.26 4.25-2.17 9.561c-.8 4.699-1.02 6.551-1.05 6.91-.01.051-.01.069-.01.069M53.9 124.38c.25.812.22 1.95-.48 2.511a.492.492 0 0 1-.09.069M53.9 124.38c-.2.14-.42.2-.62.2-.75 0-.86-1.11-.1-1.11.29 0 .56.38.72.91zM54.34 121.22c.1.15.19.36.26.63.33 1.342-.13 2.19-.7 2.53M54.34 121.22c-.33.37-.71.421-1.01.23-.47-.309.45-1.12 1.01-.23z"/><path d="M54.98 118.311c.1.26.14.601.07 1.061-.14.93-.41 1.52-.71 1.85M54.98 118.311c-.46.51-.98.399-1.14-.101-.19-.58.81-.75 1.14.101zM55.6 115.96c.1.26.12.601.01 1.04-.16.62-.38 1.05-.63 1.311M55.6 115.96c-.48.55-1.05.45-1.15-.13-.11-.65.87-.689 1.15.13zM56.18 113.22c.11.38.13.88-.01 1.5-.13.57-.34.98-.57 1.24M56.18 113.22c-.96.562-1.49-.25-1.03-.67.33-.3.84-.04 1.03.67z"/><path d="M57.01 111.29c.15.56.04 1.271-.59 1.76-.08.07-.16.12-.24.17M57.01 111.29c-.14.08-.3.13-.49.14-1.01.062-.81-1.109-.15-.96.29.07.54.4.64.82zM57.78 110.12s-.17.83-.77 1.17M58.57 125.93c-.18.19-.34.5-.47.961-.01.01-.01.01-.01.021M58.57 125.93c.29.67.82.48 1.03.271.24-.241-.45-.881-1.03-.271zM58.86 123.391c-.27.239-.47.649-.47 1.289 0 .59.07.99.18 1.25M58.86 123.391c.3.68.96.539 1.25.129.28-.39-.65-.67-1.25-.129zM59.15 120.62c-.25.34-.43.86-.46 1.688-.01.49.05.842.17 1.08M59.15 120.62c.17.2.38.33.61.37.96.148 1.01-1.061.4-.96-.33.05-.73.18-1.01.59zM59.98 117.21c-.19.08-.38.22-.58.44-.92 1.039-.79 2.34-.25 2.97M59.98 117.21c.17.55.51.87.89.851.63-.041.03-1.25-.89-.851zM60.45 114.45c-.13.159-.24.37-.34.63-.31.83-.3 1.59-.13 2.13M60.45 114.45c.35.53.94.63 1.23.22.38-.561-.56-1.07-1.23-.22z"/><path d="M61.02 111.51c-.36.25-.68.7-.81 1.54-.09.61.03 1.091.24 1.4M61.02 111.51c.14.33.39.631.81.631.96 0 .71-1.011.15-.961-.27.02-.63.09-.96.33zM60.82 110.58s.02.49.2.93M86.4 98.09s.01-.04.02-.12c.18-.81 1.29-5.53 3.88-9.85.13-.22.261-.44.4-.65 3.13-4.91 6.979-7.84 6.979-7.84s-4.811-4.8-5.561-13.9c-.76-9.1.96-16.64.96-16.64s-6.12 2.79-14.771 1.52c-8.641-1.26-10.459-4.65-10.459-4.65s-2.58 3.54-6.68 4.7c-.04.01-.09.02-.13.04-3.99 1.11-5.18.47-5.18.47l-.66 5.48-.25 2.07-.48 3.97-.02.16"/><path d="M81.25 64.51a37.983 37.983 0 0 1 3.439 4.75c.189.31.369.61.551.92a46.911 46.911 0 0 1 2.27 4.57c2.09 4.93 2.682 8.99 2.771 11.46.02.8 0 1.43-.04 1.87M54.9 58.85s.01-.05.05-.13c.25-.66 1.78-3.65 8.29-4.37.17-.02.34-.03.51-.05 1.34-.07 2.75.14 4.2.57 1.22.37 2.47.91 3.71 1.58.24.13.47.26.699.4 1.391.81 2.771 1.79 4.101 2.9.28.23.55.46.819.7a38.524 38.524 0 0 1 3.791 3.86"/><path d="m80.99 60.77-.01.01c-.062.17-.86 2.28.09 3.53.06.07.119.14.18.2 1.26 1.27 3.68.97 3.68.97s-1.16 2.33-.229 3.77c.04.06.08.11.13.17 1.17 1.42 3.34 1.67 3.34 1.67s-1.188 2.04-.601 3.63c.041.1.091.21.15.31.909 1.62 2.879 2.02 2.879 2.02s-1.52 1.93-1.01 3.75c.5 1.82 2.32 2.47 2.32 2.47s-1.51 1.22-1.62 2.94M55.15 56.63s.02.01.05.02c.17.09.74.3 1.37-.12.76-.51 1.06-2.43 1.06-2.43s.86 1.36 2.08.91c1.21-.45 1.66-2.58 1.66-2.58s1.04 1.83 2.38 1.83c.05 0 .1 0 .15-.01 1.42-.15 2.68-2.27 2.68-2.27s0 2.47 1.37 2.88c1.36.4 3.438-1.32 3.438-1.32s-.648 2 .271 2.91c.1.11.229.21.38.28.101.05.21.09.319.12 1.511.41 3.881-.73 3.881-.73s-.87 2.19.22 3.63c.08.11.17.21.28.31.17.16.35.29.539.39 1.471.84 3.521.37 3.701.33M57.58 52.94c.04.26-.04.5-.18.52s-.28-.18-.32-.45c-.04-.26.04-.5.18-.52.14-.02.28.18.32.45zM61.14 51.06c.03-.03.07-.04.1-.04.14 0 .26.21.26.48.01.27-.1.5-.24.5-.14 0-.26-.22-.27-.49 0-.2.06-.38.15-.45zM67.19 50.58c-.05.26-.2.46-.34.43-.14-.02-.21-.26-.16-.52.04-.271.19-.47.33-.44.14.02.21.26.17.53zM72.6 52.23c-.119.24-.31.39-.438.33s-.142-.3-.021-.55c.109-.24.311-.39.439-.33.12.06.13.3.02.55z"/><ellipse transform="rotate(-50.617 77.3 54.957)" cx="77.305" cy="54.956" rx=".487" ry=".252"/><path d="M82.25 59.96c-.189.19-.42.26-.52.16-.102-.1-.021-.33.17-.52.188-.19.43-.26.529-.16s.021.34-.179.52zM86.23 64.79c-.201.19-.432.26-.53.16-.101-.11-.021-.34.17-.53.2-.19.43-.26.53-.16.1.1.02.34-.17.53zM89.58 70.58c-.221.15-.46.18-.54.07-.08-.12.03-.34.25-.49.22-.16.47-.19.55-.07.08.11-.029.33-.26.49zM91.88 76.8c-.239.12-.489.12-.55-.01-.07-.12.08-.32.32-.44.238-.12.488-.12.55.01.07.13-.08.32-.32.44zM93.1 83.06c-.238.12-.488.12-.55-.01-.06-.13.08-.33.33-.45.24-.12.49-.11.55.02.06.12-.08.32-.33.44z"/></g></g><path fill="none" stroke="#000" stroke-miterlimit="10" d="M133.75 171.32c0 6.762-5.623 12.244-12.56 12.244H17.048c-6.936 0-12.56-5.482-12.56-12.244V16.994c0-6.762 5.624-12.244 12.56-12.244H121.19c6.937 0 12.56 5.482 12.56 12.244V171.32z"/></svg>