<?xml version="1.0" encoding="utf-8"?>
<!-- Generator: Adobe Illustrator 16.0.0, SVG Export Plug-In . SVG Version: 6.00 Build 0)  -->
<!DOCTYPE svg PUBLIC "-//W3C//DTD SVG 1.1//EN" "http://www.w3.org/Graphics/SVG/1.1/DTD/svg11.dtd">
<svg version="1.1"
	 id="svg2" xmlns:dc="http://purl.org/dc/elements/1.1/" xmlns:cc="http://web.resource.org/cc/" xmlns:rdf="http://www.w3.org/1999/02/22-rdf-syntax-ns#" xmlns:svg="http://www.w3.org/2000/svg" xmlns:sodipodi="http://inkscape.sourceforge.net/DTD/sodipodi-0.dtd" xmlns:inkscape="http://www.inkscape.org/namespaces/inkscape" sodipodi:docbase="/home/nicu/Desktop/simple" sodipodi:docname="h_10.svg" inkscape:version="0.41" sodipodi:version="0.32"
	 xmlns="http://www.w3.org/2000/svg" xmlns:xlink="http://www.w3.org/1999/xlink" x="0px" y="0px" width="140px" height="190px"
	 viewBox="0 0 140 190" enable-background="new 0 0 140 190" xml:space="preserve">
<sodipodi:namedview  inkscape:cx="122.70048" inkscape:cy="149.45989" inkscape:zoom="1.9105263" borderopacity="1.0" bordercolor="#666666" pagecolor="#ffffff" id="base" inkscape:window-x="0" inkscape:pageshadow="2" inkscape:pageopacity="0.0" inkscape:window-height="791" inkscape:current-layer="svg2" inkscape:window-y="26" inkscape:window-width="1152">
	</sodipodi:namedview>
<g id="layer1" inkscape:label="Layer 1" inkscape:groupmode="layer">
	<g id="g5630">
		<path id="rect2070" fill-opacity="0.498" d="M21,5h103c8.864,0,16,7.136,16,16v153c0,8.864-7.136,16-16,16H21
			c-8.864,0-16-7.136-16-16V21C5,12.136,12.136,5,21,5z"/>
		<path id="rect1300" fill="#E7E7E7" d="M17,1h103c8.864,0,16,7.136,16,16v153c0,8.864-7.136,16-16,16H17c-8.864,0-16-7.136-16-16
			V17C1,8.136,8.136,1,17,1z"/>
		<path id="path5624" fill="#C7891F" d="M19,3h103c8.864,0,16,7.136,16,16v153c0,8.864-7.136,16-16,16H19c-8.864,0-16-7.136-16-16
			V19C3,10.136,10.136,3,19,3z"/>
		<path id="rect1306" fill="#FFFFFF" d="M18,2h103c8.864,0,16,7.136,16,16v153c0,8.864-7.136,16-16,16H18c-8.864,0-16-7.136-16-16
			V18C2,9.136,9.136,2,18,2z"/>
	</g>
	<g id="g5495" transform="translate(-448.5000,-231.5000)" inkscape:label="Layer 1" inkscape:groupmode="layer">
	</g>
</g>
<path id="text1386" fill="#FF0000" d="M11.677,42.368v-23.59L6.44,18.709l0.252-3.623l4.955-3.089h5.492v30.37 M30.573,27.146
	c0-3.751-0.265-6.39-0.795-7.917c-0.52-1.541-1.4-2.311-2.641-2.311c-1.24,0-2.125,0.77-2.656,2.311
	c-0.53,1.527-0.795,4.166-0.795,7.917c0,3.791,0.265,6.463,0.795,8.017c0.53,1.554,1.416,2.331,2.656,2.331
	c1.23,0,2.111-0.777,2.641-2.331C30.308,33.61,30.573,30.938,30.573,27.146 M36.35,27.207c0,4.97-0.8,8.808-2.401,11.514
	c-1.601,2.693-3.872,4.039-6.813,4.039c-2.951,0-5.227-1.346-6.828-4.039c-1.601-2.706-2.401-6.543-2.401-11.514
	c0-4.983,0.8-8.821,2.401-11.513c1.601-2.706,3.876-4.059,6.828-4.059c2.941,0,5.212,1.353,6.813,4.059
	C35.55,18.386,36.35,22.224,36.35,27.207"/>
<g id="g1390" transform="matrix(0.286388,0.000000,0.000000,0.388772,-29.60833,-9.472414)">
	<path id="path1392" fill="#FF0000" d="M150.703,150.006c-2.803,0.014-5.882,0.52-9.292,1.653
		c-37.167,21.093,12.939,55.106,34.094,84.314l0.61,0.149c23.251-31.924,67.508-67.054,33.692-84.463
		c-26.792-8.9-33.948,20.727-34.198,21.796C175.391,172.523,169.925,149.912,150.703,150.006z"/>
</g>
<path id="path12191" fill="#FF0000" d="M127.188,146.632v23.59l5.237,0.069l-0.253,3.622l-4.954,3.089h-5.492v-30.37
	 M108.293,161.854c0,3.751,0.266,6.39,0.795,7.917c0.521,1.54,1.4,2.311,2.641,2.311c1.241,0,2.127-0.771,2.656-2.311
	c0.531-1.527,0.796-4.166,0.796-7.917c0-3.791-0.265-6.463-0.796-8.018c-0.529-1.554-1.415-2.33-2.656-2.33
	c-1.23,0-2.11,0.776-2.641,2.33C108.559,155.391,108.293,158.063,108.293,161.854 M102.516,161.793c0-4.97,0.801-8.808,2.4-11.514
	c1.602-2.692,3.872-4.039,6.813-4.039c2.951,0,5.228,1.347,6.828,4.039c1.601,2.706,2.4,6.544,2.4,11.514
	c0,4.983-0.8,8.821-2.4,11.514c-1.601,2.706-3.877,4.059-6.828,4.059c-2.94,0-5.211-1.353-6.813-4.059
	C103.316,170.614,102.516,166.776,102.516,161.793"/>
<path id="path12195" fill="#FF0000" d="M125.311,139.995c0.803-0.005,1.685-0.202,2.661-0.643c10.644-8.2-3.706-21.424-9.765-32.778
	l-0.174-0.059c-6.659,12.412-19.334,26.068-9.649,32.837c7.673,3.46,9.722-8.058,9.794-8.474
	C118.24,131.242,119.806,140.032,125.311,139.995z"/>
<g id="g1581" transform="matrix(0.166355,0.000000,0.000000,0.229660,40.05390,16.55240)">
	<path id="path1583" fill="#FF0000" d="M150.703,150.007c-2.803,0.013-5.882,0.521-9.29,1.652
		c-37.168,21.093,12.938,55.107,34.092,84.313l0.611,0.151c23.247-31.926,67.509-67.055,33.69-84.464
		c-26.79-8.9-33.945,20.728-34.195,21.795C175.39,172.522,169.925,149.911,150.703,150.007z"/>
</g>
<g id="g1601" transform="matrix(-0.166355,0.000000,0.000000,-0.229660,97.94610,170.4476)">
	<path id="path1603" fill="#FF0000" d="M150.702,150.006c-2.8,0.013-5.882,0.519-9.293,1.654
		c-37.165,21.091,12.938,55.104,34.095,84.313l0.611,0.149c23.25-31.926,67.509-67.053,33.69-84.462
		c-26.789-8.904-33.945,20.725-34.195,21.792C175.39,172.522,169.925,149.908,150.702,150.006z"/>
</g>
<g id="g5202" transform="translate(152.0373,99.56709)">
	<g id="g5581" transform="translate(351.5000,184.5000)">
	</g>
</g>
<g id="g6248" transform="matrix(0.166355,0.000000,0.000000,0.229660,19.05390,5.772340)">
	<path id="path6250" fill="#FF0000" d="M150.703,150.006c-2.803,0.015-5.882,0.521-9.29,1.654
		c-37.168,21.091,12.938,55.104,34.092,84.313l0.611,0.149c23.25-31.923,67.509-67.053,33.69-84.462
		c-26.789-8.902-33.945,20.725-34.195,21.795C175.391,172.522,169.925,149.913,150.703,150.006z"/>
</g>
<g id="g5250" transform="matrix(0.166355,0.000000,0.000000,0.229660,58.05389,5.552380)">
	<path id="path5252" fill="#FF0000" d="M150.703,150.007c-2.8,0.013-5.882,0.519-9.293,1.652
		c-37.165,21.093,12.938,55.106,34.095,84.313l0.61,0.151c23.247-31.926,67.509-67.055,33.69-84.464
		c-26.786-8.9-33.948,20.727-34.195,21.795C175.388,172.523,169.928,149.912,150.703,150.007z"/>
</g>
<g id="g5254" transform="matrix(0.166355,0.000000,0.000000,0.229660,19.69390,36.77234)">
	<path id="path5256" fill="#FF0000" d="M150.704,150.006c-2.803,0.015-5.882,0.521-9.293,1.654
		c-37.165,21.091,12.938,55.104,34.095,84.313l0.61,0.149c23.25-31.924,67.506-67.053,33.69-84.462
		c-26.789-8.902-33.948,20.725-34.198,21.795C175.392,172.522,169.927,149.913,150.704,150.006z"/>
</g>
<g id="g5258" transform="matrix(0.166355,0.000000,0.000000,0.229660,59.05389,35.77234)">
	<path id="path5260" fill="#FF0000" d="M150.704,150.006c-2.8,0.015-5.882,0.521-9.293,1.654
		c-37.165,21.091,12.938,55.104,34.095,84.313l0.61,0.149c23.247-31.924,67.509-67.053,33.69-84.462
		c-26.786-8.902-33.948,20.725-34.195,21.795C175.388,172.522,169.929,149.913,150.704,150.006z"/>
</g>
<g id="g5262" transform="matrix(-0.166355,0.000000,0.000000,-0.229660,78.30610,154.2277)">
	<path id="path5264" fill="#FF0000" d="M150.702,150.005c-2.803,0.013-5.882,0.519-9.293,1.654
		c-37.165,21.091,12.938,55.104,34.095,84.313l0.611,0.149c23.25-31.926,67.506-67.053,33.69-84.462
		c-26.789-8.9-33.948,20.725-34.198,21.792C175.39,172.521,169.925,149.912,150.702,150.005z"/>
</g>
<g id="g5266" transform="matrix(-0.166355,0.000000,0.000000,-0.229660,78.94611,181.2277)">
	<path id="path5268" fill="#FF0000" d="M150.702,150.005c-2.803,0.013-5.882,0.519-9.29,1.654
		c-37.168,21.091,12.938,55.104,34.092,84.313l0.611,0.149c23.25-31.926,67.509-67.053,33.69-84.462
		c-26.79-8.9-33.945,20.725-34.195,21.793C175.389,172.521,169.924,149.912,150.702,150.005z"/>
</g>
<g id="g5270" transform="matrix(-0.166355,0.000000,0.000000,-0.229660,116.3061,181.2277)">
	<path id="path5272" fill="#FF0000" d="M150.7,150.005c-2.8,0.013-5.882,0.519-9.287,1.654
		c-37.171,21.091,12.938,55.104,34.095,84.313l0.61,0.149c23.247-31.926,67.503-67.053,33.684-84.462
		c-26.786-8.9-33.942,20.725-34.195,21.793C175.39,172.521,169.925,149.912,150.7,150.005z"/>
</g>
<g id="g5274" transform="matrix(-0.166355,0.000000,0.000000,-0.229660,117.9461,153.4476)">
	<path id="path5276" fill="#FF0000" d="M150.702,150.006c-2.8,0.013-5.882,0.519-9.293,1.654
		c-37.165,21.091,12.938,55.104,34.095,84.313l0.611,0.149c23.247-31.926,67.509-67.053,33.69-84.462
		c-26.786-8.904-33.948,20.725-34.195,21.792C175.386,172.521,169.927,149.908,150.702,150.006z"/>
</g>
<path fill="none" stroke="#000000" stroke-miterlimit="10" d="M133.75,171.32c0,6.762-5.623,12.244-12.56,12.244H17.048
	c-6.936,0-12.56-5.482-12.56-12.244V16.994c0-6.762,5.624-12.244,12.56-12.244h104.143c6.937,0,12.56,5.482,12.56,12.244V171.32z"/>
</svg>
