<?xml version="1.0" encoding="utf-8"?>
<!-- Generator: Adobe Illustrator 16.0.0, SVG Export Plug-In . SVG Version: 6.00 Build 0)  -->
<!DOCTYPE svg PUBLIC "-//W3C//DTD SVG 1.1//EN" "http://www.w3.org/Graphics/SVG/1.1/DTD/svg11.dtd">
<svg version="1.1"
	 id="svg2" xmlns:dc="http://purl.org/dc/elements/1.1/" xmlns:cc="http://web.resource.org/cc/" xmlns:rdf="http://www.w3.org/1999/02/22-rdf-syntax-ns#" xmlns:svg="http://www.w3.org/2000/svg" xmlns:sodipodi="http://inkscape.sourceforge.net/DTD/sodipodi-0.dtd" xmlns:inkscape="http://www.inkscape.org/namespaces/inkscape" sodipodi:docbase="/home/nicu/Desktop/card_nicu_buculei_01.zip_FILES/cards/white" sodipodi:docname="white_s_2.svg" inkscape:version="0.41+cvs" sodipodi:version="0.32"
	 xmlns="http://www.w3.org/2000/svg" xmlns:xlink="http://www.w3.org/1999/xlink" x="0px" y="0px" width="140px" height="190px"
	 viewBox="0 0 140 190" enable-background="new 0 0 140 190" xml:space="preserve">
<sodipodi:namedview  inkscape:cx="59.451965" inkscape:cy="94.645538" inkscape:zoom="1.0000000" borderopacity="1.0" bordercolor="#666666" pagecolor="#ffffff" id="base" inkscape:window-x="0" inkscape:pageshadow="2" inkscape:pageopacity="0.0" inkscape:window-height="791" inkscape:current-layer="svg2" inkscape:window-y="26" inkscape:window-width="1152">
	</sodipodi:namedview>
<g id="layer1" inkscape:label="Layer 1" inkscape:groupmode="layer">
	<g id="g5630">
		<path id="rect2070" fill-opacity="0.498" d="M21,5h103c8.864,0,16,7.136,16,16v153c0,8.864-7.136,16-16,16H21
			c-8.864,0-16-7.136-16-16V21C5,12.136,12.136,5,21,5z"/>
		<path id="rect1300" fill="#E7E7E7" d="M17,1h103c8.864,0,16,7.136,16,16v153c0,8.864-7.136,16-16,16H17c-8.864,0-16-7.136-16-16
			V17C1,8.136,8.136,1,17,1z"/>
		<path id="path5624" fill="#C7891F" d="M19,3h103c8.864,0,16,7.136,16,16v153c0,8.864-7.136,16-16,16H19c-8.864,0-16-7.136-16-16
			V19C3,10.136,10.136,3,19,3z"/>
		<path id="rect1306" fill="#FFFFFF" d="M18,2h103c8.864,0,16,7.136,16,16v153c0,8.864-7.136,16-16,16H18c-8.864,0-16-7.136-16-16
			V18C2,9.136,9.136,2,18,2z"/>
	</g>
	<g id="g5495" transform="translate(-448.5000,-231.5000)" inkscape:label="Layer 1" inkscape:groupmode="layer">
	</g>
</g>
<g id="g1729" transform="matrix(0.593136,0.000000,0.000000,0.238935,-85.42532,14.58485)">
	<path id="path1731" sodipodi:nodetypes="cccccccccc" d="M260.176,149.598c-4.836,19.24-19.676,52.005-10.275,62.121
		c5.707,4.657,8.422-4.876,9.572-11.187h0.231l-3.789,31.837l8.776-0.094c0,0-3.78-30.603-3.788-31.773h0.091
		c0.929,5.156,4.454,15.832,8.333,11.767C280.664,200.872,263.968,168.44,260.176,149.598z"/>
</g>
<g id="g1753" transform="matrix(-0.593136,0.000000,0.000000,-0.238935,223.0405,172.7605)">
	<path id="path1755" sodipodi:nodetypes="cccccccccc" d="M260.176,149.596c-4.837,19.242-19.675,52.009-10.274,62.12
		c5.707,4.659,8.421-4.872,9.571-11.182h0.23l-3.788,31.831l8.776-0.09c0,0-3.781-30.604-3.789-31.773h0.092
		c0.929,5.158,4.454,15.834,8.332,11.767C280.665,200.87,263.968,168.438,260.176,149.596z"/>
</g>
<g id="g2373" transform="matrix(1.000012,0.000000,0.000000,0.400814,-239.5373,-11.05171)">
	<path id="path2375" sodipodi:nodetypes="cccccccccc" d="M260.179,148.989c-4.924,19.522-20.034,52.765-10.462,63.028
		c5.81,4.725,8.576-4.946,9.747-11.35h0.234l-3.859,32.301l8.937-0.095c0,0-3.85-31.05-3.859-32.238h0.094
		c0.946,5.232,4.535,16.065,8.484,11.94C281.041,201.011,264.039,168.105,260.179,148.989z"/>
</g>
<path id="text2035" d="M18.8,36.312h10.915v5.687H11.69v-5.687l9.054-9.665c0.809-0.884,1.407-1.748,1.794-2.592
	c0.388-0.844,0.582-1.721,0.582-2.632c0-1.406-0.394-2.538-1.18-3.396c-0.775-0.857-1.811-1.286-3.107-1.286
	c-0.997,0-2.087,0.261-3.272,0.784c-1.185,0.509-2.454,1.272-3.805,2.291v-6.591c1.44-0.576,2.863-1.011,4.27-1.306
	c1.407-0.308,2.786-0.462,4.137-0.462c2.968,0,5.272,0.791,6.911,2.371c1.65,1.581,2.476,3.784,2.476,6.611
	c0,1.634-0.349,3.161-1.047,4.581c-0.698,1.407-2.165,3.295-4.402,5.667L18.8,36.312"/>
<g id="g2058" transform="matrix(-1.000012,0.000000,0.000000,-0.400814,378.4574,199.9607)">
	<path id="path2060" sodipodi:nodetypes="cccccccccc" d="M259.939,149.597c-4.924,19.521-20.035,52.764-10.463,63.028
		c5.81,4.724,8.576-4.946,9.748-11.351h0.234l-3.859,32.302l8.937-0.095c0,0-3.85-31.05-3.859-32.237h0.094
		c0.947,5.231,4.536,16.063,8.484,11.939C280.802,201.62,263.8,168.713,259.939,149.597z"/>
</g>
<path id="text2062" d="M120.119,152.444h-10.914v-5.687h18.025v5.687l-9.055,9.665c-0.809,0.884-1.406,1.748-1.794,2.592
	s-0.581,1.722-0.581,2.633c0,1.406,0.393,2.538,1.18,3.396c0.775,0.857,1.811,1.286,3.105,1.286c0.998,0,2.088-0.262,3.273-0.783
	c1.186-0.51,2.453-1.273,3.805-2.291v6.59c-1.439,0.576-2.863,1.012-4.27,1.307c-1.406,0.309-2.785,0.462-4.137,0.462
	c-2.969,0-5.271-0.79-6.911-2.371c-1.65-1.581-2.476-3.784-2.476-6.61c0-1.635,0.349-3.162,1.047-4.582
	c0.697-1.406,2.165-3.295,4.402-5.666L120.119,152.444"/>
<path fill="none" stroke="#000000" stroke-miterlimit="10" d="M134,171.57c0,6.762-5.623,12.244-12.56,12.244H17.298
	c-6.936,0-12.56-5.482-12.56-12.244V17.244C4.738,10.482,10.362,5,17.298,5H121.44C128.377,5,134,10.482,134,17.244V171.57z"/>
</svg>
