<?xml version="1.0" encoding="utf-8"?>
<!-- Generator: Adobe Illustrator 16.0.0, SVG Export Plug-In . SVG Version: 6.00 Build 0)  -->
<!DOCTYPE svg PUBLIC "-//W3C//DTD SVG 1.1//EN" "http://www.w3.org/Graphics/SVG/1.1/DTD/svg11.dtd">
<svg version="1.1"
	 id="svg2" xmlns:dc="http://purl.org/dc/elements/1.1/" xmlns:cc="http://web.resource.org/cc/" xmlns:rdf="http://www.w3.org/1999/02/22-rdf-syntax-ns#" xmlns:svg="http://www.w3.org/2000/svg" xmlns:sodipodi="http://inkscape.sourceforge.net/DTD/sodipodi-0.dtd" xmlns:inkscape="http://www.inkscape.org/namespaces/inkscape" sodipodi:docbase="/home/nicu/Desktop/card_nicu_buculei_01.zip_FILES/cards/white" sodipodi:docname="white_s_3.svg" inkscape:version="0.41+cvs" sodipodi:version="0.32"
	 xmlns="http://www.w3.org/2000/svg" xmlns:xlink="http://www.w3.org/1999/xlink" x="0px" y="0px" width="140px" height="190px"
	 viewBox="0 0 140 190" enable-background="new 0 0 140 190" xml:space="preserve">
<sodipodi:namedview  inkscape:cx="69.179749" inkscape:cy="57.111572" inkscape:zoom="1.0000000" borderopacity="1.0" bordercolor="#666666" pagecolor="#ffffff" id="base" inkscape:window-x="0" inkscape:pageshadow="2" inkscape:pageopacity="0.0" inkscape:window-height="791" inkscape:current-layer="svg2" inkscape:window-y="26" inkscape:window-width="1152">
	</sodipodi:namedview>
<g id="layer1" inkscape:label="Layer 1" inkscape:groupmode="layer">
	<g id="g5630">
		<path id="rect2070" fill-opacity="0.498" d="M21,5h103c8.864,0,16,7.136,16,16v153c0,8.864-7.136,16-16,16H21
			c-8.864,0-16-7.136-16-16V21C5,12.136,12.136,5,21,5z"/>
		<path id="rect1300" fill="#E7E7E7" d="M17,1h103c8.864,0,16,7.136,16,16v153c0,8.864-7.136,16-16,16H17c-8.864,0-16-7.136-16-16
			V17C1,8.136,8.136,1,17,1z"/>
		<path id="path5624" fill="#C7891F" d="M19,3h103c8.864,0,16,7.136,16,16v153c0,8.864-7.136,16-16,16H19c-8.864,0-16-7.136-16-16
			V19C3,10.136,10.136,3,19,3z"/>
		<path id="rect1306" fill="#FFFFFF" d="M18,2h103c8.864,0,16,7.136,16,16v153c0,8.864-7.136,16-16,16H18c-8.864,0-16-7.136-16-16
			V18C2,9.136,9.136,2,18,2z"/>
	</g>
	<g id="g5495" transform="translate(-448.5000,-231.5000)" inkscape:label="Layer 1" inkscape:groupmode="layer">
	</g>
</g>
<g id="g1729" transform="matrix(0.593136,0.000000,0.000000,0.238935,-84.41248,9.255993)">
	<path id="path1731" sodipodi:nodetypes="cccccccccc" d="M260.176,149.597c-4.836,19.24-19.676,52.007-10.275,62.123
		c5.707,4.657,8.422-4.876,9.572-11.187h0.231l-3.79,31.835l8.778-0.094c0,0-3.782-30.603-3.79-31.773h0.092
		c0.929,5.158,4.454,15.833,8.331,11.769C280.666,200.871,263.968,168.439,260.176,149.597z"/>
</g>
<g id="g1753" transform="matrix(-0.593136,0.000000,0.000000,-0.238935,223.4125,178.5209)">
	<path id="path1755" sodipodi:nodetypes="cccccccccc" d="M260.176,149.595c-4.836,19.242-19.677,52.009-10.275,62.125
		c5.707,4.659,8.423-4.876,9.573-11.187h0.23l-3.79,31.835l8.778-0.094c0,0-3.781-30.6-3.789-31.774h0.092
		c0.929,5.158,4.454,15.834,8.332,11.767C280.665,200.873,263.968,168.437,260.176,149.595z"/>
</g>
<g id="g2352" transform="translate(333.5000,184.5000)">
</g>
<g id="g2582" transform="matrix(0.593136,0.000000,0.000000,0.238935,-84.05302,50.47908)">
	<path id="path2584" sodipodi:nodetypes="cccccccccc" d="M260.176,149.597c-4.836,19.24-19.676,52.007-10.275,62.123
		c5.707,4.655,8.422-4.876,9.572-11.187h0.23l-3.79,31.835l8.778-0.094c0,0-3.782-30.601-3.79-31.774h0.092
		c0.929,5.158,4.455,15.834,8.331,11.767C280.666,200.873,263.968,168.439,260.176,149.597z"/>
</g>
<g id="g1600" transform="matrix(1.000012,0.000000,0.000000,0.400814,-239.7773,-10.81148)">
	<path id="path1561" sodipodi:nodetypes="cccccccccc" d="M260.419,148.389c-4.924,19.522-20.034,52.765-10.462,63.028
		c5.81,4.725,8.576-4.946,9.747-11.35h0.234l-3.859,32.301l8.937-0.095c0,0-3.85-31.05-3.859-32.238h0.094
		c0.946,5.232,4.536,16.065,8.484,11.94C281.281,200.411,264.279,167.506,260.419,148.389z"/>
</g>
<path id="text2221" d="M24.607,26.063c1.672,0.522,2.94,1.434,3.805,2.733c0.875,1.286,1.313,2.927,1.313,4.923
	c0,2.974-0.941,5.238-2.824,6.792c-1.883,1.541-4.63,2.311-8.24,2.311c-1.274,0-2.553-0.127-3.838-0.382
	c-1.273-0.241-2.536-0.609-3.788-1.105v-5.968c1.196,0.723,2.381,1.272,3.555,1.647c1.185,0.362,2.348,0.542,3.489,0.542
	c1.694,0,2.99-0.355,3.887-1.065c0.908-0.71,1.362-1.728,1.362-3.054c0-1.366-0.465-2.398-1.396-3.094
	c-0.919-0.71-2.281-1.065-4.086-1.065h-2.559v-4.983h2.691c1.606,0,2.802-0.301,3.588-0.904c0.786-0.616,1.18-1.547,1.18-2.793
	c0-1.152-0.382-2.042-1.146-2.672c-0.764-0.629-1.844-0.944-3.24-0.944c-1.03,0-2.071,0.141-3.123,0.422s-2.099,0.697-3.14,1.246
	v-5.667c1.263-0.429,2.514-0.75,3.755-0.965c1.24-0.214,2.458-0.321,3.655-0.321c3.223,0,5.632,0.643,7.227,1.929
	c1.606,1.272,2.409,3.195,2.409,5.767c0,1.755-0.382,3.195-1.146,4.32C27.232,24.824,26.103,25.607,24.607,26.063"/>
<g id="g17081" transform="matrix(-1.000012,0.000000,0.000000,-0.400814,378.4572,199.4765)">
	<path id="path17083" sodipodi:nodetypes="cccccccccc" d="M260.419,148.389c-4.925,19.521-20.035,52.764-10.463,63.028
		c5.81,4.724,8.576-4.946,9.747-11.351h0.235l-3.859,32.302l8.937-0.095c0,0-3.85-31.05-3.859-32.237h0.094
		c0.946,5.231,4.536,16.063,8.484,11.939C281.281,200.412,264.28,167.506,260.419,148.389z"/>
</g>
<path id="text17085" d="M114.072,162.934c-1.672-0.523-2.94-1.434-3.805-2.733c-0.875-1.286-1.313-2.927-1.313-4.923
	c0-2.974,0.941-5.238,2.824-6.791c1.883-1.541,4.63-2.312,8.24-2.312c1.273,0,2.553,0.128,3.838,0.382
	c1.273,0.241,2.537,0.609,3.788,1.105v5.968c-1.196-0.724-2.382-1.272-3.556-1.647c-1.185-0.362-2.348-0.543-3.488-0.543
	c-1.695,0-2.99,0.355-3.888,1.064c-0.908,0.711-1.362,1.729-1.362,3.055c0,1.366,0.465,2.398,1.396,3.095
	c0.919,0.71,2.282,1.065,4.087,1.065h2.559v4.982h-2.691c-1.605,0-2.803,0.302-3.588,0.904c-0.787,0.616-1.18,1.547-1.18,2.793
	c0,1.152,0.382,2.043,1.146,2.672c0.764,0.631,1.844,0.945,3.238,0.945c1.031,0,2.072-0.141,3.124-0.422s2.099-0.697,3.14-1.246
	v5.666c-1.263,0.429-2.514,0.75-3.754,0.965c-1.241,0.215-2.459,0.321-3.655,0.321c-3.224,0-5.632-0.644-7.228-1.929
	c-1.605-1.272-2.408-3.195-2.408-5.768c0-1.754,0.382-3.194,1.146-4.319C111.447,164.172,112.577,163.389,114.072,162.934"/>
<path fill="none" stroke="#000000" stroke-miterlimit="10" d="M134,171.82c0,6.762-5.623,12.244-12.56,12.244H17.298
	c-6.936,0-12.56-5.482-12.56-12.244V17.494c0-6.762,5.624-12.244,12.56-12.244H121.44c6.937,0,12.56,5.482,12.56,12.244V171.82z"/>
</svg>
