<?xml version="1.0" encoding="utf-8"?>
<!-- Generator: Adobe Illustrator 16.0.0, SVG Export Plug-In . SVG Version: 6.00 Build 0)  -->
<!DOCTYPE svg PUBLIC "-//W3C//DTD SVG 1.1//EN" "http://www.w3.org/Graphics/SVG/1.1/DTD/svg11.dtd">
<svg version="1.1"
	 id="svg2" xmlns:dc="http://purl.org/dc/elements/1.1/" xmlns:cc="http://web.resource.org/cc/" xmlns:rdf="http://www.w3.org/1999/02/22-rdf-syntax-ns#" xmlns:svg="http://www.w3.org/2000/svg" xmlns:sodipodi="http://inkscape.sourceforge.net/DTD/sodipodi-0.dtd" xmlns:inkscape="http://www.inkscape.org/namespaces/inkscape" sodipodi:docbase="/home/nicu/Desktop/card_nicu_buculei_01.zip_FILES/cards/white" sodipodi:docname="white_s_4.svg" inkscape:version="0.41+cvs" sodipodi:version="0.32"
	 xmlns="http://www.w3.org/2000/svg" xmlns:xlink="http://www.w3.org/1999/xlink" x="0px" y="0px" width="140px" height="190px"
	 viewBox="0 0 140 190" enable-background="new 0 0 140 190" xml:space="preserve">
<sodipodi:namedview  inkscape:cx="70.000000" inkscape:cy="95.000000" inkscape:zoom="1.0000000" borderopacity="1.0" bordercolor="#666666" pagecolor="#ffffff" id="base" inkscape:window-x="0" inkscape:pageshadow="2" inkscape:pageopacity="0.0" inkscape:window-height="791" inkscape:current-layer="svg2" inkscape:window-y="26" inkscape:window-width="1152">
	</sodipodi:namedview>
<g id="layer1" inkscape:label="Layer 1" inkscape:groupmode="layer">
	<g id="g5630">
		<path id="rect2070" fill-opacity="0.498" d="M21,5h103c8.864,0,16,7.136,16,16v153c0,8.864-7.136,16-16,16H21
			c-8.864,0-16-7.136-16-16V21C5,12.136,12.136,5,21,5z"/>
		<path id="rect1300" fill="#E7E7E7" d="M17,1h103c8.864,0,16,7.136,16,16v153c0,8.864-7.136,16-16,16H17c-8.864,0-16-7.136-16-16
			V17C1,8.136,8.136,1,17,1z"/>
		<path id="path5624" fill="#C7891F" d="M19,3h103c8.864,0,16,7.136,16,16v153c0,8.864-7.136,16-16,16H19c-8.864,0-16-7.136-16-16
			V19C3,10.136,10.136,3,19,3z"/>
		<path id="rect1306" fill="#FFFFFF" d="M18,2h103c8.864,0,16,7.136,16,16v153c0,8.864-7.136,16-16,16H18c-8.864,0-16-7.136-16-16
			V18C2,9.136,9.136,2,18,2z"/>
	</g>
	<g id="g5495" transform="translate(-448.5000,-231.5000)" inkscape:label="Layer 1" inkscape:groupmode="layer">
	</g>
</g>
<g id="g1729" transform="matrix(0.593136,0.000000,0.000000,0.238935,-103.0530,9.255993)">
	<path id="path1731" sodipodi:nodetypes="cccccccccc" d="M260.176,149.597c-4.836,19.24-19.676,52.007-10.275,62.123
		c5.707,4.657,8.422-4.876,9.572-11.187h0.231l-3.79,31.835l8.778-0.094c0,0-3.782-30.603-3.79-31.773h0.092
		c0.929,5.158,4.454,15.833,8.332,11.769C280.665,200.871,263.968,168.439,260.176,149.597z"/>
</g>
<g id="g1753" transform="matrix(-0.593136,0.000000,0.000000,-0.238935,207.4125,177.5209)">
	<path id="path1755" sodipodi:nodetypes="cccccccccc" d="M260.176,149.595c-4.836,19.242-19.676,52.009-10.275,62.125
		c5.707,4.659,8.422-4.876,9.572-11.187h0.23l-3.789,31.835l8.777-0.094c0,0-3.781-30.6-3.789-31.773h0.092
		c0.929,5.158,4.454,15.834,8.332,11.767C280.665,200.873,263.968,168.437,260.176,149.595z"/>
</g>
<g id="g2352" transform="translate(333.5000,184.5000)">
</g>
<g id="g3456" transform="matrix(0.593136,0.000000,0.000000,0.238935,-67.05302,9.255993)">
	<path id="path3458" sodipodi:nodetypes="cccccccccc" d="M260.176,149.597c-4.836,19.24-19.677,52.007-10.275,62.123
		c5.707,4.657,8.423-4.876,9.572-11.187h0.23l-3.79,31.835l8.779-0.094c0,0-3.782-30.603-3.79-31.773h0.092
		c0.929,5.158,4.455,15.833,8.331,11.769C280.666,200.871,263.967,168.439,260.176,149.597z"/>
</g>
<g id="g3460" transform="matrix(-0.593136,0.000000,0.000000,-0.238935,242.4125,177.5209)">
	<path id="path3462" sodipodi:nodetypes="cccccccccc" d="M260.176,149.595c-4.836,19.242-19.677,52.009-10.275,62.125
		c5.707,4.659,8.423-4.876,9.572-11.187h0.231l-3.79,31.835l8.779-0.094c0,0-3.782-30.6-3.79-31.773h0.092
		c0.929,5.158,4.454,15.834,8.331,11.767C280.666,200.873,263.968,168.437,260.176,149.595z"/>
</g>
<g id="g3439" transform="matrix(1.000012,0.000000,0.000000,0.400814,-239.7777,-10.81148)">
	<path id="path3441" sodipodi:nodetypes="cccccccccc" d="M260.419,148.389c-4.924,19.522-20.034,52.765-10.462,63.028
		c5.81,4.725,8.576-4.946,9.747-11.35h0.234l-3.859,32.301l8.937-0.095c0,0-3.85-31.05-3.859-32.238h0.094
		c0.946,5.232,4.536,16.065,8.484,11.94C281.282,200.411,264.28,167.506,260.419,148.389z"/>
</g>
<path id="text2358" d="M21.285,18.608l-7.011,12.559h7.011V18.608 M20.221,12.238h7.111v18.928h3.539v5.606h-3.539v5.466h-6.047
	v-5.466H10.287v-6.631L20.221,12.238"/>
<g id="g17395" transform="matrix(-1.000012,0.000000,0.000000,-0.400814,378.4576,199.4765)">
	<path id="path17397" sodipodi:nodetypes="cccccccccc" d="M260.419,148.389c-4.925,19.521-20.035,52.764-10.463,63.028
		c5.81,4.724,8.576-4.946,9.747-11.351h0.235l-3.859,32.302l8.937-0.095c0,0-3.85-31.05-3.859-32.237h0.094
		c0.946,5.231,4.535,16.063,8.484,11.939C281.281,200.412,264.281,167.506,260.419,148.389z"/>
</g>
<path id="text17399" d="M117.395,170.53l7.011-12.559h-7.011V170.53 M118.459,176.9h-7.111v-18.929h-3.538v-5.606h3.538V146.9h6.048
	v5.465h10.998v6.631L118.459,176.9"/>
<path fill="none" stroke="#000000" stroke-miterlimit="10" d="M134,171.82c0,6.762-5.623,12.244-12.56,12.244H17.298
	c-6.936,0-12.56-5.482-12.56-12.244V17.494c0-6.762,5.624-12.244,12.56-12.244H121.44c6.937,0,12.56,5.482,12.56,12.244V171.82z"/>
</svg>
