<?xml version="1.0" encoding="utf-8"?>
<!-- Generator: Adobe Illustrator 16.0.0, SVG Export Plug-In . SVG Version: 6.00 Build 0)  -->
<!DOCTYPE svg PUBLIC "-//W3C//DTD SVG 1.1//EN" "http://www.w3.org/Graphics/SVG/1.1/DTD/svg11.dtd">
<svg version="1.1"
	 id="svg2" xmlns:dc="http://purl.org/dc/elements/1.1/" xmlns:cc="http://web.resource.org/cc/" xmlns:rdf="http://www.w3.org/1999/02/22-rdf-syntax-ns#" xmlns:svg="http://www.w3.org/2000/svg" xmlns:sodipodi="http://inkscape.sourceforge.net/DTD/sodipodi-0.dtd" xmlns:inkscape="http://www.inkscape.org/namespaces/inkscape" sodipodi:docbase="/home/nicu/Desktop/card_nicu_buculei_01.zip_FILES/cards/white" sodipodi:docname="white_s_5.svg" inkscape:version="0.41+cvs" sodipodi:version="0.32"
	 xmlns="http://www.w3.org/2000/svg" xmlns:xlink="http://www.w3.org/1999/xlink" x="0px" y="0px" width="140px" height="190px"
	 viewBox="0 0 140 190" enable-background="new 0 0 140 190" xml:space="preserve">
<sodipodi:namedview  inkscape:cx="70.000000" inkscape:cy="95.000000" inkscape:zoom="1.0000000" borderopacity="1.0" bordercolor="#666666" pagecolor="#ffffff" id="base" inkscape:window-x="0" inkscape:pageshadow="2" inkscape:pageopacity="0.0" inkscape:window-height="791" inkscape:current-layer="svg2" inkscape:window-y="26" inkscape:window-width="1152">
	</sodipodi:namedview>
<g id="layer1" inkscape:label="Layer 1" inkscape:groupmode="layer">
	<g id="g5630">
		<path id="rect2070" fill-opacity="0.498" d="M21,5h103c8.864,0,16,7.136,16,16v153c0,8.864-7.136,16-16,16H21
			c-8.864,0-16-7.136-16-16V21C5,12.136,12.136,5,21,5z"/>
		<path id="rect1300" fill="#E7E7E7" d="M17,1h103c8.864,0,16,7.136,16,16v153c0,8.864-7.136,16-16,16H17c-8.864,0-16-7.136-16-16
			V17C1,8.136,8.136,1,17,1z"/>
		<path id="path5624" fill="#C7891F" d="M19,3h103c8.864,0,16,7.136,16,16v153c0,8.864-7.136,16-16,16H19c-8.864,0-16-7.136-16-16
			V19C3,10.136,10.136,3,19,3z"/>
		<path id="rect1306" fill="#FFFFFF" d="M18,2h103c8.864,0,16,7.136,16,16v153c0,8.864-7.136,16-16,16H18c-8.864,0-16-7.136-16-16
			V18C2,9.136,9.136,2,18,2z"/>
	</g>
	<g id="g5495" transform="translate(-448.5000,-231.5000)" inkscape:label="Layer 1" inkscape:groupmode="layer">
	</g>
</g>
<g id="g1729" transform="matrix(0.593136,0.000000,0.000000,0.238935,-103.0530,9.255993)">
	<path id="path1731" sodipodi:nodetypes="cccccccccc" d="M260.176,149.597c-4.836,19.24-19.676,52.007-10.275,62.123
		c5.707,4.657,8.422-4.876,9.572-11.187h0.231l-3.79,31.835l8.778-0.094c0,0-3.782-30.603-3.79-31.773h0.092
		c0.929,5.158,4.454,15.833,8.332,11.769C280.665,200.871,263.968,168.439,260.176,149.597z"/>
</g>
<g id="g1753" transform="matrix(-0.593136,0.000000,0.000000,-0.238935,207.4125,177.5209)">
	<path id="path1755" sodipodi:nodetypes="cccccccccc" d="M260.176,149.595c-4.836,19.242-19.676,52.009-10.275,62.125
		c5.707,4.659,8.422-4.876,9.572-11.187h0.23l-3.789,31.835l8.777-0.094c0,0-3.781-30.6-3.789-31.773h0.092
		c0.929,5.158,4.454,15.834,8.332,11.767C280.665,200.873,263.968,168.437,260.176,149.595z"/>
</g>
<g id="g2352" transform="translate(333.5000,184.5000)">
</g>
<g id="g3456" transform="matrix(0.593136,0.000000,0.000000,0.238935,-67.05302,9.255993)">
	<path id="path3458" sodipodi:nodetypes="cccccccccc" d="M260.176,149.597c-4.836,19.24-19.677,52.007-10.275,62.123
		c5.707,4.657,8.423-4.876,9.572-11.187h0.23l-3.79,31.835l8.779-0.094c0,0-3.782-30.603-3.79-31.773h0.092
		c0.929,5.158,4.455,15.833,8.331,11.769C280.666,200.871,263.967,168.439,260.176,149.597z"/>
</g>
<g id="g3460" transform="matrix(-0.593136,0.000000,0.000000,-0.238935,242.4125,177.5209)">
	<path id="path3462" sodipodi:nodetypes="cccccccccc" d="M260.176,149.595c-4.836,19.242-19.677,52.009-10.275,62.125
		c5.707,4.659,8.423-4.876,9.572-11.187h0.231l-3.79,31.835l8.779-0.094c0,0-3.782-30.6-3.79-31.773h0.092
		c0.929,5.158,4.454,15.834,8.331,11.767C280.666,200.873,263.968,168.437,260.176,149.595z"/>
</g>
<g id="g1600" transform="matrix(1.000012,0.000000,0.000000,0.400814,-239.7777,-10.81148)">
	<path id="path1561" sodipodi:nodetypes="cccccccccc" d="M260.419,148.389c-4.924,19.522-20.034,52.765-10.462,63.028
		c5.81,4.725,8.576-4.946,9.747-11.35h0.234l-3.859,32.301l8.937-0.095c0,0-3.85-31.05-3.859-32.238h0.094
		c0.946,5.232,4.536,16.065,8.484,11.94C281.282,200.411,264.28,167.506,260.419,148.389z"/>
</g>
<path id="text2531" d="M12.363,12.238h15.899v5.687H17.463v4.642c0.487-0.161,0.975-0.281,1.462-0.362
	c0.498-0.094,1.013-0.141,1.545-0.141c3.023,0,5.377,0.918,7.061,2.753c1.684,1.822,2.525,4.367,2.525,7.636
	c0,3.242-0.919,5.78-2.758,7.615c-1.828,1.835-4.37,2.753-7.625,2.753c-1.407,0-2.802-0.167-4.187-0.502
	c-1.374-0.321-2.741-0.817-4.104-1.487v-6.088c1.351,0.938,2.63,1.641,3.837,2.11c1.218,0.469,2.365,0.703,3.439,0.703
	c1.551,0,2.769-0.456,3.655-1.366c0.897-0.924,1.346-2.17,1.346-3.737c0-1.581-0.448-2.827-1.346-3.738
	c-0.886-0.911-2.104-1.366-3.655-1.366c-0.919,0-1.899,0.147-2.94,0.442c-1.041,0.281-2.16,0.723-3.356,1.326V12.238"/>
<g id="g17772" transform="matrix(-1.000012,0.000000,0.000000,-0.400814,378.4573,199.4765)">
	<path id="path17774" sodipodi:nodetypes="cccccccccc" d="M260.419,148.389c-4.924,19.521-20.035,52.764-10.463,63.028
		c5.81,4.724,8.576-4.946,9.748-11.351h0.234l-3.859,32.302l8.937-0.095c0,0-3.85-31.05-3.859-32.237h0.095
		c0.946,5.231,4.535,16.063,8.483,11.939C281.282,200.412,264.28,167.506,260.419,148.389z"/>
</g>
<path id="text17776" d="M126.316,177h-15.898v-5.687h10.799v-4.642c-0.488,0.16-0.975,0.281-1.463,0.361
	c-0.498,0.094-1.014,0.141-1.545,0.141c-3.023,0-5.377-0.917-7.061-2.752c-1.684-1.822-2.525-4.367-2.525-7.636
	c0-3.242,0.92-5.78,2.758-7.616c1.828-1.835,4.369-2.752,7.626-2.752c1.406,0,2.802,0.167,4.187,0.502
	c1.373,0.321,2.741,0.817,4.104,1.486v6.089c-1.352-0.938-2.631-1.641-3.838-2.11c-1.219-0.469-2.364-0.703-3.439-0.703
	c-1.55,0-2.768,0.456-3.654,1.367c-0.896,0.924-1.346,2.17-1.346,3.737c0,1.581,0.449,2.826,1.346,3.737
	c0.887,0.91,2.104,1.366,3.654,1.366c0.92,0,1.9-0.147,2.941-0.442c1.041-0.281,2.16-0.723,3.355-1.326V177"/>
<g id="g3957" transform="matrix(0.593136,0.000000,0.000000,0.238935,-84.41248,46.25599)">
	<path id="path3959" sodipodi:nodetypes="cccccccccc" d="M260.176,149.597c-4.836,19.24-19.676,52.007-10.275,62.125
		c5.707,4.655,8.422-4.88,9.572-11.188h0.231l-3.79,31.837l8.778-0.098c0,0-3.782-30.601-3.79-31.771h0.092
		c0.929,5.158,4.454,15.832,8.331,11.769C280.666,200.871,263.968,168.439,260.176,149.597z"/>
</g>
<path fill="none" stroke="#000000" stroke-miterlimit="10" d="M133.75,171.57c0,6.762-5.623,12.244-12.56,12.244H17.048
	c-6.936,0-12.56-5.482-12.56-12.244V17.244C4.488,10.482,10.112,5,17.048,5H121.19c6.937,0,12.56,5.482,12.56,12.244V171.57z"/>
</svg>
