<?xml version="1.0" encoding="utf-8"?>
<!-- Generator: Adobe Illustrator 16.0.0, SVG Export Plug-In . SVG Version: 6.00 Build 0)  -->
<!DOCTYPE svg PUBLIC "-//W3C//DTD SVG 1.1//EN" "http://www.w3.org/Graphics/SVG/1.1/DTD/svg11.dtd">
<svg version="1.1"
	 id="svg2" xmlns:dc="http://purl.org/dc/elements/1.1/" xmlns:cc="http://web.resource.org/cc/" xmlns:rdf="http://www.w3.org/1999/02/22-rdf-syntax-ns#" xmlns:svg="http://www.w3.org/2000/svg" xmlns:sodipodi="http://inkscape.sourceforge.net/DTD/sodipodi-0.dtd" xmlns:inkscape="http://www.inkscape.org/namespaces/inkscape" sodipodi:docbase="/home/nicu/Desktop/card_nicu_buculei_01.zip_FILES/cards/white" sodipodi:docname="white_s_6.svg" inkscape:version="0.41+cvs" sodipodi:version="0.32"
	 xmlns="http://www.w3.org/2000/svg" xmlns:xlink="http://www.w3.org/1999/xlink" x="0px" y="0px" width="140px" height="190px"
	 viewBox="0 0 140 190" enable-background="new 0 0 140 190" xml:space="preserve">
<sodipodi:namedview  inkscape:cx="70.000000" inkscape:cy="95.000000" inkscape:zoom="1.0000000" borderopacity="1.0" bordercolor="#666666" pagecolor="#ffffff" id="base" inkscape:window-x="0" inkscape:pageshadow="2" inkscape:pageopacity="0.0" inkscape:window-height="791" inkscape:current-layer="svg2" inkscape:window-y="26" inkscape:window-width="1152">
	</sodipodi:namedview>
<g id="layer1" inkscape:label="Layer 1" inkscape:groupmode="layer">
	<g id="g5630">
		<path id="rect2070" fill-opacity="0.498" d="M21,5h103c8.864,0,16,7.136,16,16v153c0,8.864-7.136,16-16,16H21
			c-8.864,0-16-7.136-16-16V21C5,12.136,12.136,5,21,5z"/>
		<path id="rect1300" fill="#E7E7E7" d="M17,1h103c8.864,0,16,7.136,16,16v153c0,8.864-7.136,16-16,16H17c-8.864,0-16-7.136-16-16
			V17C1,8.136,8.136,1,17,1z"/>
		<path id="path5624" fill="#C7891F" d="M19,3h103c8.864,0,16,7.136,16,16v153c0,8.864-7.136,16-16,16H19c-8.864,0-16-7.136-16-16
			V19C3,10.136,10.136,3,19,3z"/>
		<path id="rect1306" fill="#FFFFFF" d="M18,2h103c8.864,0,16,7.136,16,16v153c0,8.864-7.136,16-16,16H18c-8.864,0-16-7.136-16-16
			V18C2,9.136,9.136,2,18,2z"/>
	</g>
	<g id="g5495" transform="translate(-448.5000,-231.5000)" inkscape:label="Layer 1" inkscape:groupmode="layer">
	</g>
</g>
<g id="g1729" transform="matrix(0.593136,0.000000,0.000000,0.238935,-103.0530,9.255993)">
	<path id="path1731" sodipodi:nodetypes="cccccccccc" d="M260.176,149.597c-4.836,19.24-19.676,52.007-10.275,62.123
		c5.707,4.657,8.422-4.876,9.572-11.187h0.231l-3.79,31.835l8.778-0.094c0,0-3.782-30.603-3.79-31.773h0.092
		c0.929,5.158,4.454,15.833,8.332,11.769C280.665,200.871,263.968,168.439,260.176,149.597z"/>
</g>
<g id="g1753" transform="matrix(-0.593136,0.000000,0.000000,-0.238935,207.4125,177.5209)">
	<path id="path1755" sodipodi:nodetypes="cccccccccc" d="M260.176,149.595c-4.836,19.242-19.676,52.009-10.275,62.125
		c5.707,4.659,8.422-4.876,9.572-11.187h0.23l-3.789,31.835l8.777-0.094c0,0-3.781-30.6-3.789-31.773h0.092
		c0.929,5.158,4.454,15.834,8.332,11.767C280.665,200.873,263.968,168.437,260.176,149.595z"/>
</g>
<g id="g2352" transform="translate(333.5000,184.5000)">
</g>
<g id="g3456" transform="matrix(0.593136,0.000000,0.000000,0.238935,-67.05302,9.255993)">
	<path id="path3458" sodipodi:nodetypes="cccccccccc" d="M260.176,149.597c-4.836,19.24-19.677,52.007-10.275,62.123
		c5.707,4.657,8.423-4.876,9.572-11.187h0.23l-3.79,31.835l8.779-0.094c0,0-3.782-30.603-3.79-31.773h0.092
		c0.929,5.158,4.455,15.833,8.331,11.769C280.666,200.871,263.967,168.439,260.176,149.597z"/>
</g>
<g id="g3460" transform="matrix(-0.593136,0.000000,0.000000,-0.238935,242.4125,177.5209)">
	<path id="path3462" sodipodi:nodetypes="cccccccccc" d="M260.176,149.595c-4.836,19.242-19.677,52.009-10.275,62.125
		c5.707,4.659,8.423-4.876,9.572-11.187h0.231l-3.79,31.835l8.779-0.094c0,0-3.782-30.6-3.79-31.773h0.092
		c0.929,5.158,4.454,15.834,8.331,11.767C280.666,200.873,263.968,168.437,260.176,149.595z"/>
</g>
<path id="path4574" sodipodi:nodetypes="cccccccccc" d="M20.645,48.665C15.72,56.49,0.61,69.814,10.182,73.928
	c5.811,1.894,8.576-1.982,9.747-4.549h0.234l-3.859,12.947l8.938-0.038c0,0-3.85-12.445-3.859-12.921h0.094
	c0.946,2.097,4.536,6.439,8.484,4.786C41.507,69.516,24.505,56.327,20.645,48.665z"/>
<path id="text2666" d="M21.069,27.429c-1.119,0-1.96,0.442-2.525,1.326c-0.554,0.871-0.831,2.184-0.831,3.938
	c0,1.754,0.277,3.074,0.831,3.958c0.565,0.871,1.407,1.306,2.525,1.306c1.129,0,1.971-0.435,2.525-1.306
	c0.565-0.884,0.848-2.204,0.848-3.958c0-1.755-0.283-3.068-0.848-3.938C23.04,27.871,22.198,27.429,21.069,27.429 M28.977,13.022
	v5.546c-1.052-0.603-2.043-1.045-2.974-1.326c-0.931-0.294-1.839-0.442-2.725-0.442c-1.905,0-3.389,0.643-4.453,1.929
	c-1.063,1.272-1.683,3.168-1.86,5.687c0.731-0.656,1.523-1.146,2.375-1.467c0.853-0.335,1.783-0.502,2.791-0.502
	c2.536,0,4.58,0.897,6.13,2.693c1.562,1.795,2.342,4.146,2.342,7.053c0,3.215-0.869,5.793-2.608,7.736
	c-1.739,1.929-4.07,2.894-6.994,2.894c-3.223,0-5.721-1.313-7.493-3.938c-1.761-2.639-2.642-6.376-2.642-11.212
	c0-4.957,1.03-8.848,3.09-11.674c2.071-2.84,4.907-4.26,8.506-4.26c1.141,0,2.248,0.107,3.322,0.321
	C26.861,12.272,27.924,12.593,28.977,13.022"/>
<path id="path18214" sodipodi:nodetypes="cccccccccc" d="M118.035,140c4.925-7.824,20.035-21.148,10.463-25.263
	c-5.811-1.894-8.576,1.982-9.747,4.55h-0.234l3.858-12.947l-8.938,0.038c0,0,3.851,12.445,3.859,12.921h-0.094
	c-0.946-2.097-4.535-6.438-8.484-4.785C97.173,119.148,114.174,132.338,118.035,140z"/>
<path id="text18216" d="M117.611,161.736c1.119,0,1.961-0.441,2.525-1.326c0.554-0.87,0.83-2.183,0.83-3.938
	s-0.276-3.074-0.83-3.959c-0.564-0.87-1.406-1.306-2.525-1.306c-1.129,0-1.971,0.436-2.525,1.306
	c-0.564,0.885-0.847,2.204-0.847,3.959s0.282,3.067,0.847,3.938C115.641,161.295,116.482,161.736,117.611,161.736 M109.703,176.145
	v-5.547c1.053,0.604,2.044,1.045,2.975,1.326c0.93,0.295,1.838,0.442,2.725,0.442c1.904,0,3.389-0.643,4.452-1.929
	c1.063-1.272,1.683-3.168,1.86-5.687c-0.73,0.656-1.522,1.146-2.375,1.467c-0.854,0.335-1.783,0.503-2.791,0.503
	c-2.537,0-4.58-0.898-6.131-2.693c-1.562-1.795-2.342-4.146-2.342-7.053c0-3.215,0.869-5.793,2.607-7.736
	c1.739-1.929,4.07-2.893,6.994-2.893c3.223,0,5.721,1.313,7.492,3.938c1.762,2.64,2.643,6.377,2.643,11.213
	c0,4.956-1.03,8.848-3.09,11.674c-2.072,2.84-4.907,4.26-8.507,4.26c-1.141,0-2.248-0.107-3.322-0.321
	C111.818,176.895,110.756,176.572,109.703,176.145"/>
<g id="g3957" transform="matrix(0.593136,0.000000,0.000000,0.238935,-103.0530,45.25599)">
	<path id="path3959" sodipodi:nodetypes="cccccccccc" d="M260.176,149.597c-4.836,19.24-19.676,52.007-10.275,62.125
		c5.707,4.655,8.422-4.878,9.572-11.189h0.231l-3.79,31.837l8.778-0.098c0,0-3.782-30.6-3.79-31.771h0.092
		c0.929,5.158,4.454,15.832,8.332,11.769C280.665,200.87,263.968,168.439,260.176,149.597z"/>
</g>
<g id="g4593" transform="matrix(-0.593136,0.000000,0.000000,-0.238935,241.0530,136.5209)">
	<path id="path4595" sodipodi:nodetypes="cccccccccc" d="M260.176,149.595c-4.836,19.242-19.677,52.009-10.275,62.125
		c5.707,4.657,8.423-4.876,9.572-11.187h0.23l-3.79,31.835l8.779-0.094c0,0-3.782-30.603-3.79-31.773h0.092
		c0.929,5.158,4.455,15.833,8.331,11.767C280.666,200.871,263.968,168.437,260.176,149.595z"/>
</g>
<path fill="none" stroke="#000000" stroke-miterlimit="10" d="M134,171.57c0,6.762-5.623,12.244-12.56,12.244H17.298
	c-6.936,0-12.56-5.482-12.56-12.244V17.244C4.738,10.482,10.362,5,17.298,5H121.44C128.377,5,134,10.482,134,17.244V171.57z"/>
</svg>
