<?xml version="1.0" encoding="utf-8"?>
<!-- Generator: Adobe Illustrator 16.0.0, SVG Export Plug-In . SVG Version: 6.00 Build 0)  -->
<!DOCTYPE svg PUBLIC "-//W3C//DTD SVG 1.1//EN" "http://www.w3.org/Graphics/SVG/1.1/DTD/svg11.dtd">
<svg version="1.1"
	 id="svg2" xmlns:dc="http://purl.org/dc/elements/1.1/" xmlns:cc="http://web.resource.org/cc/" xmlns:rdf="http://www.w3.org/1999/02/22-rdf-syntax-ns#" xmlns:svg="http://www.w3.org/2000/svg" xmlns:sodipodi="http://inkscape.sourceforge.net/DTD/sodipodi-0.dtd" xmlns:inkscape="http://www.inkscape.org/namespaces/inkscape" sodipodi:docbase="/home/nicu/Desktop/card_nicu_buculei_01.zip_FILES/cards/white" sodipodi:docname="white_s_7.svg" inkscape:version="0.41+cvs" sodipodi:version="0.32"
	 xmlns="http://www.w3.org/2000/svg" xmlns:xlink="http://www.w3.org/1999/xlink" x="0px" y="0px" width="140px" height="190px"
	 viewBox="0 0 140 190" enable-background="new 0 0 140 190" xml:space="preserve">
<sodipodi:namedview  inkscape:cx="70.000000" inkscape:cy="95.000000" inkscape:zoom="1.0000000" borderopacity="1.0" bordercolor="#666666" pagecolor="#ffffff" id="base" inkscape:window-x="0" inkscape:pageshadow="2" inkscape:pageopacity="0.0" inkscape:window-height="791" inkscape:current-layer="svg2" inkscape:window-y="26" inkscape:window-width="1152">
	</sodipodi:namedview>
<g id="layer1" inkscape:label="Layer 1" inkscape:groupmode="layer">
	<g id="g5630">
		<path id="rect2070" fill-opacity="0.498" d="M21,5h103c8.864,0,16,7.136,16,16v153c0,8.864-7.136,16-16,16H21
			c-8.864,0-16-7.136-16-16V21C5,12.136,12.136,5,21,5z"/>
		<path id="rect1300" fill="#E7E7E7" d="M17,1h103c8.864,0,16,7.136,16,16v153c0,8.864-7.136,16-16,16H17c-8.864,0-16-7.136-16-16
			V17C1,8.136,8.136,1,17,1z"/>
		<path id="path5624" fill="#C7891F" d="M19,3h103c8.864,0,16,7.136,16,16v153c0,8.864-7.136,16-16,16H19c-8.864,0-16-7.136-16-16
			V19C3,10.136,10.136,3,19,3z"/>
		<path id="rect1306" fill="#FFFFFF" d="M18,2h103c8.864,0,16,7.136,16,16v153c0,8.864-7.136,16-16,16H18c-8.864,0-16-7.136-16-16
			V18C2,9.136,9.136,2,18,2z"/>
	</g>
	<g id="g5495" transform="translate(-448.5000,-231.5000)" inkscape:label="Layer 1" inkscape:groupmode="layer">
	</g>
</g>
<g id="g1729" transform="matrix(0.593136,0.000000,0.000000,0.238935,-103.0530,9.255993)">
	<path id="path1731" sodipodi:nodetypes="cccccccccc" d="M260.176,149.597c-4.836,19.24-19.676,52.007-10.275,62.123
		c5.707,4.657,8.422-4.876,9.572-11.187h0.231l-3.79,31.835l8.778-0.094c0,0-3.782-30.603-3.79-31.773h0.092
		c0.929,5.158,4.454,15.833,8.332,11.769C280.665,200.871,263.968,168.439,260.176,149.597z"/>
</g>
<g id="g1753" transform="matrix(-0.593136,0.000000,0.000000,-0.238935,207.4125,177.5209)">
	<path id="path1755" sodipodi:nodetypes="cccccccccc" d="M260.176,149.595c-4.836,19.242-19.676,52.009-10.275,62.125
		c5.707,4.659,8.422-4.876,9.572-11.187h0.23l-3.789,31.835l8.777-0.094c0,0-3.781-30.6-3.789-31.773h0.092
		c0.929,5.158,4.454,15.834,8.332,11.767C280.665,200.873,263.968,168.437,260.176,149.595z"/>
</g>
<g id="g2352" transform="translate(333.5000,184.5000)">
</g>
<g id="g3456" transform="matrix(0.593136,0.000000,0.000000,0.238935,-67.05302,9.255993)">
	<path id="path3458" sodipodi:nodetypes="cccccccccc" d="M260.176,149.597c-4.836,19.24-19.677,52.007-10.275,62.123
		c5.707,4.657,8.423-4.876,9.572-11.187h0.23l-3.79,31.835l8.779-0.094c0,0-3.782-30.603-3.79-31.773h0.092
		c0.929,5.158,4.455,15.833,8.331,11.769C280.666,200.871,263.967,168.439,260.176,149.597z"/>
</g>
<g id="g3460" transform="matrix(-0.593136,0.000000,0.000000,-0.238935,242.4125,177.5209)">
	<path id="path3462" sodipodi:nodetypes="cccccccccc" d="M260.176,149.595c-4.836,19.242-19.677,52.009-10.275,62.125
		c5.707,4.659,8.423-4.876,9.572-11.187h0.231l-3.79,31.835l8.779-0.094c0,0-3.782-30.6-3.79-31.773h0.092
		c0.929,5.158,4.454,15.834,8.331,11.767C280.666,200.873,263.968,168.437,260.176,149.595z"/>
</g>
<path id="path1561" sodipodi:nodetypes="cccccccccc" d="M20.645,48.665C15.72,56.49,0.61,69.814,10.182,73.928
	c5.811,1.894,8.576-1.982,9.747-4.549h0.234l-3.859,12.947l8.938-0.038c0,0-3.85-12.445-3.859-12.921h0.094
	c0.946,2.097,4.536,6.439,8.484,4.786C41.507,69.516,24.505,56.327,20.645,48.665z"/>
<path id="text2850" d="M11.275,11.998h18.689v4.36l-9.668,25.64h-6.23l9.154-24.313H11.275V11.998"/>
<path id="path18705" sodipodi:nodetypes="cccccccccc" d="M118.125,140c4.925-7.824,20.035-21.148,10.463-25.263
	c-5.811-1.894-8.576,1.982-9.747,4.55h-0.234l3.858-12.947l-8.938,0.038c0,0,3.851,12.445,3.859,12.921h-0.094
	c-0.946-2.097-4.535-6.438-8.484-4.785C97.263,119.148,114.265,132.338,118.125,140z"/>
<path id="text18707" d="M127.496,177h-18.69v-4.36l9.669-25.64h6.23l-9.154,24.313h11.945V177"/>
<g id="g3957" transform="matrix(0.593136,0.000000,0.000000,0.238935,-84.41248,24.25599)">
	<path id="path3959" sodipodi:nodetypes="cccccccccc" d="M260.176,149.597c-4.836,19.24-19.676,52.007-10.275,62.123
		c5.707,4.657,8.422-4.876,9.572-11.187h0.231l-3.79,31.835l8.778-0.094c0,0-3.782-30.603-3.79-31.773h0.092
		c0.929,5.158,4.454,15.833,8.331,11.769C280.666,200.871,263.968,168.439,260.176,149.597z"/>
</g>
<g id="g4593" transform="matrix(-0.593136,0.000000,0.000000,-0.238935,224.4125,162.5209)">
	<path id="path4595" sodipodi:nodetypes="cccccccccc" d="M260.176,149.595c-4.836,19.242-19.677,52.009-10.275,62.125
		c5.707,4.659,8.423-4.876,9.572-11.187h0.231l-3.79,31.835l8.778-0.094c0,0-3.781-30.6-3.789-31.773h0.092
		c0.929,5.158,4.454,15.834,8.332,11.767C280.665,200.873,263.968,168.437,260.176,149.595z"/>
</g>
<g id="g4982" transform="matrix(0.593136,0.000000,0.000000,0.238935,-84.05302,47.25599)">
	<path id="path4984" sodipodi:nodetypes="cccccccccc" d="M260.176,149.598c-4.836,19.24-19.676,52.007-10.275,62.125
		c5.707,4.655,8.422-4.88,9.572-11.188h0.23l-3.79,31.837l8.778-0.098c0,0-3.782-30.601-3.79-31.771h0.092
		c0.929,5.156,4.455,15.832,8.331,11.769C280.666,200.871,263.967,168.439,260.176,149.598z"/>
</g>
<path fill="none" stroke="#000000" stroke-miterlimit="10" d="M133.75,171.82c0,6.762-5.623,12.244-12.56,12.244H17.048
	c-6.936,0-12.56-5.482-12.56-12.244V17.494c0-6.762,5.624-12.244,12.56-12.244H121.19c6.937,0,12.56,5.482,12.56,12.244V171.82z"/>
</svg>
