<?xml version="1.0" encoding="utf-8"?>
<!-- Generator: Adobe Illustrator 16.0.0, SVG Export Plug-In . SVG Version: 6.00 Build 0)  -->
<!DOCTYPE svg PUBLIC "-//W3C//DTD SVG 1.1//EN" "http://www.w3.org/Graphics/SVG/1.1/DTD/svg11.dtd">
<svg version="1.1"
	 id="svg2" xmlns:dc="http://purl.org/dc/elements/1.1/" xmlns:cc="http://web.resource.org/cc/" xmlns:rdf="http://www.w3.org/1999/02/22-rdf-syntax-ns#" xmlns:svg="http://www.w3.org/2000/svg" xmlns:sodipodi="http://inkscape.sourceforge.net/DTD/sodipodi-0.dtd" xmlns:inkscape="http://www.inkscape.org/namespaces/inkscape" sodipodi:docbase="/home/nicu/Desktop/card_nicu_buculei_01.zip_FILES/cards/white" sodipodi:docname="white_s_8.svg" inkscape:version="0.41+cvs" sodipodi:version="0.32"
	 xmlns="http://www.w3.org/2000/svg" xmlns:xlink="http://www.w3.org/1999/xlink" x="0px" y="0px" width="140px" height="190px"
	 viewBox="0 0 140 190" enable-background="new 0 0 140 190" xml:space="preserve">
<sodipodi:namedview  inkscape:cx="70.000000" inkscape:cy="95.000000" inkscape:zoom="1.0000000" borderopacity="1.0" bordercolor="#666666" pagecolor="#ffffff" id="base" inkscape:window-x="0" inkscape:pageshadow="2" inkscape:pageopacity="0.0" inkscape:window-height="791" inkscape:current-layer="svg2" inkscape:window-y="26" inkscape:window-width="1152">
	</sodipodi:namedview>
<g id="layer1" inkscape:label="Layer 1" inkscape:groupmode="layer">
	<g id="g5630">
		<path id="rect2070" fill-opacity="0.498" d="M21,5h103c8.864,0,16,7.136,16,16v153c0,8.864-7.136,16-16,16H21
			c-8.864,0-16-7.136-16-16V21C5,12.136,12.136,5,21,5z"/>
		<path id="rect1300" fill="#E7E7E7" d="M17,1h103c8.864,0,16,7.136,16,16v153c0,8.864-7.136,16-16,16H17c-8.864,0-16-7.136-16-16
			V17C1,8.136,8.136,1,17,1z"/>
		<path id="path5624" fill="#C7891F" d="M19,3h103c8.864,0,16,7.136,16,16v153c0,8.864-7.136,16-16,16H19c-8.864,0-16-7.136-16-16
			V19C3,10.136,10.136,3,19,3z"/>
		<path id="rect1306" fill="#FFFFFF" d="M18,2h103c8.864,0,16,7.136,16,16v153c0,8.864-7.136,16-16,16H18c-8.864,0-16-7.136-16-16
			V18C2,9.136,9.136,2,18,2z"/>
	</g>
	<g id="g5495" transform="translate(-448.5000,-231.5000)" inkscape:label="Layer 1" inkscape:groupmode="layer">
	</g>
</g>
<g id="g1720" transform="matrix(0.593136,0.000000,0.000000,0.238935,-105.4057,0.481054)">
	<path id="path1722" sodipodi:nodetypes="cccccccccc" d="M260.176,149.597c-4.836,19.24-19.676,52.007-10.275,62.123
		c5.707,4.657,8.422-4.876,9.572-11.187h0.23l-3.789,31.835l8.777-0.094c0,0-3.781-30.603-3.789-31.773h0.092
		c0.929,5.158,4.454,15.833,8.332,11.767C280.665,200.871,263.968,168.439,260.176,149.597z"/>
</g>
<g id="g1733" transform="matrix(0.593136,0.000000,0.000000,0.238935,-64.26963,0.398840)">
	<path id="path1735" sodipodi:nodetypes="cccccccccc" d="M260.177,149.598c-4.837,19.24-19.677,52.005-10.277,62.123
		c5.707,4.655,8.423-4.876,9.572-11.189h0.231l-3.788,31.837l8.777-0.094c0,0-3.78-30.603-3.79-31.773h0.092
		c0.929,5.158,4.455,15.833,8.333,11.767C280.665,200.872,263.967,168.44,260.177,149.598z"/>
</g>
<g id="g1737" transform="matrix(0.593136,0.000000,0.000000,0.238935,-105.9338,35.65834)">
	<path id="path1739" sodipodi:nodetypes="cccccccccc" d="M260.177,149.598c-4.836,19.24-19.677,52.007-10.275,62.123
		c5.707,4.657,8.422-4.876,9.572-11.187h0.231l-3.79,31.835l8.778-0.094c0,0-3.781-30.602-3.79-31.773h0.092
		c0.929,5.158,4.454,15.834,8.332,11.769C280.666,200.871,263.968,168.439,260.177,149.598z"/>
</g>
<g id="g1741" transform="matrix(0.593136,0.000000,0.000000,0.238935,-65.97313,34.48302)">
	<path id="path1743" d="M260.176,149.598c-4.836,19.24-19.677,52.007-10.275,62.123c5.707,4.657,8.423-4.876,9.572-11.187h0.231
		c-0.008,1.185-0.214,24.4-0.817,25.774c-1.327,3.012-3.006,2.779-3.006,2.779l0.033,3.282l8.779-0.094l0.033-3.249
		c0,0-1.668,0.2-2.993-2.812c-0.606-1.373-0.822-24.541-0.83-25.712h0.092c0.929,5.158,4.454,15.833,8.331,11.767
		C280.666,200.871,263.968,168.44,260.176,149.598z"/>
</g>
<g id="g1745" transform="matrix(-0.593136,0.000000,0.000000,-0.238935,202.5319,155.1307)">
	<path id="path1747" sodipodi:nodetypes="cccccccccc" d="M260.176,149.596c-4.836,19.242-19.677,52.005-10.275,62.125
		c5.707,4.655,8.422-4.88,9.572-11.191h0.231l-3.79,31.839l8.778-0.098c0,0-3.781-30.6-3.79-31.773h0.092
		c0.929,5.158,4.454,15.834,8.332,11.771C280.665,200.87,263.968,168.438,260.176,149.596z"/>
</g>
<g id="g1749" transform="matrix(-0.593136,0.000000,0.000000,-0.238935,244.1962,155.2129)">
	<path id="path1751" sodipodi:nodetypes="cccccccccc" d="M260.175,149.597c-4.836,19.242-19.675,52.005-10.274,62.125
		c5.707,4.651,8.422-4.88,9.572-11.191h0.231l-3.79,31.839l8.777-0.098c0,0-3.782-30.6-3.788-31.773h0.092
		c0.929,5.158,4.452,15.833,8.331,11.771C280.665,200.87,263.969,168.438,260.175,149.597z"/>
</g>
<g id="g1757" transform="matrix(-0.593136,0.000000,0.000000,-0.238935,244.8433,185.7711)">
	<path id="path1759" sodipodi:nodetypes="cccccccccc" d="M260.176,149.595c-4.837,19.242-19.675,52.005-10.275,62.125
		c5.707,4.655,8.422-4.876,9.572-11.191h0.23l-3.788,31.839l8.776-0.094c0,0-3.78-30.6-3.788-31.773h0.091
		c0.93,5.154,4.455,15.833,8.334,11.767C280.665,200.872,263.968,168.437,260.176,149.595z"/>
</g>
<g id="g1761" transform="matrix(-0.593136,0.000000,0.000000,-0.238935,203.7073,185.7711)">
	<path id="path1763" sodipodi:nodetypes="cccccccccc" d="M260.176,149.595c-4.836,19.242-19.676,52.005-10.275,62.125
		c5.707,4.655,8.422-4.876,9.572-11.191h0.231l-3.79,31.839l8.778-0.094c0,0-3.782-30.6-3.79-31.773h0.092
		c0.929,5.154,4.454,15.833,8.332,11.767C280.665,200.872,263.968,168.437,260.176,149.595z"/>
</g>
<path id="path5596" sodipodi:nodetypes="cccccccccc" d="M20.644,48.665C15.72,56.49,0.61,69.814,10.182,73.928
	c5.811,1.894,8.576-1.982,9.747-4.549h0.234l-3.859,12.947l8.938-0.038c0,0-3.85-12.445-3.859-12.921h0.094
	c0.946,2.097,4.535,6.439,8.484,4.786C41.507,69.516,24.505,56.327,20.644,48.665z"/>
<path id="text1488" d="M20.603,28.816c-1.196,0-2.115,0.396-2.758,1.186c-0.642,0.791-0.963,1.922-0.963,3.396
	s0.321,2.605,0.963,3.396c0.643,0.777,1.562,1.165,2.758,1.165c1.185,0,2.093-0.388,2.725-1.165
	c0.631-0.791,0.947-1.922,0.947-3.396c0-1.487-0.316-2.619-0.947-3.396C22.697,29.211,21.788,28.816,20.603,28.816 M15.935,26.264
	c-1.506-0.549-2.642-1.393-3.406-2.532s-1.146-2.559-1.146-4.26c0-2.532,0.781-4.461,2.342-5.787
	c1.562-1.326,3.854-1.989,6.878-1.989c3.001,0,5.283,0.663,6.845,1.989c1.562,1.313,2.343,3.242,2.343,5.787
	c0,1.701-0.388,3.121-1.163,4.26c-0.764,1.139-1.899,1.982-3.406,2.532c1.684,0.563,2.952,1.48,3.804,2.753
	c0.864,1.259,1.296,2.853,1.296,4.782c0,2.974-0.819,5.224-2.458,6.751c-1.628,1.514-4.048,2.271-7.26,2.271
	c-3.223,0-5.659-0.757-7.31-2.271c-1.639-1.527-2.459-3.778-2.459-6.751c0-1.929,0.427-3.523,1.279-4.782
	C12.978,27.744,14.252,26.826,15.935,26.264 M17.431,20.256c0,1.192,0.271,2.11,0.814,2.753c0.554,0.643,1.34,0.964,2.359,0.964
	c0.997,0,1.767-0.322,2.31-0.964c0.542-0.643,0.814-1.561,0.814-2.753c0-1.192-0.271-2.104-0.814-2.733
	c-0.543-0.643-1.313-0.964-2.31-0.964c-1.019,0-1.805,0.321-2.359,0.964C17.702,18.166,17.431,19.077,17.431,20.256"/>
<path id="path19034" sodipodi:nodetypes="cccccccccc" d="M117.985,140c4.925-7.824,20.034-21.148,10.462-25.263
	c-5.811-1.894-8.575,1.982-9.746,4.55h-0.234l3.858-12.947l-8.938,0.038c0,0,3.851,12.445,3.858,12.921h-0.094
	c-0.945-2.097-4.535-6.438-8.484-4.785C97.123,119.149,114.124,132.338,117.985,140z"/>
<path id="text19036" d="M118.026,160.351c1.196-0.001,2.115-0.396,2.758-1.186c0.642-0.79,0.964-1.923,0.964-3.396
	c0-1.475-0.322-2.605-0.964-3.396c-0.643-0.777-1.562-1.165-2.758-1.165c-1.185,0-2.093,0.388-2.725,1.165
	c-0.632,0.791-0.946,1.922-0.946,3.396c0,1.486,0.314,2.618,0.946,3.396C115.934,159.955,116.842,160.35,118.026,160.351
	 M122.695,162.903c1.506,0.549,2.641,1.393,3.405,2.531s1.146,2.559,1.146,4.26c0,2.532-0.78,4.461-2.342,5.787
	s-3.854,1.989-6.878,1.99c-3.001-0.001-5.283-0.664-6.845-1.99c-1.562-1.313-2.342-3.242-2.342-5.787
	c0-1.701,0.387-3.121,1.162-4.26c0.765-1.139,1.899-1.982,3.406-2.531c-1.684-0.563-2.952-1.48-3.805-2.753
	c-0.864-1.259-1.296-2.854-1.296-4.782c0-2.975,0.819-5.225,2.458-6.752c1.629-1.514,4.049-2.27,7.261-2.27
	c3.223,0,5.659,0.756,7.31,2.27c1.639,1.527,2.459,3.777,2.459,6.752c0,1.929-0.426,3.523-1.279,4.782
	C125.652,161.422,124.378,162.34,122.695,162.903 M121.199,168.91c0-1.192-0.271-2.109-0.814-2.753
	c-0.553-0.644-1.34-0.964-2.358-0.964c-0.997,0-1.767,0.32-2.31,0.964s-0.814,1.561-0.814,2.753s0.271,2.104,0.814,2.732
	c0.543,0.644,1.313,0.965,2.31,0.965c1.019,0,1.806-0.321,2.358-0.965C120.928,171,121.199,170.089,121.199,168.91"/>
<path fill="none" stroke="#000000" stroke-miterlimit="10" d="M133.75,172.071c0,6.762-5.623,12.244-12.56,12.244H17.048
	c-6.936,0-12.56-5.482-12.56-12.244V17.744c0-6.762,5.624-12.244,12.56-12.244H121.19c6.937,0,12.56,5.482,12.56,12.244V172.071z"/>
</svg>
