<svg id="a" data-name="Layer 1" width="139" height="189" version="1.1" xmlns="http://www.w3.org/2000/svg"><defs id="defs1223"><clipPath id="k"><path style="fill:none" id="rect1035" d="M0 0h42.8v77.1H0z"/></clipPath><pattern id="j" data-name="Perl Color" x="0" y="0" width="42.8" height="77.1" patternTransform="matrix(.99 0 0 -.99 -163.7 -15006.7)" patternUnits="userSpaceOnUse"><g id="g1220"><path style="fill:none" id="rect1038" d="M0 0h42.8v77.1H0z"/><path style="fill:none" id="rect1040" d="M0 0h42.8v77.1H0z"/><path d="M42.8-10.7 47-15 57.6-4.3a6 6 0 0 1 0 8.6l-15-15Z" style="fill:#a91e22;stroke:#1c1b1a;stroke-width:.5px" id="path1042"/><g id="g1058"><path d="M42.8-10.7 47-15 57.6-4.3a6 6 0 0 1 0 8.6l-15-15Z" style="fill:#a91e22;stroke:#1c1b1a;stroke-width:.5px" id="path1044"/><g id="g1050"><path d="m21.4-10.7 4.3-4.3L36.4-4.3a6 6 0 0 1 0 8.6l-15-15Z" style="fill:#a91e22;stroke:#1c1b1a;stroke-width:.5px" id="path1046"/><path d="M0-10.7 4.3-15 15-4.3a6 6 0 0 1 0 8.6l-15-15Z" style="fill:#a91e22;stroke:#1c1b1a;stroke-width:.5px" id="path1048"/></g><g id="g1056"><path d="M42.8 10.7 38.5 15 27.8 4.3a6 6 0 0 1 0-8.6l15 15Z" style="fill:#a91e22;stroke:#1c1b1a;stroke-width:.5px" id="path1052"/><path d="M21.4 10.7 17 15 6.4 4.3a6 6 0 0 1 0-8.6l15 15Z" style="fill:#a91e22;stroke:#1c1b1a;stroke-width:.5px" id="path1054"/></g></g><g id="g1064"><path d="M0-10.7 4.3-15 15-4.3a6 6 0 0 1 0 8.6l-15-15Z" style="fill:#a91e22;stroke:#1c1b1a;stroke-width:.5px" id="path1060"/><path d="M0 10.7-4.3 15-15 4.3a6 6 0 0 1 0-8.6l15 15Z" style="fill:#a91e22;stroke:#1c1b1a;stroke-width:.5px" id="path1062"/></g><g id="g1088"><path d="M42.8-10.7 47-15 57.6-4.3a6 6 0 0 1 0 8.6l-15-15Z" style="fill:#a91e22;stroke:#1c1b1a;stroke-width:.5px" id="path1066"/><g id="g1072"><path d="m42.8 27.9 4.3-4.3 10.6 10.7a6 6 0 0 1 0 8.6l-15-15Z" style="fill:#a91e22;stroke:#1c1b1a;stroke-width:.5px" id="path1068"/><path d="m42.8 66.5 4.3-4.3 10.6 10.6a6 6 0 0 1 0 8.6l-15-15Z" style="fill:#a91e22;stroke:#1c1b1a;stroke-width:.5px" id="path1070"/></g><g id="g1086"><path d="m42.8 49.3-4.3 4.3-10.7-10.7a6 6 0 0 1 0-8.6l15 15Z" style="fill:#a91e22;stroke:#1c1b1a;stroke-width:.5px" id="path1074"/><path d="M42.8 10.7 38.5 15 27.8 4.3a6 6 0 0 1 0-8.6l15 15Z" style="fill:#a91e22;stroke:#1c1b1a;stroke-width:.5px" id="path1076"/><path d="m32 30 4.4 4.3L47 23.6a6 6 0 0 0 0-8.6L32 30Z" style="fill:#a91e22;stroke:#1c1b1a;stroke-width:.5px" id="path1078"/><path d="m32 68.5 4.4 4.3L47 62.2a6 6 0 0 0 0-8.6l-15 15Z" style="fill:#a91e22;stroke:#1c1b1a;stroke-width:.5px" id="path1080"/><path d="m53.4 8.6-4.3-4.3L38.4 15a6 6 0 0 0 0 8.6l15-15Z" style="fill:#a91e22;stroke:#1c1b1a;stroke-width:.5px" id="path1082"/><path d="m53.4 47.2-4.3-4.3-10.7 10.7a6 6 0 0 0 0 8.6l15-15Z" style="fill:#a91e22;stroke:#1c1b1a;stroke-width:.5px" id="path1084"/></g></g><g id="g1162"><path d="M42.8-10.7 47-15 57.6-4.3a6 6 0 0 1 0 8.6l-15-15Z" style="fill:#941a1d;stroke:#1c1b1a;stroke-width:.5px" id="path1090"/><g id="g1096"><path d="m21.4-10.7 4.3-4.3L36.4-4.3a6 6 0 0 1 0 8.6l-15-15Z" style="fill:#a91e22;stroke:#1c1b1a;stroke-width:.5px" id="path1092"/><path d="M0-10.7 4.3-15 15-4.3a6 6 0 0 1 0 8.6l-15-15Z" style="fill:#a91e22;stroke:#1c1b1a;stroke-width:.5px" id="path1094"/></g><g id="g1102"><path d="m42.8 27.9 4.3-4.3 10.6 10.7a6 6 0 0 1 0 8.6l-15-15Z" style="fill:#a91e22;stroke:#1c1b1a;stroke-width:.5px" id="path1098"/><path d="m42.8 66.5 4.3-4.3 10.6 10.6a6 6 0 0 1 0 8.6l-15-15Z" style="fill:#a91e22;stroke:#1c1b1a;stroke-width:.5px" id="path1100"/></g><g id="g1136"><path d="m42.8 49.3-4.3 4.3-10.7-10.7a6 6 0 0 1 0-8.6l15 15Z" style="fill:#a91e22;stroke:#1c1b1a;stroke-width:.5px" id="path1104"/><path d="M42.8 10.7 38.5 15 27.8 4.3a6 6 0 0 1 0-8.6l15 15Z" style="fill:#a91e22;stroke:#1c1b1a;stroke-width:.5px" id="path1106"/><path d="M21.4 49.3 17 53.6 6.4 42.9a6 6 0 0 1 0-8.6l15 15Z" style="fill:#a91e22;stroke:#1c1b1a;stroke-width:.5px" id="path1108"/><path d="M21.4 10.7 17 15 6.4 4.3a6 6 0 0 1 0-8.6l15 15Z" style="fill:#a91e22;stroke:#1c1b1a;stroke-width:.5px" id="path1110"/><path d="m32 30 4.4 4.3L47 23.6a6 6 0 0 0 0-8.6L32 30Z" style="fill:#a91e22;stroke:#1c1b1a;stroke-width:.5px" id="path1112"/><path d="m10.7 30 4.3 4.3 10.7-10.7a6 6 0 0 0 0-8.6l-15 15Z" style="fill:#a91e22;stroke:#1c1b1a;stroke-width:.5px" id="path1114"/><path d="m32 68.5 4.4 4.3L47 62.2a6 6 0 0 0 0-8.6l-15 15Z" style="fill:#a91e22;stroke:#1c1b1a;stroke-width:.5px" id="path1116"/><path d="m10.7 68.5 4.3 4.3 10.7-10.6a6 6 0 0 0 0-8.6l-15 15Z" style="fill:#a91e22;stroke:#1c1b1a;stroke-width:.5px" id="path1118"/><path d="m21.4 27.9 4.3-4.3 10.7 10.7a6 6 0 0 1 0 8.6l-15-15Z" style="fill:#a91e22;stroke:#1c1b1a;stroke-width:.5px" id="path1120"/><path d="m0 27.9 4.3-4.3L15 34.3a6 6 0 0 1 0 8.6l-15-15Z" style="fill:#a91e22;stroke:#1c1b1a;stroke-width:.5px" id="path1122"/><path d="m21.4 66.5 4.3-4.3 10.7 10.6a6 6 0 0 1 0 8.6l-15-15Z" style="fill:#a91e22;stroke:#1c1b1a;stroke-width:.5px" id="path1124"/><path d="m0 66.5 4.3-4.3L15 72.8a6 6 0 0 1 0 8.6l-15-15Z" style="fill:#a91e22;stroke:#1c1b1a;stroke-width:.5px" id="path1126"/><path d="m53.4 8.6-4.3-4.3L38.4 15a6 6 0 0 0 0 8.6l15-15Z" style="fill:#a91e22;stroke:#1c1b1a;stroke-width:.5px" id="path1128"/><path d="m32 8.6-4.2-4.3L17 15a6 6 0 0 0 0 8.6l15-15Z" style="fill:#a91e22;stroke:#1c1b1a;stroke-width:.5px" id="path1130"/><path d="m53.4 47.2-4.3-4.3-10.7 10.7a6 6 0 0 0 0 8.6l15-15Z" style="fill:#a91e22;stroke:#1c1b1a;stroke-width:.5px" id="path1132"/><path d="m32 47.2-4.2-4.3L17 53.6a6 6 0 0 0 0 8.6l15-15Z" style="fill:#a91e22;stroke:#1c1b1a;stroke-width:.5px" id="path1134"/></g><g id="g1150"><path d="m0 49.3-4.3 4.3L-15 42.9a6 6 0 0 1 0-8.6l15 15Z" style="fill:#a91e22;stroke:#1c1b1a;stroke-width:.5px" id="path1138"/><path d="M0 10.7-4.3 15-15 4.3a6 6 0 0 1 0-8.6l15 15Z" style="fill:#a91e22;stroke:#1c1b1a;stroke-width:.5px" id="path1140"/><path d="m-10.7 30 4.3 4.3L4.3 23.6a6 6 0 0 0 0-8.6l-15 15Z" style="fill:#a91e22;stroke:#1c1b1a;stroke-width:.5px" id="path1142"/><path d="m-10.7 68.5 4.3 4.3L4.3 62.2a6 6 0 0 0 0-8.6l-15 15Z" style="fill:#a91e22;stroke:#1c1b1a;stroke-width:.5px" id="path1144"/><path d="M10.7 8.6 6.4 4.3-4.3 15a6 6 0 0 0 0 8.6l15-15Z" style="fill:#a91e22;stroke:#1c1b1a;stroke-width:.5px" id="path1146"/><path d="m10.7 47.2-4.3-4.3-10.7 10.7a6 6 0 0 0 0 8.6l15-15Z" style="fill:#a91e22;stroke:#1c1b1a;stroke-width:.5px" id="path1148"/></g><g id="g1156"><path d="m42.8 87.8-4.3 4.3-10.7-10.7a6 6 0 0 1 0-8.6l15 15Z" style="fill:#a91e22;stroke:#1c1b1a;stroke-width:.5px" id="path1152"/><path d="M21.4 87.8 17 92.1 6.4 81.4a6 6 0 0 1 0-8.6l15 15Z" style="fill:#a91e22;stroke:#1c1b1a;stroke-width:.5px" id="path1154"/></g><g style="clip-path:url(#k)" clip-path="url(#k)" id="g1160"><path d="m0 87.8-4.3 4.3L-15 81.4a6 6 0 0 1 0-8.6l15 15Z" style="fill:#d2ab80;stroke:#1c1b1a;stroke-width:.5px" id="path1158"/></g></g><g id="g1188"><path d="M0-10.7 4.3-15 15-4.3a6 6 0 0 1 0 8.6l-15-15Z" style="fill:#941a1d;stroke:#1c1b1a;stroke-width:.5px" id="path1164"/><g id="g1170"><path d="m0 27.9 4.3-4.3L15 34.3a6 6 0 0 1 0 8.6l-15-15Z" style="fill:#a91e22;stroke:#1c1b1a;stroke-width:.5px" id="path1166"/><path d="m0 66.5 4.3-4.3L15 72.8a6 6 0 0 1 0 8.6l-15-15Z" style="fill:#a91e22;stroke:#1c1b1a;stroke-width:.5px" id="path1168"/></g><g id="g1184"><path d="m0 49.3-4.3 4.3L-15 42.9a6 6 0 0 1 0-8.6l15 15Z" style="fill:#a91e22;stroke:#1c1b1a;stroke-width:.5px" id="path1172"/><path d="M0 10.7-4.3 15-15 4.3a6 6 0 0 1 0-8.6l15 15Z" style="fill:#a91e22;stroke:#1c1b1a;stroke-width:.5px" id="path1174"/><path d="m-10.7 30 4.3 4.3L4.3 23.6a6 6 0 0 0 0-8.6l-15 15Z" style="fill:#a91e22;stroke:#1c1b1a;stroke-width:.5px" id="path1176"/><path d="m-10.7 68.5 4.3 4.3L4.3 62.2a6 6 0 0 0 0-8.6l-15 15Z" style="fill:#a91e22;stroke:#1c1b1a;stroke-width:.5px" id="path1178"/><path d="M10.7 8.6 6.4 4.3-4.3 15a6 6 0 0 0 0 8.6l15-15Z" style="fill:#a91e22;stroke:#1c1b1a;stroke-width:.5px" id="path1180"/><path d="m10.7 47.2-4.3-4.3-10.7 10.7a6 6 0 0 0 0 8.6l15-15Z" style="fill:#a91e22;stroke:#1c1b1a;stroke-width:.5px" id="path1182"/></g><path d="m0 87.8-4.3 4.3L-15 81.4a6 6 0 0 1 0-8.6l15 15Z" style="fill:#a91e22;stroke:#1c1b1a;stroke-width:.5px" id="path1186"/></g><g id="g1194"><path d="m42.8 66.5 4.3-4.3 10.6 10.6a6 6 0 0 1 0 8.6l-15-15Z" style="fill:#a91e22;stroke:#1c1b1a;stroke-width:.5px" id="path1190"/><path d="m42.8 87.8-4.3 4.3-10.7-10.7a6 6 0 0 1 0-8.6l15 15Z" style="fill:#a91e22;stroke:#1c1b1a;stroke-width:.5px" id="path1192"/></g><g id="g1212"><path d="m42.8 66.5 4.3-4.3 10.6 10.6a6 6 0 0 1 0 8.6l-15-15Z" style="fill:#941a1d;stroke:#1c1b1a;stroke-width:.5px" id="path1196"/><g id="g1202"><path d="m21.4 66.5 4.3-4.3 10.7 10.6a6 6 0 0 1 0 8.6l-15-15Z" style="fill:#a91e22;stroke:#1c1b1a;stroke-width:.5px" id="path1198"/><path d="m0 66.5 4.3-4.3L15 72.8a6 6 0 0 1 0 8.6l-15-15Z" style="fill:#a91e22;stroke:#1c1b1a;stroke-width:.5px" id="path1200"/></g><g id="g1208"><path d="m42.8 87.8-4.3 4.3-10.7-10.7a6 6 0 0 1 0-8.6l15 15Z" style="fill:#a91e22;stroke:#1c1b1a;stroke-width:.5px" id="path1204"/><path d="M21.4 87.8 17 92.1 6.4 81.4a6 6 0 0 1 0-8.6l15 15Z" style="fill:#a91e22;stroke:#1c1b1a;stroke-width:.5px" id="path1206"/></g><path d="m0 87.8-4.3 4.3L-15 81.4a6 6 0 0 1 0-8.6l15 15Z" style="fill:#a91e22;stroke:#1c1b1a;stroke-width:.5px" id="path1210"/></g><g id="g1218"><path d="m0 66.5 4.3-4.3L15 72.8a6 6 0 0 1 0 8.6l-15-15Z" style="fill:#941a1d;stroke:#1c1b1a;stroke-width:.5px" id="path1214"/><path d="m0 87.8-4.3 4.3L-15 81.4a6 6 0 0 1 0-8.6l15 15Z" style="fill:#a91e22;stroke:#1c1b1a;stroke-width:.5px" id="path1216"/></g></g></pattern><style id="style1033">.p{fill-opacity:.5}.p,.q{fill:url(#j)}.r{fill:#d2ab80}.r,.s,.t{stroke:#1c1b1a;stroke-width:.5px}.u{fill:rgba(41,37,98,.5)}.v{stroke:#fff;stroke-miterlimit:10;stroke-width:2px}.v,.w{fill:none}.x{fill:#292562}.s{fill:#941a1d}.t{fill:#a91e22}.y{clip-path:url(#k)}</style></defs><g id="b" data-name="layer1" style="display:inline"><g id="c" data-name="g5630" style="display:inline"><path id="d" data-name="rect2070" d="M20 4h103a16 16 0 0 1 16 16v153a16 16 0 0 1-16 16H20a16 16 0 0 1-16-16V20A16 16 0 0 1 20 4Z" style="display:inline"/><path id="g" data-name="rect1306" d="M17 1h103a16 16 0 0 1 16 16v153a16 16 0 0 1-16 16H17a16 16 0 0 1-16-16V17A16 16 0 0 1 17 1Z" style="display:inline;fill:#a0892c"/></g></g><g id="layer1" style="display:inline"><g id="g1496" style="display:inline"><path id="path7363" style="display:inline;fill:#786721;stroke-width:.178667" d="M2 138.6v6.6l1.7-1.7 1.7-1.6-1.7-1.7zm40 10.2-7.3 7.2-7.2 7.1 1.9 1.8 2 1.8 5.4-5.4c6.2-6.2 6.4-6.5 6.4-8.8 0-1 0-1.5-.6-2.5l-.7-1.2zm-21.2.1c-.1 0-3 2.7-7.3 7L6.3 163l1.9 1.9 1.9 1.8a228.4 228.4 0 0 0 11.5-11.8c.3-.7.4-1 .4-2.4s0-1.7-.5-2.5l-.7-1zm42.3 0s-3 2.7-7.3 7l-7.1 7.1 1.8 1.9 2 1.8A229.1 229.1 0 0 0 64 154.5a5.8 5.8 0 0 0-.9-5.6zm-42.4 8.3-1.8 1.9-2 1.9 7.2 7.1 7.2 7.2.4-.5c1-1.3 1.2-4.1.4-5.8-.3-.5-2.3-2.7-5.9-6.3zm21.2.1-1.9 1.9-1.9 1.9 7.1 7 7.3 7.2.7-1.2c.5-1 .6-1.4.6-2.6 0-2.3-.2-2.5-6.4-8.7zm-39.8 2.5v7.3l4 4.1 4 4 .4-.5a5 5 0 0 0 1-3.2c0-2.2-.4-2.6-5.2-7.5zm41.8 8.1-.7 1a6.5 6.5 0 0 0-.3 4.6c.3.9.7 1.4 5.5 6.2l5.2 5.2h1c1 0 1 0 2.3-1.3l1.3-1.4c0-.3-14-14.3-14.3-14.3zm-21.2.2-.2.1c-.7 1-1 2-1 3.4 0 2.3.2 2.6 5.9 8.4l5 5h2l1.3-1.5 1.4-1.4-7.2-7.1a53.4 53.4 0 0 0-7.2-6.9zm-20.6.1v2c0 2.2.3 4.1.9 5.7.3.9.7 1.4 2.4 3.2a17.2 17.2 0 0 0 8.2 5.3c.2 0 2.2-2 2.2-2.3 0 0-3-3.2-6.9-7zm20.6 8.1-4 4.1c-2.3 2.2-4 4.1-4 4.2l.7.2h3.4l2.8.1 2.4-2.4 2.4-2.4-1.8-1.9zm21.2 0-4.2 4.3-4.3 4.3h7.5l2.4-2.4 2.4-2.4-1.9-1.9zm21.1 0-4.3 4.3-4.2 4.3H64l2.4-2.4 2.4-2.4-1.9-1.9zM7 142.5l-5-5v-7.3l7 6.9 6.9 6.9-1.8 1.8c-1 1-1.8 1.8-2 1.8l-5-5zm4.6 12.9c-.6-1.2-.8-2-.7-3.3.1-2 .4-2.4 6.4-8.5l5.5-5.4 1.9 1.9 1.8 1.9-7.2 7-7.2 7.2zm16.1-13.3c-6.2-6.3-6.2-6.3-6.2-8.7a5 5 0 0 1 1-3.4c.3-.4.6 0 7.4 6.8l7.2 7.1-1.9 1.8-1.9 1.9-5.6-5.5zm4.9 12.9c-.5-1-.6-1.4-.6-2.5 0-2.3.3-2.8 6.5-9l5.4-5.3 1.8 1.9 2 1.8-7.2 7.2-7.2 7-.7-1.1zm16.3-12.8c-5-5.2-5.6-5.7-6-6.6-.6-1.9-.3-4.2.7-5.4l.4-.5 7.1 7.2 7.1 7.1-1.8 1.9-2 1.9zm5.4 13.7-.6-1c-.4-.7-.5-1-.5-2.4 0-2.4.1-2.5 6.5-8.9l5.4-5.4L67 140l1.8 1.9-7.2 7.1a48.2 48.2 0 0 1-7.3 7zM70 142c-6.2-6.3-6.2-6.3-6.2-8.7a5 5 0 0 1 1-3.3c.3-.4.6-.1 7.5 6.8l7.1 7.1-1.8 1.8-2 1.9L70 142zm1.7-15.2-1.8-2 7.1-7a52 52 0 0 1 7.4-7l.7 1.2c.4.7.5 1.2.5 2.2 0 2.4-.3 2.8-6.6 9l-5.4 5.4zm-5.3 3.2c-3.8-3.8-7-7-7-7.2l1.8-2 1.8-1.7 5.5 5.5a59 59 0 0 1 6 6.4c.4 1 .6 3 .3 4-.3.8-1 2-1.2 2l-7.2-7zm-15.9-3.4-1.8-1.8 7.1-7.1 7.2-7.2.3.5c.2.2.6.8.8 1.4.5 1.3.4 3-.2 4.3a235.8 235.8 0 0 1-11.4 11.8l-2-1.9zm-5.3 3.3-7-7 1.8-2 2-1.8 5.4 5.5c6.3 6.3 6.4 6.4 6.4 8.8 0 1.3 0 1.6-.6 2.5a4 4 0 0 1-.7 1c0 .1-3.3-3-7.3-7zm-15.8-3.1-1.9-2 7.2-7c8-8 7.3-7.6 8.1-5.7.3.7.4 1.3.4 2.2 0 2.3-.3 2.7-6.5 9l-5.4 5.3zm-5.2 3.1-7.1-7 1.8-1.9 1.8-1.8 5.7 5.6c5 5 5.7 5.8 6 6.6.5 1.7.2 4-.7 5.2l-.4.4zM6 133.1l-4-4v-7.5l4.3 4.2c4.9 4.9 5.1 5.3 5.1 7.6 0 1.2 0 1.6-.5 2.5a4 4 0 0 1-.7 1c-.1.1-2-1.7-4.2-3.8zm2.3-6.3-1.9-2 7.2-7 7.1-7.2.3.4c.7.9 1.1 2.3 1 3.6-.1 2.2-.3 2.5-6.4 8.5l-5.4 5.5zm3.6-9.1a5 5 0 0 1-1-3.4c0-2.4 0-2.6 6.4-8.9l5.5-5.4 1.9 1.8 1.8 2-7 7-7.3 7.1s-.2 0-.3-.2zm15.9-13.8c-6.4-6.4-6.4-6.4-6.4-8.8 0-1 .1-1.4.6-2.3l.7-1.1c.1 0 3.4 3.1 7.3 7l7.2 7-2 2-1.8 1.8zm5 13.4c-.6-1-1-2.5-.8-3.6.2-1.8.6-2.3 6.4-8.2l5.4-5.5 2 1.8 1.8 2-7 7-7.3 7.1-.5-.6zM49 104a67.7 67.7 0 0 1-5.9-6.3c-.3-.6-.4-1-.4-2.5 0-1.4 0-1.8.4-2.5l.7-1c.1-.2 2.5 2.2 7.3 7l7.1 7-1.8 2-2 1.8zm5 13.3c-1-1.6-1.1-4-.2-5.6.3-.6 2.3-2.7 5.9-6.3L65 100l1.9 1.8 1.9 2-7.1 7-7.3 7.1-.5-.6zm21-.1c-.9-1.7-1-3.6-.1-5.4.3-.8 1.4-2 5.9-6.4l5.4-5.4 1.9 1.8 1.9 2-7.1 7-7.3 7.1-.5-.7zm-4.8-13.3c-6-6-6.3-6.3-6.5-8.2 0-1.2.2-2.5.9-3.5l.5-.7 7.1 7.2 7.2 7.2-1.8 1.8-1.8 1.8zm-3.7-12-7.2-7.2 1.9-1.9L63 81l5.4 5.4c6.4 6.4 6.6 6.7 6.4 9.1 0 1.5-.3 2.3-1 3.2-.3.4-.4.3-7.4-6.8zm-21.3-.2-7-7.1 1.8-1.9 2-1.9 5.3 5.5c6.3 6.3 6.5 6.5 6.5 9a4 4 0 0 1-.6 2.3 4 4 0 0 1-.7 1.1s-3.3-3-7.3-7zm-15.8-3.2-1.9-1.8 7.2-7.2a52 52 0 0 1 7.3-7l.7 1.2c.4.9.5 1.3.5 2.4 0 2.3-.1 2.5-6.4 8.8l-5.5 5.5zM24 91.8l-7-7.1 1.8-1.9 2-1.9 5.4 5.5c6.4 6.4 6.5 6.6 6.4 9 0 1-.2 1.7-.5 2.2-.8 1.6 0 2.1-8-5.8zM2 103.7v-3.2l1.6 1.6 1.6 1.6-1.6 1.6a38 38 0 0 1-1.6 1.5v-3.1zm5 .8-5-5v-7.6L9 99l6.9 6.9-1.9 1.8-1.9 2zm-1-9.7-4-4v-7.5l4.1 4.3c5 4.8 5.2 5.3 5.2 7.6 0 1.2 0 1.5-.5 2.4l-.7 1.2-4.2-4zm2.2-6.3-1.9-1.8 7.2-7.2 7.1-7.1.4.6a6 6 0 0 1 .4 5.6c-.3.6-1.8 2.2-5.8 6.3l-5.5 5.5zM2 65.5v-3.2l1.6 1.6 1.7 1.7-1.7 1.6L2.1 69zm4-9-4-3.9v-7.3l4.2 4.3c5 4.9 5.1 5.1 5.1 7.4 0 1.1 0 1.5-.5 2.4l-.7 1.1c-.1 0-2-1.7-4.2-4zm1 9.7-5-5v-7.5l6.9 7 6.9 6.8-1.9 2-1.9 1.8zm4.6 12.9a5.9 5.9 0 0 1-.3-5.4c.3-.7 1.8-2.3 5.9-6.4l5.5-5.6 1.7 2 1.8 1.9-7 7.2-7.2 7Zm16.1-13.2c-6.2-6.2-6.4-6.5-6.4-9 0-1.3.5-2.8 1.1-3.3.3-.2 1.5 1 7.4 6.9l7.2 7.1-1.9 1.9-1.9 1.8-5.5-5.4zm4.9 13c-1-1.6-1-4 0-5.5.2-.4 2.9-3.2 5.8-6.2l5.5-5.4 1.8 1.9 1.9 1.9-7.1 7-7.3 7-.6-.7zm17.8 9.7-1.8-1.9 7.2-7.1 7.2-7.2.4.7a6 6 0 0 1 .4 5.5 222.3 222.3 0 0 1-11.4 11.8l-2-1.8zM70 65.8c-6.2-6.3-6.3-6.4-6.3-8.7 0-1.5.5-3 1-3.5.3-.2 1.5 1 7.5 6.9l7.1 7.1-1.8 1.9-2 1.8-5.5-5.5zM54 79.3a5.9 5.9 0 0 1-.6-5.3c.4-1 .9-1.5 6-6.6l5.5-5.6 2 1.9 1.8 1.9-7.2 7.1-7.1 7.2zm-5-13.5c-6.3-6.3-6.5-6.5-6.5-8.8 0-1 .1-1.5.4-2.2.9-1.8.1-2.4 8.1 5.6l7.1 7.1-1.8 2-2 1.8zm-3.9-12.3-7.1-7 1.8-2 1.9-1.8 5.5 5.5c6.3 6.3 6.5 6.5 6.5 8.8a4 4 0 0 1-.6 2.4l-.7 1.1s-3.4-3.1-7.3-7zm-12-12.2c-.7-.7-1-2-1-3.4 0-2.3.2-2.7 6.4-9l5.5-5.3 1.8 1.9 1.9 1.8-7.2 7.2c-6.8 6.8-7.1 7.1-7.4 6.8zm-3.7 9-1.8-1.8 7.2-7.1a40 40 0 0 1 7.3-7 6.9 6.9 0 0 1 1.1 3.6c0 2.2-.2 2.5-6.3 8.7l-5.5 5.5-2-1.9zm-5.3 3.3L17 46.5l1.8-2 2-1.8 5.3 5.4c6.2 6.1 6.4 6.4 6.5 8.6 0 1.3 0 1.6-.4 2.6a6 6 0 0 1-.7 1.3c-.2 0-2.3-2-7.4-7zm-16-3.3-1.8-1.8 7.2-7.1 7.2-7.2.4.5c1 1.3 1.2 3.5.6 5.3-.4 1-.8 1.4-6 6.6l-5.6 5.6-2-1.9zm-6-23V24l1.6 1.7 1.7 1.6L3.7 29l-1.6 1.6zm4-8.7c-3.3-3.3-3.9-4-3.9-4.4 0-.9.5-2.7 1.1-4L4 8.9l3.3 3.3c3.9 3.9 4.2 4.4 4.2 6.7 0 1.2 0 1.6-.5 2.5a4 4 0 0 1-.7 1c-.1 0-2-1.6-4-3.8zm1 9.4-5-5v-7.5l6.8 6.8 7 7c0 .3-3.5 3.8-3.7 3.8L7.1 28zm4.6 12.9c-.7-1.2-1-2-.8-3.4.1-2 .4-2.4 6.4-8.4l5.5-5.4 1.8 1.8 1.8 1.8-7.1 7.2-7.2 7.2zm16-13.3c-6.2-6.3-6.2-6.4-6.2-8.8a5 5 0 0 1 1-3.3c.3-.4.5-.1 7.4 6.7l7.2 7.2-1.9 1.8-1.9 1.9-5.5-5.5zm-3.6-12.2L17 8.2l1.9-1.9 1.9-1.9 5.4 5.6c3.4 3.5 5.6 5.9 5.9 6.4.8 1.6.6 4.3-.4 5.6l-.4.5zM12 3.2c-.3-.4-.2-.5.4-.6.7-.2.7 0 .2.4-.3.3-.4.3-.6.2ZM8 12l-1.8-1.9 4-4 4-4L18 2l3.5-.1-.5.7-5.8 6-5.3 5.2Zm24.6-9.4c-.4-.5-.4-.6.1-.6h1c.6 0 .6 0 0 .6l-.7.6ZM29.1 12l-1.8-1.7 4.2-4.2L35.6 2H39c2.4 0 3.3.1 3.3.3 0 .3-11 11.6-11.3 11.6l-2-1.8zM45 15.4l-7.1-7 2-2 1.8-1.9 5.4 5.6c3 3 5.7 6 5.9 6.4.6 1.1.6 3.5 0 4.7-.3.6-.7 1-.8 1.1 0 .1-3.4-3-7.2-6.9zm3.6 12c-6-6-6.3-6.5-6.3-8.6a6 6 0 0 1 1-3.1c.4-.5.5-.5 7.6 6.6l7 7.1-1.7 1.9-1.9 1.8zm5 13.3a7 7 0 0 1-.6-2.3c-.2-2.5.2-3.2 6.4-9.4l5.4-5.4 1.8 1.9 1.9 1.8-7.1 7a270 270 0 0 1-7.2 7.1s-.4-.3-.6-.7zm-3.3 9.6-1.8-1.8 7-7 7.3-7.1.7 1c.7 1.4.7 3.4.2 4.7a159.4 159.4 0 0 1-11.5 12l-2-1.8zm15.9 3.3-7-7.1 1.8-1.8 1.8-1.9 5.4 5.5c3.5 3.4 5.7 5.8 6 6.4.2.6.5 1.6.5 2.3 0 1.2-.7 3.2-1.2 3.5-.2 0-3.4-3-7.3-7zm5.3-3.3-1.8-1.8 7.1-7a97 97 0 0 1 7.3-7c.5.3 1.2 2.3 1.2 3.4 0 2.1-.7 3-6.4 8.8L73.4 52s-1-.8-1.9-1.8zm3.2-10a6.3 6.3 0 0 1 0-4.8 57 57 0 0 1 5.9-6.4l5.4-5.5 1.9 1.9 1.8 1.8-7 7c-4 4-7.2 7.1-7.4 7.1 0 0-.4-.4-.6-1zm-4.9-12.7c-3-3.2-5.6-6-5.8-6.6-.2-.5-.4-1.5-.4-2.2 0-1.2.6-3.2 1.1-3.5.2 0 3.4 3 7.3 7l7 7-1.8 2-2 1.8zm-16-25c-.3-.6-.3-.6.7-.6h1l-.5.7-.8.6-.5-.6zm-3.5 9.5-1.8-1.7 4.2-4.2L56.8 2h3.4c2.4 0 3.3.1 3.3.3 0 .3-11 11.6-11.3 11.6l-2-1.8zm15.9 3.3-7-7 1.8-2 1.8-1.8 5.4 5.4a44 44 0 0 1 6 6.5c.2.5.5 1.5.5 2.2 0 1.2-.7 3.2-1.2 3.5-.2 0-3.4-3-7.3-6.9zm8.7-12.6c-.4-.7-.3-.8.8-.8h1l-.5.7c-.7.7-1 .7-1.3.1zm-3.4 9.3-1.8-1.7L74 6.2 78.1 2h6.7l-.3.6a199 199 0 0 1-11.1 11.3s-1-.8-1.9-1.8zM96.2 3c-.7-.9-.6-1 .6-1H98l-.6.7c-.7.7-.8.7-1.2.3Zm21-.3c-.3-.5-.3-.6.2-.6h1c.5 0 .5 0-.1.6l-.6.6zm-24.5 9.4-1.9-1.9 4.2-4L99 2h3.6l3.5.1-5.8 6-5.8 5.8Zm-5.3 3.2-7.2-7.1 1.9-1.8 1.8-1.8 5.5 5.4c3 3 5.6 6 5.8 6.4.8 1.5.8 3 .1 4.7l-.7 1.4-7.2-7.2zm3.5 12.2a33.5 33.5 0 0 1-5.9-6.6c-.4-1.4-.2-4 .4-5l.5-.7 7.2 7.1 7 7.1-1.8 1.9-1.8 1.8zm-3.5 26-7-7 1.8-1.8 1.8-1.9 5.3 5.3c3 3 5.6 5.8 5.8 6.3 1 1.8 1 4.2-.2 5.7-.4.5-.4.5-7.5-6.5zm-12.7 25a6.3 6.3 0 0 1 0-4.8 57 57 0 0 1 5.9-6.5l5.4-5.4 1.9 1.8 1.8 1.8-7 7.1c-4 4-7.2 7-7.4 7 0 0-.4-.4-.6-1zm-3.2 10-1.8-1.8 7.1-7.1a97 97 0 0 1 7.3-7c.4.4 1.2 2.3 1.2 3.3 0 2.3-.3 2.7-6.2 8.7l-5.7 5.6s-1-.8-1.9-1.8zm16 3.2-7.1-7 1.8-1.9L84 81l5.2 5.2a78 78 0 0 1 5.8 6.2c.9 1.4 1 3 .5 4.6a5 5 0 0 1-.7 1.5 39 39 0 0 1-7.4-6.8zM91 104a49.7 49.7 0 0 1-5.8-6.4 6.8 6.8 0 0 1 0-4.8l.7-.9c.2 0 3.4 3 7.3 7l7 7-1.9 1.8-1.8 1.8zm4.9 13a5.8 5.8 0 0 1 0-5c.2-.6 2.9-3.5 5.9-6.5l5.3-5.3 1.9 1.8 1.8 1.8-7.2 7.2-7.1 7.2zm-3.2 9.9-1.9-1.9 7.2-7.1 7.2-7.2.6 1.1c.8 1.6.8 3.8-.1 5.3-.4.6-3 3.5-6 6.4l-5.2 5.2zm-5.3 3-7-7 1.8-1.8L84 119l5.5 5.6c3 3 5.6 5.9 5.8 6.2.8 1.6.7 4.3-.4 5.5-.4.6-.5.5-7.5-6.5zm3.6 12.3c-3-3-5.6-5.9-5.8-6.3a7.2 7.2 0 0 1 0-5l.8-1 7.2 7 7 7.1-1.8 1.8-1.9 1.9zM74.7 155a6.6 6.6 0 0 1-.2-4.7c.3-.6 2.5-3 6-6.5l5.4-5.5 1.8 1.8 1.9 1.9-7 7-7.2 7-.7-1zm-3.3 10-1.8-1.8 7.2-7.2 7.1-7.1.6 1c.9 1.3 1 4 0 5.3-.2.5-2.9 3.3-5.8 6.3l-5.4 5.4zm-5.2 3.1-7-7L61 159l1.8-1.8 5.3 5.3c5.7 5.7 6.6 6.9 6.6 9 0 1-1 3.5-1.3 3.5l-7.2-7zm3.2 11.8a45 45 0 0 1-5.5-6c-.5-1.4-.5-3.4.2-4.7l.7-1 7.2 7 7 7-1.3 1.5c-1.2 1.1-1.5 1.4-2.3 1.4-.8 0-1.2-.4-6-5.2zm10.8 2.4 4.1-4.3 1.6-1.5 2 1.9 1.8 1.9-2.4 2.4-2.4 2.4h-7.3zm10.5-2.4a69.9 69.9 0 0 1-5.5-5.9 6.9 6.9 0 0 1 0-4.9l.8-1 7.2 7.1 7.1 7-1.4 1.5c-1.1 1.1-1.5 1.4-2.2 1.4-.9 0-1.3-.4-6-5.2zm-3.5-11.7-7-7 2-2 1.8-1.8 5.5 5.5c3 3 5.6 6 5.8 6.3.6 1.2.6 3.9 0 5l-.8 1-7.3-7zm15.6 12.6 4.3-4.3 1.9 1.8 1.8 1.8-2.5 2.5-2.4 2.5h-7.4zm-7-25.7a5.5 5.5 0 0 1 .2-5.2c.3-.6 3-3.5 5.9-6.3l5.2-5.3 1.9 1.8 1.8 1.9-7.2 7.1-7.1 7.2zm-3.1 10-1.9-2 7.2-7 7.2-7.2.6 1c.8 1.7.8 3.8-.1 5.3-.4.7-3 3.5-6 6.4l-5.2 5.3zm15.8 3-7-7 1.8-1.8 1.8-1.8 5.5 5.5c3 3 5.7 6 5.9 6.4a6 6 0 0 1-.1 4.7l-.7 1.1-7.2-7zm3.2 11.8c-4.5-4.6-5.1-5.4-5.5-6.6a3.9 3.9 0 0 1-.2-2.8c.1-.7.5-1.6.8-2l.4-.5 7.1 7 7.1 7.1-1.4 1.5c-1.3 1.2-1.6 1.5-2.4 1.5-.9 0-1.2-.4-6-5.2zm12.4.9 4.2-4.3 1.5 1.4c1.4 1.4 1.4 1.4 1 2a16 16 0 0 1-10.7 5.2c-.2 0 1.6-2 4-4.3zm5.7-4c-2-2-2.8-3.5-2.8-5.1 0-1.1.7-3.1 1.2-3.4 0 0 1.5 1.2 3.1 2.8l3 3-1 2c-1.4 3-1.4 3-3.5.8zm4.1-13-.7-.7.8-.8.8-.9v1.6a8 8 0 0 1 0 1.6l-.9-.8zm-5.4 3.2-6-6 1.9-1.8 1.8-1.8 4.3 4.3 4.3 4.3v3l-.2 3.5c-.1.3-1.4-.8-6.1-5.5zm-14.6-2-1.8-1.8 7.1-7.2 7.2-7.1.6 1.2c.7 1.4.7 3.3.1 4.8-.3.6-2.3 2.8-5.9 6.5l-5.5 5.5zm17.4-24.7c-3.5-3.6-4.3-4.8-4.3-6.7 0-1 .8-3.6 1.2-3.6l3.4 3.2 3.2 3.2v3.6l-.1 3.6zm-14 15.4a5.8 5.8 0 0 1-.3-5.5c.2-.5 2.8-3.4 5.9-6.4l5.5-5.5 1.8 1.8 1.8 1.9-7.1 7.1c-7.1 7.1-7.2 7.2-7.6 6.6zm16.6-30-.7-.8.8-.8.8-.8v1.6a8 8 0 0 1 0 1.5l-.9-.7zm1-.8v-1 2-1zm-6.3 4-6-6 1.8-1.8 1.8-1.9 4.3 4.3 4.3 4.3v3.6l-.1 3.6zM91 65.9a49.7 49.7 0 0 1-5.8-6.5c-.8-1.8-.3-5.3.7-5.7.2 0 3.4 3.1 7.3 7l7 7-1.9 1.8-1.8 1.9zm1.5 22.6-1.8-1.7 7-7.1 7.4-7 .8 1c.6 1.4.6 3.7 0 5-.5 1-11 11.6-11.4 11.6l-2-1.8zM96 79c-.5-.8-.9-2.8-.7-3.7.3-1.7 1-2.5 6.4-7.9l5.4-5.5 1.9 1.8 1.8 1.9-7 7-7.2 7-.6-.6zm16.3-13.2a83 83 0 0 1-5.9-6.3c-.9-1.8-.7-4 .3-5.5l.5-.7 7 7.2 7.2 7.1-1.8 1.8-1.9 1.9zm1.4-15.5-1.8-1.8 7.1-7c3.9-4 7.2-7.1 7.3-7.1l.7 1c.7 1.3.7 3.6.1 4.8-.4.8-11.2 11.9-11.5 11.9 0 0-1-.8-1.9-1.8zm-21 .1-2-1.9 7.2-7.1 7.1-7.2.5.7c.3.3.6 1.2.8 1.9.2 1 .2 1.5-.2 2.8-.4 1.4-.6 1.7-6 7l-5.6 5.7Zm15.8 3.2-7.2-7 2-2 1.8-2 5.6 5.7c5.3 5.3 5.6 5.7 6 7 .5 1.7.4 2.9-.4 4.4l-.5 1-7.3-7.1zM96 40.9c-.5-.9-.9-2.8-.7-3.8.3-1.6 1-2.4 6.4-7.9l5.4-5.4 1.9 1.8 1.8 1.8-7 7-7.2 7c-.1 0-.4-.2-.6-.5zm16.3-13.3a77 77 0 0 1-6-6.4c-.6-1.3-.6-3.6.2-5l.6-1.1 7.1 7.2 7.2 7.1-1.8 1.9-1.8 1.8-5.5-5.5zm-3.7-12.3-7.2-7.1 1.9-1.8 1.8-1.9 5.6 5.7c5.3 5.3 5.6 5.7 6 7 .5 1.7.3 3.3-.6 4.6l-.4.7zm5.1-3.2-1.8-1.7 4.2-4.2 4.2-4.2 1.6.1 3.1.6 1.5.4-5.4 5.4-5.5 5.4s-1-.8-1.9-1.8zm3.4 28.5c-.9-1.5-1-3.7 0-5.2.1-.4 2.7-3.2 5.7-6.2l5.4-5.6 2 2 1.8 1.8-7 7a99 99 0 0 1-7.2 7c-.1 0-.4-.3-.7-.8zm11.5-26.2-6-6 1.8-2 2-1.9 2.2 2.3 4 4a8 8 0 0 1 2 3.5l.2 3.8-.1 2.4zm2.5 10.8c-3.7-3.7-4.1-4.4-4.1-6.4a6 6 0 0 1 1-3.1c.4-.6.4-.5 3.6 2.7l3.2 3.2v3.6l-.1 3.6zm2.8 24-.7-.7.8-.8.8-.8v1.6a8 8 0 0 1 0 1.5l-.9-.7zm0 38.2-.7-.7.8-.9.8-.8v1.6a8 8 0 0 1 0 1.6l-.9-.8zm-5.3-34.8-6-6.1 1.8-1.8 1.8-1.9 4.3 4.3 4.3 4.3V55l-.1 3.6zm2.5 10.8c-3.7-3.7-4.1-4.4-4.1-6.4 0-1 .4-2.4 1-3.1.4-.6.4-.6 3.6 2.6l3.2 3.3v3.6l-.1 3.6zm.2 38.5a36.6 36.6 0 0 1-3.7-4c-.9-1.8-.7-4.5.3-5.9l.5-.5 3.2 3.2 3.2 3.2v3.6l-.1 3.6zm-2.7-11.2-6-6 1.8-1.9 1.8-1.8 4.3 4.3 4.3 4.3v3.6l-.1 3.6zm-11.5-11.9c-.7-1.4-.8-4-.2-5.1.3-.5 2.9-3.3 5.9-6.4l5.4-5.5 2 1.9 1.8 1.9-7.2 7.1-7.1 7.2zm-3.4 9.6-1.8-1.7 7.1-7.1c3.9-3.9 7.2-7 7.3-7l.7 1.1c.7 1.4.7 3.5 0 4.7-.3.7-11 11.8-11.4 11.8 0 0-1-.8-1.9-1.8zm-5.2 3.3-7.2-7 1.8-1.8 2-1.8c.2 0 2.8 2.6 5.8 5.7 4.7 4.9 5.6 5.8 5.9 6.9.4 1.4.2 2.7-.5 4.1l-.5 1-7.3-7zm3.5 12c-5.2-5.3-5.7-5.9-6-7-.3-1.5-.1-3.1.6-4.3l.5-1 7.2 7.2 7.1 7.2-1.8 1.8-1.9 1.8zm5 13.3a6.4 6.4 0 0 1 0-5 45 45 0 0 1 5.9-6.4l5.5-5.5 1.8 1.8 1.8 1.8-7.2 7.2-7.1 7.2zm-3.3 9.6-1.8-1.8 7.2-7.1c5.5-5.5 7.2-7 7.4-6.7 1.1 1.5 1.3 4 .6 5.7a123 123 0 0 1-11.4 11.7l-2-1.8zm-5.3 3.3-7-7.1 1.8-1.8 1.8-1.9 5.5 5.6c3.1 3 5.8 6 6 6.4a6 6 0 0 1-.1 4.8l-.7 1c-.1 0-3.4-3.1-7.3-7zm3.6 12c-5.6-5.7-5.7-5.9-6-7.2a4.4 4.4 0 0 1 0-2.9c.9-2.6.5-2.8 8.4 5l7 7.1-1.8 1.8-1.9 1.9z"/></g></g><rect x="1" y="1" width="135" height="185" rx="14.8" ry="14.8" style="display:inline;fill:none;stroke:#fff;stroke-width:2px;stroke-miterlimit:10" id="rect1237"/></svg>