<?xml version="1.0" encoding="utf-8"?>
<!-- Generator: Adobe Illustrator 16.0.0, SVG Export Plug-In . SVG Version: 6.00 Build 0)  -->
<!DOCTYPE svg PUBLIC "-//W3C//DTD SVG 1.1//EN" "http://www.w3.org/Graphics/SVG/1.1/DTD/svg11.dtd">
<svg version="1.1"
	 id="svg2" xmlns:dc="http://purl.org/dc/elements/1.1/" xmlns:cc="http://web.resource.org/cc/" xmlns:rdf="http://www.w3.org/1999/02/22-rdf-syntax-ns#" xmlns:svg="http://www.w3.org/2000/svg" xmlns:sodipodi="http://inkscape.sourceforge.net/DTD/sodipodi-0.dtd" xmlns:inkscape="http://www.inkscape.org/namespaces/inkscape" sodipodi:docbase="/home/nicu/Desktop/card_nicu_buculei_01.zip_FILES/cards/white" sodipodi:docname="white_s_9.svg" inkscape:version="0.41+cvs" sodipodi:version="0.32"
	 xmlns="http://www.w3.org/2000/svg" xmlns:xlink="http://www.w3.org/1999/xlink" x="0px" y="0px" width="140px" height="190px"
	 viewBox="0 0 140 190" enable-background="new 0 0 140 190" xml:space="preserve">
<sodipodi:namedview  inkscape:cx="70.000000" inkscape:cy="94.999969" inkscape:zoom="1.0000000" borderopacity="1.0" bordercolor="#666666" pagecolor="#ffffff" id="base" inkscape:window-x="0" inkscape:pageshadow="2" inkscape:pageopacity="0.0" inkscape:window-height="791" inkscape:current-layer="svg2" inkscape:window-y="26" inkscape:window-width="1152">
	</sodipodi:namedview>
<g id="layer1" inkscape:label="Layer 1" inkscape:groupmode="layer">
	<g id="g5630">
		<path id="rect2070" fill-opacity="0.498" d="M21,5h103c8.864,0,16,7.136,16,16v153c0,8.864-7.136,16-16,16H21
			c-8.864,0-16-7.136-16-16V21C5,12.136,12.136,5,21,5z"/>
		<path id="rect1300" fill="#E7E7E7" d="M17,1h103c8.864,0,16,7.136,16,16v153c0,8.864-7.136,16-16,16H17c-8.864,0-16-7.136-16-16
			V17C1,8.136,8.136,1,17,1z"/>
		<path id="path5624" fill="#C7891F" d="M19,3h103c8.864,0,16,7.136,16,16v153c0,8.864-7.136,16-16,16H19c-8.864,0-16-7.136-16-16
			V19C3,10.136,10.136,3,19,3z"/>
		<path id="rect1306" fill="#FFFFFF" d="M18,2h103c8.864,0,16,7.136,16,16v153c0,8.864-7.136,16-16,16H18c-8.864,0-16-7.136-16-16
			V18C2,9.136,9.136,2,18,2z"/>
	</g>
	<g id="g5495" transform="translate(-448.5000,-231.5000)" inkscape:label="Layer 1" inkscape:groupmode="layer">
	</g>
</g>
<g id="g5899" transform="matrix(0.593136,0.000000,0.000000,0.238935,-85.41248,49.25599)">
	<path id="path5901" sodipodi:nodetypes="cccccccccc" d="M260.176,149.597c-4.836,19.24-19.676,52.005-10.275,62.125
		c5.707,4.655,8.422-4.88,9.572-11.191h0.231l-3.79,31.839l8.778-0.098c0,0-3.782-30.6-3.79-31.773h0.092
		c0.929,5.158,4.454,15.833,8.331,11.771C280.666,200.87,263.968,168.439,260.176,149.597z"/>
</g>
<g id="g1720" transform="matrix(0.593136,0.000000,0.000000,0.238935,-105.4057,0.481054)">
	<path id="path1722" sodipodi:nodetypes="cccccccccc" d="M260.176,149.597c-4.836,19.24-19.676,52.007-10.275,62.123
		c5.707,4.657,8.422-4.876,9.572-11.187h0.23l-3.789,31.835l8.777-0.094c0,0-3.781-30.603-3.789-31.773h0.092
		c0.929,5.158,4.454,15.833,8.332,11.767C280.665,200.871,263.968,168.439,260.176,149.597z"/>
</g>
<g id="g1733" transform="matrix(0.593136,0.000000,0.000000,0.238935,-64.26963,0.398840)">
	<path id="path1735" sodipodi:nodetypes="cccccccccc" d="M260.177,149.598c-4.837,19.24-19.677,52.005-10.277,62.123
		c5.707,4.655,8.423-4.876,9.572-11.189h0.231l-3.788,31.837l8.777-0.094c0,0-3.78-30.603-3.79-31.773h0.092
		c0.929,5.158,4.455,15.833,8.333,11.767C280.665,200.872,263.967,168.44,260.177,149.598z"/>
</g>
<g id="g1737" transform="matrix(0.593136,0.000000,0.000000,0.238935,-105.9338,35.65834)">
	<path id="path1739" sodipodi:nodetypes="cccccccccc" d="M260.177,149.598c-4.836,19.24-19.677,52.007-10.275,62.123
		c5.707,4.657,8.422-4.876,9.572-11.187h0.231l-3.79,31.835l8.778-0.094c0,0-3.781-30.602-3.79-31.773h0.092
		c0.929,5.158,4.454,15.834,8.332,11.769C280.666,200.871,263.968,168.439,260.177,149.598z"/>
</g>
<g id="g1741" transform="matrix(0.593136,0.000000,0.000000,0.238935,-65.97313,34.48302)">
	<path id="path1743" sodipodi:nodetypes="cccccccccc" d="M260.176,149.598c-4.836,19.24-19.677,52.007-10.275,62.123
		c5.707,4.657,8.423-4.876,9.572-11.187h0.231l-3.79,31.835l8.779-0.094c0,0-3.782-30.603-3.79-31.773h0.092
		c0.929,5.158,4.454,15.833,8.331,11.767C280.666,200.871,263.968,168.44,260.176,149.598z"/>
</g>
<g id="g1745" transform="matrix(-0.593136,0.000000,0.000000,-0.238935,202.5319,155.1307)">
	<path id="path1747" sodipodi:nodetypes="cccccccccc" d="M260.176,149.596c-4.836,19.242-19.677,52.005-10.275,62.125
		c5.707,4.655,8.422-4.88,9.572-11.191h0.231l-3.79,31.839l8.778-0.098c0,0-3.781-30.6-3.79-31.773h0.092
		c0.929,5.158,4.454,15.834,8.332,11.771C280.665,200.87,263.968,168.438,260.176,149.596z"/>
</g>
<g id="g1749" transform="matrix(-0.593136,0.000000,0.000000,-0.238935,244.1962,155.2129)">
	<path id="path1751" sodipodi:nodetypes="cccccccccc" d="M260.175,149.597c-4.836,19.242-19.675,52.005-10.274,62.125
		c5.707,4.651,8.422-4.88,9.572-11.191h0.231l-3.79,31.839l8.777-0.098c0,0-3.782-30.6-3.788-31.773h0.092
		c0.929,5.158,4.452,15.833,8.331,11.771C280.665,200.87,263.969,168.438,260.175,149.597z"/>
</g>
<g id="g1757" transform="matrix(-0.593136,0.000000,0.000000,-0.238935,244.8433,185.7711)">
	<path id="path1759" sodipodi:nodetypes="cccccccccc" d="M260.176,149.595c-4.837,19.242-19.675,52.005-10.275,62.125
		c5.707,4.655,8.422-4.876,9.572-11.191h0.23l-3.788,31.839l8.776-0.094c0,0-3.78-30.6-3.788-31.773h0.091
		c0.93,5.154,4.455,15.833,8.334,11.767C280.665,200.872,263.968,168.437,260.176,149.595z"/>
</g>
<g id="g1761" transform="matrix(-0.593136,0.000000,0.000000,-0.238935,203.7073,185.7711)">
	<path id="path1763" sodipodi:nodetypes="cccccccccc" d="M260.176,149.595c-4.836,19.242-19.676,52.005-10.275,62.125
		c5.707,4.655,8.422-4.876,9.572-11.191h0.231l-3.79,31.839l8.778-0.094c0,0-3.782-30.6-3.79-31.773h0.092
		c0.929,5.154,4.454,15.833,8.332,11.767C280.665,200.872,263.968,168.437,260.176,149.595z"/>
</g>
<g id="g5581" transform="translate(351.5000,184.5000)">
</g>
<path id="path1561" sodipodi:nodetypes="cccccccccc" d="M20.644,48.665C15.72,56.49,0.61,69.814,10.182,73.928
	c5.811,1.894,8.576-1.982,9.747-4.549h0.234l-3.859,12.947l8.938-0.038c0,0-3.85-12.445-3.859-12.921h0.094
	c0.946,2.097,4.535,6.439,8.484,4.786C41.507,69.516,24.505,56.327,20.644,48.665z"/>
<path id="text1768" fill="#0C0C0C" d="M12.164,41.575V36.03c1.019,0.576,1.994,1.011,2.924,1.306
	c0.931,0.282,1.85,0.422,2.758,0.422c1.905,0,3.389-0.636,4.453-1.909c1.063-1.286,1.689-3.188,1.877-5.707
	c-0.753,0.67-1.556,1.172-2.409,1.507c-0.853,0.334-1.778,0.502-2.774,0.502c-2.536,0-4.585-0.891-6.147-2.673
	c-1.55-1.795-2.326-4.152-2.326-7.073c0-3.229,0.864-5.814,2.592-7.756c1.739-1.942,4.064-2.913,6.978-2.914
	c3.234,0,5.737,1.32,7.509,3.958c1.772,2.639,2.658,6.37,2.658,11.192c0,4.956-1.036,8.854-3.106,11.694
	c-2.071,2.827-4.912,4.24-8.522,4.24c-1.163,0-2.276-0.107-3.339-0.322C14.224,42.299,13.183,41.99,12.164,41.575 M20.056,27.128
	c1.118,0,1.96-0.436,2.525-1.306c0.565-0.884,0.847-2.204,0.847-3.958c0-1.742-0.282-3.054-0.847-3.938
	c-0.565-0.884-1.407-1.326-2.525-1.326c-1.119,0-1.96,0.442-2.525,1.326c-0.565,0.884-0.847,2.197-0.847,3.938
	c0,1.755,0.282,3.074,0.847,3.958C18.095,26.693,18.937,27.128,20.056,27.128"/>
<path id="path19317" sodipodi:nodetypes="cccccccccc" d="M118.035,140c4.925-7.824,20.035-21.148,10.463-25.263
	c-5.811-1.894-8.576,1.982-9.747,4.55h-0.234l3.858-12.947l-8.938,0.038c0,0,3.85,12.445,3.859,12.921h-0.094
	c-0.946-2.097-4.535-6.438-8.484-4.785C97.173,119.149,114.174,132.338,118.035,140z"/>
<path id="text19319" fill="#0C0C0C" d="M126.516,147.591v5.546c-1.019-0.576-1.993-1.012-2.924-1.306
	c-0.93-0.282-1.85-0.423-2.758-0.423c-1.904,0-3.389,0.637-4.452,1.91c-1.063,1.285-1.688,3.188-1.877,5.706
	c0.753-0.67,1.556-1.173,2.409-1.507c0.853-0.335,1.777-0.502,2.773-0.502c2.537,0,4.586,0.891,6.147,2.672
	c1.55,1.795,2.325,4.152,2.325,7.072c0,3.229-0.863,5.814-2.592,7.757c-1.738,1.942-4.064,2.913-6.977,2.913
	c-3.234,0-5.737-1.319-7.51-3.958c-1.771-2.64-2.658-6.37-2.658-11.192c0-4.956,1.036-8.854,3.107-11.694
	c2.07-2.826,4.912-4.239,8.522-4.239c1.163,0,2.276,0.107,3.339,0.321C124.456,146.867,125.497,147.176,126.516,147.591
	 M118.625,162.039c-1.119-0.001-1.961,0.435-2.525,1.306c-0.564,0.884-0.848,2.203-0.848,3.958c0,1.742,0.283,3.055,0.848,3.938
	s1.406,1.326,2.525,1.326c1.118,0,1.96-0.442,2.525-1.326c0.564-0.884,0.847-2.196,0.847-3.938c0-1.755-0.282-3.074-0.847-3.958
	C120.585,162.474,119.743,162.038,118.625,162.039"/>
<path fill="none" stroke="#000000" stroke-miterlimit="10" d="M133.75,171.821c0,6.762-5.623,12.244-12.56,12.244H17.048
	c-6.936,0-12.56-5.482-12.56-12.244V17.494c0-6.762,5.624-12.244,12.56-12.244H121.19c6.937,0,12.56,5.482,12.56,12.244V171.821z"/>
</svg>
