<svg xmlns="http://www.w3.org/2000/svg" width="140" height="190" xml:space="preserve"><path fill-opacity=".498" d="M21 5h103c8.864 0 16 7.136 16 16v153c0 8.864-7.136 16-16 16H21c-8.864 0-16-7.136-16-16V21c0-8.864 7.136-16 16-16z"/><path fill="#E7E7E7" d="M17 1h103c8.864 0 16 7.136 16 16v153c0 8.864-7.136 16-16 16H17c-8.864 0-16-7.136-16-16V17C1 8.136 8.136 1 17 1z"/><path fill="#C7891F" d="M19 3h103c8.864 0 16 7.136 16 16v153c0 8.864-7.136 16-16 16H19c-8.864 0-16-7.136-16-16V19c0-8.864 7.136-16 16-16z"/><path fill="#FFF" d="M18 2h103c8.864 0 16 7.136 16 16v153c0 8.864-7.136 16-16 16H18c-8.864 0-16-7.136-16-16V18C2 9.136 9.136 2 18 2z"/><path d="M20.645 48.665C15.72 56.49.61 69.814 10.182 73.928c5.811 1.895 8.576-1.982 9.747-4.549h.234l-3.859 12.947 8.938-.038s-3.85-12.445-3.859-12.921h.094c.946 2.097 4.536 6.439 8.484 4.786 11.546-4.637-5.456-17.826-9.316-25.488zM18.684 12.234h6.396v21.359c0 2.947-.842 5.149-2.525 6.607-1.672 1.458-4.208 2.187-7.609 2.187H13.65v-4.611h.997c1.329 0 2.332-.354 3.007-1.062.687-.708 1.03-1.748 1.03-3.121V12.234M118.035 140c4.924-7.824 20.035-21.148 10.463-25.264-5.811-1.894-8.576 1.982-9.747 4.551h-.235l3.859-12.947-8.938.038s3.85 12.445 3.858 12.921h-.094c-.947-2.097-4.536-6.438-8.484-4.785-11.544 4.634 5.457 17.824 9.318 25.486zM119.996 177H113.6v-21.359c0-2.945.842-5.147 2.525-6.605 1.673-1.458 4.209-2.188 7.609-2.188h1.295v4.61h-.996c-1.329 0-2.331.354-3.008 1.062-.687.709-1.029 1.748-1.029 3.121V177"/><g><path fill="#DDB305" d="m87.646 51.204-7.405 14.229s-5.199-.894-9.019-1.059l3.09-16.095s3.09.243 7.64 1.137c4.559.894 5.694 1.788 5.694 1.788z"/><path fill="#A83C00" d="M86.034 100.47c2.887 3.109 6.842 8.009 9.253 13.587 4.148 9.604 4.636 16.026 4.636 16.026v.088H76.83v-.175s.729-4.549 3.742-14.151c3.013-9.593 5.451-15.364 5.451-15.364l.011-.011z"/><path fill="#DDB305" d="M79.104 91.081c1.469.68 3.52.496 4.394-1.254l.028-.039c.176.175.39.331.623.447.369.185.748.301 1.117.35v.029c.146.02.291.059.428.107 1.381.486 1.953 4.878-1.545 5.938-.651.194-1.226.263-1.711.233-.263 0-.506-.039-.72-.106-1.409-.359-1.952-1.526-2.03-1.721v-.009c.397-.807.524-1.701.312-2.304a1.832 1.832 0 0 0-1.099-1.156l.203-.515zM78.035 90.187c-.165.214-1.516 1.866-3.645 1.186a2.115 2.115 0 0 1-.574-.282 2.227 2.227 0 0 1-.467-.379c-1.429-1.419-1.681-4.471.068-5.686.923-.632 1.848-.651 2.518-.321.681.35 1.107 1.05 1.021 1.847l.389.058c-.234 1.215.078 2.682.69 3.577zM75.615 130.161s.242-1.623 2.518-10.409 7.075-20.002 7.075-20.002l.078-.077c.243.252.485.515.748.797l-.011.011s-2.438 5.771-5.451 15.364c-3.014 9.604-3.742 14.151-3.742 14.151v.175h-1.215v-.01z"/><path fill="#DDB305" d="M77.034 96.99c-.429.01-.913-.088-1.419-.331a3.9 3.9 0 0 1-.291-.155c-2.723-1.564-1.585-5.297-1.585-5.297l.077-.116c.176.126.369.213.574.282 2.129.68 3.479-.972 3.645-1.186.165.263.369.477.583.622.146.097.312.194.485.272l-.203.515c.477.175.904.573 1.099 1.156.214.603.087 1.497-.312 2.304v.009c-.496 1.011-1.417 1.896-2.653 1.925z"/><path fill="#DDB305" d="M76.957 86.552c.087-.797-.341-1.497-1.021-1.847 0-8.319-4.617-16.581-5.424-17.941 6.745.438 10.381 1.516 10.381 1.516 3.741 4.228 7.648 13.908 7.893 17.728.203 3.198-1.596 4.801-3.52 4.578a3.516 3.516 0 0 1-1.117-.35 2.454 2.454 0 0 1-.623-.447l-.028.039c-.874 1.75-2.925 1.934-4.394 1.254a3.355 3.355 0 0 1-.485-.272 2.11 2.11 0 0 1-.583-.622c-.612-.894-.924-2.361-.689-3.577l-.39-.059zM79.27 105.037c-.729 1.546-3.013.564-3.41 1.865-.408 1.304 2.518 1.304 1.942 2.684-.563 1.38-2.925.738-3.323 1.953-.408 1.225 2.108 1.789 1.535 3.256-.563 1.458-2.517.156-2.925 1.458-.407 1.304 1.953 1.546 1.39 3.013-.572 1.469-2.604.243-3.013 1.711-.407 1.459 2.273 1.623 1.788 2.926-.486 1.303-3.013.563-3.256 1.701-.243 1.146 2.684.65 2.284 1.953-.408 1.303-2.692.816-3.091 2.439v.175h-3.742v-.088c2.43-10.351 10.973-31.558 11.585-33.093 1.233-.029 2.157-.914 2.653-1.925.078.195.621 1.361 2.03 1.721l-.01.039s-1.866 0-2.196 1.137c-.32 1.138 1.788 1.545 1.303 2.849-.485 1.303-2.604 0-3.09 1.457-.486 1.466 2.275 1.224 1.546 2.769z"/><path fill="#DDB305" d="M75.615 96.659c.506.243.99.341 1.419.331-.612 1.535-9.155 22.742-11.585 33.093v.088h-2.498c1.351-6.716 4.383-15.006 7.104-21.664.126-.33.262-.659.398-.981a278.061 278.061 0 0 1 2.293-5.383c.632-1.438 1.186-2.653 1.604-3.578.584-1.264.935-1.981.935-1.981l.039-.078c.097.057.196.105.291.153zM71.708 48.191l-2.361 16.104s-7.882-.321-11.867.165l-1.302-16.27s1.38-.243 7.805-.156c6.423.079 7.725.157 7.725.157zM75.857 106.902c.398-1.301 2.684-.319 3.412-1.865.729-1.545-2.031-1.303-1.545-2.77.484-1.459 2.604-.156 3.09-1.459.485-1.303-1.623-1.711-1.303-2.848.33-1.137 2.196-1.137 2.196-1.137l.01-.039c.214.066.457.105.72.105v.01s1.166 1.012 2.849 2.771l-.078.077s-4.801 11.216-7.075 20.002c-2.273 8.786-2.518 10.409-2.518 10.409v.01h-6.424v-.175c.399-1.623 2.683-1.138 3.091-2.438.397-1.304-2.527-.808-2.284-1.955.243-1.137 2.77-.397 3.256-1.699.485-1.303-2.195-1.469-1.788-2.926.408-1.469 2.439-.244 3.013-1.711.563-1.468-1.797-1.711-1.39-3.014.408-1.302 2.361 0 2.925-1.458.573-1.467-1.943-2.03-1.535-3.256.398-1.215 2.761-.573 3.323-1.953.574-1.377-2.352-1.377-1.945-2.681zM58.286 71.283s3.742-.398 8.213.573c3.567.778 4.296.933 4.44.962-.603-.068-8.241-.991-11.671.175l-.982-1.71zM63.166 80.399c-1.293.078-2.274-3.907-2.274-3.907l.01-.087c.525.078 1.351.194 2.187.33.311.049.612.107.914.156l-.019.087c-.002.001.484 3.334-.818 3.421z"/><path fill="#F2DBCC" d="M73.739 91.207s-1.138 3.732 1.585 5.297l-.039.078s-.35.719-.934 1.982c-14.695 4.742-17.932 1.594-17.932 1.594v-3.119c1.905 1.438 3.645 2.031 4.85 1.865 2.683-.369 9.136-3.547 11.984-8.096l.098-.097c.146.156.301.282.467.379l-.079.117z"/><path fill="#DDB305" d="M56.42 100.158s3.236 3.148 17.932-1.594c-.418.924-.973 2.139-1.604 3.576l-.067-.029c-14.307 3.334-17.485.398-17.485.398l-.059-.029c.778-1.476 1.283-2.322 1.283-2.322zM59.832 88.612s2.75 1.915 5.938.486c2.362-1.06 2.604-3.664 1.302-3.577-.894.049-.408.807-.408.807s-.563-.155-.486-.807c.078-.651 1.292-1.322 2.196-.573.972.816.574 4.393-3.013 4.957-3.576.574-5.529-1.293-5.529-1.293z"/><path fill="#A83C00" d="M52.03 108.93s3.5 2.94 17.89-.479l.14.06c-2.73 6.66-5.76 14.95-7.11 21.66h-16.7v-.01c.43-7.481 3.23-15.401 5.78-21.231z"/><path fill="#DDB305" d="m53.252 48.599 2.274 16.017s-5.288.651-8.621 1.954l-8.047-14.472s.972-.816 6.181-2.274c5.2-1.468 8.213-1.225 8.213-1.225z"/><path fill="#A83C00" d="M52.475 107.943a93.692 93.692 0 0 1 2.663-5.463l.059.029s3.178 2.936 17.485-.398l.067.029a273.391 273.391 0 0 0-2.293 5.385l-.126-.049c-12.693 3.412-17.815.485-17.815.485l-.04-.018z"/><path fill="#DDB305" d="M52.513 107.963s5.122 2.926 17.815-.486l.126.049a30.44 30.44 0 0 0-.398.981l-.136-.058c-14.394 3.421-17.893.484-17.893.484.146-.33.292-.66.447-.99l.039.02zM54.71 73.732c-3.499-.904-7.474.563-7.474.563s.398-.563 2.187-1.545c1.789-.972 4.072-1.06 4.072-1.06s.612.787 1.234 2.031l-.019.011zM53.252 87.465c-.739-.563-2.08.719-1.39 2.041.359.69 1.39 1.167 2.507 1.283-.146.02-.301.02-.467.02-1.428 0-2.254-.583-2.624-1.312-.641-1.273.049-3.003 1.234-3.003 1.876 0 1.954 1.623 1.39 2.031-.573.408-.894.33-.894.33s.973-.816.244-1.39zM50.074 77.018c.642.058 1.74.175 2.692.359.087.593.262 3.042-.826 3.392h-.02a6.98 6.98 0 0 1-.476-.02c-1.03-.476-1.371-3.693-1.371-3.693l.001-.038z"/><path fill="#F2DBCC" d="M59.268 72.994c3.431-1.166 11.07-.243 11.671-.175-.146-.029-.875-.185-4.44-.962-4.471-.972-8.213-.573-8.213-.573l.982 1.71zm.564 15.618s1.954 1.866 5.53 1.292c3.586-.563 3.985-4.14 3.013-4.957-.904-.749-2.119-.078-2.196.573-.078.651.486.807.486.807s-.486-.758.408-.807c1.302-.087 1.06 2.517-1.302 3.577-3.189 1.43-5.939-.485-5.939-.485zm4.169-11.721c-.301-.049-.603-.107-.914-.156-.835-.136-1.662-.252-2.187-.33l-.01.087s.981 3.985 2.274 3.907c1.302-.087.816-3.421.816-3.421l.021-.087zm-14.579-4.14c-1.788.981-2.187 1.545-2.187 1.545l-.67.029c-.136-3.188.068-5.423.068-5.423s1.409-1.759 14.258-2.245a92.582 92.582 0 0 1 9.623.107c.807 1.361 5.424 9.622 5.424 17.941-.672-.331-1.596-.311-2.519.321-1.749 1.215-1.497 4.267-.067 5.686l-.098.097c-2.848 4.549-9.301 7.727-11.984 8.096-1.205.165-2.945-.429-4.85-1.865l-.233-.176c-1.885-1.496-3.907-3.81-5.695-7.017l.787-.35c.37.729 1.196 1.312 2.624 1.312.166 0 .321 0 .467-.02 1.633.175 3.47-.408 3.819-2.167.01-.01.01-.02.01-.029l.175-1.769s-2.527-.573-2.926-1.302c-.408-.739.972-3.907.642-7.406-.155-1.682-.768-3.236-1.361-4.393-.622-1.244-1.234-2.031-1.234-2.031s-2.284.087-4.073 1.059z"/><path fill="#F2DBCC" d="M52.766 77.377c-.953-.185-2.051-.301-2.692-.359v.039s.34 3.217 1.371 3.693c.107.049.223.068.34.049l.136-.029h.02c1.087-.351.913-2.8.825-3.393zm-5.53-3.081s3.975-1.467 7.474-.563l.019-.01c.593 1.157 1.206 2.711 1.361 4.393.331 3.499-1.05 6.667-.642 7.406.398.729 2.926 1.302 2.926 1.302l-.175 1.769c0 .01 0 .02-.01.029-.048.224-.583 2.012-3.819 2.167-1.118-.116-2.148-.593-2.507-1.283-.69-1.322.651-2.604 1.39-2.041.729.573-.243 1.39-.243 1.39s.321.078.894-.33c.564-.408.486-2.031-1.39-2.031-1.186 0-1.875 1.73-1.234 3.003l-.787.35a34.274 34.274 0 0 1-1.05-2.041c-2.07-4.393-2.711-9.632-2.876-13.48l.669-.03z"/><path fill="#DDB305" d="M44.388 130.171c-.02-.496.029-3.741 2.848-13.753 3.013-10.71 8.582-19.039 8.844-19.428l.01-.01.097-.117.233.176v3.119s-.505.846-1.283 2.322a94.344 94.344 0 0 0-2.663 5.463c-.156.33-.302.66-.447.99-2.546 5.822-5.346 13.743-5.773 21.228v.01h-1.866z"/><path fill="#DDB305" d="M41.375 127.07c.243-1.303 2.032-1.215 2.527-2.604.486-1.38-1.798-1.137-1.468-2.438.321-1.293 2.274-1.137 2.76-2.596.496-1.468-1.458-1.303-1.137-2.604.331-1.302 2.031-1.226 2.527-2.438.486-1.226-1.225-1.06-.981-2.273.243-1.225 2.362-.896 2.925-2.197.574-1.302-1.545-1.391-1.215-2.361.321-.972 1.866-.65 2.439-1.787.564-1.139-.894-1.215-.573-2.109.331-.895 1.954-.573 2.439-1.545.496-.982-.894-1.391-.651-2.041.243-.651 1.303-.807 2.041-1.139.612-.271.593-.894.574-1.088 1.409-.642 2.371-.836 2.498-.854-.262.389-5.832 8.718-8.844 19.428-2.818 10.011-2.867 13.257-2.848 13.753h-1.71v-.088c.486-1.639-1.546-1.716-1.303-3.019z"/><path fill="#DDB305" d="M43.902 124.466c-.496 1.39-2.284 1.304-2.527 2.604-.243 1.303 1.789 1.38 1.303 3.013v.088h-4.383c1.652-14.616 7.376-25.075 8.786-27.466 0-.01.01-.02.01-.029 2.391-2.604 4.782-4.053 6.493-4.83.019.194.039.816-.574 1.088-.738.332-1.798.486-2.041 1.139-.243.65 1.147 1.059.651 2.041-.486.972-2.109.65-2.439 1.545-.321.895 1.137.972.573 2.109-.573 1.137-2.119.815-2.439 1.787-.331.973 1.789 1.061 1.215 2.361-.563 1.303-2.682.973-2.925 2.197-.243 1.215 1.468 1.049.981 2.272-.496 1.216-2.196 1.138-2.527 2.439-.321 1.303 1.633 1.138 1.137 2.604-.486 1.459-2.439 1.303-2.76 2.596-.332 1.305 1.952 1.062 1.466 2.442z"/><path fill="#A83C00" d="M57.479 64.46c3.985-.486 11.867-.165 11.867-.165l2.361-16.104s-1.302-.078-7.726-.156c-6.424-.087-7.805.156-7.805.156l1.303 16.269zM38.858 52.098l8.047 14.472c3.333-1.302 8.621-1.954 8.621-1.954l-2.274-16.017s-3.013-.243-8.213 1.225c-5.209 1.457-6.181 2.274-6.181 2.274zm43.094-2.682c-4.55-.895-7.64-1.137-7.64-1.137l-3.09 16.095c3.818.165 9.019 1.059 9.019 1.059l7.405-14.229s-1.135-.894-5.694-1.788zm-16.095-3.743c22.198.166 25.124 4.801 25.124 4.801L80.893 68.28s-3.635-1.079-10.379-1.516a92.853 92.853 0 0 0-9.623-.107c-12.849.486-14.258 2.245-14.258 2.245S39.46 56.52 37.721 53.556c-.816-1.38-1.467-2.439-1.467-2.439s7.395-5.609 29.603-5.444zM47.08 102.705c-1.409 2.391-7.134 12.85-8.786 27.466h-1.633v-.01s.243-8.456 5.608-20.089c1.448-3.138 3.12-5.54 4.811-7.367z"/><g><path fill="none" stroke="#000" stroke-width=".5" stroke-miterlimit="10" d="M73.254 90.809c-2.848 4.549-9.301 7.727-11.984 8.096-1.205.165-2.945-.429-4.85-1.865l-.233-.176c-1.885-1.496-3.907-3.81-5.695-7.017a34.274 34.274 0 0 1-1.05-2.041c-2.07-4.393-2.711-9.632-2.876-13.48-.136-3.188.068-5.423.068-5.423s1.409-1.759 14.258-2.245a92.558 92.558 0 0 1 9.622.107c6.745.438 10.381 1.516 10.381 1.516 3.741 4.228 7.648 13.908 7.893 17.728.204 3.198-1.596 4.801-3.52 4.578a3.516 3.516 0 0 1-1.117-.35 2.454 2.454 0 0 1-.623-.447c-1.555-1.467-1.077-4.675.303-5.326 1.545-.729 3.576.078 2.838 1.953-.729 1.866-1.788 1.215-1.788 1.215M36.37 130.171h63.698"/><path fill="none" stroke="#000" stroke-width=".5" stroke-miterlimit="10" d="M74.723 88.359s1.137.739 2.03-1.137c.106-.223.175-.457.204-.67.087-.797-.341-1.497-1.021-1.847-.67-.331-1.595-.311-2.518.321-1.749 1.215-1.497 4.267-.068 5.686.146.156.303.282.467.379.176.126.369.213.574.282 2.129.68 3.479-.972 3.645-1.186.01-.019.02-.029.02-.029"/><path fill="none" stroke="#000" stroke-width=".5" stroke-miterlimit="10" d="M79.756 88.039s1.061.816 1.876-.729c.808-1.545-.896-3.664-3.014-2.605-.72.36-1.117 1.079-1.272 1.905-.232 1.215.077 2.683.689 3.577.165.263.369.477.583.622.146.097.312.194.485.272 1.469.68 3.52.496 4.394-1.254M70.406 66.569s.039.068.107.194c.807 1.361 5.424 9.622 5.424 17.941M79.688 95.056c.398-.807.525-1.701.313-2.304a1.828 1.828 0 0 0-1.1-1.156c-.864-.321-1.924.106-2.234 1.564"/><path fill="none" stroke="#000" stroke-width=".5" stroke-miterlimit="10" d="M73.739 91.207s-1.138 3.732 1.585 5.297c.097.059.193.107.291.155.506.243.99.341 1.419.331 1.233-.029 2.157-.914 2.653-1.925M79.678 95.037s0 .01.01.02v.009c.078.195.623 1.361 2.031 1.721.215.066.457.105.721.105.484.029 1.059-.039 1.709-.232 3.5-1.059 2.927-5.452 1.547-5.938a2.216 2.216 0 0 0-.428-.107c-1.361-.194-3.043.719-2.091 3.285M72.604 67.386s3.168 2.848 4.636 13.334M75.361 68.358s3.334 3.907 4.315 13.908M78.298 70.389s3.246 5.938 4.063 12.693M80.572 71.691s2.438 3.985 3.332 8.951M82.604 72.829s1.877 3.256 2.439 5.53"/><path fill="none" stroke="#000" stroke-width=".5" stroke-miterlimit="10" d="M46.633 68.902S39.46 56.52 37.72 53.556c-.816-1.38-1.467-2.439-1.467-2.439s7.396-5.608 29.604-5.443c22.198.166 25.124 4.801 25.124 4.801L80.893 68.28"/><path fill="none" stroke="#000" stroke-width=".5" stroke-miterlimit="10" d="m46.905 66.569-8.047-14.472s.972-.816 6.181-2.274c5.2-1.468 8.213-1.225 8.213-1.225l2.274 16.017c0 .001-5.287.652-8.621 1.954zM57.479 64.46l-1.302-16.27s1.38-.243 7.805-.156c6.424.078 7.726.156 7.726.156l-2.361 16.104c0 .001-7.883-.319-11.868.166zM71.223 64.373l3.092-16.095s3.09.243 7.639 1.137c4.559.894 5.695 1.788 5.695 1.788l-7.406 14.229c-.002 0-5.201-.894-9.02-1.059zM58.374 86.824s-2.527-.573-2.926-1.302c-.408-.739.972-3.907.642-7.406-.155-1.682-.768-3.236-1.361-4.393-.622-1.244-1.234-2.031-1.234-2.031s-2.284.087-4.072 1.06c-1.788.981-2.187 1.545-2.187 1.545s3.975-1.467 7.474-.563M70.979 72.829s-.01 0-.039-.01M59.268 72.994l-.982-1.71s3.742-.398 8.213.573c3.567.778 4.296.933 4.44.962-.601-.068-8.24-.991-11.671.175z"/><path fill="none" stroke="#000" stroke-width=".5" stroke-miterlimit="10" d="M49.345 75.599s3.091.32 4.315.729M60.24 74.947l5.617.972M49.51 76.979s.214.01.563.039c.642.058 1.74.175 2.692.359.35.078.69.156.972.253M60.327 76.327s.224.029.574.078c.525.078 1.351.194 2.187.33.311.049.612.107.914.156a18.63 18.63 0 0 1 1.526.331M51.94 80.769c.292.01.603 0 .904-.049M50.725 80.643a5.846 5.846 0 0 0 1.195.127M61.785 80.399s1.468.243 2.527-.087"/><path fill="none" stroke="#000" stroke-width=".5" stroke-miterlimit="10" d="M50.074 77.056s.34 3.217 1.371 3.693c.107.049.223.068.34.049l.136-.029h.02c1.088-.35.914-2.799.826-3.392 0-.029-.01-.048-.01-.068M60.891 76.493s.981 3.985 2.274 3.907c1.302-.087.816-3.421.816-3.421"/><path d="M50.813 77.144s.321 2.76.894 2.683c.564-.078 0-2.517 0-2.517l-.894-.166zM61.785 76.735s.729 2.926 1.137 2.77c.408-.165.165-2.77.165-2.77h-1.302z"/><path fill="none" stroke="#000" stroke-width=".5" stroke-miterlimit="10" d="M59.832 88.612s1.954 1.866 5.53 1.292c3.586-.563 3.985-4.14 3.013-4.957-.904-.749-2.119-.078-2.196.573-.078.651.486.807.486.807s-.486-.758.408-.807c1.302-.087 1.06 2.517-1.302 3.577-3.189 1.43-5.939-.485-5.939-.485zM58.189 88.622c-.048.224-.583 2.012-3.819 2.167-.146.02-.301.02-.467.02-1.428 0-2.254-.583-2.624-1.312-.641-1.273.049-3.003 1.234-3.003 1.876 0 1.954 1.623 1.39 2.031-.573.408-.894.33-.894.33s.972-.816.243-1.39c-.739-.563-2.08.719-1.39 2.041.359.69 1.39 1.167 2.507 1.283 1.633.175 3.47-.408 3.82-2.167.01-.01.01-.02.01-.029M56.663 92.102s1.137-.243 1.789-.078c.651.166 1.38-.486 2.362-.486.972 0 2.682.078 2.682.078M58.539 94.055s1.701.243 2.517-.243M56.42 96.98V100.158s3.236 3.148 17.932-1.594c.039-.01.088-.029.127-.039M56.42 100.158s-.505.846-1.283 2.322a94.344 94.344 0 0 0-2.663 5.463c-.156.33-.302.66-.447.99-2.546 5.822-5.346 13.743-5.773 21.228"/><path fill="none" stroke="#000" stroke-width=".5" stroke-miterlimit="10" d="M75.285 96.582s-.35.719-.934 1.982c-.418.924-.973 2.139-1.604 3.576a273.391 273.391 0 0 0-2.293 5.385c-.136.32-.272.65-.398.98-2.721 6.658-5.754 14.948-7.104 21.664l-.029.155M47.08 102.705c-1.691 1.827-3.363 4.229-4.811 7.367-5.365 11.633-5.608 20.089-5.608 20.089M56.09 96.98l-.01.01c-.126.02-1.088.214-2.498.855-1.711.776-4.102 2.225-6.493 4.829"/><path fill="none" stroke="#000" stroke-width=".5" stroke-miterlimit="10" d="M44.388 130.239v-.068c-.02-.496.029-3.741 2.848-13.753 3.013-10.71 8.582-19.039 8.844-19.428M47.391 102.189s-.107.164-.301.485c0 .011-.01.021-.01.029-1.409 2.391-7.134 12.849-8.786 27.466 0 .02-.01.049-.01.068M82.438 96.902s1.166 1.011 2.849 2.771c.243.252.485.515.748.797 2.887 3.109 6.842 8.009 9.253 13.587 4.148 9.604 4.636 16.026 4.636 16.026M77.073 96.902s-.011.029-.039.088c-.612 1.535-9.155 22.742-11.585 33.093"/><path fill="none" stroke="#000" stroke-width=".5" stroke-miterlimit="10" d="M85.208 99.75s-4.801 11.216-7.075 20.002c-2.273 8.786-2.518 10.409-2.518 10.409M86.023 100.479s-2.438 5.772-5.451 15.365c-3.014 9.604-3.742 14.151-3.742 14.151M55.196 102.511s3.178 2.935 17.486-.397M52.513 107.963s5.122 2.926 17.815-.486"/><path fill="none" stroke="#000" stroke-width=".5" stroke-miterlimit="10" d="M52.027 108.936s3.499 2.936 17.893-.485M53.573 97.797s0 .02.01.049c.019.194.039.816-.574 1.088-.738.332-1.798.486-2.041 1.139-.243.65 1.147 1.059.651 2.041-.486.972-2.109.65-2.439 1.545-.321.895 1.137.972.573 2.109-.573 1.137-2.119.815-2.439 1.787-.331.973 1.789 1.061 1.215 2.361-.563 1.303-2.682.973-2.925 2.197-.243 1.215 1.468 1.049.981 2.272-.496 1.216-2.196 1.138-2.527 2.439-.321 1.303 1.633 1.138 1.137 2.604-.486 1.459-2.439 1.303-2.76 2.596-.331 1.303 1.954 1.06 1.468 2.438-.496 1.39-2.284 1.304-2.527 2.604-.243 1.303 1.789 1.38 1.303 3.013M81.709 96.825s-1.866 0-2.195 1.137c-.32 1.138 1.787 1.545 1.303 2.849-.486 1.303-2.605 0-3.092 1.457-.485 1.469 2.274 1.226 1.545 2.771-.729 1.546-3.013.563-3.41 1.866-.408 1.303 2.518 1.303 1.942 2.683-.563 1.38-2.925.738-3.323 1.953-.408 1.226 2.108 1.789 1.535 3.256-.563 1.458-2.517.156-2.925 1.458-.407 1.303 1.953 1.546 1.39 3.014-.572 1.467-2.604.242-3.013 1.711-.407 1.457 2.273 1.623 1.788 2.926-.486 1.302-3.013.563-3.256 1.699-.243 1.147 2.684.651 2.284 1.955-.408 1.301-2.692.815-3.091 2.438"/><path fill="none" stroke="#000" stroke-width=".5" stroke-miterlimit="10" d="M52.951 99.449s0 .709-.758 1.195M50.346 101.023s-.427.379-.593 1.244M50.997 103.355s-.165.808-.651 1.244M48.509 104.707s-.496.438-.544 1.254M49.316 107.205s-.049.593-.428 1.137M46.983 108.886s-.32.486-.427 1.353M47.692 111.539s-.106.759-.544 1.361M45.146 113.436s-.379.543-.437 1.303M45.953 116.204s-.049.864-.379 1.303M43.572 118.586s-.272.604-.321 1.244M44.543 121.249s-.048 1.078-.427 1.563M42.328 123.63s-.486.7-.379 1.468M43.407 126.391s.058 1.195-.379 1.682M41.297 128.945s-.331.486-.165 1.187M81.573 97.495s-.214.875-.651 1.254M79.025 99.4c-.058.154-.437.593-.437 1.186M80.223 102.055s-.224.922-.65 1.303M77.297 103.842s-.438.651-.438 1.244M78.327 106.555s-.117.815-.496 1.351M75.771 108.449s-.535.758-.485 1.359M76.967 111.219s-.271.973-.65 1.623M74.146 113.328s-.543.709-.484 1.359M75.344 116.204s-.166.864-.545 1.41M72.632 117.936s-.438.603-.485 1.254M73.711 120.753s0 .875-.38 1.36M71.115 122.541s-.438.759-.495 1.525M72.573 125.253s0 .758-.272 1.03M70.085 126.827s-.438.438-.438 1.243M71.389 129.268s0 .485-.166.864"/></g></g><path fill="#DDB305" stroke="#000" stroke-width=".25" stroke-miterlimit="10" d="M56.718 116.738s2.995-3.57 4.885-1.3c3.164 3.801-6.38 10.078-6.38 10.078s-5.055-7.381-2.673-10.202c2.266-2.683 4.168 1.424 4.168 1.424z"/><path fill="none" stroke="#000" stroke-miterlimit="10" d="M134 171.82c0 6.762-5.623 12.244-12.56 12.244H17.298c-6.936 0-12.56-5.482-12.56-12.244V17.494c0-6.762 5.624-12.244 12.56-12.244H121.44c6.937 0 12.56 5.482 12.56 12.244V171.82z"/></svg>