<svg xmlns="http://www.w3.org/2000/svg" width="140" height="190" xml:space="preserve"><path fill-opacity=".498" d="M21 5h103c8.864 0 16 7.136 16 16v153c0 8.864-7.136 16-16 16H21c-8.864 0-16-7.136-16-16V21c0-8.864 7.136-16 16-16z"/><path fill="#E7E7E7" d="M17 1h103c8.864 0 16 7.136 16 16v153c0 8.864-7.136 16-16 16H17c-8.864 0-16-7.136-16-16V17C1 8.136 8.136 1 17 1z"/><path fill="#C7891F" d="M19 3h103c8.864 0 16 7.136 16 16v153c0 8.864-7.136 16-16 16H19c-8.864 0-16-7.136-16-16V19c0-8.864 7.136-16 16-16z"/><path fill="#FFF" d="M18 2h103c8.864 0 16 7.136 16 16v153c0 8.864-7.136 16-16 16H18c-8.864 0-16-7.136-16-16V18C2 9.136 9.136 2 18 2z"/><path d="M10.027 12.24h6.396v10.951l9.22-10.951h7.426L21.125 26.446 34.299 42.24h-8.008l-9.868-11.815V42.24h-6.396v-30M128.662 176.63h-6.396v-10.95l-9.22 10.95h-7.427l11.943-14.206-13.174-15.794h8.008l9.869 11.815V146.63h6.396l.001 30M20.774 48.665C15.85 56.49.74 69.814 10.312 73.928c5.811 1.895 8.576-1.982 9.747-4.549h.234l-3.859 12.947 8.938-.038s-3.85-12.445-3.858-12.921h.094c.946 2.097 4.535 6.439 8.484 4.786 11.545-4.637-5.456-17.826-9.318-25.488zM118.666 140c4.924-7.824 20.034-21.148 10.462-25.264-5.812-1.894-8.575 1.982-9.747 4.551h-.234l3.859-12.947-8.938.038s3.85 12.445 3.857 12.921h-.095c-.944-2.097-4.535-6.438-8.483-4.785-11.544 4.634 5.458 17.824 9.319 25.486z"/><g><path fill="#EDC8C3" d="M49.31 77.19c.15-.03 3.77-.79 6.8-.1h.01c.45 1.26.96 3.24.75 5.44-.35 3.77-1.47 5.19-.86 5.95.61.76 2.39 1.17 2.39 1.17l-.31 1.73s-3.55 3-5.43-.66c0 0-.02.78.42 1.47l-.81.42c-.15-.27-.29-.55-.43-.84-.07-.14-.14-.29-.21-.44-2.21-4.72-2.69-10.48-2.72-14.12l.39-.01.01-.01zm4.26 3.36-.25-.01h-.01c-.71-.12-1.35-.12-1.82-.08-.01.19-.15 2.9 1.57 3.09 1.71.19 1.4-2.51 1.37-2.73v-.01c-.29-.09-.58-.17-.86-.22v-.04z"/><path fill="#EDC8C3" d="M49.04 73.56c.32-.28 2.72-1.98 13.38-1.35 3.06.18 6.04.56 8.76 1l-.02.12s-.102 8.03 2.08 14.54c.55 1.63 1.17 3.17 1.859 4.59l-.021.01c-3.2 5.95-9.84 8.918-12.35 9.26-.48.068-1.04.01-1.67-.182-2.5-.77-6-3.64-8.79-8.94l.81-.42c.31.49.86.94 1.81 1.02 2.29.2 3.2-1.83 3.2-1.83l.31-1.73s-1.78-.41-2.39-1.17c-.61-.76.51-2.18.86-5.95.21-2.2-.3-4.18-.75-5.44-.32-.89-.62-1.42-.62-1.42s-1.93-.2-3.86.36c-1.81.53-2.28 1.09-2.33 1.16l-.008.012-.39.01c-.04-2.18.09-3.61.09-3.61l.04-.04zm9.97 17.77s.86 1.98 3.66 1.83c2.8-.15 2.59-3.36 2.59-3.36s-1.01 4.88-6.25 1.53zm6.02-11.01c-.34-.1-.69-.17-1.04-.23-.98-.16-1.91-.19-2.34-.2 0 0 .21 3 1.73 3.05 1.53.05 1.63-2.54 1.63-2.54l.02-.08zm-5.05-3.58s.81-.36 3.25-.15c2.44.2 5.69.96 5.69.96-6.35-3.35-9.81-2.23-9.81-2.23l.87 1.42z"/><path fill="#EDC607" d="M54.21 50.56c.11-.21.23-.34.38-.36.71-.07 1.42 4.98.2 5.14-1.04.13-1.16-3.6-.58-4.78zM75.58 62.5s.51-.86 1.17-.4 1.48 1.07 1.48 1.07-1.78.66-2.291.45c-.509-.2-.359-1.12-.359-1.12zM75.68 60.98c-.199.51-.91.66-.91.66s-.408-.19-.51-.53a.64.64 0 0 1 .051-.44c.311-.61 1.119-1.47 1.119-1.47s.461 1.27.25 1.78zM72.58 63.11c-.65-.26-1.37-1.32-1.37-1.32s1.021-.15 1.681-.25c.029 0 .061-.01.101-.01.579 0 .81.87.81.87s-.199.71-.91.77a.712.712 0 0 1-.312-.06zM61.96 64.21c1.29-.08.84 1.14 2.13 1.22 1.3.07 1.22-1.07 2.44-.99 1.22.07.92.99 2.37 1.22 1.45.22 1.29-.84 2.67-.69 1.369.15 1.06 1.22 2.438 1.37 1.23.14 1.54-.64 2.41-.64.101 0 .21.01.33.03 1.149.23.46 1.3 1.76 1.53 1.29.23 1.37-.69 2.66-.46 1.3.23.46 1.14 1.61 1.45 1.14.3.988-.61 2.359-.38 1.369.23.459 1.14 1.369 1.52.92.38 1.45.08 1.45.08l.08.04c-.21.38-.41.75-.61 1.11l-.148-.08c-26.3-8.25-40.56-1.85-41.51-1.4l-.65-.89c.02-.2.15-.73.82-.92.84-.23 1 .61 1.76.31.76-.31.84-1.3 1.68-1.53.83-.23 1.06.77 1.98.46.91-.3.84-1.22 1.91-1.45 1.06-.23 1.14.76 2.21.61 1.06-.15.91-1.37 2.06-1.45 1.14-.07.83.99 2.13.92 1.302-.08.992-.92 2.292-.99zM76.5 106.33c-5.189 4.82-9.97 12.45-12.51 16.62-2.2 3.62-3.26 6.12-3.5 6.72h-.71c.36-.84 2.42-5.42 7.36-12.92 5.32-8.08 9.69-12.15 9.959-12.4l.01-.01c3.011-.76 3.729-3.55 2.74-5.229a2.525 2.525 0 0 0-.291-.41c.971.818 1.99 1.369 3.041 1.58.59.119 1.159.148 1.689.109-.608.299-3.278 1.73-7.788 5.94zM59.52 108.71c-1.27-2.13-2.04-.25-2.04-.25s-.2-1.271.82-1.37c1.01-.1 1.22 1.62 1.22 1.62zM65.72 109.02s-.36-2.898-3.41-.148c0 0 .67-1.73 2.39-1.73 1.73-.001 1.02 1.878 1.02 1.878zM63.03 119.641c-3.33 7.459-4.24 9.721-4.36 10.029h-.55c.18-.609 1.4-4.42 5.16-12.16.15-.3.29-.59.43-.88 3.87-7.8 6.23-10.3 6.23-10.3l-.02-.051c.73-.299 1.359-.709 1.84-1.199-.58.75-5.35 6.981-8.73 14.561zM55.61 129.67c.26-1.939.96-5.35.96-5.35l-.92-.102-.3 1.631c-.29 1.489-.61 3.51-.65 3.819h-.61c.05-.319.38-2.46.75-4.43.41-2.142.46-2.392.46-2.392l2.54.102s-1.16 3.18-1.58 6.72l-.65.002z"/><path fill="#EDC607" d="M56.57 124.32s-.7 3.41-.96 5.35h-.91c.04-.311.36-2.33.65-3.82l.3-1.63.92.1zM57.47 115.04c-.1.36-.31.87-.75 1-.71.2-1.93-1.431-1.93-1.431s1.83-1.069 2.39-1.01c.56.051.36 1.061.36 1.061s-.02.16-.07.38zM60.23 115.07s.31-1.271 1.12-.762c.81.512 1.57 1.521 1.57 1.521s-.18.09-.44.189c-.46.189-1.19.449-1.64.42-.61-.039-.8-.83-.69-1.209.01-.069.04-.12.08-.159zM57.59 119.641s-.41-1.721-.41-2.49c0-.76.46-1.17 1.42-.76 0 0 1.02.26.51 1.119-.51.86-1.52 2.131-1.52 2.131zM58.81 114.41c.57.06.65.49.55.84-.03.08-.06.16-.1.23-.2.35-.86.398-1.06 0a.723.723 0 0 1-.06-.44c.06-.34.32-.66.67-.63zM59.06 113.75s-1.02-.46-.61-1.17c.41-.71 1.58-2.08 1.58-2.08s.66 1.83.56 2.59c-.11.76-1.53.66-1.53.66zM53.82 105.46s-3.14 16.62-3.4 24.21h-.92c.01-6.95 3.01-24.189 3.33-26.029.14-.109.21-.16.23-.16l.06-.011c.08.65.33 1.33.79 1.921l-.09.069z"/><path fill="#EDC607" d="M54.45 114.53c-1.1 4.59-2.3 10.46-2.61 15.13v.01h-.56c.37-7.79 4.27-22.99 4.27-22.99l.01-.029c.27.109.55.211.86.291 0-.003-.94 3.228-1.97 7.588z"/><path fill="#EDC607" d="M55.55 106.68s-3.9 15.2-4.27 22.99h-.86c.26-7.59 3.4-24.21 3.4-24.21l.09-.069c.39.5.94.939 1.65 1.26l-.01.029zM58.67 129.67c.12-.311 1.03-2.57 4.36-10.029 3.38-7.58 8.15-13.811 8.73-14.561 0-.01.01-.01.01-.021.03-.02.051-.039.051-.06.121-.11.221-.229.311-.351a3.52 3.52 0 0 0 .34-.551c1.92.521 3.45.541 4.631.25-.271.25-4.641 4.32-9.959 12.4-4.94 7.5-7 12.08-7.36 12.92H58.67v.003z"/><path fill="#B52200" d="M87.43 70.62c-1.68 3.11-2.979 5.71-2.979 5.71s-.08-.03-.24-.08c-1.15-.36-6.33-1.93-13.029-3.04-2.721-.44-5.701-.82-8.761-1-10.66-.63-13.06 1.07-13.38 1.35L49 73.51l-3.23-4.37c.95-.45 15.21-6.85 41.509 1.4l.151.08zM54.21 50.56c-.58 1.18-.46 4.91.58 4.78l.84.71-.61 5.49-.69-5.03s-.76 2.21-1.9 5.18c-1.18 3.06-4.35 3.97-5.34 3.13-.13-.11-.22-.23-.28-.36l-1.29-.04c.08.15.12.36.12.63 0 1.59-1.29 1.64-1.7 1.61l-4.4-5.96s1.91.46 6.86-3.05c3.1-2.19 5.45-5.34 6.78-7.39l1.03.3z"/><path fill="#B52200" d="M64.09 65.43c-1.29-.08-.84-1.3-2.13-1.22-1.3.07-.99.91-2.29.99-1.3.07-.99-.99-2.13-.92-1.15.08-1 1.3-2.06 1.45-1.07.15-1.15-.84-2.21-.61-1.07.23-1 1.15-1.91 1.45-.92.31-1.15-.69-1.98-.46-.84.23-.92 1.22-1.68 1.53-.76.3-.92-.54-1.76-.31-.67.19-.8.72-.82.92l-1.18-1.59c.41.03 1.7-.02 1.7-1.61 0-.27-.04-.48-.12-.63l1.29.04c.06.13.15.25.28.36.99.84 4.16-.07 5.34-3.13 1.14-2.97 1.9-5.18 1.9-5.18l.69 5.03.61-5.49-.84-.71c1.22-.16.51-5.21-.2-5.14-.15.02-.27.15-.38.36l-1.03-.3c.8-1.229 1.23-2.07 1.23-2.07s3.13 6.18 17.46 9.38c1.28.29 2.521.53 3.72.73l-.16.9s-.81.86-1.119 1.47a.64.64 0 0 0-.051.44l-1.27.42c-.04 0-.07.01-.102.01-.658.1-1.68.25-1.68.25s.721 1.06 1.37 1.32l-.41 1.47c1.149.34 2.569.59 4.24.72l.01.4c-.87 0-1.181.78-2.41.64-1.38-.15-1.069-1.22-2.438-1.37-1.38-.15-1.22.91-2.67.69-1.45-.23-1.15-1.15-2.37-1.22-1.22-.08-1.14 1.06-2.44.99z"/><path fill="#B52200" d="M75.58 62.5s-.15.92.359 1.12c.511.21 2.291-.45 2.291-.45s-.82-.61-1.48-1.07-1.17.4-1.17.4zm15.66 1.48c-1.03 1.64-2.17 3.64-3.2 5.53l-.08-.04s-.53.3-1.45-.08c-.91-.38 0-1.29-1.369-1.52-1.371-.23-1.221.68-2.359.38-1.15-.31-.311-1.22-1.61-1.45-1.29-.23-1.37.69-2.66.46-1.3-.229-.608-1.3-1.76-1.53a2.01 2.01 0 0 0-.33-.03l-.01-.4c-1.67-.13-3.091-.38-4.24-.72l.41-1.47c.11.04.21.07.31.06.711-.06.91-.77.91-.77s-.229-.87-.81-.87l1.27-.42c.101.34.511.53.511.53s.711-.15.91-.66c.209-.51-.25-1.78-.25-1.78l.159-.9c12.2 2.04 19.841-.12 19.841-.12s-1.223 1.07-4.193 5.8zM59.11 117.51c.51-.859-.51-1.119-.51-1.119-.96-.41-1.42 0-1.42.76 0 .771.41 2.49.41 2.49s1.01-1.271 1.52-2.131zm-7.27 12.15c.31-4.67 1.51-10.54 2.61-15.13l.34.079s1.22 1.631 1.93 1.431c.44-.13.65-.64.75-1h.67c-.02.16-.01.31.06.44.2.398.86.35 1.06 0 .04-.07.07-.15.1-.23l.79-.02c-.11.379.08 1.17.69 1.209.45.029 1.18-.229 1.64-.42l1.23.609c-.14.29-.28.58-.43.88-3.76 7.74-4.98 11.55-5.16 12.16h-1.86c.42-3.54 1.58-6.72 1.58-6.72l-2.54-.102s-.05.25-.46 2.392c-.37 1.97-.7 4.108-.75 4.43h-2.25v-.008z"/><path fill="#B52200" d="M58.45 112.58c-.41.71.61 1.17.61 1.17s1.42.1 1.53-.66c.1-.76-.56-2.59-.56-2.59s-1.17 1.37-1.58 2.08zm-.97-4.12s.77-1.88 2.04.25c0 0-.21-1.72-1.22-1.62-1.02.099-.82 1.37-.82 1.37zm-3.03 6.07a170.42 170.42 0 0 1 1.97-7.591c1.84.461 3.31-.319 4.19-1.289.09.18.42.92.38 1.539l-.05.711s.97-1.932 2.04-2.291l.02-.02c1.91 1.63 4.8 1.602 6.92.69l.02.05s-2.36 2.5-6.23 10.3l-1.23-.61c.26-.1.44-.188.44-.188s-.76-1.011-1.57-1.521c-.81-.511-1.12.76-1.12.76a.278.278 0 0 0-.08.16l-.79.021c.1-.351.02-.78-.55-.84-.35-.03-.61.29-.67.63h-.67c.05-.221.07-.38.07-.38s.2-1.011-.36-1.062c-.56-.06-2.39 1.012-2.39 1.012l-.34-.081zm7.86-5.66c3.05-2.75 3.41.149 3.41.149s.71-1.881-1.02-1.881c-1.72.003-2.39 1.732-2.39 1.732zM52.83 103.641c-.32 1.84-3.32 19.079-3.33 26.029H37.67l-.04-.01c.09-.73.85-5.58 4.91-13.061 3.96-7.299 9.16-12.059 10.29-12.958zM76.5 106.33c4.51-4.21 7.18-5.641 7.79-5.939h.01a5.135 5.135 0 0 0 1.75-.439l.011.02s6.149 4.53 10.521 15.301c3.89 9.58 4.12 13.619 4.12 14.399H60.49c.24-.601 1.3-3.101 3.5-6.72 2.54-4.172 7.321-11.802 12.51-16.622z"/><path d="M53.57 80.59c.1.67.04 2.05-.61 1.89-.66-.15-.71-1.98-.71-1.98l1.06.04h.01c.08.02.17.03.25.05z"/><path fill="#8E3D00" d="M53.57 80.59c.28.05.57.13.86.22v.01c.03.22.34 2.92-1.37 2.73-1.72-.19-1.58-2.9-1.57-3.09.47-.04 1.11-.04 1.82.08l-1.06-.04s.05 1.83.71 1.98c.65.16.71-1.22.61-1.89z"/><path d="M63.38 82.03c-.71.1-.81-1.99-.81-1.99l1.42.05s.1 1.83-.61 1.94z"/><path fill="#8E3D00" d="M63.38 82.94c-1.52-.05-1.73-3.05-1.73-3.05.43.01 1.36.04 2.34.2l-1.42-.05s.1 2.09.81 1.99c.71-.11.61-1.94.61-1.94.35.06.7.13 1.04.23l-.02.08s-.1 2.59-1.63 2.54zM79.85 99.109c.99 1.681.271 4.471-2.738 5.229l-.012.011c-1.18.289-2.709.271-4.629-.25a3.901 3.901 0 0 1-.341.551c-.09.119-.188.238-.31.35 0 0-.021.02-.051.061 0 .01-.011.01-.011.021-.479.489-1.108.899-1.84 1.2-2.12.91-5.01.939-6.92-.69-1.01-.84-1.74-2.13-1.96-3.989l.02-.051c.63.19 1.19.25 1.67.182 2.51-.342 9.15-3.312 12.35-9.26l.021-.01c1.119 2.33 2.42 4.29 3.84 5.67.199.21.41.4.619.57.112.116.202.256.292.405z"/><path fill="#8E3D00" d="M60.61 105.65c-.88.97-2.35 1.75-4.19 1.289-.31-.08-.59-.181-.86-.289-.71-.32-1.26-.762-1.65-1.262-.46-.59-.71-1.27-.79-1.92a3.82 3.82 0 0 1 .07-1.359c-2.53-.119-4.65-1.439-4.09-4.069.16-.771.53-1.31.98-1.63l-.07-.102c-1.07-.398-2.03-2.03-1.47-3.81.53-1.68 2.69-2.01 3.26-.71l.04-.02c.14.29.28.57.43.84 2.79 5.3 6.29 8.17 8.79 8.94l-.02.051c.22 1.859.95 3.149 1.96 3.989l-.02.021c-1.07.359-2.04 2.291-2.04 2.291l.05-.711c.04-.619-.29-1.359-.38-1.539zM58.09 91.38s-.91 2.03-3.2 1.83c-.95-.08-1.5-.53-1.81-1.02-.44-.69-.42-1.47-.42-1.47 1.88 3.66 5.43.66 5.43.66zM65.26 89.8s.21 3.21-2.59 3.36c-2.8.15-3.66-1.83-3.66-1.83 5.24 3.35 6.25-1.53 6.25-1.53zM85.391 95.4c.609-1.22 2.699-1.73 3.149.56.3 1.49-.7 3.2-2.49 3.99a5.09 5.09 0 0 1-1.75.438h-.01a6.116 6.116 0 0 1-1.69-.108c-1.05-.21-2.068-.761-3.039-1.58a2.36 2.36 0 0 0-.619-.57c-1.422-1.38-2.721-3.34-3.842-5.67a39.21 39.21 0 0 1-1.858-4.59c-2.181-6.51-2.08-14.54-2.08-14.54l.021-.12c6.699 1.11 11.879 2.68 13.029 3.04-.232.56-2.612 14.96 1.179 19.15zM68.92 77.55s-3.25-.76-5.69-.96c-2.44-.21-3.25.15-3.25.15l-.87-1.42s3.46-1.12 9.81 2.23zM56.12 77.09h-.01c-3.03-.69-6.65.07-6.8.1.05-.07.52-.63 2.33-1.16 1.93-.56 3.86-.36 3.86-.36s.3.53.62 1.42z"/><g fill="none" stroke="#000" stroke-width=".5" stroke-miterlimit="10"><path d="M75.08 92.47c-3.2 5.95-9.84 8.919-12.35 9.261-.48.068-1.04.01-1.67-.182-2.5-.77-6-3.64-8.79-8.94-.15-.27-.29-.55-.43-.84-.07-.14-.14-.29-.21-.44-2.21-4.72-2.69-10.48-2.72-14.12-.04-2.179.09-3.609.09-3.609l.04-.04c.32-.28 2.72-1.98 13.38-1.35 3.06.18 6.04.56 8.76 1 6.7 1.11 11.881 2.68 13.03 3.04.16.05.24.08.24.08s1.3-2.6 2.979-5.71c.199-.36.399-.73.609-1.11 1.029-1.89 2.17-3.89 3.2-5.53 2.97-4.73 4.188-5.8 4.188-5.8s-7.64 2.16-19.84.12a66.04 66.04 0 0 1-3.72-.73c-14.33-3.2-17.46-9.38-17.46-9.38s-.43.84-1.23 2.07c-1.33 2.05-3.68 5.2-6.78 7.39-4.95 3.51-6.86 3.05-6.86 3.05l4.4 5.96 1.18 1.59.65.89L49 73.51M37.67 129.67h63"/><path d="M45.11 68.32s0-.03.01-.07c.02-.2.15-.73.82-.92.84-.23 1 .61 1.76.31.76-.31.84-1.3 1.68-1.53.83-.23 1.06.77 1.98.46.91-.3.84-1.22 1.91-1.45 1.06-.23 1.14.76 2.21.61 1.06-.15.91-1.37 2.06-1.45 1.14-.07.83.99 2.13.92 1.3-.08.99-.92 2.29-.99 1.29-.08.84 1.14 2.13 1.22 1.3.07 1.22-1.07 2.44-.99 1.22.07.92.99 2.37 1.22 1.45.22 1.29-.84 2.67-.69 1.369.15 1.06 1.22 2.438 1.37 1.23.14 1.54-.64 2.41-.64.101 0 .21.01.33.03 1.149.23.46 1.3 1.76 1.53 1.29.23 1.37-.69 2.66-.46 1.3.23.46 1.14 1.61 1.45 1.14.3.988-.61 2.359-.38 1.369.23.459 1.14 1.369 1.52.92.38 1.45.08 1.45.08"/><path d="M45.72 69.16s.02-.01.05-.02c.95-.45 15.21-6.85 41.509 1.4M43.81 66.65s.05.01.13.01c.41.03 1.7-.02 1.7-1.61 0-.27-.04-.48-.12-.63-.43-.92-1.88.13-1.02.78M89.87 66.04s-1.3.84-3.05.53c-1.762-.3-2.141-2.36-1.15-2.82 1-.46 1.221 1.07.46 1.37M47.62 63.9s.84-.38.31-.91c-.47-.47-1.5.62-1.12 1.47.06.13.15.25.28.36.99.84 4.16-.07 5.34-3.13 1.14-2.97 1.9-5.18 1.9-5.18l.69 5.03.61-5.49s2.74 5.34 5.41 6.4c2.67 1.07 3.66.16 3.66-1.06s-1.67-.69-1.29.3M69.51 61.61s.61-.3.15-.83c-.46-.54-1.52.38-.84 1.75.4.78 1.54 1.52 3.35 2.05 1.15.34 2.57.59 4.24.72.29.02.58.04.88.05 4.8.23 4.8-2.44 4.11-2.97-.682-.54-1.142.45-.762.99M54.21 50.56c.11-.21.23-.34.38-.36.71-.07 1.42 4.98.2 5.14-1.04.13-1.16-3.6-.58-4.78z"/><path d="M75.43 59.2s.461 1.27.25 1.78c-.199.51-.91.66-.91.66s-.408-.19-.51-.53a.64.64 0 0 1 .051-.44c.309-.61 1.119-1.47 1.119-1.47zM75.58 62.5s.51-.86 1.17-.4 1.48 1.07 1.48 1.07-1.78.66-2.291.45c-.509-.2-.359-1.12-.359-1.12zM72.58 63.11c.109.04.21.07.311.06.709-.06.909-.77.909-.77s-.229-.87-.81-.87c-.04 0-.07.01-.102.01-.658.1-1.68.25-1.68.25s.722 1.06 1.372 1.32zM84.3 100.391a5.135 5.135 0 0 0 1.75-.439c1.79-.79 2.79-2.5 2.49-3.99-.45-2.29-2.54-1.78-3.149-.56s1.729 2.69 2.039.81M71.16 73.33s-.102 8.03 2.08 14.54c.55 1.63 1.17 3.17 1.859 4.59 1.119 2.33 2.42 4.29 3.84 5.67.199.21.41.4.619.57.972.819 1.99 1.37 3.041 1.58.59.12 1.159.149 1.689.108M84.221 76.23s-.011.01-.011.02c-.229.56-2.61 14.96 1.181 19.15"/><path d="M73.09 74.81c-.1.15-.35 12.2 6 21.2M75.38 75.52s.66 12.91 4.521 18.2M77.87 77.15s.25 9.3 2.489 13.98M80 78.06s.26 6.35 1.43 9.86M81.939 79.23s-.149 4.63.149 6.05M49.3 77.2l.01-.01c.15-.03 3.77-.79 6.8-.1"/><path d="M58.4 89.65s-1.78-.41-2.39-1.17c-.61-.76.51-2.18.86-5.95.21-2.2-.3-4.18-.75-5.44-.32-.89-.62-1.42-.62-1.42s-1.93-.2-3.86.36c-1.81.53-2.28 1.09-2.33 1.16M68.92 77.55s-3.25-.76-5.69-.96c-2.44-.21-3.25.15-3.25.15l-.87-1.42s3.46-1.12 9.81 2.23z"/><path d="M50.47 79.28s2.54-.46 4.42.51M61.2 78.77s3-.46 5.33.71M54.43 80.82c.17.05.34.12.51.19M53.32 80.54c.08.02.17.03.25.05.28.05.57.13.86.22M50.72 80.55s.29-.06.77-.09c.47-.04 1.11-.04 1.82.08M61.4 79.89h.25c.43.01 1.36.04 2.34.2.35.06.7.13 1.04.23.28.08.55.17.79.28M51.94 83.45s1.07.3 2.09.1M62.26 82.84s1.22.3 2.34.05"/><path d="M51.49 80.45v.01c-.01.19-.15 2.9 1.57 3.09 1.71.19 1.4-2.51 1.37-2.73v-.01M61.65 79.89s.21 3 1.73 3.05c1.53.05 1.63-2.54 1.63-2.54M58.09 91.38s-3.55 3-5.43-.66c0 0-.02.78.42 1.47.31.49.86.94 1.81 1.02 2.29.2 3.2-1.83 3.2-1.83zM59.01 91.33s.86 1.98 3.66 1.83c2.8-.15 2.59-3.36 2.59-3.36s-1.01 4.88-6.25 1.53zM56.37 94.23s.86-.05 1.67 0c.82.05 1.58-.26 2.09-.36.51-.1 2.54.2 3.15.25M58.15 95.7s1.22.1 2.33-.25M77.1 104.35c-1.18.291-2.709.271-4.629-.25-.011 0-.029-.01-.041-.01M76.96 101.391s-1.46-.051-1.53-1.621c-.08-1.738 2-2.64 3.512-1.64.22.14.438.33.619.57.109.12.199.26.289.409.99 1.681.271 4.471-2.738 5.229M71.76 105.08c-.479.49-1.109.9-1.84 1.2-2.12.909-5.01.938-6.92-.69-1.01-.84-1.74-2.13-1.96-3.99"/><path d="M69.38 103.891s-1.42-1.58 0-2.851c1.54-1.38 4.53.36 3.091 3.06-.091.182-.201.36-.341.551a2.5 2.5 0 0 1-.31.351c0 .021-.021.04-.051.06M54.89 103.17s1.32.66 1.37-1.061c.06-1.729-2.44-1.879-2.99-.26-.03.09-.06.17-.08.26-.1.421-.13.881-.07 1.359.08.65.33 1.33.79 1.92.39.5.94.94 1.65 1.262.27.108.55.209.86.289 1.84.461 3.31-.319 4.19-1.289.59-.631.92-1.342.94-1.82"/><path d="M51.33 98.6s1.33.461 1.33-1.318c0-1.262-1.51-1.682-2.58-.87-.45.319-.82.858-.98 1.63-.56 2.63 1.56 3.95 4.09 4.07h.02M50.88 93.51s1.42.11 1.01-1.47c-.02-.09-.05-.17-.09-.25-.57-1.3-2.73-.97-3.26.71-.56 1.78.4 3.41 1.47 3.811M60.59 105.609s.01.011.02.041c.09.18.42.92.38 1.539l-.05.711s.97-1.932 2.04-2.291M62.31 108.87s.67-1.729 2.39-1.729c1.73 0 1.02 1.879 1.02 1.879s-.36-2.9-3.41-.15zM59.52 108.71s-.21-1.72-1.22-1.62c-1.02.102-.82 1.37-.82 1.37s.77-1.88 2.04.25zM59.06 113.75s-1.02-.46-.61-1.17c.41-.71 1.58-2.08 1.58-2.08s.66 1.83.56 2.59c-.11.76-1.53.66-1.53.66zM60.15 115.23c.01-.07.04-.121.08-.16 0 0 .31-1.271 1.12-.762.81.512 1.57 1.521 1.57 1.521s-.18.09-.44.189c-.46.189-1.19.449-1.64.42-.61-.038-.8-.829-.69-1.208zM58.6 116.391s1.02.26.51 1.119c-.51.86-1.52 2.131-1.52 2.131s-.41-1.721-.41-2.49c0-.76.46-1.171 1.42-.76zM57.47 115.04c.05-.22.07-.38.07-.38s.2-1.01-.36-1.061c-.56-.061-2.39 1.01-2.39 1.01s1.22 1.631 1.93 1.431c.44-.13.65-.64.75-1zM58.14 115.04c.06-.34.32-.66.67-.63.57.06.65.49.55.84-.03.08-.06.16-.1.23-.2.35-.86.398-1.06 0a.722.722 0 0 1-.06-.44zM54.08 129.71s0-.01.01-.04c.05-.32.38-2.46.75-4.43.41-2.141.46-2.391.46-2.391l2.54.101s-1.16 3.18-1.58 6.72v.04"/><path d="M54.69 129.71s0-.01.01-.04c.04-.311.36-2.33.65-3.82l.3-1.629.92.101s-.7 3.409-.96 5.35c-.01.011-.01.03-.01.04M53.06 103.48c-.02 0-.09.05-.23.158-1.13.9-6.33 5.66-10.29 12.961-4.06 7.479-4.82 12.33-4.91 13.061-.02.07-.02.1-.02.1M86.061 99.97s6.149 4.53 10.521 15.3c3.89 9.58 4.12 13.621 4.12 14.4v.141"/><path d="m52.86 103.48-.03.158c-.32 1.842-3.32 19.08-3.33 26.03v.04M53.82 105.46s-3.14 16.62-3.4 24.21v.04M55.55 106.68s-3.9 15.2-4.27 22.99v.04M56.42 106.939s-.94 3.229-1.97 7.591c-1.1 4.59-2.3 10.46-2.61 15.13M69.94 106.33s-2.36 2.5-6.23 10.3c-.14.29-.28.58-.43.88-3.76 7.74-4.98 11.551-5.16 12.16l-.03.09"/><path d="M71.82 105s-.021.02-.051.061c0 .01-.011.01-.011.021-.579.75-5.35 6.979-8.73 14.56-3.33 7.461-4.24 9.721-4.36 10.03-.02.03-.02.04-.02.04M77.109 104.34l-.01.01c-.271.25-4.641 4.32-9.959 12.4-4.94 7.5-7 12.08-7.36 12.92-.04.09-.06.141-.06.141"/><path d="M84.43 100.33s-.039.02-.13.061h-.01c-.61.301-3.28 1.729-7.79 5.939-5.189 4.82-9.97 12.45-12.51 16.62-2.2 3.62-3.26 6.12-3.5 6.72-.04.09-.06.141-.06.141"/></g></g><path fill="none" stroke="#000" stroke-miterlimit="10" d="M133.5 171.57c0 6.762-5.623 12.244-12.56 12.244H16.798c-6.936 0-12.56-5.482-12.56-12.244V17.244C4.238 10.482 9.862 5 16.798 5H120.94c6.937 0 12.56 5.482 12.56 12.244V171.57z"/></svg>