<svg xmlns="http://www.w3.org/2000/svg" width="140" height="190" xml:space="preserve"><path fill-opacity=".498" d="M21 5h103c8.864 0 16 7.136 16 16v153c0 8.864-7.136 16-16 16H21c-8.864 0-16-7.136-16-16V21c0-8.864 7.136-16 16-16z"/><path fill="#E7E7E7" d="M17 1h103c8.864 0 16 7.136 16 16v153c0 8.864-7.136 16-16 16H17c-8.864 0-16-7.136-16-16V17C1 8.136 8.136 1 17 1z"/><path fill="#C7891F" d="M19 3h103c8.864 0 16 7.136 16 16v153c0 8.864-7.136 16-16 16H19c-8.864 0-16-7.136-16-16V19c0-8.864 7.136-16 16-16z"/><path fill="#FFF" d="M18 2h103c8.864 0 16 7.136 16 16v153c0 8.864-7.136 16-16 16H18c-8.864 0-16-7.136-16-16V18C2 9.136 9.136 2 18 2z"/><path d="M22.039 42.783h-.499c-4.087 0-7.266-1.367-9.536-4.099-2.271-2.733-3.406-6.537-3.406-11.414 0-4.862 1.129-8.673 3.389-11.433 2.27-2.76 5.394-4.139 9.37-4.139 4.021 0 7.149 1.366 9.387 4.099 2.248 2.732 3.373 6.557 3.373 11.473 0 3.376-.598 6.283-1.794 8.721-1.185 2.438-2.896 4.273-5.133 5.506l5 6.751h-6.097l-4.054-5.465m-.682-25.479c-1.949 0-3.461.871-4.535 2.612-1.075 1.741-1.612 4.193-1.612 7.354 0 3.215.526 5.68 1.579 7.395 1.052 1.702 2.575 2.552 4.568 2.552 1.96 0 3.478-.871 4.552-2.612 1.074-1.742 1.611-4.187 1.611-7.334 0-3.161-.537-5.613-1.611-7.354-1.074-1.743-2.591-2.613-4.552-2.613M116.65 146.088h.5c4.086 0 7.265 1.366 9.535 4.1 2.271 2.732 3.405 6.537 3.405 11.412 0 4.863-1.13 8.674-3.39 11.435-2.271 2.76-5.395 4.139-9.37 4.139-4.021 0-7.147-1.364-9.388-4.099-2.248-2.732-3.371-6.559-3.371-11.475 0-3.375.599-6.281 1.794-8.721 1.186-2.438 2.896-4.273 5.134-5.506l-5.001-6.751h6.099l4.053 5.466m.682 25.478c1.949 0 3.461-.871 4.535-2.612s1.611-4.192 1.611-7.354c0-3.215-.525-5.68-1.578-7.395-1.051-1.701-2.574-2.553-4.568-2.553-1.96 0-3.479.871-4.553 2.613-1.073 1.74-1.61 4.186-1.61 7.334 0 3.161.537 5.612 1.61 7.354 1.075 1.74 2.593 2.613 4.553 2.613M20.645 48.665C15.72 56.49.61 69.814 10.182 73.928c5.811 1.895 8.576-1.982 9.747-4.549h.234l-3.859 12.947 8.938-.038s-3.85-12.445-3.859-12.921h.094c.946 2.097 4.536 6.439 8.484 4.786 11.546-4.637-5.456-17.826-9.316-25.488zM118.035 140c4.924-7.824 20.035-21.148 10.463-25.264-5.811-1.894-8.576 1.982-9.747 4.551h-.235l3.859-12.947-8.938.038s3.85 12.445 3.858 12.921h-.094c-.947-2.097-4.536-6.438-8.484-4.785-11.544 4.634 5.457 17.824 9.318 25.486z"/><g><path d="M67.08 77.85c-.8 0-.7-1.22-.7-1.22h1.31s.2 1.22-.61 1.22z"/><path fill="#F7DBD5" d="M58.54 69.25c2.35-2.65 2.43-3.41 2.43-3.41s6.99 7.96 13.68 7.34c-4.11 6.73-.56 14.12-.56 14.12l.03.03c-1.16 1.16-2.181 2.45-2.761 4.14-.209.6-.369 1.21-.5 1.8-3.889 4.28-8.029 4.18-11.279 1.59-2.35-1.86-4.23-5.03-5.21-8.77-1.06-4.05-1.72-7.87-1.87-11.28-.02-.65-.03-1.28-.02-1.89.75-.23 3.99-1.33 6.06-3.67zm7.84 7.38s-.1 1.22.7 1.22c.81 0 .61-1.22.61-1.22h-1.31zm-2.61-1.69c2.73-1.14 9.03.07 9.03.07s-.149-.38-3.87-1.06c-3.72-.68-5.76-.3-5.76-.3l.6 1.29zm-10.24.83s3.15-1.29 6.31-.78c-.26-.56-.47-.88-.47-.88s-1.97-.23-3.79.52c-1.82.76-2.05 1.14-2.05 1.14zm2.43 1.17s-.15 1.06.41 1.26c.55.2.96-.66.55-1.21l-.96-.05z"/><path d="M56.92 76.99c.41.55 0 1.41-.55 1.21-.56-.2-.41-1.26-.41-1.26l.96.05z"/><path fill="#C68722" d="M63.17 73.65s2.04-.38 5.76.3c3.72.68 3.87 1.06 3.87 1.06s-6.3-1.21-9.03-.07l-.6-1.29zM59.84 74.99c-3.16-.51-6.31.78-6.31.78s.23-.38 2.05-1.14c1.82-.75 3.79-.52 3.79-.52s.21.32.47.88z"/><path fill="#F7DBD5" d="M59.36 97.7c.39-1.011.19-2.81.19-2.81l.03-.03c3.25 2.59 7.39 2.69 11.279-1.59a19.922 19.922 0 0 0-.439 4.65h-.1s-2.73 1.061-6.42.86c-2.43-.13-3.85-.7-4.54-1.08z"/><path fill="#F9B438" d="M61.27 113.01c.33-.24.69-.31.96-.33.56-.05.81.961-.15.961-.42 0-.67-.301-.81-.631zM52.12 101.609c.57-.409 1.12-.789 1.64-1.141.06-.039.11-.068.16-.1l.02.029s.34.199 1.02.49l-1.58 1.579-.02.04c-.73-.426-1.11-.776-1.24-.897z"/><path fill="#CE1300" d="M77.221 128.4c-1.041-.5-8.041-4.24-11.451-16.021v-.061c.72.041 1.46.051 2.22.061l.12-.05c1.08 2.54 3.169 4.17 3.169 4.17s0-.53.681-2.2c.261-.63.86-1.38 1.75-2.34.75-.15 9.819-2.029 16.03-8.13 1.42 2.31 2.99 5.319 4.439 9.101 3.891 10.109 3.649 14.92 3.6 15.479h-.029l-20.529-.009z"/><path fill="#F9B438" d="M52.47 119.25c1.27-5.05 2.78-8.141 2.78-8.141l.02-.09c.2.051.4.101.61.141.68.148 1.39.279 2.16.41l-.01.05s-.17.83-.77 1.17c-.1-.42-.35-.75-.64-.82-.66-.149-.86 1.021.15.96.19-.01.35-.06.49-.14.15.56.04 1.271-.59 1.76-.08.07-.16.12-.24.17-.19-.71-.7-.97-1.03-.67-.46.42.07 1.23 1.03.67.11.38.13.88-.01 1.5-.13.57-.34.98-.57 1.24-.28-.819-1.26-.78-1.15-.13.1.58.67.68 1.15.13.1.26.12.601.01 1.04-.16.62-.38 1.05-.63 1.311-.33-.851-1.33-.681-1.14-.101.16.5.68.61 1.14.101.1.26.14.601.07 1.061-.14.93-.41 1.52-.71 1.85-.56-.89-1.48-.08-1.01.23.3.189.68.14 1.01-.23.1.15.19.36.26.631.33 1.34-.13 2.189-.7 2.529-.16-.529-.43-.91-.72-.91-.76 0-.65 1.11.1 1.11.2 0 .42-.062.62-.2.25.811.22 1.95-.48 2.51h-2.51c.01-.562.15-4.462 1.31-9.142zM56.58 128.391c.03-.359.25-2.211 1.05-6.91.91-5.311 2.17-9.561 2.17-9.561l.01-.09c.41.061.83.109 1.27.15l-.01.1s.02.49.2.93c-.36.25-.68.7-.81 1.54-.09.61.03 1.091.24 1.4-.13.159-.24.37-.34.63-.31.83-.3 1.59-.13 2.13-.19.08-.38.22-.58.44-.92 1.039-.79 2.34-.25 2.97-.25.34-.43.86-.46 1.688-.01.49.05.842.17 1.08-.27.24-.47.65-.47 1.291 0 .59.07.989.18 1.25-.18.189-.34.5-.47.959h-1.77v.003zM49.29 106.561c-1.37.709-2.43-.149-2.43-.149l-.01-.011c1.43-1.641 2.91-3.069 4.36-4.131.31-.229.61-.449.91-.658.13.119.51.47 1.24.898.61.37 1.48.801 2.64 1.21.41.15.85.3 1.33.431.43.131.88.25 1.37.359.48.11.98.221 1.52.311.54.101 1.1.189 1.7.271.55.08 1.12.142 1.73.2.5.04 1.02.08 1.56.109.91.061 1.87.091 2.89.101l.03.01c-.29.931-.49 1.9-.59 2.87v.01c-.03.211-.44 3.33-3.03 3.23-2.68-.102-1.02-5.46-3.49-5.61-2.41-.149-2.19 4.88-5.02 4.591-.08-.011-.16-.021-.24-.041-3.09-.608.2-5.818-1.82-6.47-2.02-.662-3.29 1.767-4.65 2.469z"/><path fill="#CE1300" d="M54.96 100.891c-.68-.291-1.02-.49-1.02-.49l-.02-.029c2.96-1.99 4.92-3.01 4.92-3.01s.16.138.52.338c.69.38 2.11.95 4.54 1.08 3.69.2 6.42-.86 6.42-.86h.1c.02 1.471.18 2.43.18 2.43l.092.07c-.602.75-1.15 1.65-1.622 2.641l-.06-.029c-1.2.039-2.33.039-3.39-.012-.51-.02-1-.039-1.47-.078-.56-.041-1.09-.102-1.61-.16-.51-.062-1-.12-1.46-.2a34.974 34.974 0 0 1-2.7-.55c-.41-.102-.79-.211-1.14-.312-.98-.3-1.74-.59-2.28-.829z"/><path fill="#F9B438" d="M59.4 122.12c-.54-.63-.67-1.931.25-2.97.2-.221.39-.36.58-.44.17.55.51.87.89.851.63-.041.03-1.25-.89-.851-.17-.54-.18-1.3.13-2.13.1-.26.21-.471.34-.63.35.53.94.63 1.23.22.38-.561-.56-1.07-1.23-.22-.21-.312-.33-.79-.24-1.4.13-.84.45-1.29.81-1.54.14.33.39.631.81.631.96 0 .71-1.011.15-.961-.27.021-.63.09-.96.33-.18-.439-.2-.93-.2-.93l.01-.1c1.32.148 2.75.26 4.29.328v.021s-.76 2.07-1.37 7.779c-.58 5.421-.2 8.021-.15 8.279h-5.5c.13-.459.29-.77.47-.959.29.67.82.479 1.03.271.24-.24-.45-.88-1.03-.271-.11-.261-.18-.66-.18-1.25 0-.641.2-1.051.47-1.291.3.682.96.541 1.25.131.28-.391-.65-.67-1.25-.131-.12-.238-.18-.59-.17-1.08.03-.827.21-1.347.46-1.687.17.2.38.33.61.37.96.148 1.01-1.061.4-.96-.33.05-.73.18-1.01.59z"/><path fill="#C68722" d="M49.39 84.27c.55-4.15 3.08-9.46 3.08-9.46h.03c.15 3.41.81 7.23 1.87 11.28.98 3.74 2.86 6.91 5.21 8.77l-.03.03s.2 1.799-.19 2.81c-.36-.2-.52-.341-.52-.341s-1.96 1.021-4.92 3.011c-.05.03-.1.06-.16.1-3.37-3.06-5.14-10.51-4.37-16.2z"/><path fill="#F9B438" d="M62.54 102.78c.52.06 1.05.12 1.61.159l-.5 2.351c-.61-.06-1.18-.12-1.73-.2l.01-.04.6-2.229.01-.041z"/><path fill="#CE1300" d="M58.04 111.57c-.77-.131-1.48-.262-2.16-.41l.12-.56c2.83.291 2.61-4.738 5.02-4.59 2.47.15.81 5.51 3.49 5.61 2.59.1 3-3.021 3.03-3.229-.02.18-.04.351-.05.529-.09 1.25.19 2.4.62 3.41l-.12.05c-.76-.01-1.5-.021-2.22-.06-.14 0-.27 0-.4-.012-1.54-.068-2.97-.18-4.29-.328-.44-.041-.86-.092-1.27-.15-.23-.03-.45-.061-.66-.09-.38-.051-.75-.11-1.11-.17z"/><path fill="#F9B438" d="M86.67 99.47c.12.142.25.3.38.472-.06.828 1.011 2.209.87 3.738-.16 1.62-1.88 2.07-2.939 1.062a261.003 261.003 0 0 0-2.479-2.32l-.04-.03c1.1-1.56 1.93-3.119 2.53-4.738l.04.02c-.003-.004.638.566 1.638 1.796z"/><path fill="#C68722" d="M60.97 65.84s-.23-3.95 1.13-6.07c0 0 3.72-1.06 11.31 6.14 7.58 7.21 12.96 16.46 12.96 22.91 0 3.31-.38 6.16-1.38 8.831-.602 1.619-1.432 3.181-2.53 4.74-.63.879-1.34 1.76-2.16 2.659-.239.271-.479.53-.72.78-1.59 1.729-2.98 3.14-4.12 4.3a61.87 61.87 0 0 0-1.75 1.83c-.89.96-1.489 1.71-1.75 2.34-.681 1.67-.681 2.2-.681 2.2s-2.089-1.63-3.169-4.17c-.43-1.01-.71-2.16-.62-3.41.01-.18.03-.35.05-.529v-.011c.1-.97.3-1.938.59-2.87.25-.859.57-1.68.94-2.449.47-.99 1.02-1.891 1.622-2.641l-.092-.07s-.16-.959-.18-2.43c-.03-1.27.06-2.92.439-4.65.131-.59.291-1.2.5-1.8.58-1.69 1.601-2.979 2.761-4.14l-.03-.03s-3.55-7.39.561-14.12c-6.691.62-13.681-7.34-13.681-7.34z"/><path fill="#F9B438" d="M79.62 105.859c-.2.351-.399 2.779-1.72 3.841-1.11.899-2.15.56-2.44.43 1.14-1.16 2.53-2.569 4.12-4.3l.04.029z"/><path fill="#C68722" d="M58.54 69.25c-2.07 2.34-5.31 3.44-6.06 3.67.05-3.32.67-6.16 1.96-8.3.09-.15.18-.29.28-.43 2.84-4.2 7.38-4.42 7.38-4.42-1.36 2.12-1.13 6.07-1.13 6.07s-.08.76-2.43 3.41z"/><path fill="#F9B438" d="M57.33 104.15c-.48-.131-.92-.28-1.33-.432l.01-.039 1.22-1.921.01-.04c.35.102.73.211 1.14.312l-1.05 2.108v.012zM58.82 127.43c.58-.609 1.27.03 1.03.271-.21.209-.74.399-1.03-.271zM59.11 124.891c.6-.541 1.53-.261 1.25.129-.29.41-.95.55-1.25-.129zM60.41 121.53c.61-.101.56 1.108-.4.96a1.04 1.04 0 0 1-.61-.37c.28-.41.68-.54 1.01-.59zM60.23 118.71c.92-.399 1.52.81.89.851-.38.019-.72-.301-.89-.851zM60.7 115.95c.67-.851 1.61-.341 1.23.22-.29.41-.88.31-1.23-.22zM57.26 112.79c-.14.08-.3.13-.49.14-1.01.062-.81-1.109-.15-.96.29.07.54.4.64.82zM56.43 114.72c-.96.562-1.49-.25-1.03-.67.33-.3.84-.04 1.03.67zM55.85 117.46c-.48.55-1.05.45-1.15-.13-.11-.65.87-.689 1.15.13zM55.23 119.811c-.46.51-.98.399-1.14-.101-.19-.58.81-.75 1.14.101zM53.58 122.95c-.47-.312.45-1.12 1.01-.23-.33.37-.71.421-1.01.23zM54.15 125.88c-.2.14-.42.2-.62.2-.75 0-.86-1.11-.1-1.11.29 0 .56.38.72.91z"/><path fill="#CE1300" d="M81.23 62.28c-.182.04-2.23.51-3.701-.33-.271-.24-.539-.47-.819-.7-1.09-1.44-.22-3.63-.22-3.63s-2.37 1.14-3.881.73a15.29 15.29 0 0 0-.699-.4c-.92-.91-.271-2.91-.271-2.91s-2.08 1.72-3.438 1.32c-1.37-.41-1.37-2.88-1.37-2.88s-1.26 2.12-2.68 2.27c-.05.01-.1.01-.15.01-1.34 0-2.38-1.83-2.38-1.83l-.11-.43c.14 0 .25-.23.24-.5 0-.27-.12-.48-.26-.48-.03 0-.07.01-.1.04l-.1-.36c.04-.02.09-.03.13-.04 4.1-1.16 6.68-4.7 6.68-4.7s1.82 3.39 10.458 4.65c8.65 1.27 14.771-1.52 14.771-1.52s-1.721 7.54-.96 16.64c.75 9.1 5.56 13.9 5.56 13.9s-3.85 2.93-6.979 7.84c-.141.21-.271.43-.4.65l-.06-.04c.04-.44.06-1.07.04-1.87h.01c.109-1.72 1.62-2.94 1.62-2.94s-1.82-.65-2.32-2.47c-.51-1.82 1.011-3.75 1.011-3.75s-1.971-.4-2.881-2.02c-.06-.1-.109-.21-.148-.31-.59-1.59.6-3.63.6-3.63s-2.17-.25-3.34-1.67c-.05-.06-.09-.11-.13-.17-.931-1.44.229-3.77.229-3.77s-2.42.3-3.681-.97c-.06-.06-.12-.13-.181-.2-.95-1.25-.15-3.36-.09-3.53zm12.12 22.28c.25-.12.392-.32.33-.44-.06-.13-.31-.14-.55-.02-.25.12-.39.32-.33.45.059.13.309.13.55.01zm-1.22-6.26c.24-.12.39-.31.32-.44-.062-.13-.312-.13-.55-.01-.24.12-.392.32-.32.44.061.13.311.13.55.01zm-2.3-6.22c.229-.16.34-.38.26-.49-.08-.12-.33-.09-.55.07-.22.15-.33.37-.25.49.08.11.319.08.54-.07zm-3.35-5.79c.188-.19.27-.43.17-.53-.102-.1-.33-.03-.53.16-.19.19-.271.42-.17.53.1.1.329.03.53-.16zm-3.98-4.83c.2-.18.279-.42.18-.52s-.34-.03-.529.16-.271.42-.17.52c.099.1.33.03.519-.16zm-4.75-4.85c.17-.21.221-.45.109-.54-.109-.09-.33.01-.5.22s-.221.45-.109.54.33-.01.5-.22zm-4.9-2.88c.11-.25.102-.49-.02-.55-.13-.06-.33.09-.439.33-.121.25-.109.49.021.55s.318-.09.438-.33zm-5.41-1.65c.04-.27-.03-.51-.17-.53-.14-.03-.29.17-.33.44-.05.26.02.5.16.52.14.03.29-.17.34-.43z"/><path fill="#F9B438" d="M92.16 84.77s-1.51 1.22-1.62 2.94h-.011c-.09-2.47-.68-6.53-2.771-11.46l.062-.03c.039.1.09.21.148.311.91 1.62 2.881 2.02 2.881 2.02s-1.521 1.93-1.011 3.75c.502 1.819 2.322 2.469 2.322 2.469z"/><path fill="#F9B438" d="m90.49 89.58.06.04c-2.59 4.32-3.7 9.04-3.88 9.85-1-1.229-1.641-1.8-1.641-1.8l-.039-.02c1-2.67 1.38-5.521 1.38-8.832 0-6.45-5.38-15.7-12.96-22.91-7.59-7.2-11.31-6.14-11.31-6.14s-4.54.22-7.38 4.42l.48-3.97c.25-.66 1.78-3.65 8.29-4.37.17-.02.34-.03.51-.05 1.34-.07 2.75.14 4.2.57 1.22.37 2.47.91 3.71 1.58.1.11.229.21.38.28.101.05.21.09.319.12 1.391.81 2.771 1.79 4.101 2.9.08.11.17.21.28.31.17.16.35.29.539.39a38.524 38.524 0 0 1 3.791 3.86c.06.07.119.14.18.2a37.983 37.983 0 0 1 3.439 4.75c.189.31.369.61.551.92a46.911 46.911 0 0 1 2.27 4.57c2.09 4.93 2.682 8.99 2.771 11.46.019.802-.002 1.432-.041 1.872z"/><path fill="#CE1300" d="M87.05 99.939c.771.971 1.7 2.25 2.69 3.891-6.211 6.1-15.28 7.979-16.03 8.13a61.87 61.87 0 0 1 1.75-1.83c.29.13 1.33.47 2.44-.43 1.318-1.062 1.52-3.49 1.72-3.841l-.04-.029c.24-.25.479-.51.72-.78.82-.899 1.53-1.78 2.16-2.659l.04.029s1.42 1.311 2.48 2.32c1.06 1.01 2.778.56 2.938-1.061.143-1.529-.928-2.909-.868-3.74z"/><path fill="#F9B438" d="m87.82 76.22-.062.03a46.02 46.02 0 0 0-2.27-4.57c-.181-.31-.36-.61-.55-.92l.01-.01c.04.06.08.11.13.17 1.17 1.42 3.34 1.67 3.34 1.67s-1.188 2.04-.598 3.63z"/><path fill="#F9B438" d="M81.5 66.01c1.26 1.271 3.68.97 3.68.97s-1.16 2.33-.229 3.77l-.01.01a38.205 38.205 0 0 0-3.441-4.75zM81.23 62.28c-.062.17-.86 2.28.09 3.53a38.524 38.524 0 0 0-3.791-3.86c1.471.84 3.521.37 3.701.33z"/><path fill="#CE1300" d="m77.221 128.4-13.371-.012c-.05-.26-.43-2.859.15-8.279.61-5.709 1.37-7.779 1.37-7.779v-.021c.13.012.26.012.4.012v.06C69.18 124.16 76.18 127.9 77.221 128.4z"/><path fill="#F9B438" d="M76.49 57.62s-.87 2.19.22 3.63a30.058 30.058 0 0 0-4.101-2.9c1.511.41 3.881-.73 3.881-.73zM71.641 55.04s-.649 2 .271 2.91c-1.24-.67-2.49-1.21-3.71-1.58v-.01c1.358.4 3.439-1.32 3.439-1.32zM69.01 103.03l.06.028c-.37.771-.69 1.592-.94 2.45l-.03-.01c-1.02-.01-1.98-.04-2.89-.101l.41-2.369v-.012c1.06.054 2.19.054 3.39.014zM68.2 56.36v.01c-1.45-.43-2.86-.64-4.2-.57v-.04c.05 0 .1 0 .15-.01 1.42-.15 2.68-2.27 2.68-2.27s0 2.47 1.37 2.88z"/><path fill="#F9B438" d="M65.62 103.02v.012l-.41 2.369c-.54-.029-1.06-.069-1.56-.109l.5-2.35c.47.038.96.058 1.47.078zM64 55.76v.04c-.17.02-.34.03-.51.05-6.51.72-8.04 3.71-8.29 4.37l.25-2.07c.17.09.74.3 1.37-.12.76-.51 1.06-2.43 1.06-2.43s.86 1.36 2.08.91c1.21-.45 1.66-2.58 1.66-2.58s1.04 1.83 2.38 1.83zM62.54 102.78l-.01.04-.6 2.229-.01.04c-.6-.08-1.16-.17-1.7-.271l.85-2.199.01-.04c.46.081.95.141 1.46.201z"/><path fill="#CE1300" d="m61.51 53.5.11.43s-.45 2.13-1.66 2.58c-1.22.45-2.08-.91-2.08-.91s-.3 1.92-1.06 2.43c-.63.42-1.2.21-1.37.12l.66-5.48s1.19.64 5.18-.47l.1.36c-.09.07-.15.25-.15.45.01.27.13.49.27.49zm-3.86 1.46c.14-.02.22-.26.18-.52-.04-.27-.18-.47-.32-.45-.14.02-.22.26-.18.52.04.27.18.47.32.45z"/><path fill="#F9B438" d="m61.08 102.58-.01.04-.85 2.2c-.54-.09-1.04-.2-1.52-.312l.95-2.14.01-.051c.45.093.92.183 1.42.263z"/><path fill="#CE1300" d="m59.81 111.83-.01.09s-1.26 4.25-2.17 9.561c-.8 4.699-1.02 6.551-1.05 6.91h-.67c.02-.41.18-2.57 1.26-8.121 1.22-6.22 1.98-8.5 1.98-8.5v-.028l.66.088z"/><path fill="#F9B438" d="m59.66 102.32-.01.05-.95 2.14c-.49-.109-.94-.229-1.37-.359v-.01l1.05-2.109c.4.098.82.198 1.28.288zM59.15 111.74v.029s-.76 2.279-1.98 8.5c-1.08 5.551-1.24 7.711-1.26 8.119h-2.24c.7-.56.73-1.699.48-2.51.57-.34 1.03-1.189.7-2.529a2.114 2.114 0 0 0-.26-.631c.3-.33.57-.92.71-1.85.07-.46.03-.801-.07-1.061.25-.261.47-.689.63-1.311.11-.439.09-.78-.01-1.04.23-.26.44-.67.57-1.24.14-.62.12-1.12.01-1.5.08-.05.16-.1.24-.17.63-.489.74-1.2.59-1.76.6-.34.77-1.17.77-1.17l.01-.05c.36.064.73.123 1.11.174zM57.24 101.72l-.01.04-1.22 1.92-.01.04c-1.16-.409-2.03-.84-2.64-1.21l.02-.04 1.58-1.579c.54.239 1.3.529 2.28.829z"/><path fill="#CE1300" d="m56 110.6-.12.562c-.21-.04-.41-.091-.61-.142-.24-.05-.48-.108-.71-.158-6.06-1.512-8.41-3.592-8.41-3.592l-.04-.028c.25-.28.49-.57.74-.841l.01.011s1.06.858 2.43.149c1.36-.699 2.63-3.131 4.65-2.471 2.02.65-1.27 5.86 1.82 6.471.08.019.16.029.24.039z"/><path fill="#CE1300" d="m55.27 111.02-.02.092s-1.51 3.09-2.78 8.14c-1.16 4.681-1.3 8.58-1.31 9.14l-13.7-.01v-.02s7.88-2.08 17.09-17.45l.01-.05c.23.048.47.108.71.158z"/><path fill="#CE1300" d="m54.56 110.859-.01.051c-9.21 15.37-17.09 17.449-17.09 17.449v.021h-1.82c.05-.63.44-4.93 3.33-10.39 1.93-3.641 4.46-7.54 7.14-10.75l.04.029c0 .001 2.35 2.081 8.41 3.59z"/><g fill="none" stroke="#000" stroke-width=".5" stroke-miterlimit="10"><path d="M35.62 128.38h1.84l13.7.011h12.69l13.371.009 20.529.01M52.32 72.97s.06-.02.16-.05c.75-.23 3.99-1.33 6.06-3.67 2.35-2.65 2.43-3.41 2.43-3.41s-.23-3.95 1.13-6.07c0 0-4.54.22-7.38 4.42-.1.14-.19.28-.28.43-1.29 2.14-1.91 4.98-1.96 8.3-.01.61 0 1.24.02 1.89.15 3.41.81 7.23 1.87 11.28.98 3.74 2.86 6.91 5.21 8.77 3.25 2.59 7.39 2.69 11.279-1.59.041-.04.08-.09.121-.13M67.54 108.38c.1-.97.3-1.938.59-2.87.25-.859.57-1.68.94-2.449.47-.99 1.02-1.891 1.622-2.641.619-.79 1.289-1.42 1.959-1.82 2.419-1.44 2.949-2.65 2.949-2.65"/><path d="M62.1 59.77s3.72-1.06 11.31 6.14c7.58 7.21 12.96 16.46 12.96 22.91 0 3.31-.38 6.16-1.38 8.831-.602 1.619-1.432 3.181-2.53 4.74-.63.879-1.34 1.76-2.16 2.659-.239.271-.479.53-.72.78-1.59 1.729-2.98 3.141-4.12 4.3a61.87 61.87 0 0 0-1.75 1.83c-.89.96-1.489 1.71-1.75 2.34-.681 1.671-.681 2.2-.681 2.2s-2.089-1.63-3.169-4.17c-.43-1.01-.71-2.16-.62-3.41.01-.18.03-.35.05-.529"/><path d="M70.6 100.35s-.16-.959-.18-2.43c-.03-1.27.06-2.92.439-4.65.131-.59.291-1.2.5-1.8.58-1.69 1.601-2.979 2.761-4.14 1.86-1.84 4.101-3.31 5.5-5.41M74.09 87.3s-3.55-7.39.561-14.12c.021-.02.029-.04.041-.06"/><path d="M60.97 65.84s6.99 7.96 13.68 7.34c.779-.07 1.56-.26 2.318-.59M59.68 65.69s-2.13 2.73-5.69 4.47M59.83 63.64s-1.9 1.67-3.79 2.8M60.21 62.12s-1.75.68-2.5 1.22"/><path d="M62.1 65.38s6.6 6.07 13.73 6.07M62.48 63.72s7.82 5 11.23 5.23M62.94 61.89s5.31 2.73 8.041 4.02M59.84 74.99c.03 0 .05.01.08.01"/><path d="M59.84 74.99c-.26-.56-.47-.88-.47-.88s-1.97-.23-3.79.52c-1.82.76-2.05 1.14-2.05 1.14s3.15-1.29 6.31-.78zM62.64 86.47s-.69 0-1.9-.689c-1.21-.68-.46-2.04 0-5.46.3-2.25-.4-4.24-.9-5.33M63.77 74.94l-.6-1.29s2.04-.38 5.76.3c3.72.68 3.87 1.06 3.87 1.06s-6.3-1.21-9.03-.07zM54.67 77.14s1.59-.76 3.79.3M65.06 76.76s2.5-.68 4.86.23M55.81 79.56s.98.08 1.59-.07M66.2 79.41c.23-.07 1.74 0 2.35-.07"/><path d="M55.43 76.99s-.38 1.97 1.14 1.89c1.51-.07.83-1.74.83-1.74M65.82 76.68s-.15 1.98 1.44 1.9c1.59-.08.91-1.9.91-1.9M60.06 89.48s.91.15 1.56.25c.66.1 1.07-.05 2.13-.25l1.06-.21M61.52 91.19s.96-.05 1.62-.05M61.42 88.41s.41.15.76 0M52.47 74.81s-2.53 5.31-3.08 9.46c-.77 5.69 1 13.14 4.37 16.2l.03.03"/><path d="M52.22 80.27c-.15.05-2.73 9.05 1.26 16.64"/><path d="M52.98 84.42c-.1.15-.46 7.79 2.83 12.59M54.75 90.28s1.21 3.64 3.08 5.97M77.55 72.99c0 .15-.2 3.14-2.479 5.77M78.859 75.07s.711 3.13-2.721 7.88M82.05 80.58c-.05.2-.25 3.99-4.85 7.78M83.32 82.95c-.062.15-.66 6.02-6.23 9.91M83.57 89.63s-2.182 9.4-10.721 13.9M83.16 96.2c-.051.149-4.7 7.53-8.04 10.569M59.55 94.89s.2 1.799-.19 2.81c-.01.01-.01.01-.01.02"/><path d="M70.32 97.92s-2.73 1.061-6.42.86c-2.43-.13-3.85-.7-4.54-1.08-.36-.2-.52-.341-.52-.341s-1.96 1.021-4.92 3.011c-.05.03-.1.06-.16.1-.52.351-1.07.73-1.64 1.142-.3.209-.6.43-.91.658-1.45 1.062-2.93 2.49-4.36 4.131-.25.271-.49.561-.74.841-2.68 3.21-5.21 7.108-7.14 10.75-2.89 5.46-3.28 9.76-3.33 10.39v.08M85.029 97.67s.641.57 1.641 1.8c.12.142.25.3.38.472.771.97 1.7 2.25 2.69 3.89 1.42 2.31 2.99 5.319 4.439 9.101 3.891 10.109 3.649 14.92 3.6 15.479v.05"/><path d="M46.15 107.27s2.35 2.08 8.41 3.592c.23.05.47.108.71.158.2.051.4.102.61.142.68.149 1.39.28 2.16.409.36.061.73.121 1.11.171.21.028.43.06.66.09.41.06.83.11 1.27.149 1.32.149 2.75.261 4.29.33.13.01.26.01.4.01.72.041 1.46.051 2.22.061M73.66 111.97s.02 0 .05-.01c.75-.149 9.819-2.03 16.03-8.13"/><path d="M46.86 106.41s1.06.859 2.43.148c1.36-.699 2.63-3.129 4.65-2.47 2.02.65-1.27 5.86 1.82 6.47.08.021.16.03.24.041 2.83.289 2.61-4.74 5.02-4.591 2.47.15.81 5.511 3.49 5.61 2.59.1 3-3.021 3.03-3.23v-.01M75.38 110.1s.03.021.08.03c.29.13 1.33.47 2.44-.43 1.318-1.062 1.52-3.49 1.72-3.841M82.5 102.42s1.42 1.311 2.48 2.32c1.06 1.01 2.778.56 2.938-1.061.14-1.529-.93-2.91-.87-3.74a.349.349 0 0 1 .01-.149M52.07 101.561l.05.051c.13.119.51.47 1.24.898.61.37 1.48.801 2.64 1.21.41.15.85.3 1.33.431.43.131.88.25 1.37.359.48.11.98.221 1.52.311.54.101 1.1.189 1.7.271.55.08 1.12.142 1.73.2.5.04 1.02.08 1.56.109.91.061 1.87.091 2.89.101M53.94 100.4s.34.199 1.02.488c.54.24 1.3.53 2.28.83a27.678 27.678 0 0 0 2.42.602c.45.09.92.18 1.42.26.46.08.95.14 1.46.2a35.132 35.132 0 0 0 3.08.239c1.06.051 2.19.051 3.39.011M67.34 103.13l-.31 2.27M65.62 103.03l-.41 2.37"/><path d="M64.15 102.92v.019l-.5 2.351v.01M62.53 102.82l-.6 2.23M61.07 102.62l-.85 2.2-.01.03M59.65 102.37l-.95 2.14-.01.03M58.39 102.01l-.01.02-1.05 2.111M57.23 101.76l-1.22 1.92M56.01 101.359l-1.26 1.771M55 100.85l-.04.041-1.58 1.579M37.46 128.359s7.88-2.079 17.09-17.449M77.35 128.46s-.05-.021-.129-.06c-1.041-.5-8.041-4.24-11.451-16.021M65.37 112.33s-.76 2.07-1.37 7.779c-.58 5.421-.2 8.021-.15 8.279v.021M55.25 111.109s-1.51 3.091-2.78 8.141c-1.16 4.68-1.3 8.58-1.31 9.141v.069M59.15 111.77s-.76 2.28-1.98 8.5c-1.08 5.551-1.24 7.711-1.26 8.121v.069M59.8 111.92s-1.26 4.25-2.17 9.561c-.8 4.699-1.02 6.551-1.05 6.91-.01.051-.01.069-.01.069M54.15 125.88c.25.812.22 1.95-.48 2.511a.492.492 0 0 1-.09.069M54.15 125.88c-.2.14-.42.2-.62.2-.75 0-.86-1.11-.1-1.11.29 0 .56.38.72.91zM54.59 122.72c.1.15.19.36.26.63.33 1.342-.13 2.19-.7 2.53M54.59 122.72c-.33.37-.71.421-1.01.23-.47-.309.45-1.12 1.01-.23z"/><path d="M55.23 119.811c.1.26.14.601.07 1.061-.14.93-.41 1.52-.71 1.85M55.23 119.811c-.46.51-.98.399-1.14-.101-.19-.58.81-.75 1.14.101zM55.85 117.46c.1.26.12.601.01 1.04-.16.62-.38 1.05-.63 1.311M55.85 117.46c-.48.55-1.05.45-1.15-.13-.11-.65.87-.689 1.15.13zM56.43 114.72c.11.38.13.88-.01 1.5-.13.57-.34.98-.57 1.24M56.43 114.72c-.96.562-1.49-.25-1.03-.67.33-.3.84-.04 1.03.67z"/><path d="M57.26 112.79c.15.56.04 1.271-.59 1.76-.08.07-.16.12-.24.17M57.26 112.79c-.14.08-.3.13-.49.14-1.01.062-.81-1.109-.15-.96.29.07.54.4.64.82zM58.03 111.62s-.17.83-.77 1.17M58.82 127.43c-.18.19-.34.5-.47.961-.01.01-.01.01-.01.021M58.82 127.43c.29.67.82.48 1.03.271.24-.241-.45-.881-1.03-.271zM59.11 124.891c-.27.239-.47.649-.47 1.289 0 .59.07.99.18 1.25M59.11 124.891c.3.68.96.539 1.25.129.28-.39-.65-.67-1.25-.129zM59.4 122.12c-.25.34-.43.86-.46 1.688-.01.49.05.842.17 1.08M59.4 122.12c.17.2.38.33.61.37.96.148 1.01-1.061.4-.96-.33.05-.73.18-1.01.59zM60.23 118.71c-.19.08-.38.22-.58.44-.92 1.039-.79 2.34-.25 2.97M60.23 118.71c.17.55.51.87.89.851.63-.041.03-1.25-.89-.851zM60.7 115.95c-.13.159-.24.37-.34.63-.31.83-.3 1.59-.13 2.13M60.7 115.95c.35.53.94.63 1.23.22.38-.561-.56-1.07-1.23-.22z"/><path d="M61.27 113.01c-.36.25-.68.7-.81 1.54-.09.61.03 1.091.24 1.4M61.27 113.01c.14.33.39.631.81.631.96 0 .71-1.011.15-.961-.27.02-.63.09-.96.33zM61.07 112.08s.02.49.2.93M86.65 99.59s.01-.04.02-.12c.18-.81 1.29-5.53 3.88-9.85.13-.22.261-.44.4-.65 3.13-4.91 6.979-7.84 6.979-7.84s-4.811-4.8-5.561-13.9c-.76-9.1.96-16.64.96-16.64s-6.12 2.79-14.771 1.52C69.92 50.85 68.1 47.46 68.1 47.46s-2.58 3.54-6.68 4.7c-.04.01-.09.02-.13.04-3.99 1.11-5.18.47-5.18.47l-.66 5.48-.25 2.07-.48 3.97-.02.16"/><path d="M81.5 66.01a37.983 37.983 0 0 1 3.439 4.75c.189.31.369.61.551.92a46.911 46.911 0 0 1 2.27 4.57c2.09 4.93 2.682 8.99 2.771 11.46.02.8 0 1.43-.04 1.87M55.15 60.35s.01-.05.05-.13c.25-.66 1.78-3.65 8.29-4.37.17-.02.34-.03.51-.05 1.34-.07 2.75.14 4.2.57 1.22.37 2.47.91 3.71 1.58.24.13.47.26.699.4 1.391.81 2.771 1.79 4.101 2.9.28.23.55.46.819.7a38.524 38.524 0 0 1 3.791 3.86"/><path d="m81.24 62.27-.01.01c-.062.17-.86 2.28.09 3.53.06.07.119.14.18.2 1.26 1.27 3.68.97 3.68.97s-1.16 2.33-.229 3.77c.04.06.08.11.13.17 1.17 1.42 3.34 1.67 3.34 1.67s-1.188 2.04-.601 3.63c.041.1.091.21.15.31.909 1.62 2.879 2.02 2.879 2.02s-1.52 1.93-1.01 3.75c.5 1.82 2.32 2.47 2.32 2.47s-1.51 1.22-1.62 2.94M55.4 58.13s.02.01.05.02c.17.09.74.3 1.37-.12.76-.51 1.06-2.43 1.06-2.43s.86 1.36 2.08.91c1.21-.45 1.66-2.58 1.66-2.58s1.04 1.83 2.38 1.83c.05 0 .1 0 .15-.01 1.42-.15 2.68-2.27 2.68-2.27s0 2.47 1.37 2.88c1.36.4 3.438-1.32 3.438-1.32s-.648 2 .271 2.91c.1.11.229.21.38.28.101.05.21.09.319.12 1.511.41 3.881-.73 3.881-.73s-.87 2.19.22 3.63c.08.11.17.21.28.31.17.16.35.29.539.39 1.471.84 3.521.37 3.701.33M57.83 54.44c.04.26-.04.5-.18.52s-.28-.18-.32-.45c-.04-.26.04-.5.18-.52.14-.02.28.18.32.45zM61.39 52.56c.03-.03.07-.04.1-.04.14 0 .26.21.26.48.01.27-.1.5-.24.5-.14 0-.26-.22-.27-.49 0-.2.06-.38.15-.45zM67.44 52.08c-.05.26-.2.46-.34.43-.14-.02-.21-.26-.16-.52.04-.271.19-.47.33-.44.14.02.21.26.17.53zM72.85 53.73c-.119.24-.31.39-.438.33s-.142-.3-.021-.55c.109-.24.311-.39.439-.33.12.06.13.3.02.55z"/><ellipse transform="rotate(-50.662 77.549 56.456)" cx="77.555" cy="56.456" rx=".487" ry=".253"/><path d="M82.5 61.46c-.189.19-.42.26-.52.16-.102-.1-.021-.33.17-.52.188-.19.43-.26.529-.16s.021.34-.179.52zM86.48 66.29c-.201.19-.432.26-.53.16-.101-.11-.021-.34.17-.53.2-.19.43-.26.53-.16.1.1.02.34-.17.53zM89.83 72.08c-.221.15-.46.18-.54.07-.08-.12.03-.34.25-.49.22-.16.47-.19.55-.07.08.11-.029.33-.26.49zM92.13 78.3c-.239.12-.489.12-.55-.01-.07-.12.08-.32.32-.44.238-.12.488-.12.55.01.07.13-.08.32-.32.44zM93.35 84.56c-.238.12-.488.12-.55-.01-.06-.13.08-.33.33-.45.24-.12.49-.11.55.02.06.12-.08.32-.33.44z"/></g></g><path fill="none" stroke="#000" stroke-miterlimit="10" d="M134 171.32c0 6.762-5.623 12.244-12.56 12.244H17.298c-6.936 0-12.56-5.482-12.56-12.244V16.994c0-6.762 5.624-12.244 12.56-12.244H121.44c6.937 0 12.56 5.482 12.56 12.244V171.32z"/></svg>