<?xml version="1.0" encoding="utf-8"?>
<!-- Generator: Adobe Illustrator 16.0.0, SVG Export Plug-In . SVG Version: 6.00 Build 0)  -->
<!DOCTYPE svg PUBLIC "-//W3C//DTD SVG 1.1//EN" "http://www.w3.org/Graphics/SVG/1.1/DTD/svg11.dtd">
<svg version="1.1"
	 id="svg2" xmlns:dc="http://purl.org/dc/elements/1.1/" xmlns:cc="http://web.resource.org/cc/" xmlns:rdf="http://www.w3.org/1999/02/22-rdf-syntax-ns#" xmlns:svg="http://www.w3.org/2000/svg" xmlns:sodipodi="http://inkscape.sourceforge.net/DTD/sodipodi-0.dtd" xmlns:inkscape="http://www.inkscape.org/namespaces/inkscape" sodipodi:docbase="/home/nicu/Desktop/card_nicu_buculei_01.zip_FILES/cards/white" sodipodi:docname="white_s_10.svg" inkscape:version="0.41+cvs" sodipodi:version="0.32"
	 xmlns="http://www.w3.org/2000/svg" xmlns:xlink="http://www.w3.org/1999/xlink" x="0px" y="0px" width="140px" height="190px"
	 viewBox="0 0 140 190" enable-background="new 0 0 140 190" xml:space="preserve">
<sodipodi:namedview  inkscape:cx="70.000000" inkscape:cy="94.999969" inkscape:zoom="1.0000000" borderopacity="1.0" bordercolor="#666666" pagecolor="#ffffff" id="base" inkscape:window-x="0" inkscape:pageshadow="2" inkscape:pageopacity="0.0" inkscape:window-height="791" inkscape:current-layer="svg2" inkscape:window-y="26" inkscape:window-width="1152">
	</sodipodi:namedview>
<g id="layer1" inkscape:label="Layer 1" inkscape:groupmode="layer">
	<g id="g5630">
		<path id="rect2070" fill-opacity="0.498" d="M21,5h103c8.864,0,16,7.136,16,16v153c0,8.864-7.136,16-16,16H21
			c-8.864,0-16-7.136-16-16V21C5,12.136,12.136,5,21,5z"/>
		<path id="rect1300" fill="#E7E7E7" d="M17,1h103c8.864,0,16,7.136,16,16v153c0,8.864-7.136,16-16,16H17c-8.864,0-16-7.136-16-16
			V17C1,8.136,8.136,1,17,1z"/>
		<path id="path5624" fill="#C7891F" d="M19,3h103c8.864,0,16,7.136,16,16v153c0,8.864-7.136,16-16,16H19c-8.864,0-16-7.136-16-16
			V19C3,10.136,10.136,3,19,3z"/>
		<path id="rect1306" fill="#FFFFFF" d="M18,2h103c8.864,0,16,7.136,16,16v153c0,8.864-7.136,16-16,16H18c-8.864,0-16-7.136-16-16
			V18C2,9.136,9.136,2,18,2z"/>
	</g>
	<g id="g5495" transform="translate(-448.5000,-231.5000)" inkscape:label="Layer 1" inkscape:groupmode="layer">
	</g>
</g>
<g id="g1600" transform="matrix(1.000012,0.000000,0.000000,0.400814,-239.5372,-11.05171)">
	<path id="path1561" sodipodi:nodetypes="cccccccccc" stroke="#000000" stroke-width="0.7589" stroke-linejoin="round" d="
		M260.176,149.598c-4.836,19.241-19.676,52.006-10.275,62.122c5.706,4.656,8.422-4.877,9.572-11.187h0.23l-3.79,31.836l8.778-0.094
		c0,0-3.781-30.603-3.79-31.774h0.092c0.929,5.157,4.454,15.833,8.332,11.767C280.665,200.872,263.968,168.439,260.176,149.598z"/>
</g>
<path id="path1698" d="M11.677,42.368v-23.59L6.44,18.709l0.252-3.623l4.955-3.089h5.492v30.37 M30.573,27.146
	c0-3.751-0.265-6.39-0.795-7.917c-0.52-1.541-1.4-2.311-2.641-2.311c-1.24,0-2.125,0.77-2.656,2.311
	c-0.53,1.527-0.795,4.166-0.795,7.917c0,3.791,0.265,6.463,0.795,8.017c0.53,1.554,1.416,2.331,2.656,2.331
	c1.23,0,2.111-0.777,2.641-2.331C30.308,33.61,30.573,30.938,30.573,27.146 M36.35,27.207c0,4.97-0.8,8.808-2.401,11.514
	c-1.601,2.693-3.872,4.039-6.813,4.039c-2.951,0-5.227-1.346-6.828-4.039c-1.601-2.706-2.401-6.543-2.401-11.514
	c0-4.983,0.8-8.821,2.401-11.513c1.601-2.706,3.876-4.059,6.828-4.059c2.941,0,5.212,1.353,6.813,4.059
	C35.55,18.386,36.35,22.224,36.35,27.207"/>
<g id="g4479" transform="matrix(-1.000012,0.000000,0.000000,-0.400814,378.4156,199.7204)">
	<path id="path4481" sodipodi:nodetypes="cccccccccc" stroke="#000000" stroke-width="0.7589" stroke-linejoin="round" d="
		M260.176,149.597c-4.836,19.241-19.676,52.006-10.275,62.122c5.707,4.656,8.422-4.875,9.572-11.186h0.23l-3.789,31.835l8.777-0.093
		c0,0-3.781-30.602-3.79-31.774h0.093c0.929,5.158,4.453,15.832,8.332,11.766C280.665,200.87,263.968,168.441,260.176,149.597z"/>
</g>
<path id="path4483" d="M127.201,146.465v23.59l5.237,0.069l-0.253,3.622l-4.954,3.089h-5.492v-30.37 M108.306,161.688
	c0,3.75,0.265,6.389,0.796,7.916c0.52,1.541,1.4,2.311,2.641,2.311s2.125-0.77,2.656-2.311c0.529-1.527,0.795-4.166,0.795-7.916
	c0-3.791-0.266-6.464-0.795-8.018c-0.531-1.555-1.416-2.331-2.656-2.331c-1.23,0-2.111,0.776-2.641,2.331
	C108.57,155.224,108.306,157.896,108.306,161.688 M102.528,161.627c0-4.971,0.8-8.809,2.401-11.514
	c1.6-2.693,3.871-4.039,6.813-4.039c2.951,0,5.227,1.346,6.828,4.039c1.6,2.705,2.4,6.543,2.4,11.514c0,4.982-0.801,8.82-2.4,11.514
	c-1.602,2.705-3.877,4.059-6.828,4.059c-2.941,0-5.213-1.354-6.813-4.059C103.328,170.447,102.528,166.609,102.528,161.627"/>
<g id="g1720" transform="matrix(0.593136,0.000000,0.000000,0.238935,-105.4057,0.481054)">
	<path id="path1722" sodipodi:nodetypes="cccccccccc" d="M260.176,149.597c-4.836,19.24-19.676,52.007-10.275,62.123
		c5.707,4.657,8.422-4.876,9.572-11.187h0.23l-3.789,31.835l8.777-0.094c0,0-3.781-30.603-3.789-31.773h0.092
		c0.929,5.158,4.454,15.833,8.332,11.767C280.665,200.871,263.968,168.439,260.176,149.597z"/>
</g>
<g id="g1729" transform="matrix(0.593136,0.000000,0.000000,0.238935,-85.42532,14.58485)">
	<path id="path1731" sodipodi:nodetypes="cccccccccc" d="M260.176,149.599c-4.836,19.24-19.676,52.005-10.275,62.121
		c5.707,4.657,8.422-4.876,9.572-11.187h0.231l-3.789,31.837l8.776-0.094c0,0-3.78-30.603-3.788-31.773h0.091
		c0.929,5.156,4.454,15.832,8.333,11.767C280.664,200.872,263.968,168.44,260.176,149.599z"/>
</g>
<g id="g1733" transform="matrix(0.593136,0.000000,0.000000,0.238935,-64.26963,0.398840)">
	<path id="path1735" sodipodi:nodetypes="cccccccccc" d="M260.177,149.599c-4.837,19.24-19.677,52.005-10.277,62.123
		c5.707,4.655,8.423-4.876,9.572-11.189h0.231l-3.788,31.837l8.777-0.094c0,0-3.78-30.603-3.79-31.773h0.092
		c0.929,5.158,4.455,15.833,8.333,11.767C280.665,200.872,263.967,168.44,260.177,149.599z"/>
</g>
<g id="g1737" transform="matrix(0.593136,0.000000,0.000000,0.238935,-105.9338,35.65834)">
	<path id="path1739" sodipodi:nodetypes="cccccccccc" d="M260.176,149.598c-4.836,19.24-19.677,52.007-10.275,62.123
		c5.707,4.657,8.422-4.876,9.572-11.187h0.231l-3.79,31.835l8.778-0.094c0,0-3.781-30.602-3.79-31.773h0.092
		c0.929,5.158,4.454,15.834,8.332,11.769C280.665,200.871,263.968,168.44,260.176,149.598z"/>
</g>
<g id="g1741" transform="matrix(0.593136,0.000000,0.000000,0.238935,-65.97313,34.48302)">
	<path id="path1743" sodipodi:nodetypes="cccccccccc" d="M260.176,149.598c-4.836,19.24-19.677,52.007-10.275,62.123
		c5.707,4.657,8.423-4.876,9.572-11.187h0.231l-3.79,31.835l8.779-0.094c0,0-3.782-30.603-3.79-31.773h0.092
		c0.929,5.158,4.454,15.833,8.331,11.767C280.666,200.872,263.968,168.44,260.176,149.598z"/>
</g>
<g id="g1745" transform="matrix(-0.593136,0.000000,0.000000,-0.238935,202.5319,155.1307)">
	<path id="path1747" sodipodi:nodetypes="cccccccccc" d="M260.176,149.596c-4.836,19.242-19.677,52.005-10.275,62.125
		c5.707,4.655,8.422-4.88,9.572-11.191h0.231l-3.79,31.839l8.778-0.098c0,0-3.781-30.6-3.79-31.773h0.092
		c0.929,5.158,4.454,15.834,8.332,11.771C280.666,200.869,263.968,168.438,260.176,149.596z"/>
</g>
<g id="g1749" transform="matrix(-0.593136,0.000000,0.000000,-0.238935,244.1962,155.2129)">
	<path id="path1751" sodipodi:nodetypes="cccccccccc" d="M260.175,149.597c-4.836,19.242-19.675,52.005-10.274,62.125
		c5.707,4.651,8.422-4.88,9.572-11.191h0.231l-3.79,31.839l8.777-0.098c0,0-3.782-30.6-3.788-31.773h0.092
		c0.929,5.158,4.452,15.833,8.331,11.771C280.665,200.87,263.969,168.438,260.175,149.597z"/>
</g>
<g id="g1753" transform="matrix(-0.593136,0.000000,0.000000,-0.238935,223.0405,172.7605)">
	<path id="path1755" sodipodi:nodetypes="cccccccccc" d="M260.176,149.596c-4.837,19.242-19.675,52.009-10.274,62.12
		c5.707,4.659,8.421-4.872,9.571-11.182h0.23l-3.788,31.831l8.776-0.09c0,0-3.781-30.604-3.789-31.773h0.092
		c0.929,5.158,4.454,15.834,8.332,11.767C280.665,200.869,263.968,168.437,260.176,149.596z"/>
</g>
<g id="g1757" transform="matrix(-0.593136,0.000000,0.000000,-0.238935,244.8433,185.7711)">
	<path id="path1759" sodipodi:nodetypes="cccccccccc" d="M260.176,149.595c-4.837,19.242-19.675,52.005-10.275,62.125
		c5.707,4.655,8.422-4.876,9.572-11.191h0.23l-3.788,31.839l8.776-0.094c0,0-3.78-30.6-3.788-31.773h0.091
		c0.93,5.154,4.455,15.833,8.334,11.767C280.665,200.872,263.968,168.437,260.176,149.595z"/>
</g>
<g id="g1761" transform="matrix(-0.593136,0.000000,0.000000,-0.238935,203.7073,185.7711)">
	<path id="path1763" sodipodi:nodetypes="cccccccccc" d="M260.176,149.595c-4.836,19.242-19.676,52.005-10.275,62.125
		c5.707,4.655,8.422-4.876,9.572-11.191h0.231l-3.79,31.839l8.778-0.094c0,0-3.782-30.6-3.79-31.773h0.092
		c0.929,5.154,4.454,15.833,8.332,11.767C280.665,200.872,263.968,168.437,260.176,149.595z"/>
</g>
<path fill="none" stroke="#000000" stroke-miterlimit="10" d="M134.25,171.571c0,6.762-5.623,12.244-12.56,12.244H17.548
	c-6.936,0-12.56-5.482-12.56-12.244V17.244C4.988,10.482,10.612,5,17.548,5H121.69c6.937,0,12.56,5.482,12.56,12.244V171.571z"/>
</svg>
